<svg width="781" height="788" viewBox="0 0 781 788" fill="none" xmlns="http://www.w3.org/2000/svg">
<path opacity="0.1" d="M236.83 269H181.39C180.55 269 179.718 269.166 178.942 269.487C178.166 269.809 177.462 270.281 176.868 270.875C176.275 271.47 175.804 272.175 175.484 272.952C175.163 273.728 174.999 274.56 175 275.4V313.8C175 315.496 175.673 317.122 176.871 318.322C178.069 319.522 179.694 320.197 181.39 320.2H236.83C238.527 320.197 240.153 319.522 241.353 318.323C242.552 317.123 243.227 315.497 243.23 313.8V275.41C243.231 274.569 243.067 273.735 242.746 272.958C242.425 272.18 241.953 271.473 241.359 270.878C240.765 270.283 240.059 269.81 239.281 269.488C238.504 269.166 237.671 269 236.83 269ZM236.83 275.4V280.84C233.83 283.27 229.07 287.06 218.89 295.03C216.64 296.8 212.2 301.03 209.1 301.03C206 301.03 201.56 296.84 199.32 295.03C189.13 287.03 184.32 283.27 181.37 280.84V275.4H236.83ZM181.39 313.8V289.06C184.45 291.49 188.78 294.9 195.39 300.06C198.31 302.36 203.39 307.42 209.13 307.39C214.87 307.36 219.86 302.39 222.87 300.07C229.47 294.9 233.8 291.48 236.87 289.07V313.8H181.39Z" fill="#00308F"/>
<path d="M299.82 388H244.4C242.703 388.003 241.077 388.678 239.877 389.878C238.678 391.077 238.003 392.704 238 394.4V432.79C238.003 434.487 238.678 436.113 239.877 437.313C241.077 438.512 242.703 439.187 244.4 439.19H299.86C301.556 439.187 303.181 438.512 304.379 437.312C305.577 436.112 306.25 434.486 306.25 432.79V394.4C306.25 393.557 306.083 392.722 305.76 391.944C305.436 391.165 304.962 390.459 304.365 389.864C303.767 389.269 303.058 388.798 302.278 388.479C301.498 388.159 300.663 387.996 299.82 388ZM299.82 394.4V399.84C296.82 402.27 292.06 406.06 281.88 414.03C279.63 415.8 275.18 420.03 272.09 420.03C269 420.03 264.55 415.84 262.3 414.03C252.12 406.06 247.4 402.31 244.4 399.84V394.4H299.82ZM244.4 432.79V408.05C247.46 410.48 251.79 413.9 258.4 419.05C261.31 421.34 266.4 426.4 272.14 426.37C277.88 426.34 282.87 421.37 285.88 419.05C292.48 413.88 296.81 410.46 299.88 408.05V432.79H244.4Z" fill="#BDFFFD"/>
<path opacity="0.2" d="M457.83 96H402.39C401.55 96 400.718 96.1656 399.942 96.4874C399.166 96.8091 398.462 97.2807 397.868 97.8751C397.275 98.4695 396.804 99.1752 396.484 99.9516C396.163 100.728 395.999 101.56 396 102.4V140.79C396 142.486 396.673 144.112 397.871 145.312C399.069 146.512 400.694 147.187 402.39 147.19H457.83C459.527 147.187 461.153 146.512 462.353 145.313C463.552 144.113 464.227 142.487 464.23 140.79V102.4C464.23 100.703 463.556 99.0747 462.356 97.8745C461.155 96.6743 459.527 96 457.83 96ZM457.83 102.4V107.84C454.83 110.27 450.07 114.05 439.89 122.03C437.64 123.8 433.2 128.03 430.1 128.03C427 128.03 422.56 123.84 420.32 122.03C410.13 114.03 405.32 110.27 402.32 107.84V102.4H457.83ZM402.37 140.79V116.05C405.43 118.48 409.76 121.89 416.37 127.05C419.29 129.35 424.37 134.41 430.11 134.38C435.85 134.35 440.84 129.38 443.85 127.05C450.45 121.88 454.78 118.47 457.85 116.05V140.79H402.37Z" fill="#00308F"/>
<path d="M633 291.4V329.79C633 331.487 633.674 333.115 634.875 334.315C636.075 335.516 637.703 336.19 639.4 336.19H694.85C696.547 336.187 698.173 335.512 699.373 334.313C700.572 333.113 701.247 331.487 701.25 329.79V291.4C701.247 289.703 700.572 288.077 699.373 286.877C698.173 285.678 696.547 285.003 694.85 285H639.4C638.56 285 637.727 285.166 636.951 285.487C636.174 285.809 635.469 286.28 634.875 286.875C634.28 287.469 633.809 288.174 633.487 288.951C633.166 289.727 633 290.56 633 291.4ZM694.85 291.4V296.84C691.85 299.27 687.09 303.06 676.91 311.03C674.67 312.8 670.22 317.03 667.12 317.03C664.02 317.03 659.58 312.84 657.34 311.03C647.15 303.03 642.39 299.27 639.4 296.84V291.4H694.85ZM639.4 329.79V305.07C642.4 307.5 646.78 310.92 653.4 316.07C656.4 318.43 661.4 323.42 667.13 323.39C672.86 323.36 677.96 318.39 680.87 316.07C687.47 310.9 691.81 307.48 694.87 305.07V329.81L639.4 329.79Z" fill="#BDFFFD"/>
<path opacity="0.2" d="M522 418.4V456.79C522 458.487 522.674 460.115 523.875 461.315C525.075 462.516 526.703 463.19 528.4 463.19H583.85C585.547 463.187 587.173 462.512 588.373 461.313C589.572 460.113 590.247 458.487 590.25 456.79V418.4C590.247 416.703 589.572 415.077 588.373 413.877C587.173 412.678 585.547 412.003 583.85 412H528.4C526.703 412 525.075 412.674 523.875 413.875C522.674 415.075 522 416.703 522 418.4ZM583.85 418.4V423.84C580.85 426.27 576.09 430.06 565.91 438.03C563.66 439.8 559.22 444.03 556.12 444.03C553.02 444.03 548.58 439.84 546.34 438.03C536.15 430.03 531.34 426.27 528.4 423.84V418.4H583.85ZM528.4 456.79V432.05C531.45 434.48 535.78 437.9 542.4 443.05C545.4 445.41 550.4 450.4 556.13 450.37C561.86 450.34 566.96 445.37 569.87 443.05C576.47 437.88 580.8 434.46 583.87 432.05V456.79H528.4Z" fill="#00308F"/>
<rect x="96.5" y="82.5" width="27" height="27" stroke="#5D5A55"/>
<path d="M604.84 194.902C620.661 194.902 628 186.43 628 175.069C628 155.237 611.976 141 592.093 141C582.52 141 573.34 144.793 566.571 151.544C559.803 158.295 556 167.452 556 177C556 186.548 559.803 195.705 566.571 202.456C573.34 209.207 582.52 213 592.093 213C599.436 212.924 606.576 210.578 612.526 206.285C612.822 206.077 613.074 205.813 613.267 205.507C613.459 205.202 613.589 204.861 613.648 204.505C613.707 204.205 613.687 203.895 613.591 203.605C613.495 203.315 613.325 203.054 613.098 202.849C612.862 202.644 612.586 202.491 612.287 202.399C611.988 202.308 611.673 202.279 611.362 202.316C611.051 202.353 610.752 202.454 610.483 202.614C610.214 202.773 609.981 202.986 609.799 203.24C608.487 204.964 604.559 207.874 592.968 208.143C588.79 208.26 584.631 207.546 580.734 206.04C576.837 204.535 573.28 202.269 570.272 199.376C567.264 196.483 564.864 193.02 563.214 189.19C561.564 185.361 560.697 181.241 560.662 177.073C560.606 159.702 574.913 145.981 592.081 145.734C609.25 145.488 623.22 157.71 623.22 174.689C623.22 185.467 615.691 190.47 606.624 190.28C603.729 190.47 603.145 189.317 603.538 185.277C603.852 181.919 607.039 168.119 608.161 163.284C608.269 162.879 608.279 162.454 608.192 162.044C608.105 161.634 607.923 161.25 607.659 160.924C607.396 160.597 607.06 160.336 606.677 160.163C606.295 159.99 605.877 159.909 605.457 159.926H605.266C604.67 159.998 604.116 160.267 603.692 160.692C603.269 161.116 603.001 161.671 602.932 162.265C602.831 163.045 602.774 163.83 602.764 164.616C601.713 162.717 600.177 161.13 598.313 160.014C596.449 158.897 594.323 158.292 592.149 158.258C581.915 158.449 573.073 167.694 572.658 181.169C572.658 190.212 577.483 195.417 585.786 195.417C588.232 195.363 590.629 194.725 592.777 193.557C594.924 192.388 596.76 190.723 598.13 188.702C598.13 188.702 597.894 194.51 604.84 194.902ZM586.505 190.862C581.298 190.862 578.201 187.011 578.201 180.856C578.201 170.268 585.338 163.53 592.093 163.53C598.073 163.53 600.396 167.57 600.587 172.965C600.598 181.617 594.999 190.85 586.505 190.85V190.862Z" fill="#C7D1E4"/>
<path d="M421.525 493.16C435.625 493.16 442.165 485.59 442.165 475.44C442.165 457.72 427.885 445 410.165 445C401.634 445 393.453 448.389 387.421 454.421C381.389 460.453 378 468.634 378 477.165C378 485.696 381.389 493.877 387.421 499.909C393.453 505.941 401.634 509.33 410.165 509.33C416.71 509.262 423.072 507.166 428.375 503.33C428.639 503.145 428.863 502.909 429.035 502.636C429.207 502.363 429.322 502.058 429.375 501.74C429.427 501.472 429.41 501.195 429.324 500.936C429.238 500.677 429.087 500.444 428.885 500.26C428.674 500.077 428.428 499.941 428.162 499.859C427.895 499.777 427.614 499.751 427.338 499.784C427.061 499.817 426.794 499.908 426.554 500.05C426.314 500.192 426.107 500.383 425.945 500.61C424.775 502.15 421.275 504.75 410.945 504.99C407.222 505.095 403.516 504.457 400.043 503.112C396.57 501.767 393.4 499.743 390.719 497.157C388.038 494.572 385.9 491.478 384.429 488.057C382.959 484.635 382.185 480.954 382.155 477.23C382.105 461.71 394.855 449.45 410.155 449.23C425.455 449.01 437.905 459.93 437.905 475.1C437.905 484.73 431.195 489.2 423.115 489.03C420.535 489.2 420.015 488.17 420.365 484.56C420.645 481.56 423.485 469.23 424.485 464.91C424.581 464.548 424.59 464.169 424.513 463.802C424.435 463.436 424.272 463.093 424.038 462.801C423.803 462.509 423.504 462.276 423.163 462.122C422.822 461.967 422.449 461.894 422.075 461.91H421.905C421.374 461.974 420.88 462.215 420.502 462.594C420.125 462.973 419.886 463.469 419.825 464C419.734 464.697 419.684 465.398 419.675 466.1C418.738 464.404 417.37 462.985 415.709 461.988C414.048 460.991 412.152 460.45 410.215 460.42C401.095 460.59 393.215 468.85 392.845 480.89C392.845 488.97 397.145 493.62 404.545 493.62C406.725 493.572 408.861 493.002 410.775 491.958C412.689 490.914 414.324 489.426 415.545 487.62C415.545 487.62 415.335 492.81 421.525 493.16ZM405.185 489.55C400.545 489.55 397.785 486.11 397.785 480.61C397.785 471.15 404.145 465.13 410.165 465.13C415.495 465.13 417.565 468.74 417.735 473.56C417.745 481.29 412.755 489.54 405.185 489.54V489.55Z" fill="#BDFFFD"/>
<path d="M312.282 617.846H199V595H312.282V617.846ZM200.471 616.372H310.811V596.474H200.471V616.372Z" fill="#3F3D56"/>
<path d="M298.306 613.793C302.368 613.793 305.662 610.493 305.662 606.423C305.662 602.353 302.368 599.053 298.306 599.053C294.243 599.053 290.95 602.353 290.95 606.423C290.95 610.493 294.243 613.793 298.306 613.793Z" fill="#004DE6"/>
<path d="M277.709 613.793C281.772 613.793 285.065 610.493 285.065 606.423C285.065 602.353 281.772 599.053 277.709 599.053C273.646 599.053 270.353 602.353 270.353 606.423C270.353 610.493 273.646 613.793 277.709 613.793Z" fill="#004DE6"/>
<path d="M257.112 613.793C261.175 613.793 264.468 610.493 264.468 606.423C264.468 602.353 261.175 599.053 257.112 599.053C253.049 599.053 249.756 602.353 249.756 606.423C249.756 610.493 253.049 613.793 257.112 613.793Z" fill="#004DE6"/>
<path d="M236.515 613.793C240.578 613.793 243.871 610.493 243.871 606.423C243.871 602.353 240.578 599.053 236.515 599.053C232.453 599.053 229.159 602.353 229.159 606.423C229.159 610.493 232.453 613.793 236.515 613.793Z" fill="#004DE6"/>
<path d="M215.919 613.793C219.981 613.793 223.275 610.493 223.275 606.423C223.275 602.353 219.981 599.053 215.919 599.053C211.856 599.053 208.563 602.353 208.563 606.423C208.563 610.493 211.856 613.793 215.919 613.793Z" fill="#004DE6"/>
<rect x="504.707" y="761.833" width="35.5339" height="35.5339" transform="rotate(-45 504.707 761.833)" stroke="#5D5A55"/>
<circle cx="652.5" cy="10.5" r="10" stroke="#504E49"/>
<path opacity="0.2" d="M321.83 157H266.39C264.694 157.003 263.069 157.678 261.871 158.878C260.673 160.078 260 161.704 260 163.4V201.82C260 203.516 260.673 205.142 261.871 206.342C263.069 207.542 264.694 208.217 266.39 208.22H321.83C323.527 208.217 325.153 207.542 326.353 206.343C327.552 205.143 328.227 203.517 328.23 201.82V163.4C328.227 161.703 327.552 160.077 326.353 158.877C325.153 157.678 323.527 157.003 321.83 157ZM321.83 163.4V168.82C318.83 171.25 314.07 175.04 303.89 183.01C301.64 184.78 297.2 189.01 294.1 189.01C291 189.01 286.56 184.82 284.32 183.01C274.13 175.01 269.32 171.25 266.37 168.82V163.38L321.83 163.4ZM266.39 201.82V177.05C269.45 179.48 273.78 182.9 280.39 188.05C283.31 190.34 288.39 195.4 294.13 195.37C299.87 195.34 304.86 190.37 307.87 188.05C314.47 182.88 318.8 179.46 321.87 177.05V201.82H266.39Z" fill="#00308F"/>
<path d="M515.225 270.981C515.478 270.778 515.781 270.652 516.101 270.617C516.421 270.582 516.745 270.639 517.034 270.782C517.324 270.924 517.568 271.147 517.739 271.425C517.91 271.702 518 272.022 518 272.35V332C518 335.713 516.549 339.274 513.966 341.9C511.383 344.525 507.879 346 504.226 346H384.774C381.121 346 377.617 344.525 375.034 341.9C372.451 339.274 371 335.713 371 332V272.37C371.005 272.043 371.099 271.723 371.272 271.447C371.446 271.171 371.691 270.95 371.982 270.808C372.272 270.666 372.595 270.608 372.916 270.643C373.236 270.677 373.541 270.801 373.796 271.001C380.223 276.083 388.732 282.533 418.014 304.187C424.135 308.667 434.338 318.124 444.541 318.062C454.743 318 465.211 308.501 471.068 304.187C500.288 282.533 508.797 276.062 515.225 270.981ZM444.541 308.667C451.193 308.667 460.865 300.142 465.599 296.596C503.675 268.492 506.573 266.044 515.368 259.055C516.188 258.397 516.851 257.559 517.307 256.603C517.763 255.648 518 254.6 518 253.538V248C518 244.287 516.549 240.726 513.966 238.1C511.383 235.475 507.879 234 504.226 234H384.774C381.121 234 377.617 235.475 375.034 238.1C372.451 240.726 371 244.287 371 248V253.538C371.003 254.599 371.242 255.646 371.697 256.601C372.153 257.556 372.814 258.395 373.632 259.055C382.427 266.024 385.325 268.492 423.401 296.596C428.217 300.142 437.807 308.77 444.459 308.667H444.541Z" fill="#4D88FF"/>
<path d="M640.992 549.984C645.406 549.984 648.984 546.406 648.984 541.992C648.984 537.578 645.406 534 640.992 534C636.578 534 633 537.578 633 541.992C633 546.406 636.578 549.984 640.992 549.984Z" fill="#FF6584"/>
<path d="M684.922 573.653H682.805V654.084H684.922V573.653Z" fill="#3F3D56"/>
<path d="M683.864 584.236C690.293 584.236 695.505 579.024 695.505 572.595C695.505 566.165 690.293 560.953 683.864 560.953C677.435 560.953 672.223 566.165 672.223 572.595C672.223 579.024 677.435 584.236 683.864 584.236Z" fill="#001338"/>
<path d="M682.806 622.335C682.806 622.335 681.23 586.788 648.94 590.92L682.806 622.335Z" fill="#001338"/>
<path d="M720.914 596.271C720.914 596.271 715.279 630.909 682.616 623.039L720.914 596.271Z" fill="#001338"/>
<path d="M73.2003 646.479C73.2003 646.479 64.5752 597.61 32.5622 573.393C19.1299 563.23 9.30132 549.41 5.00885 533.671C2.98876 526.213 1.69455 518.578 1.14429 510.871" stroke="#535461" stroke-width="2" stroke-miterlimit="10"/>
<path d="M-18.9274 495.493C-16.253 500.729 1.61894 511.326 1.61894 511.326C1.61894 511.326 3.86547 491.528 1.17097 486.287C-1.52352 481.045 -8.18956 478.858 -13.7524 481.399C-19.3152 483.94 -21.6219 490.251 -18.9274 495.493Z" fill="#00308F"/>
<path d="M-20.6323 532.126C-15.3503 535.142 5.73766 534.874 5.73766 534.874C5.73766 534.874 -3.77665 517.103 -9.03861 514.087C-14.3006 511.072 -21.1805 512.663 -24.3765 517.644C-27.5725 522.625 -25.9076 529.111 -20.6323 532.126Z" fill="#00308F"/>
<path d="M5.58389 581.416C11.7485 581.503 29.8076 571.22 29.8076 571.22C29.8076 571.22 12.0962 560.415 5.92489 560.322C-0.246372 560.228 -5.32112 564.882 -5.44146 570.705C-5.56181 576.529 -0.587369 581.309 5.58389 581.416Z" fill="#00308F"/>
<path d="M34.3071 614.466C40.3647 615.542 60.0084 608.281 60.0084 608.281C60.0084 608.281 44.4833 594.788 38.4324 593.732C32.3815 592.676 26.5311 596.406 25.3945 602.156C24.2579 607.907 28.2428 613.396 34.3071 614.466Z" fill="#00308F"/>
<path d="M27.3606 526.222C25.2545 531.698 8.63959 543.974 8.63959 543.974C8.63959 543.974 4.24013 524.504 6.34625 519.028C8.45237 513.552 14.8643 510.724 20.6612 512.71C26.458 514.696 29.4668 520.753 27.3606 526.222Z" fill="#00308F"/>
<path d="M60.4366 565.296C56.6924 569.93 36.9551 576.95 36.9551 576.95C36.9551 576.95 38.9609 557.126 42.6784 552.499C44.5562 550.254 47.212 548.801 50.1149 548.429C53.0178 548.057 55.9542 548.794 58.3372 550.493C59.4941 551.29 60.4731 552.319 61.2124 553.513C61.9517 554.708 62.4353 556.043 62.6326 557.434C62.8298 558.825 62.7366 560.242 62.3586 561.595C61.9806 562.948 61.3262 564.209 60.4366 565.296Z" fill="#00308F"/>
<path d="M87.0606 607.439C84.1989 612.6 66.0061 622.67 66.0061 622.67C66.0061 622.67 64.4081 602.819 67.2698 597.657C70.1314 592.495 76.8777 590.503 82.3469 593.204C87.8161 595.905 89.9155 602.277 87.0606 607.439Z" fill="#00308F"/>
<path opacity="0.25" d="M-18.9274 495.493C-16.253 500.729 1.61894 511.326 1.61894 511.326C1.61894 511.326 3.86547 491.528 1.17097 486.287C-1.52352 481.045 -8.18956 478.858 -13.7524 481.399C-19.3152 483.94 -21.6219 490.251 -18.9274 495.493Z" fill="black"/>
<path opacity="0.25" d="M-20.6323 532.126C-15.3503 535.142 5.73766 534.874 5.73766 534.874C5.73766 534.874 -3.77665 517.103 -9.03861 514.087C-14.3006 511.072 -21.1805 512.663 -24.3765 517.644C-27.5725 522.625 -25.9076 529.111 -20.6323 532.126Z" fill="black"/>
<path opacity="0.25" d="M5.58389 581.416C11.7485 581.503 29.8076 571.22 29.8076 571.22C29.8076 571.22 12.0962 560.415 5.92489 560.322C-0.246372 560.228 -5.32112 564.882 -5.44146 570.705C-5.56181 576.529 -0.587369 581.309 5.58389 581.416Z" fill="black"/>
<path opacity="0.25" d="M34.3071 614.466C40.3647 615.542 60.0084 608.281 60.0084 608.281C60.0084 608.281 44.4833 594.788 38.4324 593.732C32.3815 592.676 26.5311 596.406 25.3945 602.156C24.2579 607.907 28.2428 613.396 34.3071 614.466Z" fill="black"/>
<path opacity="0.25" d="M27.3606 526.222C25.2545 531.698 8.63959 543.974 8.63959 543.974C8.63959 543.974 4.24013 524.504 6.34625 519.028C8.45237 513.552 14.8643 510.724 20.6612 512.71C26.458 514.696 29.4668 520.753 27.3606 526.222Z" fill="black"/>
<path opacity="0.25" d="M60.4366 565.296C56.6924 569.93 36.9551 576.95 36.9551 576.95C36.9551 576.95 38.9609 557.126 42.6784 552.499C44.5562 550.254 47.212 548.801 50.1149 548.429C53.0178 548.057 55.9542 548.794 58.3372 550.493C59.4941 551.29 60.4731 552.319 61.2124 553.513C61.9517 554.708 62.4353 556.043 62.6326 557.434C62.8298 558.825 62.7366 560.242 62.3586 561.595C61.9806 562.948 61.3262 564.209 60.4366 565.296Z" fill="black"/>
<path opacity="0.25" d="M87.0606 607.439C84.1989 612.6 66.0061 622.67 66.0061 622.67C66.0061 622.67 64.4081 602.819 67.2698 597.657C70.1314 592.495 76.8777 590.503 82.3469 593.204C87.8161 595.905 89.9155 602.277 87.0606 607.439Z" fill="black"/>
<path d="M72.1172 645.195C72.1172 645.195 85.2019 597.215 66.3338 562.822C58.4174 548.393 55.3619 531.999 58.1968 515.966C59.5577 508.343 61.6513 500.869 64.4483 493.648" stroke="#535461" stroke-width="2" stroke-miterlimit="10"/>
<path d="M52.6943 471.911C52.9082 477.728 64.6824 494.25 64.6824 494.25C64.6824 494.25 75.2331 477.006 75.0191 471.183C74.8052 465.359 69.6368 460.806 63.4723 461.006C57.3077 461.207 52.4736 466.088 52.6943 471.911Z" fill="#00308F"/>
<path d="M35.4173 504.753C38.9475 509.527 58.3372 517.35 58.3372 517.35C58.3372 517.35 57.2674 497.466 53.7372 492.685C51.9516 490.369 49.3574 488.813 46.4738 488.329C43.5902 487.844 40.6299 488.466 38.1853 490.071C36.9973 490.817 35.9763 491.8 35.1863 492.96C34.3963 494.119 33.8544 495.429 33.5945 496.807C33.3346 498.186 33.3624 499.603 33.676 500.971C33.9897 502.338 34.5825 503.626 35.4173 504.753Z" fill="#00308F"/>
<path d="M38.2253 559.827C43.8283 562.267 64.7557 559.78 64.7557 559.78C64.7557 559.78 53.1955 543.118 47.5925 540.678C41.9896 538.237 35.357 540.544 32.7695 545.833C30.182 551.121 32.6291 557.386 38.2253 559.827Z" fill="#00308F"/>
<path d="M50.2938 601.047C55.3819 604.35 76.4497 605.225 76.4497 605.225C76.4497 605.225 68.0386 586.966 62.9572 583.67C60.5083 582.074 57.5469 581.463 54.6666 581.959C51.7863 582.455 49.1998 584.021 47.4254 586.344C46.5918 587.478 46.0024 588.773 45.6944 590.147C45.3865 591.52 45.3666 592.943 45.6362 594.324C45.9057 595.706 46.4588 597.016 47.2604 598.174C48.0621 599.331 49.0949 600.309 50.2938 601.047Z" fill="#00308F"/>
<path d="M81.8255 517.718C77.5464 521.917 57.0869 526.791 57.0869 526.791C57.0869 526.791 61.4262 507.301 65.6986 503.102C67.8128 501.076 70.6128 499.92 73.5407 499.866C76.4686 499.811 79.3096 500.862 81.4978 502.808C82.5495 503.734 83.3976 504.869 83.9885 506.139C84.5795 507.41 84.9005 508.79 84.9313 510.191C84.9621 511.592 84.702 512.984 84.1674 514.28C83.6328 515.575 82.8354 516.746 81.8255 517.718Z" fill="#00308F"/>
<path d="M95.2643 566.091C89.8553 568.893 68.8008 567.763 68.8008 567.763C68.8008 567.763 79.1174 550.379 84.5265 547.598C89.9355 544.816 96.7286 546.668 99.6905 551.776C102.652 556.885 100.7 563.29 95.2643 566.091Z" fill="#00308F"/>
<path d="M101.543 614.807C96.7086 618.431 75.7544 620.677 75.7544 620.677C75.7544 620.677 82.8149 601.909 87.6489 598.285C89.9988 596.542 92.9199 595.749 95.829 596.065C98.738 596.381 101.421 597.783 103.341 599.99C104.249 601.059 104.926 602.303 105.33 603.646C105.733 604.989 105.854 606.4 105.685 607.792C105.516 609.184 105.061 610.526 104.348 611.733C103.635 612.94 102.68 613.987 101.543 614.807Z" fill="#00308F"/>
<path opacity="0.1" d="M213.51 609.983C241.371 606.488 285.094 605.778 324.889 606.054C449.905 606.928 562.75 615.426 660.358 625.037C695.647 628.517 730.484 632.266 753.423 637.058C800.114 646.812 786.269 660.326 721.336 668.362C699.249 671.096 672.474 673.192 644.975 675.051C596.113 678.354 543.35 681.006 487.873 681.761C448.313 682.299 408.245 681.862 368.929 681.11C259.034 679.013 151.165 674.373 60.7605 666.434C21.1095 662.952 -16.2613 658.624 -32.6121 652.993C-48.963 647.361 -38.4937 640.223 1.99881 636.889C18.7387 635.509 38.7633 634.887 58.3626 634.302C87.2186 633.441 116.536 632.592 142.569 630.842C169.471 629.035 201.313 625.539 195.956 621.541C190.273 617.244 185.686 613.474 213.51 609.983Z" fill="#00308F"/>
</svg>
