<svg width="99" height="273" viewBox="0 0 99 273" fill="none" xmlns="http://www.w3.org/2000/svg">
<rect x="0.707107" y="252.81" width="27.0148" height="27.0148" transform="rotate(-45 0.707107 252.81)" stroke="#5D5A55"/>
<path d="M91.8048 13.6351C90.459 13.6351 89.1433 13.2352 88.0243 12.4861C86.9052 11.737 86.033 10.6722 85.518 9.4265C85.0029 8.18076 84.8682 6.80999 85.1308 5.48751C85.3933 4.16504 86.0414 2.95027 86.9931 1.99682C87.9448 1.04337 89.1573 0.394056 90.4773 0.130999C91.7973 -0.132057 93.1655 0.00295715 94.409 0.518961C95.6524 1.03496 96.7152 1.90878 97.4629 3.02992C98.2106 4.15106 98.6097 5.46916 98.6097 6.81755C98.6077 8.62505 97.8901 10.3579 96.6144 11.636C95.3387 12.9141 93.609 13.6331 91.8048 13.6351ZM91.8048 1.13626C90.6833 1.13626 89.5869 1.46946 88.6544 2.09373C87.7218 2.718 86.995 3.6053 86.5658 4.64342C86.1366 5.68153 86.0243 6.82384 86.2431 7.92591C86.4619 9.02797 87.002 10.0403 87.7951 10.8348C88.5881 11.6294 89.5985 12.1704 90.6985 12.3897C91.7985 12.6089 92.9387 12.4964 93.9749 12.0664C95.0111 11.6364 95.8968 10.9082 96.5199 9.9739C97.143 9.03962 97.4755 7.9412 97.4755 6.81755C97.4738 5.3113 96.8758 3.86725 95.8127 2.80217C94.7496 1.7371 93.3083 1.13798 91.8048 1.13626Z" fill="#3F3D56"/>
</svg>
