<svg width="28" height="28" viewBox="0 0 14 14" fill="none" xmlns="http://www.w3.org/2000/svg">
<mask id="mask0" mask-type="alpha" maskUnits="userSpaceOnUse" x="0" y="0" width="14" height="14">
<path d="M6.92308 0C3.10154 0 0 3.10154 0 6.92308C0 10.7446 3.10154 13.8462 6.92308 13.8462C10.7446 13.8462 13.8462 10.7446 13.8462 6.92308C13.8462 3.10154 10.7446 0 6.92308 0ZM5.53846 10.3846L2.07692 6.92308L3.05308 5.94692L5.53846 8.42538L10.7931 3.17077L11.7692 4.15385L5.53846 10.3846Z" fill="#0DD97F"/>
</mask>
<g mask="url(#mask0)">
<path d="M6.92308 0C3.10154 0 0 3.10154 0 6.92308C0 10.7446 3.10154 13.8462 6.92308 13.8462C10.7446 13.8462 13.8462 10.7446 13.8462 6.92308C13.8462 3.10154 10.7446 0 6.92308 0ZM5.53846 10.3846L2.07692 6.92308L3.05308 5.94692L5.53846 8.42538L10.7931 3.17077L11.7692 4.15385L5.53846 10.3846Z" fill="#0DD97F"/>
<path d="M16.9231 -3.07692H-3.0769V16.9231H16.9231V-3.07692Z" fill="#03883B"/>
</g>
</svg>
