<svg width="978" height="932" viewBox="0 0 978 932" fill="none" xmlns="http://www.w3.org/2000/svg">
<path d="M480.583 730.974C532.936 721.659 587.524 733.542 640.381 748.1C693.238 762.657 746.266 780.037 799.864 781.921C834.339 783.133 871.804 775.894 892.515 745.865C912.442 716.9 911.485 675.065 907.409 636.942C904.345 608.256 899.586 578.408 884.604 554.308C874.196 537.577 859.598 524.848 847.939 509.204C807.377 454.785 809.318 375.846 824.879 310.149C832.172 279.337 841.948 249.263 845.744 217.397C849.54 185.532 846.682 150.54 830.623 122.486C814.718 94.6991 787.912 77.2581 760.805 66.8534C705.751 45.7121 647.403 49.3654 591.317 56.6682C467.207 72.852 346.202 105.627 225.522 138.351C180.856 150.452 136.006 162.63 93.8511 182.36C70.4394 193.321 46.9507 207.603 33.7346 232.179C16.9657 263.369 21.3723 308.71 44.0127 337.872C81.988 386.807 155.597 384.343 186.824 439.015C203.997 469.118 202.121 507.421 194.68 540.652C178.728 611.951 140.292 680.064 154.336 754.201C163.977 805.121 200.147 850.082 243.711 865.301C289.369 881.253 344.065 865.484 364.089 817.314C384.747 767.754 434.35 739.186 480.583 730.974Z" fill="white"/>
<path d="M250.556 547.972C288.526 547.972 319.307 485.166 319.307 407.691C319.307 330.217 288.526 267.411 250.556 267.411C212.585 267.411 181.804 330.217 181.804 407.691C181.804 485.166 212.585 547.972 250.556 547.972Z" fill="#005B99"/>
<path d="M249.925 409.146C253.354 348.083 260.264 306.837 260.333 306.427L258.834 306.173C258.765 306.583 251.843 347.896 248.408 409.038C245.238 465.468 244.473 550.822 258.834 636.987L260.334 636.738C245.997 550.719 246.76 465.494 249.925 409.146Z" fill="#3F3D56"/>
<path d="M312.004 379.243L249.842 412.514L250.559 413.854L312.721 380.584L312.004 379.243Z" fill="#3F3D56"/>
<path d="M184.936 395.918L184.219 397.259L246.39 430.513L247.107 429.172L184.936 395.918Z" fill="#3F3D56"/>
<path d="M727.285 533.389C776.545 533.389 816.478 451.909 816.478 351.399C816.478 250.888 776.545 169.408 727.285 169.408C678.025 169.408 638.092 250.888 638.092 351.399C638.092 451.909 678.025 533.389 727.285 533.389Z" fill="#005B99"/>
<path d="M726.201 353.263C730.651 274.031 739.617 220.513 739.707 219.981L738.286 219.741C738.196 220.272 729.218 273.853 724.763 353.16C720.651 426.355 719.659 537.067 738.286 648.827L739.708 648.591C721.104 536.968 722.095 426.38 726.201 353.263Z" fill="#3F3D56"/>
<path d="M807.128 314.725L726.484 357.889L727.164 359.16L807.809 315.996L807.128 314.725Z" fill="#3F3D56"/>
<path d="M642.029 336.359L641.349 337.63L722.006 380.772L722.686 379.5L642.029 336.359Z" fill="#3F3D56"/>
<path d="M619.822 582.68C638.227 582.68 653.147 552.237 653.147 514.683C653.147 477.13 638.227 446.687 619.822 446.687C601.417 446.687 586.497 477.13 586.497 514.683C586.497 552.237 601.417 582.68 619.822 582.68Z" fill="#E6E6E6"/>
<path d="M619.792 517.613L619.99 517.982L650.121 501.854L649.44 500.583L619.855 516.418C621.492 486.285 624.841 466.056 624.908 465.658L623.487 465.417C623.413 465.852 619.435 489.874 618.023 524.633L588.183 508.662L587.503 509.933L617.634 526.06L617.994 525.388C616.864 554.077 617.497 589.949 623.487 625.885L624.909 625.648C618.378 586.467 618.235 547.36 619.792 517.613Z" fill="#3F3D56"/>
<path d="M788.677 663.758C611.175 607.568 450.221 610.561 346.454 622.967C234.036 636.408 162.701 663.472 161.994 663.744L161.477 662.398C162.186 662.125 233.689 634.997 346.283 621.535C412.514 613.627 479.338 611.917 545.886 616.429C628.5 622.021 710.152 637.448 789.112 662.384L788.677 663.758Z" fill="#3F3D56"/>
<path d="M389.641 647.878C389.641 647.878 390.139 637.447 400.344 638.659Z" fill="#3F3D56"/>
<path d="M386.758 637.951C389.579 637.951 391.865 635.664 391.865 632.844C391.865 630.023 389.579 627.736 386.758 627.736C383.937 627.736 381.65 630.023 381.65 632.844C381.65 635.664 383.937 637.951 386.758 637.951Z" fill="#005B99"/>
<path d="M387.369 641.445H385.927V651.537H387.369V641.445Z" fill="#3F3D56"/>
<path d="M575.626 650.04C575.626 650.04 576.124 639.609 586.329 640.822Z" fill="#3F3D56"/>
<path d="M572.743 640.114C575.564 640.114 577.85 637.827 577.85 635.006C577.85 632.186 575.564 629.899 572.743 629.899C569.922 629.899 567.635 632.186 567.635 635.006C567.635 637.827 569.922 640.114 572.743 640.114Z" fill="#005B99"/>
<path d="M573.353 643.607H571.912V653.699H573.353V643.607Z" fill="#3F3D56"/>
<path d="M269.256 632.018C269.256 632.018 269.753 621.588 279.959 622.8Z" fill="#3F3D56"/>
<path d="M266.372 622.092C269.193 622.092 271.48 619.805 271.48 616.985C271.48 614.164 269.193 611.877 266.372 611.877C263.551 611.877 261.265 614.164 261.265 616.985C261.265 619.805 263.551 622.092 266.372 622.092Z" fill="#005B99"/>
<path d="M266.983 625.585H265.541V635.678H266.983V625.585Z" fill="#3F3D56"/>
<path d="M347.831 618.322C347.831 618.322 348.329 607.891 358.534 609.103Z" fill="#3F3D56"/>
<path d="M344.947 608.396C347.768 608.396 350.055 606.109 350.055 603.288C350.055 600.467 347.768 598.18 344.947 598.18C342.126 598.18 339.84 600.467 339.84 603.288C339.84 606.109 342.126 608.396 344.947 608.396Z" fill="#005B99"/>
<path d="M345.558 611.889H344.116V621.981H345.558V611.889Z" fill="#3F3D56"/>
<path d="M544.629 637.785C544.629 637.785 545.127 627.354 555.332 628.567Z" fill="#3F3D56"/>
<path d="M541.745 627.859C544.566 627.859 546.853 625.572 546.853 622.751C546.853 619.931 544.566 617.644 541.745 617.644C538.925 617.644 536.638 619.931 536.638 622.751C536.638 625.572 538.925 627.859 541.745 627.859Z" fill="#005B99"/>
<path d="M542.356 631.352H540.914V641.445H542.356V631.352Z" fill="#3F3D56"/>
<path d="M766.298 616.875L795.968 660.868L768.345 688.492L764.764 681.33L770.902 667.007C770.902 667.007 769.879 653.707 766.298 650.126C762.718 646.545 746.859 625.06 746.859 625.06L766.298 616.875Z" fill="#FFB8B8"/>
<path d="M728.444 474.664C728.444 474.664 734.07 483.569 722.304 521.935C722.304 521.935 777.184 614.558 768.488 620.697C759.792 626.835 736.259 640.421 730.12 636.328C723.981 632.236 679.335 493.592 679.335 493.592L728.444 474.664Z" fill="#2F2E41"/>
<path d="M790.597 652.939L799.549 661.891C804.153 666.495 807.222 673.145 798.526 678.772C789.83 684.4 759.648 705.373 749.417 698.723C739.186 692.073 761.694 685.934 761.694 685.934C761.694 685.934 765.416 672.134 767.392 675.198C769.368 678.261 769.368 684.399 769.368 684.399L790.597 652.939Z" fill="#2F2E41"/>
<path d="M682.404 640.918C682.404 640.918 666.035 671.099 666.035 674.68C666.035 678.261 667.058 688.492 667.058 688.492L635.853 696.165L625.111 691.05L628.692 681.842C628.692 681.842 648.131 675.192 652.223 662.403C656.315 649.614 660.919 636.314 660.919 636.314L682.404 640.918Z" fill="#FFB8B8"/>
<path d="M701.332 340.638C713.197 340.638 722.817 331.019 722.817 319.153C722.817 307.287 713.197 297.668 701.332 297.668C689.466 297.668 679.847 307.287 679.847 319.153C679.847 331.019 689.466 340.638 701.332 340.638Z" fill="#FFB8B8"/>
<path d="M695.705 337.569L705.962 367.042L728.444 357.008C728.444 357.008 713.097 333.477 713.097 330.407L695.705 337.569Z" fill="#FFB8B8"/>
<path d="M692.635 442.437H719.747C719.747 442.437 739.186 472.107 727.932 503.311C726.209 508.09 724.498 514.783 722.79 522.697C718.863 540.897 714.954 565.55 710.947 588.204C705.319 620.025 699.499 647.901 693.173 648.407C680.384 649.43 655.515 649.259 655.515 644.144C655.515 639.029 672.173 491.034 672.173 491.034L675.754 484.895L676.431 458.156C676.538 453.937 678.294 449.927 681.324 446.989C684.354 444.05 688.414 442.415 692.635 442.437V442.437Z" fill="#2F2E41"/>
<path d="M665.779 674.424C665.779 674.424 671.662 684.4 670.127 691.561C668.592 698.723 666.035 697.7 654.781 698.723C643.527 699.746 605.16 699.746 605.16 692.584C605.16 685.423 635.089 676.122 635.215 678.982C635.342 681.842 636.365 687.469 633.296 688.492C630.226 689.515 633.04 688.748 633.04 688.748L665.779 674.424Z" fill="#2F2E41"/>
<path d="M695.709 506.286C695.709 506.286 693.483 542.625 678.642 531.807C663.8 520.989 684.425 501.447 684.425 501.447L695.709 506.286Z" fill="#FFB9B9"/>
<path d="M725.331 458.428C726.045 458.75 726.832 458.871 727.609 458.779C728.386 458.687 729.124 458.385 729.742 457.906C730.64 457.201 731.238 456.183 731.416 455.055C733.561 442.685 736.174 408.39 737.679 391.049C739.567 369.289 730.135 352.435 730.056 352.332L724.498 344.69C723.92 343.891 723.09 343.311 722.141 343.045C721.192 342.779 720.182 342.842 719.273 343.223C719.273 343.223 701.921 361.227 701.857 361.922C701.584 364.907 699.519 371.521 688.755 382.286C676.977 394.064 676.911 404.344 677.172 407.214C677.189 407.402 677.198 407.591 677.198 407.779C677.176 409.067 677.351 410.35 677.717 411.585C682.65 427.138 678.787 445.759 672.583 465.196C672.348 466.074 672.391 467.004 672.708 467.856C673.025 468.708 673.598 469.441 674.35 469.953C676.162 471.186 673.989 469.357 674.635 470.148C678.911 475.388 685.064 468.086 692.102 460.118C694.554 457.342 697.333 454.196 700.608 450.921C705.111 446.418 713.715 456.694 717.716 456.694C720.349 456.726 722.944 457.317 725.331 458.428V458.428Z" fill="#575A89"/>
<path d="M727.717 360.267C727.717 360.267 738.954 369.744 732.57 382.035C726.186 394.325 727.035 403.39 727.035 403.39C727.035 403.39 725.335 487.822 705.387 483.72L696.313 508.772L679.925 502.857L689.401 480.76C689.401 480.76 681.811 480.288 684.029 475.117C685.587 471.485 693.979 432.067 698.837 408.925C700.895 399.118 702.319 392.234 702.319 392.234C702.319 392.234 708.776 357.71 727.717 360.267Z" fill="#575A89"/>
<path opacity="0.2" d="M730.074 403.174L723.756 444.63L727.165 400.302L730.074 403.174Z" fill="black"/>
<path d="M677.891 309.634C677.891 309.634 674.279 281.523 703.751 290.741C703.751 290.741 724.8 286.879 731.702 313.208L738.692 340.808L735.286 338.954L733.698 342.425L728.178 343.823L725.816 339.134L724.673 344.828L679.462 349.335C679.462 349.335 699.711 337.36 700.032 315.898L696.175 319.973L677.891 309.634Z" fill="#2F2E41"/>
<path opacity="0.2" d="M711.512 589.82L721.594 522.645L713.395 595.163L711.512 589.82Z" fill="black"/>
<path d="M727.988 302.385C734.267 302.385 739.356 297.295 739.356 291.017C739.356 284.738 734.267 279.648 727.988 279.648C721.71 279.648 716.62 284.738 716.62 291.017C716.62 297.295 721.71 302.385 727.988 302.385Z" fill="#2F2E41"/>
<path d="M716.274 288.233C716.461 285.349 717.74 282.645 719.851 280.67C721.962 278.696 724.747 277.601 727.637 277.608C727.402 277.578 727.17 277.542 726.93 277.527C725.44 277.43 723.945 277.628 722.532 278.109C721.118 278.591 719.813 279.346 718.691 280.332C717.569 281.317 716.652 282.515 715.993 283.855C715.334 285.195 714.946 286.652 714.85 288.142C714.754 289.632 714.953 291.127 715.435 292.54C715.917 293.954 716.673 295.259 717.659 296.38C718.645 297.501 719.843 298.417 721.184 299.075C722.524 299.734 723.981 300.122 725.472 300.217C725.711 300.232 725.946 300.226 726.183 300.226C723.315 299.863 720.694 298.421 718.853 296.192C717.012 293.964 716.09 291.118 716.274 288.233V288.233Z" fill="#2F2E41"/>
<path opacity="0.2" d="M695.546 416.092L685.544 469.7L698.508 410.49L695.546 416.092Z" fill="black"/>
<path d="M699.567 325.832C701.53 325.832 703.12 323.605 703.12 320.858C703.12 318.112 701.53 315.885 699.567 315.885C697.605 315.885 696.015 318.112 696.015 320.858C696.015 323.605 697.605 325.832 699.567 325.832Z" fill="#FFB8B8"/>
<path d="M449.242 335.841L487.078 344.499L503.064 314.348L470.712 301.717L449.242 335.841Z" fill="#2F2E41"/>
<path d="M469.345 498.146C469.345 498.146 457.182 526.017 457.182 534.125C457.182 534.125 461.997 556.17 460.476 562.251L455.155 573.653L444.007 569.092L440.966 538.686L441.473 490.037L469.345 498.146Z" fill="#FFB9B9"/>
<path d="M476.186 331.421C476.186 331.421 477.2 348.145 475.173 353.212C473.146 358.28 482.774 367.908 482.774 367.908L497.977 348.144C497.977 348.144 487.842 338.009 490.375 326.861L476.186 331.421Z" fill="#FFB9B9"/>
<path d="M444.514 447.216C444.514 447.216 429.818 474.581 444.007 472.554C458.196 470.527 453.382 446.456 453.382 446.456" fill="#E6E6E6"/>
<path d="M453.382 446.456L458.196 398.567L457.943 369.429L446.794 371.455V398.313L444.514 447.216" fill="#FFB9B9"/>
<path d="M441.22 565.545L463.01 556.93L465.544 600.004C465.544 600.004 470.105 613.18 468.585 618.248C468.585 618.248 469.598 626.863 467.064 627.369C464.53 627.876 457.436 628.89 456.929 628.383C456.422 627.876 456.422 626.356 456.422 626.356C456.422 626.356 451.355 629.903 450.848 633.957C450.848 633.957 429.564 640.545 429.057 634.464C428.551 628.383 439.699 623.315 439.699 623.315L448.314 610.14L441.22 565.545Z" fill="#2F2E41"/>
<path d="M514.7 498.146C514.7 498.146 502.538 526.017 502.538 534.125C502.538 534.125 507.352 556.17 505.832 562.251L500.511 573.653L489.362 569.092L486.321 538.686L486.828 490.037L514.7 498.146Z" fill="#FFB9B9"/>
<path d="M487.335 565.545L509.125 556.93L511.659 600.004C511.659 600.004 516.22 613.18 514.7 618.248C514.7 618.248 515.713 626.863 513.18 627.369C510.646 627.876 503.551 628.89 503.044 628.383C502.538 627.876 502.538 626.356 502.538 626.356C502.538 626.356 497.47 629.903 496.963 633.957C496.963 633.957 475.679 640.545 475.173 634.464C474.666 628.383 485.814 623.315 485.814 623.315L494.429 610.14L487.335 565.545Z" fill="#2F2E41"/>
<path d="M497.474 319.768C497.472 323.759 495.999 327.609 493.336 330.582C490.673 333.554 487.008 335.441 483.041 335.88C479.075 336.319 475.085 335.281 471.837 332.963C468.588 330.645 466.308 327.21 465.434 323.317C465.167 322.153 465.034 320.962 465.037 319.768C465.039 315.469 466.749 311.346 469.791 308.307C472.832 305.268 476.956 303.561 481.255 303.561C485.555 303.561 489.678 305.268 492.719 308.307C495.761 311.346 497.471 315.469 497.474 319.768V319.768Z" fill="#FFB9B9"/>
<path d="M483.281 352.199L495.865 345.664L501.524 350.172C501.524 350.172 515.206 349.665 520.274 355.746C525.342 361.827 528.129 377.283 528.129 377.283C528.129 377.283 511.406 373.736 513.433 387.925L510.392 379.817L507.605 386.658L473.652 398.314L458.449 372.469C458.449 372.469 448.314 369.428 444.767 376.523C444.767 376.523 445.527 350.932 455.409 350.172C462.055 349.66 467.064 349.665 467.064 349.665L472.639 348.651L476.208 347.384L483.281 352.199Z" fill="#575A89"/>
<path d="M504.818 407.689C504.818 407.689 531.423 487.503 523.821 498.652C523.821 498.652 495.443 512.841 438.686 493.585L461.743 404.142C475.907 401.245 490.265 402.427 504.818 407.689Z" fill="#2F2E41"/>
<path d="M504.818 407.689L512.306 381.958C503.324 372.19 511.076 350.53 511.076 350.53L500.238 348.207C500.238 348.207 489.362 377.537 478.213 373.989C467.064 370.442 473.146 347.638 473.146 347.638L463.01 348.651L458.449 366.388L461.743 404.142C475.481 402.963 489.888 404.335 504.818 407.689Z" fill="#575A89"/>
<path d="M517.994 446.456L521.541 398.313L522.555 369.429L511.406 371.455V398.313L509.125 447.216" fill="#FFB9B9"/>
<path d="M509.125 447.216C509.125 447.216 494.429 474.581 508.619 472.554C522.808 470.527 517.994 446.456 517.994 446.456" fill="#FFB9B9"/>
<path d="M528.129 377.283C528.129 377.283 526.328 351.258 511.265 351.348V381.445C511.265 381.445 522.555 374.749 528.129 377.283Z" fill="#575A89"/>
<path d="M472.098 297.068C472.098 297.068 463.716 298.645 461.778 309.098C461.475 310.861 461.42 312.658 461.614 314.436C461.807 316.448 461.527 320.698 457.158 325.702C454.307 328.948 451.65 332.359 449.203 335.918V335.918L457.96 338.25L461.873 323.74C463.771 316.705 466.693 309.987 470.547 303.804L470.628 303.675C470.628 303.675 473.536 311.447 481.333 312.513L478.929 309.348C478.929 309.348 488.043 314.616 493.207 316.226C493.796 316.409 494.324 316.751 494.734 317.212C495.143 317.674 495.419 318.238 495.532 318.845C495.645 319.452 495.59 320.078 495.373 320.656C495.156 321.234 494.785 321.742 494.301 322.125C494.265 322.154 494.227 322.183 494.189 322.212C490.391 325.096 482.643 331.979 485.704 338.638C488.765 345.296 485.196 346.51 485.196 346.51L491.778 344.006L494.791 342.716L494.486 344.944L509.194 345.252C509.194 345.252 513.168 345.228 506.109 334.619C506.109 334.619 504.405 330.641 505.804 327.602C506.926 325.301 507.485 322.766 507.434 320.206C506.989 309.51 502.484 287.751 472.098 297.068Z" fill="#2F2E41"/>
<path d="M265.784 601.725C265.784 601.725 265.784 670.541 249.99 688.591C249.99 688.591 246.606 697.616 245.478 701C244.847 702.927 244.093 704.811 243.222 706.641V711.153C243.222 711.153 212.762 707.769 209.378 699.872L215.018 693.103C215.018 693.103 216.146 691.975 215.018 688.591C213.89 685.206 217.275 685.206 217.275 685.206L225.171 667.156L224.043 592.7L229.684 490.04L278.194 487.784L265.784 601.725Z" fill="#2F2E41"/>
<path d="M240.965 704.384C240.965 704.384 248.862 728.075 240.965 729.203C233.068 730.331 164.253 731.46 165.381 722.434C166.509 713.409 189.071 714.538 189.071 714.538L212.762 699.872L240.965 704.384Z" fill="#2F2E41"/>
<path d="M310.909 490.04C310.909 490.04 313.166 504.706 304.141 520.5C295.116 536.293 300.756 589.315 300.756 589.315L380.853 659.259C380.853 659.259 365.059 686.334 359.419 685.206C353.778 684.078 264.656 611.878 264.656 611.878L229.684 494.553L310.909 490.04Z" fill="#2F2E41"/>
<path d="M379.752 656.27C379.752 656.27 403.99 662.283 400.715 669.557C397.44 676.831 361.553 735.559 354.534 729.774C347.515 723.99 360.547 705.537 360.547 705.537L360.842 677.676L379.752 656.27Z" fill="#2F2E41"/>
<path d="M292.859 280.21C292.868 286.153 290.825 291.917 287.075 296.528C284.11 300.203 280.196 302.997 275.757 304.607C271.318 306.217 266.524 306.582 261.892 305.662C259.573 305.214 257.329 304.442 255.225 303.368C251.884 301.684 248.946 299.297 246.615 296.37C244.283 293.444 242.613 290.047 241.718 286.414C241.214 284.385 240.96 282.301 240.964 280.21C240.964 273.328 243.698 266.728 248.564 261.862C253.43 256.996 260.03 254.262 266.911 254.262C273.793 254.262 280.393 256.996 285.259 261.862C290.125 266.728 292.859 273.328 292.859 280.21V280.21Z" fill="#A0616A"/>
<path d="M287.328 289.363L286.18 322.752L264.348 331.378C264.348 331.378 262.207 297.19 259.184 295.295C256.162 293.4 287.328 289.363 287.328 289.363Z" fill="#A0616A"/>
<path d="M259.015 335.486C259.015 335.486 289.475 305.027 297.372 306.155C305.269 307.283 305.269 310.668 305.269 312.924C305.269 315.18 303.012 316.308 305.269 317.436C307.525 318.565 309.781 317.436 309.781 320.821C309.781 324.205 330.087 358.049 323.319 395.277C316.55 432.505 308.653 450.556 312.037 470.862C315.422 491.168 313.166 495.681 313.166 495.681C313.166 495.681 228.556 502.449 227.428 494.553C226.3 486.656 230.812 491.168 225.171 485.528C219.531 479.887 221.787 479.887 221.787 476.502C221.787 473.118 246.606 335.486 259.015 335.486Z" fill="#575A89"/>
<path d="M274.809 488.912C274.809 488.912 261.271 521.628 251.118 513.731C240.965 505.834 255.631 478.759 255.631 478.759L274.809 488.912Z" fill="#FFB9B9"/>
<path d="M307.525 337.743C307.525 337.743 334.03 340.777 324.162 389.462C314.294 438.146 275.937 494.553 275.937 494.553L249.99 482.143L283.834 415.584L275.937 373.843C275.937 373.843 271.425 334.358 307.525 337.743Z" fill="#575A89"/>
<path opacity="0.2" d="M284.399 416.148L247.17 478.195L250.554 481.579L284.399 416.148Z" fill="black"/>
<path opacity="0.2" d="M304.104 445.062L274.245 493.988H284.399L304.104 445.062Z" fill="black"/>
<path opacity="0.2" d="M236.656 533.975L235.157 534.547L264.843 612.383L266.343 611.811L236.656 533.975Z" fill="black"/>
<path d="M259.175 341.681C260.061 341.681 260.78 340.962 260.78 340.076C260.78 339.189 260.061 338.471 259.175 338.471C258.289 338.471 257.57 339.189 257.57 340.076C257.57 340.962 258.289 341.681 259.175 341.681Z" fill="#D0CDE1"/>
<path d="M245.534 385.011C245.706 385.011 245.872 384.956 246.01 384.854C246.148 384.753 246.25 384.609 246.301 384.445L259.942 340.313C259.973 340.212 259.984 340.106 259.975 340.001C259.965 339.896 259.935 339.794 259.886 339.701C259.837 339.607 259.769 339.524 259.688 339.457C259.607 339.39 259.514 339.339 259.413 339.308C259.312 339.277 259.206 339.266 259.101 339.275C258.996 339.285 258.894 339.316 258.801 339.365C258.708 339.414 258.625 339.482 258.558 339.563C258.49 339.644 258.44 339.738 258.409 339.839L244.768 383.972C244.731 384.092 244.723 384.219 244.744 384.343C244.765 384.467 244.815 384.584 244.889 384.685C244.964 384.786 245.061 384.868 245.173 384.925C245.285 384.981 245.409 385.011 245.534 385.011V385.011Z" fill="#D0CDE1"/>
<path d="M278.656 295.799C276.556 294.689 274.116 294.46 271.842 293.77C263.708 291.3 258.258 282.104 259.998 273.783C260.32 272.716 260.464 271.603 260.425 270.489C260.121 268.025 257.6 266.435 255.181 265.87C252.763 265.305 250.191 265.387 247.879 264.479C244.311 263.077 241.94 259.41 241.427 255.611C240.913 251.811 242.04 247.936 243.874 244.569L244.747 247.082C246.079 245.955 247.068 244.476 247.601 242.814C248.594 242.981 249.527 243.4 250.311 244.03C251.096 244.661 251.705 245.483 252.081 246.416C253.483 247.243 253.685 243.848 255.234 243.347C255.882 243.137 256.549 243.536 257.167 243.824C260.287 245.279 263.913 244.035 267.26 243.228C273.057 241.838 279.099 241.831 284.899 243.207C288.752 244.127 292.566 245.727 295.323 248.571C297.587 250.907 298.998 253.927 300.199 256.95C303.157 264.393 305.11 272.446 304.134 280.394C303.321 286.899 300.6 293.017 296.314 297.977C294.081 300.549 286.796 309.524 282.802 307.994C277.783 306.071 284.57 298.926 278.656 295.799Z" fill="#2F2E41"/>
</svg>
