<svg width="1080" height="829" viewBox="0 0 1080 829" fill="none" xmlns="http://www.w3.org/2000/svg">
<g clip-path="url(#clip0)">
<path opacity="0.9" d="M660 828.86C800.28 828.86 914 806.922 914 779.86C914 752.798 800.28 730.86 660 730.86C519.72 730.86 406 752.798 406 779.86C406 806.922 519.72 828.86 660 828.86Z" fill="white"/>
<path opacity="0.9" d="M457.884 51.5455C423.401 51.3077 390.159 39.8081 356.843 30.8892C319.785 20.9872 282.273 14.1868 244.54 10.5301C204.353 6.61763 163.239 6.29654 124.209 16.6782C85.18 27.0599 48.153 49.0482 25.6852 82.643C-12.4533 139.558 -2.07359 215.69 17.9877 281.239C41.7874 358.977 77.6938 433.98 130.97 495.295C168.86 538.867 214.687 574.662 260.202 610.159C285.921 630.209 311.834 650.402 341.035 664.862C368.215 678.265 397.636 686.363 426.855 694.378C458.086 702.94 489.317 711.526 521.218 716.854C623.031 733.883 727.168 717.401 828.824 699.504C864.648 693.201 901.951 686.03 930.435 663.435C952.627 645.823 967.324 620.327 977.796 593.974C991.519 559.487 998.592 519.578 983.656 485.543C961.611 435.335 899.471 413.097 875.083 363.995C843.852 301.051 886.831 223.23 866.761 155.886C858.411 127.856 839.764 104.168 820.282 82.3933C773.849 30.3897 714.253 -14.3479 641.118 4.32248C579.216 20.1269 524.296 52.0093 457.884 51.5455Z" fill="white"/>
<path d="M769.079 189.98C768.486 189.313 767.873 188.646 767.239 187.98C772.069 182.5 777.079 176.87 777.029 169.82C776.979 161.26 769.379 154.68 766.539 146.59C762.679 135.59 768.039 123.77 770.239 112.31C771.947 103.013 771.583 93.4536 769.173 84.3134C766.764 75.1732 762.368 66.6769 756.299 59.4298C754.069 56.7898 751.479 54.2398 748.149 53.1898C743.089 51.5998 737.719 53.8098 732.449 54.4598C715.059 56.6098 699.249 41.6298 681.779 42.9698C680.623 43.0112 679.484 43.2655 678.419 43.7198C676.159 44.7998 674.929 47.1898 673.539 49.2398C668.109 57.2398 658.999 61.2398 649.939 65.2898C648.8 65.6256 647.716 66.1241 646.719 66.7698C643.999 68.0398 641.319 69.3598 638.789 70.8598C621.669 80.9898 624.159 95.1698 634.249 103.92C632.249 113.75 622.249 122.4 623.959 132.51C625.319 140.43 633.569 145.82 635.159 153.7C636.079 158.28 634.629 162.64 632.609 166.97C613.459 171.4 591.819 179.57 590.129 193.97C587.189 219.03 578.349 288.25 578.349 288.25C578.349 288.25 568.089 343.69 606.999 317.43L606.499 318.91C599.483 340.146 594.694 362.053 592.209 384.28C591.819 387.59 591.019 390.19 589.579 391.04C589.059 391.35 590.089 391.84 592.339 392.45C592.089 393.38 591.809 394.31 591.569 395.25C587.293 411.459 584.561 428.036 583.409 444.76C582.312 459.572 580.268 474.299 577.289 488.85C568.069 535.23 577.289 594.73 577.289 594.73L597.409 689.45L600.849 705.64C603.122 708.152 605.899 710.155 608.999 711.52C610.347 717.323 611.283 723.214 611.799 729.15C611.849 729.81 611.899 730.48 611.939 731.15C610.729 731.299 609.565 731.71 608.529 732.354C607.493 732.998 606.609 733.86 605.939 734.88C598.769 744.96 606.939 753.03 579.309 773.2C572.159 778.41 568.719 783.15 567.839 787.2C566.899 791.53 568.939 795.04 572.589 797.41C573.212 797.811 573.86 798.172 574.529 798.49V798.49C574.869 798.65 575.203 798.803 575.529 798.95C575.883 799.096 576.246 799.233 576.619 799.36H576.679L577.749 799.7H577.829L578.979 800H579.079L580.159 800.23H580.299L581.489 800.43H581.619L582.699 800.56H582.909L584.119 800.65H584.279H585.359H585.609H586.829H586.989L588.069 800.59H588.359L589.579 800.47H589.719L590.809 800.31L591.109 800.26L592.319 800.03H592.439L593.539 799.76L593.849 799.68C594.249 799.57 594.639 799.46 595.039 799.33H595.109L596.219 798.94L596.519 798.83C596.909 798.68 597.289 798.53 597.669 798.36C616.109 790.29 654.009 769.12 654.009 769.12V768.44C654.009 768.35 654.009 768.25 654.009 768.15C654.009 768.05 654.009 767.98 654.009 767.89C654.009 767.8 654.009 767.68 654.009 767.56V767.25C654.009 767.11 654.009 766.97 654.009 766.82V766.49C654.009 766.33 654.009 766.17 654.009 766C654.009 765.83 654.009 765.43 654.009 765.12C653.899 756.43 652.999 736.15 648.999 736.94C647.629 737.21 646.699 739.13 645.749 741.34L645.279 740.44C641.379 732.91 635.729 719.99 635.179 707.36C638.329 705.079 641.247 702.493 643.889 699.64C643.889 699.64 641.829 690.97 640.079 681.82C638.559 673.89 637.269 665.61 637.739 662.33C638.739 655.27 625.449 600.82 625.449 600.82C625.449 600.82 626.819 588.82 629.579 572.19C634.939 539.83 645.489 489.83 661.229 475.69C661.599 475.37 661.959 475.05 662.329 474.77C662.329 474.77 673.599 476.77 682.819 540.31L685.489 568.6C686.264 576.436 687.6 584.206 689.489 591.85C691.309 599.38 693.259 611.98 692.059 629.04C690.889 645.72 690.389 665.35 690.179 679.13C690.019 689.52 690.019 696.59 690.019 696.59C691.927 698.202 693.987 699.625 696.169 700.84V710.09C696.147 712.054 695.374 713.936 694.009 715.35V715.35C692.557 716.985 691.5 718.931 690.919 721.04C689.129 724.26 687.619 729.49 686.989 737.9C684.989 765.13 683.919 762.1 683.919 762.1C682.744 765.044 681.964 768.131 681.599 771.28V771.28C681.539 771.87 681.509 772.46 681.489 773.06C681.489 773.15 681.489 773.25 681.489 773.34C681.489 773.613 681.489 773.883 681.489 774.15C681.489 774.283 681.489 774.416 681.489 774.55C681.489 774.683 681.506 774.883 681.539 775.15C681.539 775.33 681.563 775.51 681.609 775.69C681.609 775.82 681.609 775.95 681.669 776.07C681.729 776.19 681.759 776.55 681.819 776.79L681.899 777.1C681.969 777.35 682.039 777.59 682.119 777.83L682.199 778.05C682.279 778.27 682.369 778.483 682.469 778.69L682.559 778.88C682.679 779.12 682.809 779.36 682.959 779.59L683.079 779.78C683.231 780.008 683.394 780.229 683.569 780.44L683.699 780.59C683.893 780.812 684.1 781.022 684.319 781.22L684.389 781.28C684.615 781.477 684.852 781.661 685.099 781.83L685.209 781.91C685.48 782.086 685.76 782.246 686.049 782.39L686.219 782.48C686.545 782.629 686.879 782.759 687.219 782.87L687.389 782.92C687.764 783.043 688.144 783.147 688.529 783.23V783.23C688.929 783.31 689.349 783.38 689.789 783.42H689.969C690.409 783.42 690.869 783.49 691.349 783.49H691.619C692.109 783.49 692.619 783.49 693.139 783.49H693.389C693.949 783.49 694.539 783.39 695.149 783.3C716.659 780.3 726.909 778.3 725.879 766.16C725.259 758.87 723.529 748.28 722.249 741.01C721.601 737.321 720.408 733.748 718.709 730.41C718.763 729.843 718.813 729.26 718.859 728.66C719.229 723.66 719.209 717.66 717.689 713.73L718.159 704.9C723.483 703.546 728.294 700.664 731.999 696.61C731.999 696.61 732.149 690.07 732.599 681.39C733.279 667.99 734.599 649.5 737.119 642.16C741.219 630.06 737.119 587.71 737.119 587.71C737.119 587.71 721.749 515.11 736.119 483.85C748.769 456.28 748.659 428.69 736.489 401.85C736.729 401.661 736.947 401.446 737.139 401.21C737.139 401.21 734.069 399.21 735.139 376C735.919 358.3 730.739 340 728.239 332.36C732.15 334.038 736.157 335.48 740.239 336.68C763.749 343.69 765.799 317.43 765.799 317.43L770.919 278.1L776.999 219.53C778.659 214.93 780.889 203.43 769.079 189.98ZM664.939 151.13C664.939 151.78 664.869 152.43 664.799 153.07C664.61 155.155 664.17 157.21 663.489 159.19C664.19 156.513 664.615 153.773 664.759 151.01L664.939 151.13ZM726.869 294.28C727.229 294.95 727.579 295.59 727.869 296.28L725.279 294.96C726.238 290.204 727.79 285.588 729.899 281.22C732.445 276.136 734.539 270.839 736.159 265.39C736.087 271.686 736.391 277.98 737.069 284.24C739.159 300.33 726.869 294.28 726.869 294.28Z" fill="url(#paint0_linear)"/>
<path d="M640 75.0501C636.73 77.2801 633.3 79.8601 632.14 83.6501C630.26 89.7601 634.98 95.8901 635.44 102.27C636.29 113.86 623.18 123.44 625.11 134.91C626.43 142.77 634.49 148.11 636.04 155.91C638.3 167.31 625.95 177.36 626.92 188.91C627.44 195.08 631.73 200.32 636.59 204.14C643.423 209.489 651.6 212.846 660.22 213.84C659.65 203.93 652.29 194.9 653.56 185.05C654.43 178.3 659.18 172.77 661.93 166.54C666.76 155.6 665.21 142.94 662.32 131.34C659.43 119.74 655.24 108.27 655.03 96.3401C654.9 89.1401 658.28 78.5701 655.8 71.7401C652.79 63.4301 645.61 71.2201 640 75.0501Z" fill="#26374A"/>
<path opacity="0.1" d="M640 75.0501C636.73 77.2801 633.3 79.8601 632.14 83.6501C630.26 89.7601 634.98 95.8901 635.44 102.27C636.29 113.86 623.18 123.44 625.11 134.91C626.43 142.77 634.49 148.11 636.04 155.91C638.3 167.31 625.95 177.36 626.92 188.91C627.44 195.08 631.73 200.32 636.59 204.14C643.423 209.489 651.6 212.846 660.22 213.84C659.65 203.93 652.29 194.9 653.56 185.05C654.43 178.3 659.18 172.77 661.93 166.54C666.76 155.6 665.21 142.94 662.32 131.34C659.43 119.74 655.24 108.27 655.03 96.3401C654.9 89.1401 658.28 78.5701 655.8 71.7401C652.79 63.4301 645.61 71.2201 640 75.0501Z" fill="#005B99"/>
<path d="M649.59 744.36L640.59 753.36C640.59 753.36 608.59 770.36 612.59 747.36C613.684 740.523 613.916 733.575 613.28 726.68C612.453 717.056 610.545 707.556 607.59 698.36L637.59 692.36C632.59 708.04 640.82 727.78 645.95 737.83C648 741.88 649.59 744.36 649.59 744.36Z" fill="#FFB9B9"/>
<path d="M717.729 726.17C717.505 729.25 717.124 732.318 716.589 735.36C716.589 735.36 691.589 752.36 689.589 733.36C688.289 720.98 691.229 715.36 693.449 713C694.78 711.59 695.53 709.729 695.549 707.79V685.36L717.549 692.36L716.549 711.36C718.069 715.31 718.089 721.21 717.729 726.17Z" fill="#FFB9B9"/>
<path opacity="0.05" d="M649.59 744.36L640.59 753.36C640.59 753.36 608.59 770.36 612.59 747.36C613.684 740.523 613.916 733.575 613.28 726.68C620.28 725.68 628.59 733.36 628.59 733.36C640.31 749.9 643.47 743.64 645.95 737.83C648 741.88 649.59 744.36 649.59 744.36Z" fill="black"/>
<path d="M628.591 735.36C628.591 735.36 614.591 722.36 607.591 732.36C600.591 742.36 608.591 750.36 581.591 770.36C554.591 790.36 581.591 803.36 599.591 795.36C617.591 787.36 654.591 766.36 654.591 766.36C654.591 766.36 654.591 733.36 649.591 734.36C644.591 735.36 645.591 759.36 628.591 735.36Z" fill="#8189A6"/>
<path opacity="0.05" d="M717.729 726.17C717.505 729.251 717.124 732.318 716.589 735.36C716.589 735.36 691.589 752.36 689.589 733.36C688.289 720.98 691.229 715.36 693.449 713C694.319 712.347 695.349 711.942 696.431 711.83C697.512 711.717 698.604 711.9 699.589 712.36C703.589 710.58 707.989 713.55 711.589 717.36C714.073 719.967 716.143 722.938 717.729 726.17Z" fill="black"/>
<path d="M699.59 714.36C699.59 714.36 688.59 708.36 686.59 735.36C684.59 762.36 683.59 759.36 683.59 759.36C683.59 759.36 673.59 783.36 694.59 780.36C715.59 777.36 725.59 775.36 724.59 763.36C723.99 756.13 722.29 745.62 721.04 738.42C719.843 731.298 716.57 724.689 711.63 719.42C708 715.54 703.59 712.58 699.59 714.36Z" fill="#8189A6"/>
<path d="M735.589 586.36C735.589 586.36 739.589 628.36 735.589 640.36C733.159 647.64 731.839 665.98 731.179 679.27C730.739 687.87 730.589 694.36 730.589 694.36C711.589 714.36 689.589 694.36 689.589 694.36C689.589 694.36 689.589 687.36 689.749 677.04C689.959 663.37 690.449 643.9 691.589 627.36C692.759 610.44 690.859 597.95 689.079 590.48C687.243 582.898 685.947 575.195 685.199 567.43L682.589 539.37C673.589 476.37 662.589 474.37 662.589 474.37C662.229 474.65 661.879 474.96 661.519 475.28C646.149 489.28 635.849 538.89 630.619 570.98C627.929 587.49 626.619 599.37 626.619 599.37C626.619 599.37 639.619 653.37 638.619 660.37C638.159 663.62 639.419 671.84 640.899 679.7C642.609 688.77 644.619 697.37 644.619 697.37C619.619 724.37 602.619 703.37 602.619 703.37L599.259 687.31L579.619 593.37C579.619 593.37 570.619 534.37 579.619 488.37C582.536 473.934 584.54 459.328 585.619 444.64C586.754 428.06 589.432 411.622 593.619 395.54C594.839 390.78 596.192 386.057 597.679 381.37C597.679 381.37 635.229 374.84 670.589 374.84C697.109 374.84 722.389 378.51 729.679 391.37C731.359 394.33 732.886 397.297 734.259 400.27C746.919 427.48 747.259 455.43 734.679 483.37C720.589 514.36 735.589 586.36 735.589 586.36Z" fill="#4C4C78"/>
<path d="M651.589 223.36C651.589 223.36 598.589 169.36 638.589 173.36C647.659 174.27 653.799 172.65 657.869 169.61C662.509 166.15 664.459 160.85 664.999 155.32C666.099 144.32 661.589 132.32 661.589 132.32C661.589 132.32 715.589 89.3202 704.589 143.32C703.382 148.808 702.679 154.394 702.489 160.01C702.309 171.47 706.079 175.86 711.369 177.66C720.289 180.71 733.549 176.44 739.589 186.32C750.589 204.36 651.589 223.36 651.589 223.36Z" fill="#FFB9B9"/>
<path opacity="0.05" d="M704.59 143.36C703.382 148.848 702.679 154.434 702.49 160.05C701.051 160.548 699.585 160.966 698.1 161.3C692.462 162.571 686.626 162.695 680.94 161.664C675.253 160.634 669.833 158.469 665 155.3C666.1 144.3 661.59 132.3 661.59 132.3C661.59 132.3 715.59 89.3601 704.59 143.36Z" fill="black"/>
<path d="M731.59 117.36C731.59 128.764 727.059 139.702 718.995 147.766C710.931 155.83 699.994 160.36 688.59 160.36C677.186 160.36 666.248 155.83 658.184 147.766C650.12 139.702 645.59 128.764 645.59 117.36C645.59 116.56 645.59 115.76 645.66 114.97C646.298 103.802 651.263 93.3215 659.501 85.754C667.74 78.1865 678.603 74.1275 689.785 74.4385C700.968 74.7495 711.589 79.4061 719.394 87.4198C727.199 95.4335 731.574 106.174 731.59 117.36V117.36Z" fill="#FFB9B9"/>
<path opacity="0.05" d="M651.589 223.36C651.589 223.36 598.589 169.36 638.589 173.36C647.659 174.27 653.799 172.65 657.869 169.61C650.129 182.45 641.419 205.54 680.589 203.36C716.439 201.36 715.829 187.08 711.369 177.7C720.289 180.75 733.549 176.48 739.589 186.36C750.589 204.36 651.589 223.36 651.589 223.36Z" fill="black"/>
<path opacity="0.1" d="M735.589 404.36C726.489 416.19 610.489 400.68 593.529 395.53C594.749 390.77 596.103 386.047 597.589 381.36C597.589 381.36 635.139 374.83 670.499 374.83C697.019 374.83 722.299 378.5 729.589 391.36C731.269 394.32 732.796 397.287 734.169 400.26C734.809 403.84 735.589 404.36 735.589 404.36Z" fill="black"/>
<path d="M662.589 164.36C662.589 164.36 595.089 169.86 592.089 195.86C589.219 220.72 580.589 289.36 580.589 289.36C580.589 289.36 570.589 344.36 608.589 318.36L608.099 319.82C601.247 340.896 596.572 362.62 594.149 384.65C593.759 387.93 592.989 390.51 591.579 391.36C586.579 394.36 725.579 414.36 735.579 401.36C735.579 401.36 732.579 399.36 733.579 376.36C734.579 353.36 725.579 329.36 725.579 329.36C725.579 329.36 717.579 305.36 728.579 282.36C739.579 259.36 735.579 252.36 735.579 252.36L773.579 223.36C773.579 223.36 781.789 209.29 766.779 191.93C762.274 186.793 756.8 182.595 750.671 179.575C744.542 176.555 737.878 174.773 731.059 174.33L704.859 172.43C704.859 172.43 733.579 203.33 679.579 206.33C625.579 209.33 662.589 164.36 662.589 164.36Z" fill="#AF3C43"/>
<path opacity="0.05" d="M617.59 219.36C617.59 219.36 619.59 235.36 615.59 240.36C611.59 245.36 610.59 268.36 615.59 282.36" fill="black"/>
<path opacity="0.1" d="M661.52 475.27C646.15 489.27 635.85 538.88 630.62 570.97C623.34 526.3 653.62 452.36 653.62 452.36L661.52 475.27Z" fill="black"/>
<path opacity="0.1" d="M644.591 697.36C619.591 724.36 602.591 703.36 602.591 703.36L599.23 687.3C608.68 692.21 624.65 696.02 640.87 679.69C642.58 688.76 644.591 697.36 644.591 697.36Z" fill="black"/>
<path opacity="0.1" d="M731.18 679.27C730.74 687.87 730.59 694.36 730.59 694.36C711.59 714.36 689.59 694.36 689.59 694.36C689.59 694.36 689.59 687.36 689.75 677.04C698 682.28 712.83 688.05 731.18 679.27Z" fill="black"/>
<path d="M686.84 253.36H626.34C624.269 253.36 622.59 255.039 622.59 257.11V277.61C622.59 279.681 624.269 281.36 626.34 281.36H686.84C688.911 281.36 690.59 279.681 690.59 277.61V257.11C690.59 255.039 688.911 253.36 686.84 253.36Z" fill="#CDD0DB"/>
<path opacity="0.05" d="M686.84 253.36H626.34C624.269 253.36 622.59 255.039 622.59 257.11V277.61C622.59 279.681 624.269 281.36 626.34 281.36H686.84C688.911 281.36 690.59 279.681 690.59 277.61V257.11C690.59 255.039 688.911 253.36 686.84 253.36Z" fill="black"/>
<path d="M686.84 254.36H626.34C624.269 254.36 622.59 256.039 622.59 258.11V278.61C622.59 280.681 624.269 282.36 626.34 282.36H686.84C688.911 282.36 690.59 280.681 690.59 278.61V258.11C690.59 256.039 688.911 254.36 686.84 254.36Z" fill="#CDD0DB"/>
<path d="M676.09 270.86C677.747 270.86 679.09 269.517 679.09 267.86C679.09 266.203 677.747 264.86 676.09 264.86C674.433 264.86 673.09 266.203 673.09 267.86C673.09 269.517 674.433 270.86 676.09 270.86Z" fill="#9DA7C0"/>
<path opacity="0.05" d="M593.651 297.7C594.553 295.013 596.032 292.555 597.984 290.5C599.936 288.444 602.314 286.84 604.951 285.8C608.371 284.38 612.541 281.8 614.651 277.09C618.591 268.36 625.591 259.36 643.591 265.36C661.591 271.36 638.591 275.36 638.591 275.36C638.591 275.36 679.591 269.36 663.591 281.36C647.591 293.36 627.591 300.36 627.591 300.36L617.741 310.79C611.741 317.16 601.321 317.13 595.741 310.35C593.241 307.29 591.921 303.17 593.651 297.7Z" fill="black"/>
<path d="M592.651 295.7C593.553 293.013 595.032 290.555 596.984 288.5C598.936 286.444 601.314 284.84 603.951 283.8C607.371 282.38 611.541 279.8 613.651 275.09C617.591 266.36 624.591 257.36 642.591 263.36C660.591 269.36 637.591 273.36 637.591 273.36C637.591 273.36 678.591 267.36 662.591 279.36C646.591 291.36 626.591 298.36 626.591 298.36L616.741 308.79C610.741 315.16 600.321 315.13 594.741 308.35C592.241 305.29 590.921 301.17 592.651 295.7Z" fill="#FFB9B9"/>
<path opacity="0.05" d="M733.59 316.36L726.59 333.36L717.59 326.77L692.59 308.36L675.59 297.36C651.59 279.36 675.59 276.36 675.59 276.36C666.59 272.36 675.59 268.36 675.59 268.36C707.59 261.36 701.59 287.36 701.59 287.36L721.86 297.87L728.59 301.36L733.59 316.36Z" fill="black"/>
<path d="M735.59 314.36L728.59 331.36L719.59 324.77L694.59 306.36L677.59 295.36C653.59 277.36 677.59 274.36 677.59 274.36C668.59 270.36 677.59 266.36 677.59 266.36C709.59 259.36 703.59 285.36 703.59 285.36L723.86 295.87L730.59 299.36L735.59 314.36Z" fill="#FFB9B9"/>
<path opacity="0.05" d="M735.59 314.36L728.59 331.36L719.59 324.77C727.7 325.06 737.28 321.14 723.82 295.87L730.55 299.36L735.59 314.36Z" fill="black"/>
<path d="M772.59 213.36L774.52 221.23L768.59 279.36L763.59 318.36C763.59 318.36 761.59 344.36 738.59 337.36C715.59 330.36 713.59 323.36 713.59 323.36C713.59 323.36 746.59 334.36 725.59 295.36C725.59 295.36 737.59 301.36 735.59 285.36C733.59 269.36 735.59 241.36 735.59 241.36L772.59 213.36Z" fill="#AF3C43"/>
<path opacity="0.05" d="M731.589 117.36C731.591 127.113 728.276 136.576 722.191 144.197C716.106 151.817 707.61 157.143 698.099 159.3C696.659 155.14 695.639 151 696.689 146.79C698.689 138.62 708.149 132.66 707.099 124.31C706.996 123.365 706.652 122.463 706.099 121.69C703.989 118.91 699.689 120.29 696.269 120.98C687.429 122.74 677.749 116.77 675.349 108.08C671.509 111.858 666.698 114.5 661.45 115.716C656.202 116.932 650.72 116.674 645.609 114.97C646.247 103.802 651.212 93.3215 659.451 85.754C667.689 78.1865 678.553 74.1275 689.735 74.4385C700.917 74.7495 711.538 79.4061 719.343 87.4198C727.148 95.4335 731.523 106.174 731.539 117.36H731.589Z" fill="black"/>
<path d="M676.4 106.08C678.79 114.77 688.48 120.74 697.31 118.97C700.73 118.29 705.03 116.91 707.14 119.69C707.679 120.462 708.007 121.362 708.09 122.3C709.15 130.66 699.72 136.61 697.69 144.79C695.6 153.21 701.69 161.34 703.04 169.91C703.75 174.6 703.04 179.38 703.04 184.12C703.04 188.86 704.16 193.96 707.68 197.12C711.2 200.28 717.68 200.34 720.05 196.22C731.3 202.17 726.81 220.6 735.35 230.03C740.06 235.23 747.81 236.48 754.8 235.82C756.437 235.794 758.029 235.278 759.37 234.34C760.526 233.2 761.307 231.735 761.61 230.14C763.375 223.464 763.071 216.41 760.74 209.91C759.62 206.8 758.01 203.66 758.43 200.39C758.75 197.83 760.28 195.6 761.9 193.59C767.27 186.93 774.6 180.49 774.55 171.93C774.5 163.37 767.08 156.93 764.31 148.93C760.54 138 765.77 126.29 767.92 114.93C769.602 105.717 769.256 96.2473 766.907 87.1809C764.559 78.1145 760.264 69.6685 754.32 62.43C752.14 59.81 749.61 57.28 746.32 56.24C741.39 54.66 736.14 56.86 730.99 57.5C713.99 59.63 698.58 44.77 681.52 46.1C680.39 46.1435 679.278 46.3979 678.24 46.85C676.03 47.92 674.84 50.29 673.47 52.33C665.94 63.58 651.14 66.79 639.54 73.77C605.71 94.14 650.49 131.02 676.4 106.08Z" fill="#26374A"/>
<path opacity="0.3" d="M599.59 791.36C587.9 796.55 572.43 792.89 570.4 784.22C567.95 795.68 586.24 801.3 599.59 795.36C617.59 787.36 654.59 766.36 654.59 766.36C654.59 766.36 654.59 764.81 654.54 762.36C653.46 763 617.32 783.43 599.59 791.36Z" fill="white"/>
<path opacity="0.3" d="M724.539 762.78C723.389 771.78 713.409 773.67 694.589 776.36C685.019 777.73 681.899 773.48 681.319 768.46C680.689 774.89 682.519 782.08 694.589 780.36C715.589 777.36 725.589 775.36 724.589 763.36C724.569 763.17 724.549 762.97 724.539 762.78Z" fill="white"/>
<path d="M848.26 780.82C848.26 780.82 833.78 707.43 863.59 657.18C876.23 636.172 881.715 611.63 879.22 587.24C877.935 575.67 875.591 564.242 872.22 553.1" stroke="#535461" stroke-width="2" stroke-miterlimit="10"/>
<path d="M890.85 521.3C890.05 530.05 871.85 553.98 871.85 553.98C871.85 553.98 858.33 527.14 859.14 518.38C859.291 516.267 859.861 514.205 860.818 512.316C861.775 510.426 863.1 508.747 864.714 507.375C866.329 506.004 868.2 504.969 870.22 504.33C872.24 503.692 874.366 503.462 876.476 503.656C878.585 503.85 880.634 504.462 882.504 505.458C884.373 506.454 886.026 507.812 887.363 509.455C888.701 511.097 889.698 512.989 890.295 515.022C890.892 517.054 891.077 519.185 890.84 521.29L890.85 521.3Z" fill="#005B99"/>
<path d="M912.6 572.2C907.17 579.11 878.9 589.32 878.9 589.32C878.9 589.32 882.14 559.44 887.57 552.53C888.825 550.786 890.419 549.314 892.258 548.203C894.096 547.091 896.141 546.363 898.268 546.063C900.395 545.763 902.561 545.896 904.636 546.455C906.71 547.014 908.65 547.987 910.338 549.315C912.026 550.644 913.428 552.3 914.46 554.185C915.491 556.069 916.13 558.143 916.339 560.281C916.547 562.419 916.321 564.578 915.673 566.626C915.026 568.674 913.97 570.57 912.57 572.2H912.6Z" fill="#AF3C43"/>
<path d="M903.839 654.96C895.659 658.18 866.109 652.72 866.109 652.72C866.109 652.72 883.989 628.56 892.169 625.34C894.122 624.535 896.215 624.126 898.326 624.138C900.438 624.15 902.527 624.581 904.47 625.408C906.413 626.235 908.172 627.44 909.645 628.953C911.118 630.466 912.276 632.257 913.05 634.222C913.824 636.187 914.199 638.286 914.154 640.397C914.109 642.509 913.645 644.59 912.788 646.52C911.93 648.45 910.698 650.19 909.162 651.639C907.625 653.088 905.816 654.217 903.839 654.96V654.96Z" fill="#005B99"/>
<path d="M883.109 716.08C875.589 720.64 845.539 720.25 845.539 720.25C845.539 720.25 859.089 693.43 866.599 688.86C868.387 687.735 870.381 686.976 872.466 686.63C874.55 686.283 876.682 686.354 878.738 686.84C880.794 687.325 882.733 688.215 884.442 689.458C886.151 690.701 887.595 692.271 888.691 694.077C889.787 695.884 890.512 697.89 890.824 699.98C891.137 702.07 891.03 704.2 890.51 706.248C889.991 708.296 889.069 710.22 887.798 711.908C886.527 713.596 884.933 715.014 883.109 716.08V716.08Z" fill="#AF3C43"/>
<path d="M845.461 587.95C851.181 594.63 879.851 603.63 879.851 603.63C879.851 603.63 875.351 573.91 869.641 567.24C866.874 564.103 862.985 562.18 858.812 561.888C854.64 561.595 850.52 562.957 847.343 565.677C844.167 568.398 842.188 572.26 841.836 576.428C841.484 580.596 842.786 584.735 845.461 587.95V587.95Z" fill="#005B99"/>
<path d="M822.12 659.75C829.57 664.41 859.63 664.42 859.63 664.42C859.63 664.42 846.45 637.43 839 632.75C837.227 631.608 835.245 630.83 833.168 630.461C831.092 630.092 828.963 630.138 826.905 630.599C824.847 631.059 822.901 631.924 821.18 633.143C819.459 634.362 817.997 635.911 816.88 637.699C815.762 639.488 815.011 641.48 814.67 643.561C814.329 645.643 814.405 647.771 814.894 649.822C815.382 651.874 816.274 653.808 817.516 655.512C818.758 657.217 820.327 658.657 822.13 659.75H822.12Z" fill="#AF3C43"/>
<path d="M809 732.64C815.56 738.49 845.18 743.59 845.18 743.59C845.18 743.59 836.75 714.74 830.18 708.89C828.635 707.416 826.809 706.269 824.811 705.515C822.813 704.762 820.684 704.418 818.55 704.504C816.416 704.591 814.322 705.105 812.391 706.018C810.46 706.93 808.733 708.222 807.312 709.815C805.891 711.409 804.804 713.272 804.118 715.294C803.432 717.317 803.159 719.456 803.317 721.586C803.474 723.715 804.059 725.791 805.035 727.69C806.011 729.59 807.36 731.273 809 732.64V732.64Z" fill="#005B99"/>
<path d="M567.999 134.86C567.863 131.109 566.28 127.557 563.582 124.947C560.885 122.338 557.283 120.873 553.529 120.86H291.879C288.289 120.821 284.807 122.092 282.087 124.435C279.366 126.779 277.593 130.033 277.099 133.59C276.855 135.627 277.045 137.692 277.656 139.651C278.267 141.609 279.286 143.416 280.645 144.953C282.004 146.489 283.673 147.721 285.542 148.567C287.411 149.413 289.438 149.853 291.489 149.86H553.489H554.399C556.693 149.664 558.993 150.154 561.008 151.267C563.023 152.379 564.663 154.065 565.719 156.11C566.52 157.687 567.089 159.371 567.409 161.11L567.999 161.4V134.9V134.86Z" fill="#005B99"/>
<path d="M567.999 228.86C567.863 225.109 566.28 221.557 563.582 218.947C560.885 216.338 557.283 214.873 553.529 214.86H440.879C437.289 214.821 433.807 216.092 431.087 218.435C428.366 220.779 426.593 224.033 426.099 227.59C425.855 229.627 426.045 231.692 426.656 233.651C427.267 235.609 428.286 237.416 429.645 238.953C431.004 240.489 432.673 241.721 434.542 242.567C436.411 243.413 438.438 243.853 440.489 243.86H553.489H554.399C556.693 243.664 558.993 244.154 561.008 245.266C563.023 246.379 564.663 248.065 565.719 250.11C566.52 251.687 567.089 253.371 567.409 255.11L567.999 255.4V228.9V228.86Z" fill="#005B99"/>
<path opacity="0.2" d="M228 87.8599C228.17 80.1199 232.35 73.8599 237.45 73.8599H408.53C413.74 73.8599 418 80.3799 418 88.3599C418 96.3399 413.74 102.86 408.53 102.86H237.42C235.805 102.809 234.214 103.263 232.87 104.159C231.525 105.056 230.494 106.349 229.92 107.86C229.16 109.871 228.643 111.966 228.38 114.1L228 114.39V87.8899V87.8599Z" fill="#005B99"/>
<path opacity="0.2" d="M228 181.86C228.21 174.12 233.29 167.86 239.49 167.86H447.49C453.82 167.86 459 174.38 459 182.36C459 190.34 453.82 196.86 447.49 196.86H239.49C235.49 196.86 231.77 198.7 230.37 201.86C229.456 203.841 228.826 205.942 228.5 208.1L228.03 208.39V181.89L228 181.86Z" fill="#005B99"/>
<path opacity="0.2" d="M447 233.86C449.761 233.86 452 231.621 452 228.86C452 226.098 449.761 223.86 447 223.86C444.239 223.86 442 226.098 442 228.86C442 231.621 444.239 233.86 447 233.86Z" fill="white"/>
<path opacity="0.2" d="M464 233.86C466.761 233.86 469 231.621 469 228.86C469 226.098 466.761 223.86 464 223.86C461.239 223.86 459 226.098 459 228.86C459 231.621 461.239 233.86 464 233.86Z" fill="white"/>
<path opacity="0.2" d="M481 233.86C483.761 233.86 486 231.621 486 228.86C486 226.098 483.761 223.86 481 223.86C478.239 223.86 476 226.098 476 228.86C476 231.621 478.239 233.86 481 233.86Z" fill="white"/>
</g>
<defs>
<linearGradient id="paint0_linear" x1="672.999" y1="800.86" x2="672.999" y2="42.8597" gradientUnits="userSpaceOnUse">
<stop stop-color="#808080" stop-opacity="0.25"/>
<stop offset="0.54" stop-color="#808080" stop-opacity="0.12"/>
<stop offset="1" stop-color="#808080" stop-opacity="0.1"/>
</linearGradient>
<clipPath id="clip0">
<rect width="1080" height="828.86" fill="white"/>
</clipPath>
</defs>
</svg>
