<svg width="588" height="556" viewBox="0 0 588 556" fill="none" xmlns="http://www.w3.org/2000/svg">
<path d="M341.633 91.6601C303.938 89.817 268.036 72.6199 233.754 53.8101C199.471 35.0003 165.515 14.1663 128.722 4.20187C105.057 -2.20795 77.9913 -3.12129 58.928 14.7834C40.5753 32.0628 34.646 61.808 31.4601 89.4303C29.0604 110.215 27.6509 132.094 34.2208 151.554C38.7872 165.065 46.8831 176.42 52.4862 189.363C71.9805 234.388 58.1999 289.912 37.0806 333.876C27.1791 354.496 15.6759 374.194 8.02843 396.123C0.380982 418.051 -3.15444 443.262 3.53781 465.693C10.166 487.909 25.9676 504.563 43.0856 516.288C77.8515 540.109 118.803 546.922 158.764 550.789C247.196 559.33 336.094 555.636 424.759 551.925C457.574 550.559 490.529 549.168 522.808 542.001C540.735 538.019 559.239 531.7 572.257 516.444C588.775 497.083 592.869 464.302 581.797 440.029C563.229 399.299 511.904 389.186 498.91 345.486C491.769 321.426 499.102 294.635 509.487 272.328C531.76 224.464 569.088 182.476 571.051 127.774C572.402 90.2037 554.457 52.5759 526.71 34.7946C497.629 16.1575 457.295 18.5026 435.849 49.3504C413.745 81.0786 374.92 93.2976 341.633 91.6601Z" fill="#F8F7F7"/>
<path d="M296.52 508.464C360.207 508.464 411.836 456.835 411.836 393.148C411.836 329.461 360.207 277.832 296.52 277.832C232.833 277.832 181.204 329.461 181.204 393.148C181.204 456.835 232.833 508.464 296.52 508.464Z" fill="#F2F2F2"/>
<path d="M280.23 528.854C340.666 528.854 389.659 522.161 389.659 513.905C389.659 505.649 340.666 498.956 280.23 498.956C219.794 498.956 170.801 505.649 170.801 513.905C170.801 522.161 219.794 528.854 280.23 528.854Z" fill="#3F3D56"/>
<path d="M284.56 211.003C288.615 209.64 291.366 206.939 290.705 204.971C290.043 203.002 286.219 202.512 282.164 203.875C278.109 205.238 275.358 207.938 276.02 209.907C276.682 211.875 280.505 212.366 284.56 211.003Z" fill="#3F3D56"/>
<path d="M267.659 224.577L308.293 206.062C308.293 206.062 377.134 180.042 436.023 243.558C436.023 243.558 409.631 226.616 389.626 248.996C389.626 248.996 351.982 238.812 320.392 276.231C320.392 276.231 270.983 283.713 250.404 309.934C250.404 309.934 227.463 306.406 218.332 335.489C218.287 335.632 218.206 335.76 218.097 335.862C217.989 335.964 217.856 336.037 217.711 336.073C217.566 336.109 217.414 336.107 217.27 336.068C217.127 336.029 216.995 335.953 216.889 335.849C216.762 335.725 216.676 335.565 216.643 335.391C215.786 330.896 205.696 270.939 267.659 224.577Z" fill="#005B99"/>
<path opacity="0.2" d="M267.659 224.577L308.293 206.062C308.293 206.062 377.134 180.042 436.023 243.558C436.023 243.558 409.631 226.616 389.626 248.996C389.626 248.996 351.982 238.812 320.392 276.231C320.392 276.231 270.983 283.713 250.404 309.934C250.404 309.934 227.463 306.406 218.332 335.49C218.287 335.632 218.206 335.76 218.097 335.862C217.989 335.964 217.856 336.037 217.711 336.073C217.566 336.109 217.414 336.107 217.27 336.068C217.127 336.029 216.995 335.953 216.889 335.849C216.762 335.725 216.676 335.565 216.643 335.391C215.786 330.896 205.696 270.939 267.659 224.577Z" fill="black"/>
<path d="M280.034 301.289L296.954 304.109L302.594 277.319L288.965 271.679L280.034 301.289Z" fill="#2F2E41"/>
<path d="M303.299 295.884C311.346 295.884 317.87 289.361 317.87 281.314C317.87 273.267 311.346 266.744 303.299 266.744C295.253 266.744 288.729 273.267 288.729 281.314C288.729 289.361 295.253 295.884 303.299 295.884Z" fill="#A0616A"/>
<path d="M296.955 289.539C296.955 289.539 298.365 307.399 287.555 308.809C276.744 310.219 296.955 342.18 302.125 341.709C307.295 341.239 316.695 306.929 316.695 306.929C316.695 306.929 304.475 298.469 308.705 290.949L296.955 289.539Z" fill="#A0616A"/>
<path d="M278.86 354.635C278.86 354.635 280.74 368.265 286.38 368.265C292.02 368.265 282.62 352.755 282.62 352.755L278.86 354.635Z" fill="#A0616A"/>
<path d="M361.111 368.266C361.111 368.266 375.211 380.016 373.331 383.776C371.451 387.536 359.231 379.546 358.291 370.146L361.111 368.266Z" fill="#A0616A"/>
<path d="M276.039 413.385L267.109 446.755L257.239 487.175H266.639C266.639 487.175 269.929 474.485 276.039 467.905C276.039 467.905 282.149 457.565 282.149 450.515L296.719 416.205L276.039 413.385Z" fill="#A0616A"/>
<path d="M314.579 415.264L317.399 446.755C317.399 446.755 316.929 469.315 317.399 474.485C317.869 479.655 317.399 487.175 317.399 487.175H325.859C325.859 487.175 333.849 459.445 331.499 444.405L334.789 409.154L314.579 415.264Z" fill="#A0616A"/>
<path d="M303.3 328.784C303.3 328.784 290.637 318.749 293.913 304.731C293.913 304.731 281.209 305.284 276.039 310.454C270.869 315.624 277.449 333.014 277.449 333.014C277.449 333.014 288.729 351.814 286.849 360.274C284.969 368.735 264.759 413.385 271.339 416.205C277.919 419.025 317.87 428.895 338.08 412.445C338.08 412.445 343.25 365.914 322.57 350.874V339.124C322.57 339.124 326.33 335.834 324.45 327.374C324.45 327.374 332.44 312.804 327.74 309.984C323.04 307.164 312.243 303.031 312.243 303.031C312.243 303.031 313.17 324.084 303.3 328.784Z" fill="#2F2E41"/>
<path d="M278.859 310.454C278.859 310.454 272.749 309.514 266.639 318.444C260.529 327.374 244.548 341.475 252.069 348.525C259.589 355.575 279.799 360.275 279.799 360.275L284.499 351.815L264.289 341.944L281.209 329.254L278.859 310.454Z" fill="#2F2E41"/>
<path d="M325.39 310.455C325.39 310.455 331.97 310.455 334.79 318.445C337.61 326.435 354.06 353.695 354.06 353.695L363.46 368.266L356.88 375.786L338.55 355.105L321.16 326.435L325.39 310.455Z" fill="#2F2E41"/>
<path d="M268.519 486.236H255.359L252.539 509.267C252.539 509.267 245.019 521.487 256.299 520.077C267.579 518.667 263.819 505.976 263.819 505.976L266.639 501.276L267.579 511.147L268.519 510.677V499.866C268.519 499.866 273.689 495.166 268.519 486.236Z" fill="#2F2E41"/>
<path d="M328.21 486.236L315.99 485.296L313.64 511.616C313.64 511.616 312.23 521.486 320.69 520.076C329.15 518.666 326.33 510.676 326.33 510.676V496.106L328.21 486.236Z" fill="#2F2E41"/>
<path d="M292.725 266.509C292.725 266.509 285.878 268.791 285.53 277.805C285.495 279.246 285.655 280.686 286.005 282.085C286.391 283.719 286.639 287.235 283.651 291.829C281.65 294.862 279.822 298.006 278.176 301.246L278.155 301.289L285.675 302.229L287.274 289.764C288.049 283.72 289.71 277.824 292.203 272.265L292.255 272.149C292.255 272.149 295.545 278.259 302.125 278.259L299.775 275.909C299.775 275.909 310.115 280.139 313.875 280.139C313.875 280.139 316.695 282.019 313.875 284.839C311.055 287.659 305.415 294.239 308.705 299.409C311.995 304.579 309.175 305.989 309.175 305.989L314.345 303.169L316.695 301.759V303.639L328.915 302.229C328.915 302.229 332.205 301.759 325.155 293.769C325.155 293.769 323.293 290.666 324.108 287.99C324.777 285.956 324.953 283.792 324.621 281.677C323.042 272.866 316.845 255.349 292.725 266.509Z" fill="#2F2E41"/>
<path d="M366.222 382.941C370.873 378.212 365.722 368.418 365.319 367.673L312.205 259.213C312.043 258.885 311.757 258.635 311.411 258.517C311.065 258.399 310.686 258.423 310.357 258.584C310.029 258.745 309.777 259.03 309.658 259.375C309.539 259.721 309.561 260.1 309.721 260.429L362.862 368.943L362.877 368.97C362.93 369.067 368.058 378.808 363.49 381.598C358.571 384.606 352.835 379.734 352.778 379.684C352.64 379.565 352.481 379.474 352.308 379.417C352.136 379.359 351.954 379.336 351.772 379.35C351.591 379.363 351.414 379.411 351.251 379.493C351.089 379.574 350.944 379.687 350.825 379.825C350.706 379.962 350.616 380.122 350.559 380.295C350.502 380.467 350.479 380.649 350.493 380.831C350.506 381.012 350.555 381.189 350.637 381.351C350.719 381.514 350.832 381.658 350.97 381.777C351.266 382.033 358.311 388.007 364.933 383.958C365.403 383.673 365.836 383.332 366.222 382.941Z" fill="#3F3D56"/>
<path d="M263.861 216.799L303.216 198.868C303.216 198.868 369.889 173.667 426.924 235.183C426.924 235.183 401.363 218.775 381.988 240.45C381.988 240.45 345.529 230.586 314.933 266.828C314.933 266.828 267.08 274.074 247.149 299.47C247.149 299.47 224.238 295.946 215.686 325.549L214.503 324.386C214.503 324.386 201.475 263.477 263.861 216.799Z" fill="#005B99"/>
<path d="M264.053 216.688C264.053 216.688 244.783 281.548 247.133 299.408L264.053 216.688Z" fill="#3F3D56"/>
<path d="M284.42 207.433C284.42 207.433 308.705 262.28 314.815 266.98L284.42 207.433Z" fill="#3F3D56"/>
<path d="M303.065 198.828C303.065 198.828 365.575 236.428 382.026 240.658L303.065 198.828Z" fill="#3F3D56"/>
<path d="M209.085 511.408C208.972 511.223 206.309 506.776 205.385 497.541C204.538 489.068 205.083 474.787 212.489 454.866C226.52 417.126 209.256 386.676 209.079 386.373L209.931 385.879C209.976 385.956 214.431 393.719 217.062 406.082C220.54 422.472 219.274 439.513 213.412 455.209C199.405 492.884 209.819 510.719 209.925 510.895L209.085 511.408Z" fill="#3F3D56"/>
<path d="M203.597 384.158C207.131 384.158 209.996 381.293 209.996 377.759C209.996 374.225 207.131 371.36 203.597 371.36C200.063 371.36 197.198 374.225 197.198 377.759C197.198 381.293 200.063 384.158 203.597 384.158Z" fill="#AF3C43"/>
<path d="M223.779 407.785C227.313 407.785 230.178 404.92 230.178 401.386C230.178 397.852 227.313 394.987 223.779 394.987C220.245 394.987 217.38 397.852 217.38 401.386C217.38 404.92 220.245 407.785 223.779 407.785Z" fill="#AF3C43"/>
<path d="M209.996 423.536C213.53 423.536 216.395 420.671 216.395 417.137C216.395 413.603 213.53 410.738 209.996 410.738C206.462 410.738 203.597 413.603 203.597 417.137C203.597 420.671 206.462 423.536 209.996 423.536Z" fill="#005B99"/>
<path d="M226.732 436.826C230.266 436.826 233.131 433.961 233.131 430.427C233.131 426.893 230.266 424.028 226.732 424.028C223.198 424.028 220.333 426.893 220.333 430.427C220.333 433.961 223.198 436.826 226.732 436.826Z" fill="#005B99"/>
<path d="M205.075 457.5C208.609 457.5 211.474 454.635 211.474 451.101C211.474 447.567 208.609 444.702 205.075 444.702C201.541 444.702 198.677 447.567 198.677 451.101C198.677 454.635 201.541 457.5 205.075 457.5Z" fill="#AF3C43"/>
<path d="M212.95 511.644C212.95 511.644 206.551 495.892 225.748 484.079L212.95 511.644Z" fill="#3F3D56"/>
<path d="M205.08 511.358C205.08 511.358 202.168 494.608 179.628 494.752L205.08 511.358Z" fill="#3F3D56"/>
<path d="M166.157 86L188.68 98.3231L145.04 127.226L124.164 113.454L166.157 86Z" fill="#3F3D56"/>
<path d="M111.993 125.151L64 156.092L86.2878 169.338L134.263 137.311L111.993 125.151Z" fill="#3F3D56"/>
<path d="M120.826 109.795C118.269 111.041 116.025 112.847 114.262 115.079C112.499 117.312 111.263 119.913 110.644 122.689C110.4 123.7 110.442 124.758 110.766 125.746C111.089 126.734 111.682 127.612 112.478 128.281L126.352 139.999C127.35 140.84 128.58 141.357 129.879 141.483C131.178 141.608 132.484 141.335 133.625 140.701C139.266 137.572 148.325 131.006 144.28 122.689C143.828 121.766 143.136 120.98 142.277 120.415L126.814 110.189C125.937 109.607 124.923 109.265 123.872 109.196C122.822 109.126 121.772 109.333 120.826 109.795Z" fill="#D0CDE1"/>
<path d="M162.854 146.735C170.382 136.625 170.918 124.285 164.052 119.173C157.186 114.061 145.518 118.112 137.99 128.222C130.463 138.332 129.926 150.672 136.792 155.784C143.658 160.896 155.327 156.845 162.854 146.735Z" fill="#3F3D56"/>
<path opacity="0.2" d="M143.357 155.524C146.17 157.62 152.86 153.488 158.875 146.16C159.408 145.512 159.934 144.839 160.455 144.141C160.836 143.629 161.203 143.116 161.557 142.604C167.134 134.546 169.338 126.642 166.458 124.498C163.556 122.336 156.535 126.795 150.381 134.551C150.037 134.986 149.697 135.429 149.36 135.881C148.195 137.443 147.118 139.068 146.133 140.75C142.166 147.559 140.877 153.676 143.357 155.524Z" fill="black"/>
<path d="M146.133 140.75L158.875 146.16L167.992 150.03L169.34 148.211L161.557 142.605L150.381 134.552C150.037 134.986 149.697 135.43 149.36 135.882C148.195 137.444 147.118 139.069 146.133 140.75Z" fill="#D0CDE1"/>
<path d="M170.463 153.134C171.992 153.134 173.232 151.894 173.232 150.364C173.232 148.835 171.992 147.595 170.463 147.595C168.933 147.595 167.693 148.835 167.693 150.364C167.693 151.894 168.933 153.134 170.463 153.134Z" fill="#D0CDE1"/>
<path d="M171.276 179.622C171.452 179.461 171.668 179.35 171.902 179.302C186.82 176.22 196.207 167.631 200.598 153.045C200.699 152.708 200.931 152.426 201.241 152.259C201.551 152.093 201.914 152.056 202.251 152.158C202.587 152.259 202.87 152.49 203.037 152.8C203.203 153.11 203.24 153.473 203.139 153.81C198.506 169.199 188.178 178.65 172.439 181.902C172.154 181.961 171.858 181.924 171.596 181.798C171.334 181.673 171.121 181.464 170.989 181.205C170.856 180.946 170.813 180.651 170.865 180.365C170.917 180.079 171.061 179.818 171.276 179.622Z" fill="#AF3C43"/>
<path d="M167.604 168.073C167.78 167.912 167.997 167.802 168.231 167.754C179.416 165.442 186.454 159.002 189.747 148.066C189.848 147.729 190.08 147.447 190.39 147.281C190.699 147.114 191.063 147.078 191.399 147.179C191.736 147.281 192.019 147.512 192.185 147.821C192.352 148.131 192.389 148.494 192.288 148.831C188.739 160.621 180.826 167.861 168.768 170.353C168.483 170.412 168.187 170.375 167.925 170.25C167.663 170.124 167.449 169.915 167.317 169.657C167.185 169.398 167.142 169.102 167.193 168.816C167.245 168.53 167.39 168.269 167.604 168.073V168.073Z" fill="#AF3C43"/>
<path d="M176.701 191.445C176.877 191.284 177.093 191.174 177.327 191.126C192.214 188.05 208.494 173.153 212.876 158.597C212.978 158.26 213.209 157.978 213.519 157.812C213.829 157.646 214.192 157.609 214.529 157.711C214.866 157.812 215.148 158.043 215.315 158.352C215.482 158.662 215.519 159.025 215.418 159.362C210.788 174.739 193.591 190.476 177.864 193.725C177.579 193.784 177.283 193.747 177.021 193.622C176.759 193.496 176.546 193.287 176.414 193.029C176.281 192.77 176.238 192.475 176.29 192.188C176.342 191.902 176.486 191.641 176.701 191.445Z" fill="#AF3C43"/>
<path d="M452.843 86L430.32 98.3231L473.959 127.226L494.835 113.454L452.843 86Z" fill="#3F3D56"/>
<path d="M507.008 125.151L555 156.092L532.713 169.338L484.738 137.311L507.008 125.151Z" fill="#3F3D56"/>
<path d="M498.175 109.795C500.732 111.041 502.976 112.847 504.739 115.079C506.502 117.312 507.738 119.913 508.357 122.689C508.601 123.7 508.559 124.758 508.236 125.746C507.912 126.734 507.319 127.612 506.523 128.281L492.649 139.999C491.651 140.84 490.421 141.357 489.122 141.483C487.823 141.608 486.517 141.335 485.377 140.701C479.735 137.572 470.676 131.006 474.722 122.689C475.174 121.766 475.865 120.98 476.724 120.415L492.188 110.189C493.065 109.607 494.078 109.265 495.129 109.196C496.179 109.126 497.229 109.333 498.175 109.795Z" fill="#D0CDE1"/>
<path d="M482.209 155.785C489.075 150.673 488.538 138.333 481.011 128.223C473.483 118.113 461.815 114.061 454.949 119.173C448.083 124.285 448.62 136.625 456.147 146.735C463.675 156.846 475.343 160.897 482.209 155.785Z" fill="#3F3D56"/>
<path opacity="0.2" d="M475.644 155.524C472.831 157.62 466.14 153.488 460.126 146.16C459.593 145.512 459.066 144.839 458.546 144.141C458.165 143.629 457.797 143.116 457.444 142.604C451.867 134.546 449.663 126.642 452.543 124.498C455.445 122.336 462.465 126.795 468.62 134.551C468.964 134.986 469.304 135.429 469.641 135.881C470.806 137.443 471.883 139.068 472.868 140.75C476.834 147.559 478.124 153.676 475.644 155.524Z" fill="black"/>
<path d="M472.868 140.751L460.126 146.16L451.009 150.03L449.661 148.211L457.444 142.605L468.62 134.552C468.963 134.986 469.304 135.43 469.641 135.882C470.805 137.444 471.883 139.069 472.868 140.751Z" fill="#D0CDE1"/>
<path d="M448.538 153.134C450.067 153.134 451.307 151.894 451.307 150.364C451.307 148.835 450.067 147.595 448.538 147.595C447.008 147.595 445.768 148.835 445.768 150.364C445.768 151.894 447.008 153.134 448.538 153.134Z" fill="#D0CDE1"/>
<path d="M447.725 179.622C447.549 179.461 447.333 179.35 447.099 179.302C432.181 176.22 422.794 167.631 418.403 153.045C418.301 152.708 418.07 152.426 417.76 152.259C417.45 152.093 417.087 152.056 416.75 152.158C416.413 152.259 416.131 152.49 415.964 152.8C415.797 153.11 415.761 153.473 415.862 153.81C420.494 169.199 430.823 178.65 446.562 181.902C446.846 181.961 447.143 181.924 447.405 181.798C447.667 181.673 447.88 181.464 448.012 181.205C448.144 180.946 448.188 180.651 448.136 180.365C448.084 180.079 447.94 179.818 447.725 179.622Z" fill="#AF3C43"/>
<path d="M451.396 168.073C451.22 167.912 451.004 167.802 450.77 167.754C439.585 165.442 432.547 159.002 429.254 148.066C429.152 147.729 428.921 147.447 428.611 147.281C428.301 147.114 427.938 147.078 427.601 147.179C427.265 147.281 426.982 147.512 426.815 147.821C426.649 148.131 426.612 148.494 426.712 148.831C430.262 160.621 438.175 167.861 450.233 170.353C450.518 170.412 450.814 170.375 451.076 170.25C451.338 170.124 451.551 169.915 451.683 169.657C451.816 169.398 451.859 169.102 451.807 168.816C451.755 168.53 451.611 168.269 451.396 168.073V168.073Z" fill="#AF3C43"/>
<path d="M442.301 191.445C442.125 191.284 441.908 191.174 441.674 191.126C426.787 188.05 410.507 173.153 406.125 158.597C406.023 158.26 405.792 157.978 405.482 157.812C405.172 157.646 404.809 157.609 404.472 157.711C404.136 157.812 403.853 158.043 403.686 158.352C403.52 158.662 403.483 159.025 403.584 159.362C408.213 174.739 425.41 190.476 441.137 193.725C441.422 193.784 441.718 193.747 441.98 193.622C442.242 193.496 442.456 193.287 442.588 193.029C442.72 192.77 442.763 192.475 442.711 192.188C442.66 191.902 442.515 191.641 442.301 191.445Z" fill="#AF3C43"/>
</svg>
