<svg width="985" height="623" viewBox="0 0 985 623" fill="none" xmlns="http://www.w3.org/2000/svg">
<g clip-path="url(#clip0)">
<path opacity="0.5" d="M791 137.97C811.987 137.97 829 120.957 829 99.9702C829 78.9834 811.987 61.9702 791 61.9702C770.013 61.9702 753 78.9834 753 99.9702C753 120.957 770.013 137.97 791 137.97Z" fill="#446FC8"/>
<path d="M671.33 234.12H323.6L343.47 172.97H354.12L356.25 188.83H631.59L633.01 172.97H645.78L671.33 234.12Z" fill="#446FC8"/>
<path opacity="0.2" d="M671.33 234.12H323.6L343.47 172.97H354.12L356.25 188.83H631.59L633.01 172.97H645.78L671.33 234.12Z" fill="black"/>
<path d="M695.46 247.71H292.38L282.44 222.8H703.98L695.46 247.71Z" fill="#446FC8"/>
<path d="M682.69 263.57H302.31L292.38 247.71H695.46L682.69 263.57Z" fill="#446FC8"/>
<path d="M682.68 259.04H302.31V277.16H682.68V259.04Z" fill="#446FC8"/>
<path d="M712.49 306.6H279.6V374.55H712.49V306.6Z" fill="#446FC8"/>
<path opacity="0.2" d="M712.49 306.6H279.6V374.55H712.49V306.6Z" fill="black"/>
<path d="M985 535.35L0 528.56L28.39 367.75H963.71L985 535.35Z" fill="#446FC8"/>
<g opacity="0.2">
<path opacity="0.2" d="M279 485.53H291.58C295.558 485.53 299.374 487.111 302.187 489.924C305 492.737 306.58 496.552 306.58 500.53V530.83H264V500.53C264 496.552 265.58 492.737 268.393 489.924C271.206 487.111 275.022 485.53 279 485.53Z" fill="black"/>
<path opacity="0.2" d="M371.25 485.53H383.83C387.808 485.53 391.624 487.111 394.437 489.924C397.25 492.737 398.83 496.552 398.83 500.53V530.83H356.25V500.53C356.25 496.552 357.83 492.737 360.643 489.924C363.456 487.111 367.272 485.53 371.25 485.53Z" fill="black"/>
<path opacity="0.2" d="M486.21 485.53H498.79C502.768 485.53 506.584 487.111 509.397 489.924C512.21 492.737 513.79 496.552 513.79 500.53V530.83H471.21V500.53C471.21 496.552 472.79 492.737 475.603 489.924C478.416 487.111 482.232 485.53 486.21 485.53V485.53Z" fill="black"/>
<path opacity="0.2" d="M605.43 485.53H618C621.978 485.53 625.794 487.111 628.607 489.924C631.42 492.737 633 496.552 633 500.53V530.83H590.43V500.53C590.43 496.552 592.011 492.737 594.824 489.924C597.637 487.111 601.452 485.53 605.43 485.53Z" fill="black"/>
<path opacity="0.2" d="M700.53 485.53H713.11C717.088 485.53 720.904 487.111 723.717 489.924C726.53 492.737 728.11 496.552 728.11 500.53V530.83H685.53V500.53C685.53 496.552 687.111 492.737 689.924 489.924C692.737 487.111 696.552 485.53 700.53 485.53Z" fill="black"/>
</g>
<path opacity="0.2" d="M515.21 374.55H469.79V465.15H515.21V374.55Z" fill="black"/>
<path d="M286.7 306.6H279.6V374.55H286.7V306.6Z" fill="#446FC8"/>
<path d="M327.86 306.6H320.76V374.55H327.86V306.6Z" fill="#446FC8"/>
<path d="M373.28 306.6H366.18V374.55H373.28V306.6Z" fill="#446FC8"/>
<path d="M417.28 306.6H410.18V374.55H417.28V306.6Z" fill="#446FC8"/>
<path d="M465.54 306.6H458.44V374.55H465.54V306.6Z" fill="#446FC8"/>
<path d="M530.82 306.6H523.72V374.55H530.82V306.6Z" fill="#446FC8"/>
<path d="M574.82 306.6H567.72V374.55H574.82V306.6Z" fill="#446FC8"/>
<path d="M624.5 306.6H617.4V374.55H624.5V306.6Z" fill="#446FC8"/>
<path d="M667.08 306.6H659.98V374.55H667.08V306.6Z" fill="#446FC8"/>
<path d="M712.5 306.6H705.4V374.55H712.5V306.6Z" fill="#446FC8"/>
<path d="M712.49 311.13H279.6L254.06 288.48H736.62L712.49 311.13Z" fill="#446FC8"/>
<path d="M296.63 311.13H279.6V320.19H296.63V311.13Z" fill="#446FC8"/>
<path d="M333.54 311.13H316.51V320.19H333.54V311.13Z" fill="#446FC8"/>
<path d="M377.53 311.13H360.5V320.19H377.53V311.13Z" fill="#446FC8"/>
<path d="M422.95 311.13H405.92V320.19H422.95V311.13Z" fill="#446FC8"/>
<path d="M471.21 311.13H454.18V320.19H471.21V311.13Z" fill="#446FC8"/>
<path d="M535.08 311.13H518.05V320.19H535.08V311.13Z" fill="#446FC8"/>
<path d="M580.5 311.13H563.47V320.19H580.5V311.13Z" fill="#446FC8"/>
<path d="M630.17 311.13H613.14V320.19H630.17V311.13Z" fill="#446FC8"/>
<path d="M672.75 311.13H655.72V320.19H672.75V311.13Z" fill="#446FC8"/>
<path d="M712.49 311.13H695.46V320.19H712.49V311.13Z" fill="#446FC8"/>
<path d="M739.46 288.48H252.64L246.96 272.63H743.72L739.46 288.48Z" fill="#446FC8"/>
<path opacity="0.2" d="M739.46 288.48H252.64L246.96 272.63H743.72L739.46 288.48Z" fill="black"/>
<path d="M492.5 283.95C498.768 283.95 503.85 275.837 503.85 265.83C503.85 255.823 498.768 247.71 492.5 247.71C486.231 247.71 481.15 255.823 481.15 265.83C481.15 275.837 486.231 283.95 492.5 283.95Z" fill="#446FC8"/>
<path opacity="0.2" d="M492.5 283.95C498.768 283.95 503.85 275.837 503.85 265.83C503.85 255.823 498.768 247.71 492.5 247.71C486.231 247.71 481.15 255.823 481.15 265.83C481.15 275.837 486.231 283.95 492.5 283.95Z" fill="black"/>
<path d="M492.5 277.15C496.421 277.15 499.6 272.082 499.6 265.83C499.6 259.578 496.421 254.51 492.5 254.51C488.579 254.51 485.4 259.578 485.4 265.83C485.4 272.082 488.579 277.15 492.5 277.15Z" fill="#446FC8"/>
<path d="M658.67 527.13L609.99 489.77C609.99 489.77 606.06 474.2 604.49 463.3C602.92 452.4 600.56 405.7 600.56 405.7C601.677 401.657 602.417 397.52 602.77 393.34C603.25 393.24 603.77 393.12 604.22 392.99C607.859 392.063 611.232 390.304 614.076 387.852C616.92 385.4 619.157 382.322 620.61 378.86C625.61 366.42 619.15 351.72 610.97 341.86C602.79 332 592.5 324.08 587.12 311.86C580.48 296.8 582.75 278.6 579.36 262.12C579.035 259.811 578.175 257.609 576.85 255.69C574.75 253.08 571.46 252.51 568.52 251.47C559.24 248.18 552.28 239.16 546.85 229.75C538.06 214.5 528.96 191.31 510.85 189.99C504.12 189.5 497.09 191.77 490.29 191.75C479.74 191.75 469.29 191.88 458.83 193.33C455.09 193.84 451.21 194.54 448.09 197.01C437.38 205.48 442.23 227.87 431.91 237.01C428.84 239.72 424.91 240.69 421.44 242.55C408.36 249.55 402.55 268.22 403.32 285.02C403.68 292.89 405.32 301.09 409.97 306.84C413.65 311.44 418.9 314.08 422.33 318.93C427.87 326.76 427.12 337.14 426.52 347.7C419.12 350.8 413.18 354.36 411.31 358.19C405.03 371.03 405.81 415.01 405.81 415.01C405.81 415.01 408.17 487.01 390.11 496.01L322.58 542.71C322.58 542.71 274.68 501.07 262.9 525.59C254.84 542.36 284.25 551.85 303.64 556.17C291.41 564.85 284.64 580.89 290.38 591.76C299.38 608.88 324.54 620.56 324.54 620.56C324.54 620.56 420.49 625.19 464.84 615.25H465.57C484.4 618.66 511.42 622.25 533.09 620.09C533.5 621.09 533.79 621.73 533.79 621.73C533.79 621.73 672.79 633.41 697.9 585.92C710.79 561.57 697.34 550.32 681.18 545.14C699.27 543.7 719.87 538.64 722.24 523.26C726.59 495.22 658.67 527.13 658.67 527.13ZM644.67 542.02C619.24 551.29 598.59 551.81 587.6 551.11C582.19 539.34 559.68 488.32 559.09 454.18C559.23 446.56 560.59 439.9 563.63 434.9C570.18 424.13 572.11 415.69 571.89 409.27C571.89 408.79 571.89 408.33 571.89 407.87C571.921 405.908 571.729 403.949 571.32 402.03C572.4 404.669 572.722 407.558 572.25 410.37C569.89 422.44 576.18 500.66 576.18 500.66C576.18 500.66 581.28 518.17 591.88 523.23L644.67 542.02ZM395.62 536.49L419.96 520.92C419.96 520.92 431.35 515.49 432.5 502.22L440.5 438.99C441.05 441.7 441.771 444.372 442.66 446.99C444.08 451.14 444.66 457.22 444.77 464.46C444.5 499.71 432.5 558.27 432.5 558.27H432.65L432.56 558.69L431.71 558.74C411.96 558.14 365.94 556.42 340.17 552.85L395.62 536.49ZM352.97 573.35V573.49H346.97L352.97 573.35Z" fill="url(#paint0_linear)"/>
<path d="M545.02 236.11C550.27 245.29 557.02 254.11 565.97 257.29C568.81 258.29 571.97 258.86 573.97 261.4C575.249 263.276 576.077 265.421 576.39 267.67C579.66 283.74 577.47 301.49 583.89 316.17C589.09 328.06 599.04 335.81 606.95 345.4C614.86 354.99 621.07 369.33 616.27 381.45C614.884 384.809 612.739 387.8 610.003 390.191C607.266 392.582 604.014 394.307 600.5 395.23C593.88 397.02 586.97 396.23 580.25 395.08C571.39 393.51 562.37 391.08 554.99 385.08C542.22 374.71 536.82 356.08 530.14 339.52C527 331.76 522.83 323.63 515.93 320.85C508.02 317.67 499.14 322.98 494.01 330.77C488.88 338.56 486.6 348.35 484.12 357.77C481.32 368.4 477.77 379.45 470.41 386.4C467.218 389.514 463.192 391.637 458.82 392.512C454.447 393.387 449.914 392.977 445.77 391.33C437.57 387.91 431.08 379.27 429.2 369.24C426.29 353.78 433.26 335.24 424.71 323.02C421.39 318.29 416.32 315.71 412.71 311.23C408.26 305.62 406.63 297.63 406.28 289.96C405.53 273.58 411.15 255.33 423.79 248.55C427.17 246.74 430.94 245.79 433.91 243.15C443.91 234.27 439.2 212.44 449.55 204.15C452.55 201.74 456.31 201.07 459.93 200.56C470.07 199.15 480.14 198.99 490.34 199.02C496.92 199.02 503.71 196.83 510.22 197.31C527.73 198.63 536.5 221.24 545.02 236.11Z" fill="#965D7B"/>
<path d="M357.29 567.16L361.12 612.53L629 610.94L623.9 561.41L533.33 550.87L374.51 560.45L357.29 567.16Z" fill="#575988"/>
<path opacity="0.05" d="M357.29 567.16L361.12 612.53L629 610.94L623.9 561.41L533.33 550.87L374.51 560.45L357.29 567.16Z" fill="black"/>
<path d="M533.56 598.88L444.38 607.23C444.38 607.23 505.48 622.79 541.15 615.23L533.56 598.88Z" fill="#F7C4A7"/>
<path opacity="0.1" d="M533.56 598.88L444.38 607.23C444.38 607.23 505.48 622.79 541.15 615.23L533.56 598.88Z" fill="black"/>
<path d="M465.63 279.35C465.63 279.35 483.09 325.27 457.28 345.76C431.47 366.25 452.73 423.56 452.73 423.56L552.16 419.01C552.16 419.01 562.03 354.5 556.71 340.83C556.71 340.83 533.18 347.66 527.87 333.24C522.56 318.82 518.76 279.35 518.76 279.35H465.63Z" fill="#F7C4A7"/>
<path d="M442.86 557.13C442.86 557.13 358.99 555.23 334.33 549.13C309.67 543.03 288.41 572.28 297.14 588.98C305.87 605.68 330.14 617.06 330.14 617.06C330.14 617.06 454.99 623.13 481.94 606.06C481.94 606.06 492.19 576.84 481.94 571.15H351.79L447.79 569.25L442.86 557.13Z" fill="#575988"/>
<path d="M576.07 548.41C576.07 548.41 604.15 554.48 642.86 539.3C642.86 539.3 715.34 537.02 691.06 583.3C666.78 629.58 532.43 618.21 532.43 618.21C532.43 618.21 524.43 601.13 532.43 596.58C540.43 592.03 609.85 562.81 631.43 564.32L571.43 576.08L576.07 548.41Z" fill="#575988"/>
<path opacity="0.1" d="M522.2 301.44C520.75 290.63 519.9 281.82 519.9 281.82H466.77C469.223 288.778 470.926 295.979 471.85 303.3C479.3 308.516 488.249 311.157 497.337 310.821C506.425 310.485 515.155 307.191 522.2 301.44V301.44Z" fill="black"/>
<path d="M494.66 308.37C517.712 308.37 536.4 289.682 536.4 266.63C536.4 243.578 517.712 224.89 494.66 224.89C471.608 224.89 452.92 243.578 452.92 266.63C452.92 289.682 471.608 308.37 494.66 308.37Z" fill="#F7C4A7"/>
<path d="M470.19 339.31C470.19 339.31 420.1 348.8 414.03 361.31C407.96 373.82 408.72 416.72 408.72 416.72C408.72 416.72 411 486.93 393.54 495.65L328.27 541.19C328.27 541.19 281.97 500.58 270.59 524.49C259.21 548.4 325.24 557.13 325.24 557.13L398.86 535.13L422.39 519.95C422.39 519.95 433.39 514.64 434.53 501.73L444.4 423.55L483.87 412.17H547.6L556.14 387.79C556.14 387.79 571.89 400.41 569.61 412.17C567.33 423.93 573.4 500.17 573.4 500.17C573.4 500.17 578.33 517.25 588.58 522.17L647.79 543.49C647.79 543.49 710.41 549.56 714.58 522.24C718.75 494.92 653.1 526.03 653.1 526.03L606.04 489.6C606.04 489.6 602.25 474.42 600.73 463.79C599.21 453.16 596.94 407.63 596.94 407.63C596.94 407.63 611.36 359.81 569.62 351.47L515.73 334.77L470.19 339.31Z" fill="#F7C4A7"/>
<path opacity="0.1" d="M436.6 348.98L444.38 400.4C444.38 400.4 436.38 424.31 444.38 447.84C452.38 471.37 434.5 559.03 434.5 559.03C434.5 559.03 528.23 589.03 585.5 554.48C585.5 554.48 543.38 465.68 561.21 436.08C579.04 406.48 561.5 394.9 561.5 394.9L564.3 340.49L551.4 336.7L543.81 390.49C543.81 390.49 491.44 426.92 452.73 395.04L444.38 336.6L436.6 348.98Z" fill="black"/>
<path opacity="0.07" d="M490.74 410.1C486.687 403.621 480.365 398.885 473.008 396.816C465.651 394.747 457.786 395.493 450.95 398.91C463.66 408.42 477.67 410.96 490.74 410.1Z" fill="white"/>
<path opacity="0.07" d="M512.25 404.4C516.303 397.921 522.625 393.185 529.983 391.116C537.34 389.047 545.204 389.793 552.04 393.21C539.34 402.72 525.32 405.27 512.25 404.4Z" fill="white"/>
<path opacity="0.1" d="M436.6 348.98L444.38 397.74C444.38 397.74 436.38 421.65 444.38 445.18C452.38 468.71 434.5 556.37 434.5 556.37C434.5 556.37 528.23 586.37 585.5 551.82C585.5 551.82 543.38 463.02 561.21 433.42C579.04 403.82 561.5 392.24 561.5 392.24L564.24 337.79L551.34 334L543.75 387.89C543.75 387.89 491.38 424.32 452.67 392.44L444.32 334L436.6 348.98Z" fill="black"/>
<path d="M436.22 348.6L444.38 398.5C444.38 398.5 436.38 422.41 444.38 445.94C452.38 469.47 434.5 557.13 434.5 557.13C434.5 557.13 528.23 587.13 585.5 552.58C585.5 552.58 543.38 463.78 561.21 434.18C579.04 404.58 561.5 393 561.5 393L564.24 338.55L551.34 334.76L543.75 388.65C543.75 388.65 491.38 425.08 452.67 393.2L444.32 334.76L436.22 348.6Z" fill="#FC6681"/>
<path d="M474.74 575.73L494.5 573.07C494.5 573.07 517.27 543.85 533.59 566.24C533.59 566.24 540.42 580.66 548.77 583.32C554.48 585.045 560.319 586.313 566.23 587.11L532.46 596.6C532.46 596.6 517.66 605.33 502.1 603.05C492.941 601.654 483.582 602.435 474.78 605.33L474.74 575.73Z" fill="#F7C4A7"/>
<path opacity="0.1" d="M452.92 451.82C452.92 451.82 488.59 457.13 494.66 447.65Z" fill="black"/>
<path opacity="0.1" d="M520.5 445.75C520.5 445.75 527.33 452.58 554.65 447.65Z" fill="black"/>
<path opacity="0.1" d="M451.02 339.87C451.02 339.87 477.2 343.66 482.14 341.39Z" fill="black"/>
<path opacity="0.1" d="M508.71 339.87C508.71 339.87 534.89 343.66 539.83 341.39Z" fill="black"/>
<path opacity="0.1" d="M477.59 572.88C477.59 572.88 484.8 606.88 477.59 608.08C470.38 609.28 460.13 602.48 460.13 601.72C460.13 600.96 464.68 579.33 464.68 579.33L477.59 572.88Z" fill="black"/>
<path d="M476.83 572.88C476.83 572.88 484.04 606.88 476.83 608.08C469.62 609.28 459.37 602.48 459.37 601.72C459.37 600.96 463.92 579.33 463.92 579.33L476.83 572.88Z" fill="#575988"/>
<path opacity="0.1" d="M441.6 334.9C438.42 342.29 437.29 351.01 440.67 358.31C443.25 363.88 448.29 368.39 449.26 374.45C450.48 382.05 444.85 389.78 446.95 397.18C447.75 400.02 449.62 402.42 451.52 404.67C457.3 411.5 464.98 418.11 473.9 417.58C475.31 403.8 463.4 390.43 467.3 377.14C468.7 372.38 471.98 368.42 473.96 363.88C477.25 356.35 476.78 347.75 475.59 339.62C473.86 327.83 469.48 313.36 457.79 307.84C452.41 305.3 444.79 305.12 442.87 312.01C441.87 315.69 444.27 319.15 444.6 322.75C445.02 327.32 443.37 330.79 441.6 334.9Z" fill="black"/>
<path d="M441.6 333.76C438.42 341.15 437.29 349.87 440.67 357.17C443.25 362.74 448.29 367.25 449.26 373.31C450.48 380.91 444.85 388.64 446.95 396.04C447.75 398.88 449.62 401.28 451.52 403.53C457.3 410.36 464.98 416.97 473.9 416.44C475.31 402.66 463.4 389.29 467.3 376C468.7 371.24 471.98 367.28 473.96 362.74C477.25 355.21 476.78 346.61 475.59 338.48C473.86 326.69 469.48 312.22 457.79 306.7C452.41 304.16 444.79 303.98 442.87 310.87C441.87 314.55 444.27 318.01 444.6 321.61C445.02 326.19 443.37 329.66 441.6 333.76Z" fill="#965D7B"/>
<path opacity="0.1" d="M444.57 246.14C444.57 246.14 499.98 238.55 501.49 249.93C503 261.31 551.96 279.93 551.96 279.93L539.82 249.93L517.43 212.74C517.43 212.74 476.43 209.74 474.55 212.74C472.67 215.74 451.02 225.64 451.02 225.64L444.57 246.14Z" fill="black"/>
<path d="M444.57 245.38C444.57 245.38 499.98 237.79 501.49 249.17C503 260.55 551.96 279.17 551.96 279.17L539.82 249.17L517.43 211.99C517.43 211.99 476.43 208.99 474.55 211.99C472.67 214.99 451.02 224.89 451.02 224.89L444.57 245.38Z" fill="#965D7B"/>
<path opacity="0.1" d="M540.99 326.49C543.684 329.717 545.588 333.528 546.55 337.62C547.47 341.53 547.5 345.62 548.38 349.54C550.25 357.89 555.77 364.91 561.54 371.23C563.407 373.52 565.686 375.439 568.26 376.89C570.9 378.19 574.26 378.46 576.71 376.89C574.39 374.99 573.13 372.08 572.3 369.19C571.132 365.161 570.612 360.972 570.76 356.78C571.01 349.78 573.06 342.39 570.15 336.01C568.47 332.33 565.34 329.53 562.15 327.01C559.933 325.208 557.541 323.633 555.01 322.31C550.3 319.96 544.89 318.93 539.69 318.42C532.91 317.72 538.84 323.91 540.99 326.49Z" fill="black"/>
<path d="M540.99 325.34C543.687 328.573 545.591 332.391 546.55 336.49C547.47 340.4 547.5 344.49 548.38 348.41C550.25 356.76 555.77 363.78 561.54 370.1C563.407 372.39 565.686 374.309 568.26 375.76C570.9 377.06 574.26 377.33 576.71 375.76C574.39 373.86 573.13 370.95 572.3 368.06C571.132 364.031 570.612 359.842 570.76 355.65C571.01 348.65 573.06 341.26 570.15 334.88C568.47 331.2 565.34 328.4 562.15 325.88C559.933 324.078 557.541 322.504 555.01 321.18C550.3 318.83 544.89 317.8 539.69 317.29C532.91 316.58 538.84 322.77 540.99 325.34Z" fill="#965D7B"/>
<path opacity="0.1" d="M516.18 95.4099H509.3C509.951 95.4396 510.601 95.337 511.211 95.1084C511.821 94.8798 512.378 94.5299 512.849 94.0799C513.32 93.6299 513.695 93.089 513.951 92.49C514.207 91.891 514.339 91.2464 514.339 90.5949C514.339 89.9435 514.207 89.2987 513.951 88.6998C513.695 88.1008 513.32 87.5599 512.849 87.1099C512.378 86.6599 511.821 86.31 511.211 86.0814C510.601 85.8528 509.951 85.7502 509.3 85.7799H453.57C452.331 85.8364 451.161 86.3683 450.304 87.2651C449.447 88.1619 448.969 89.3546 448.969 90.5949C448.969 91.8352 449.447 93.0278 450.304 93.9246C451.161 94.8215 452.331 95.3534 453.57 95.4099H460.45C459.799 95.3802 459.149 95.4828 458.539 95.7114C457.929 95.94 457.372 96.2899 456.901 96.7399C456.429 97.1899 456.055 97.7308 455.798 98.3298C455.542 98.9288 455.41 99.5734 455.41 100.225C455.41 100.876 455.542 101.521 455.798 102.12C456.055 102.719 456.429 103.26 456.901 103.71C457.372 104.16 457.929 104.51 458.539 104.738C459.149 104.967 459.799 105.07 460.45 105.04H450.82C450.169 105.01 449.519 105.113 448.909 105.341C448.299 105.57 447.742 105.92 447.271 106.37C446.799 106.82 446.425 107.361 446.168 107.96C445.912 108.559 445.78 109.203 445.78 109.855C445.78 110.506 445.912 111.151 446.168 111.75C446.425 112.349 446.799 112.89 447.271 113.34C447.742 113.79 448.299 114.14 448.909 114.368C449.519 114.597 450.169 114.7 450.82 114.67H506.55C507.201 114.7 507.851 114.597 508.461 114.368C509.071 114.14 509.628 113.79 510.099 113.34C510.57 112.89 510.945 112.349 511.201 111.75C511.457 111.151 511.589 110.506 511.589 109.855C511.589 109.203 511.457 108.559 511.201 107.96C510.945 107.361 510.57 106.82 510.099 106.37C509.628 105.92 509.071 105.57 508.461 105.341C507.851 105.113 507.201 105.01 506.55 105.04H516.18C516.831 105.07 517.481 104.967 518.091 104.738C518.701 104.51 519.258 104.16 519.729 103.71C520.2 103.26 520.575 102.719 520.831 102.12C521.087 101.521 521.219 100.876 521.219 100.225C521.219 99.5734 521.087 98.9288 520.831 98.3298C520.575 97.7308 520.2 97.1899 519.729 96.7399C519.258 96.2899 518.701 95.94 518.091 95.7114C517.481 95.4828 516.831 95.3802 516.18 95.4099V95.4099Z" fill="#252223"/>
<path opacity="0.1" d="M786.18 95.4099H779.3C779.951 95.4396 780.601 95.337 781.211 95.1084C781.821 94.8798 782.378 94.5299 782.849 94.0799C783.32 93.6299 783.695 93.089 783.951 92.49C784.207 91.891 784.339 91.2464 784.339 90.5949C784.339 89.9435 784.207 89.2987 783.951 88.6998C783.695 88.1008 783.32 87.5599 782.849 87.1099C782.378 86.6599 781.821 86.31 781.211 86.0814C780.601 85.8528 779.951 85.7502 779.3 85.7799H723.57C722.331 85.8364 721.161 86.3683 720.304 87.2651C719.447 88.1619 718.969 89.3546 718.969 90.5949C718.969 91.8352 719.447 93.0278 720.304 93.9246C721.161 94.8215 722.331 95.3534 723.57 95.4099H730.45C729.799 95.3802 729.149 95.4828 728.539 95.7114C727.929 95.94 727.372 96.2899 726.901 96.7399C726.429 97.1899 726.055 97.7308 725.798 98.3298C725.542 98.9288 725.41 99.5734 725.41 100.225C725.41 100.876 725.542 101.521 725.798 102.12C726.055 102.719 726.429 103.26 726.901 103.71C727.372 104.16 727.929 104.51 728.539 104.738C729.149 104.967 729.799 105.07 730.45 105.04H720.82C720.169 105.01 719.519 105.113 718.909 105.341C718.299 105.57 717.742 105.92 717.271 106.37C716.799 106.82 716.425 107.361 716.168 107.96C715.912 108.559 715.78 109.203 715.78 109.855C715.78 110.506 715.912 111.151 716.168 111.75C716.425 112.349 716.799 112.89 717.271 113.34C717.742 113.79 718.299 114.14 718.909 114.368C719.519 114.597 720.169 114.7 720.82 114.67H776.55C777.201 114.7 777.851 114.597 778.461 114.368C779.071 114.14 779.628 113.79 780.099 113.34C780.57 112.89 780.945 112.349 781.201 111.75C781.457 111.151 781.589 110.506 781.589 109.855C781.589 109.203 781.457 108.559 781.201 107.96C780.945 107.361 780.57 106.82 780.099 106.37C779.628 105.92 779.071 105.57 778.461 105.341C777.851 105.113 777.201 105.01 776.55 105.04H786.18C786.831 105.07 787.481 104.967 788.091 104.738C788.701 104.51 789.258 104.16 789.729 103.71C790.2 103.26 790.575 102.719 790.831 102.12C791.087 101.521 791.219 100.876 791.219 100.225C791.219 99.5734 791.087 98.9288 790.831 98.3298C790.575 97.7308 790.2 97.1899 789.729 96.7399C789.258 96.2899 788.701 95.94 788.091 95.7114C787.481 95.4828 786.831 95.3802 786.18 95.4099V95.4099Z" fill="#252223"/>
<path opacity="0.1" d="M211.18 218.41H204.3C204.951 218.44 205.601 218.337 206.211 218.108C206.821 217.88 207.378 217.53 207.849 217.08C208.32 216.63 208.695 216.089 208.951 215.49C209.207 214.891 209.339 214.246 209.339 213.595C209.339 212.943 209.207 212.299 208.951 211.7C208.695 211.101 208.32 210.56 207.849 210.11C207.378 209.66 206.821 209.31 206.211 209.081C205.601 208.853 204.951 208.75 204.3 208.78H148.57C147.331 208.836 146.161 209.368 145.304 210.265C144.447 211.162 143.969 212.355 143.969 213.595C143.969 214.835 144.447 216.028 145.304 216.925C146.161 217.821 147.331 218.353 148.57 218.41H155.45C154.211 218.466 153.041 218.998 152.184 219.895C151.327 220.792 150.849 221.985 150.849 223.225C150.849 224.465 151.327 225.658 152.184 226.555C153.041 227.451 154.211 227.983 155.45 228.04H145.82C145.169 228.01 144.519 228.113 143.909 228.341C143.299 228.57 142.742 228.92 142.271 229.37C141.8 229.82 141.425 230.361 141.168 230.96C140.912 231.559 140.78 232.203 140.78 232.855C140.78 233.506 140.912 234.151 141.168 234.75C141.425 235.349 141.8 235.89 142.271 236.34C142.742 236.79 143.299 237.14 143.909 237.368C144.519 237.597 145.169 237.7 145.82 237.67H201.55C202.201 237.7 202.851 237.597 203.461 237.368C204.071 237.14 204.628 236.79 205.099 236.34C205.57 235.89 205.945 235.349 206.201 234.75C206.457 234.151 206.589 233.506 206.589 232.855C206.589 232.203 206.457 231.559 206.201 230.96C205.945 230.361 205.57 229.82 205.099 229.37C204.628 228.92 204.071 228.57 203.461 228.341C202.851 228.113 202.201 228.01 201.55 228.04H211.18C212.419 227.983 213.588 227.451 214.445 226.555C215.302 225.658 215.78 224.465 215.78 223.225C215.78 221.985 215.302 220.792 214.445 219.895C213.588 218.998 212.419 218.466 211.18 218.41V218.41Z" fill="#252223"/>
<path d="M788.73 605.12C788.73 605.12 764.06 521.36 793.36 459.71C805.66 433.84 809.74 404.79 804.06 376.71C801.344 363.378 797.411 350.323 792.31 337.71" stroke="#535461" stroke-width="2" stroke-miterlimit="10"/>
<path d="M810.5 298.8C810.5 309.07 791.91 338.8 791.91 338.8C791.91 338.8 773.32 309.03 773.32 298.8C773.262 296.323 773.701 293.86 774.609 291.555C775.517 289.249 776.877 287.149 778.608 285.377C780.34 283.605 782.408 282.197 784.691 281.235C786.975 280.274 789.427 279.779 791.905 279.779C794.383 279.779 796.835 280.274 799.118 281.235C801.402 282.197 803.47 283.605 805.202 285.377C806.933 287.149 808.293 289.249 809.201 291.555C810.109 293.86 810.547 296.323 810.49 298.8H810.5Z" fill="#446FC8"/>
<path d="M841.26 355.66C835.68 364.28 803.9 379.16 803.9 379.16C803.9 379.16 804.48 344.07 810.06 335.45C812.797 331.447 816.99 328.671 821.744 327.716C826.499 326.761 831.438 327.702 835.509 330.337C839.58 332.973 842.46 337.095 843.534 341.824C844.608 346.553 843.792 351.514 841.26 355.65V355.66Z" fill="#446FC8"/>
<path d="M839.91 452.83C830.74 457.45 795.8 454.26 795.8 454.26C795.8 454.26 814.01 424.26 823.18 419.64C825.365 418.483 827.759 417.773 830.221 417.552C832.684 417.332 835.166 417.604 837.521 418.354C839.877 419.105 842.06 420.317 843.941 421.921C845.823 423.526 847.365 425.489 848.479 427.696C849.592 429.904 850.254 432.311 850.426 434.778C850.597 437.244 850.275 439.72 849.478 442.061C848.681 444.401 847.425 446.559 845.784 448.408C844.143 450.257 842.149 451.761 839.92 452.83H839.91Z" fill="#446FC8"/>
<path d="M822.34 526.12C814.09 532.22 779.1 534.98 779.1 534.98C779.1 534.98 791.98 502.34 800.23 496.23C802.191 494.755 804.425 493.683 806.802 493.075C809.179 492.468 811.654 492.337 814.082 492.69C816.51 493.044 818.844 493.874 820.95 495.134C823.055 496.394 824.891 498.058 826.35 500.031C827.809 502.004 828.863 504.246 829.452 506.628C830.04 509.01 830.152 511.485 829.779 513.911C829.406 516.336 828.557 518.664 827.28 520.759C826.003 522.854 824.324 524.676 822.34 526.12V526.12Z" fill="#446FC8"/>
<path d="M764.87 381.15C772.23 388.3 806.54 395.71 806.54 395.71C806.54 395.71 798.14 361.64 790.78 354.48C787.219 351.182 782.509 349.408 777.658 349.536C772.806 349.664 768.196 351.684 764.814 355.166C761.432 358.647 759.546 363.313 759.558 368.166C759.57 373.02 761.48 377.676 764.88 381.14L764.87 381.15Z" fill="#446FC8"/>
<path d="M745.41 467.12C754.58 471.74 789.52 468.55 789.52 468.55C789.52 468.55 771.31 438.55 762.14 433.93C759.955 432.773 757.561 432.063 755.099 431.842C752.636 431.622 750.154 431.894 747.798 432.645C745.442 433.395 743.26 434.607 741.378 436.212C739.497 437.816 737.954 439.779 736.841 441.986C735.727 444.194 735.066 446.601 734.894 449.068C734.722 451.534 735.045 454.01 735.842 456.351C736.639 458.691 737.894 460.849 739.536 462.698C741.177 464.547 743.171 466.051 745.4 467.12H745.41Z" fill="#446FC8"/>
<path d="M737.96 553.28C746.21 559.38 781.2 562.14 781.2 562.14C781.2 562.14 768.32 529.49 760.06 523.39C758.099 521.915 755.866 520.843 753.488 520.235C751.111 519.628 748.637 519.497 746.209 519.851C743.78 520.204 741.446 521.035 739.341 522.294C737.235 523.554 735.4 525.219 733.94 527.191C732.481 529.164 731.427 531.406 730.838 533.788C730.25 536.17 730.139 538.646 730.512 541.071C730.884 543.496 731.734 545.824 733.01 547.919C734.287 550.015 735.966 551.837 737.95 553.28H737.96Z" fill="#446FC8"/>
<path d="M810.5 298.8C810.5 309.07 791.91 338.8 791.91 338.8C791.91 338.8 773.32 309.03 773.32 298.8C773.262 296.323 773.701 293.86 774.609 291.555C775.517 289.249 776.877 287.149 778.608 285.377C780.34 283.605 782.408 282.197 784.691 281.235C786.975 280.274 789.427 279.779 791.905 279.779C794.383 279.779 796.835 280.274 799.118 281.235C801.402 282.197 803.47 283.605 805.202 285.377C806.933 287.149 808.293 289.249 809.201 291.555C810.109 293.86 810.547 296.323 810.49 298.8H810.5Z" fill="#FC6681"/>
<path d="M841.26 355.66C835.68 364.28 803.9 379.16 803.9 379.16C803.9 379.16 804.48 344.07 810.06 335.45C812.797 331.447 816.99 328.671 821.744 327.716C826.499 326.761 831.438 327.702 835.509 330.337C839.58 332.973 842.46 337.095 843.534 341.824C844.608 346.553 843.792 351.514 841.26 355.65V355.66Z" fill="#FC6681"/>
<path d="M839.91 452.83C830.74 457.45 795.8 454.26 795.8 454.26C795.8 454.26 814.01 424.26 823.18 419.64C825.365 418.483 827.759 417.773 830.221 417.552C832.684 417.332 835.166 417.604 837.521 418.354C839.877 419.105 842.06 420.317 843.941 421.921C845.823 423.526 847.365 425.489 848.479 427.696C849.592 429.904 850.254 432.311 850.426 434.778C850.597 437.244 850.275 439.72 849.478 442.061C848.681 444.401 847.425 446.559 845.784 448.408C844.143 450.257 842.149 451.761 839.92 452.83H839.91Z" fill="#FC6681"/>
<path d="M822.34 526.12C814.09 532.22 779.1 534.98 779.1 534.98C779.1 534.98 791.98 502.34 800.23 496.23C802.191 494.755 804.425 493.683 806.802 493.075C809.179 492.468 811.654 492.337 814.082 492.69C816.51 493.044 818.844 493.874 820.95 495.134C823.055 496.394 824.891 498.058 826.35 500.031C827.809 502.004 828.863 504.246 829.452 506.628C830.04 509.01 830.152 511.485 829.779 513.911C829.406 516.336 828.557 518.664 827.28 520.759C826.003 522.854 824.324 524.676 822.34 526.12V526.12Z" fill="#FC6681"/>
<path d="M764.87 381.15C772.23 388.3 806.54 395.71 806.54 395.71C806.54 395.71 798.14 361.64 790.78 354.48C787.219 351.182 782.509 349.408 777.658 349.536C772.806 349.664 768.196 351.684 764.814 355.166C761.432 358.647 759.546 363.313 759.558 368.166C759.57 373.02 761.48 377.676 764.88 381.14L764.87 381.15Z" fill="#FC6681"/>
<path d="M745.41 467.12C754.58 471.74 789.52 468.55 789.52 468.55C789.52 468.55 771.31 438.55 762.14 433.93C759.955 432.773 757.561 432.063 755.099 431.842C752.636 431.622 750.154 431.894 747.798 432.645C745.442 433.395 743.26 434.607 741.378 436.212C739.497 437.816 737.954 439.779 736.841 441.986C735.727 444.194 735.066 446.601 734.894 449.068C734.722 451.534 735.045 454.01 735.842 456.351C736.639 458.691 737.894 460.849 739.536 462.698C741.177 464.547 743.171 466.051 745.4 467.12H745.41Z" fill="#FC6681"/>
<path d="M737.96 553.28C746.21 559.38 781.2 562.14 781.2 562.14C781.2 562.14 768.32 529.49 760.06 523.39C758.099 521.915 755.866 520.843 753.488 520.235C751.111 519.628 748.637 519.497 746.209 519.851C743.78 520.204 741.446 521.035 739.341 522.294C737.235 523.554 735.4 525.219 733.94 527.191C732.481 529.164 731.427 531.406 730.838 533.788C730.25 536.17 730.139 538.646 730.512 541.071C730.884 543.496 731.734 545.824 733.01 547.919C734.287 550.015 735.966 551.837 737.95 553.28H737.96Z" fill="#FC6681"/>
<path d="M206.73 603.12C206.73 603.12 182.06 519.36 211.36 457.71C223.66 431.84 227.74 402.79 222.06 374.71C219.344 361.378 215.411 348.323 210.31 335.71" stroke="#535461" stroke-width="2" stroke-miterlimit="10"/>
<path d="M228.5 296.8C228.5 307.07 209.91 336.8 209.91 336.8C209.91 336.8 191.32 307.03 191.32 296.8C191.262 294.323 191.701 291.86 192.609 289.555C193.517 287.249 194.877 285.149 196.608 283.377C198.34 281.605 200.408 280.197 202.691 279.235C204.975 278.274 207.427 277.779 209.905 277.779C212.382 277.779 214.835 278.274 217.118 279.235C219.402 280.197 221.47 281.605 223.202 283.377C224.933 285.149 226.293 287.249 227.201 289.555C228.109 291.86 228.547 294.323 228.49 296.8H228.5Z" fill="#446FC8"/>
<path d="M259.26 353.66C253.68 362.28 221.9 377.16 221.9 377.16C221.9 377.16 222.48 342.07 228.06 333.45C230.797 329.447 234.99 326.671 239.744 325.716C244.499 324.761 249.438 325.702 253.509 328.337C257.58 330.973 260.46 335.095 261.534 339.824C262.609 344.553 261.792 349.514 259.26 353.65V353.66Z" fill="#446FC8"/>
<path d="M257.91 450.83C248.74 455.45 213.8 452.26 213.8 452.26C213.8 452.26 232.01 422.26 241.18 417.64C245.567 415.535 250.605 415.235 255.212 416.804C259.818 418.373 263.626 421.685 265.817 426.03C268.009 430.375 268.409 435.406 266.933 440.042C265.456 444.679 262.22 448.552 257.92 450.83H257.91Z" fill="#446FC8"/>
<path d="M240.34 524.12C232.09 530.22 197.1 532.98 197.1 532.98C197.1 532.98 209.98 500.34 218.23 494.23C220.191 492.755 222.425 491.683 224.802 491.075C227.179 490.468 229.654 490.337 232.082 490.69C234.51 491.044 236.844 491.874 238.95 493.134C241.055 494.394 242.891 496.058 244.35 498.031C245.809 500.004 246.863 502.246 247.452 504.628C248.04 507.01 248.151 509.485 247.779 511.911C247.406 514.336 246.557 516.664 245.28 518.759C244.003 520.854 242.324 522.676 240.34 524.12V524.12Z" fill="#446FC8"/>
<path d="M182.87 379.15C190.23 386.3 224.54 393.71 224.54 393.71C224.54 393.71 216.14 359.64 208.78 352.48C205.219 349.182 200.509 347.408 195.658 347.536C190.806 347.664 186.196 349.684 182.814 353.166C179.432 356.647 177.546 361.313 177.558 366.166C177.57 371.02 179.48 375.676 182.88 379.14L182.87 379.15Z" fill="#446FC8"/>
<path d="M163.41 465.12C172.58 469.74 207.52 466.55 207.52 466.55C207.52 466.55 189.31 436.55 180.14 431.93C175.752 429.825 170.715 429.525 166.108 431.094C161.502 432.663 157.694 435.975 155.502 440.32C153.311 444.665 152.911 449.696 154.387 454.332C155.864 458.969 159.1 462.842 163.4 465.12H163.41Z" fill="#446FC8"/>
<path d="M155.96 551.28C164.21 557.38 199.2 560.14 199.2 560.14C199.2 560.14 186.32 527.49 178.06 521.39C176.099 519.915 173.865 518.843 171.488 518.235C169.11 517.628 166.636 517.497 164.208 517.851C161.78 518.204 159.446 519.035 157.34 520.294C155.235 521.554 153.399 523.219 151.94 525.191C150.481 527.164 149.426 529.406 148.838 531.788C148.249 534.17 148.138 536.646 148.511 539.071C148.884 541.496 149.733 543.824 151.01 545.919C152.287 548.015 153.965 549.837 155.95 551.28H155.96Z" fill="#446FC8"/>
<path d="M228.5 296.8C228.5 307.07 209.91 336.8 209.91 336.8C209.91 336.8 191.32 307.03 191.32 296.8C191.262 294.323 191.701 291.86 192.609 289.555C193.517 287.249 194.877 285.149 196.608 283.377C198.34 281.605 200.408 280.197 202.691 279.235C204.975 278.274 207.427 277.779 209.905 277.779C212.382 277.779 214.835 278.274 217.118 279.235C219.402 280.197 221.47 281.605 223.202 283.377C224.933 285.149 226.293 287.249 227.201 289.555C228.109 291.86 228.547 294.323 228.49 296.8H228.5Z" fill="#FC6681"/>
<path d="M259.26 353.66C253.68 362.28 221.9 377.16 221.9 377.16C221.9 377.16 222.48 342.07 228.06 333.45C230.797 329.447 234.99 326.671 239.744 325.716C244.499 324.761 249.438 325.702 253.509 328.337C257.58 330.973 260.46 335.095 261.534 339.824C262.609 344.553 261.792 349.514 259.26 353.65V353.66Z" fill="#FC6681"/>
<path d="M257.91 450.83C248.74 455.45 213.8 452.26 213.8 452.26C213.8 452.26 232.01 422.26 241.18 417.64C245.567 415.535 250.605 415.235 255.212 416.804C259.818 418.373 263.626 421.685 265.817 426.03C268.009 430.375 268.409 435.406 266.933 440.042C265.456 444.679 262.22 448.552 257.92 450.83H257.91Z" fill="#FC6681"/>
<path d="M240.34 524.12C232.09 530.22 197.1 532.98 197.1 532.98C197.1 532.98 209.98 500.34 218.23 494.23C220.191 492.755 222.425 491.683 224.802 491.075C227.179 490.468 229.654 490.337 232.082 490.69C234.51 491.044 236.844 491.874 238.95 493.134C241.055 494.394 242.891 496.058 244.35 498.031C245.809 500.004 246.863 502.246 247.452 504.628C248.04 507.01 248.151 509.485 247.779 511.911C247.406 514.336 246.557 516.664 245.28 518.759C244.003 520.854 242.324 522.676 240.34 524.12V524.12Z" fill="#FC6681"/>
<path d="M182.87 379.15C190.23 386.3 224.54 393.71 224.54 393.71C224.54 393.71 216.14 359.64 208.78 352.48C205.219 349.182 200.509 347.408 195.658 347.536C190.806 347.664 186.196 349.684 182.814 353.166C179.432 356.647 177.546 361.313 177.558 366.166C177.57 371.02 179.48 375.676 182.88 379.14L182.87 379.15Z" fill="#FC6681"/>
<path d="M163.41 465.12C172.58 469.74 207.52 466.55 207.52 466.55C207.52 466.55 189.31 436.55 180.14 431.93C175.752 429.825 170.715 429.525 166.108 431.094C161.502 432.663 157.694 435.975 155.502 440.32C153.311 444.665 152.911 449.696 154.387 454.332C155.864 458.969 159.1 462.842 163.4 465.12H163.41Z" fill="#FC6681"/>
<path d="M155.96 551.28C164.21 557.38 199.2 560.14 199.2 560.14C199.2 560.14 186.32 527.49 178.06 521.39C176.099 519.915 173.865 518.843 171.488 518.235C169.11 517.628 166.636 517.497 164.208 517.851C161.78 518.204 159.446 519.035 157.34 520.294C155.235 521.554 153.399 523.219 151.94 525.191C150.481 527.164 149.426 529.406 148.838 531.788C148.249 534.17 148.138 536.646 148.511 539.071C148.884 541.496 149.733 543.824 151.01 545.919C152.287 548.015 153.965 549.837 155.95 551.28H155.96Z" fill="#FC6681"/>
</g>
<defs>
<linearGradient id="paint0_linear" x1="492.01" y1="622.98" x2="492.01" y2="189.98" gradientUnits="userSpaceOnUse">
<stop stop-color="#808080" stop-opacity="0.25"/>
<stop offset="0.54" stop-color="#808080" stop-opacity="0.12"/>
<stop offset="1" stop-color="#808080" stop-opacity="0.1"/>
</linearGradient>
<clipPath id="clip0">
<rect width="985" height="623" fill="white"/>
</clipPath>
</defs>
</svg>
