<svg width="1057" height="713" viewBox="0 0 1057 713" fill="none" xmlns="http://www.w3.org/2000/svg">
<path d="M806.31 52.1499H528.94V61.0999H806.31V52.1499Z" fill="#EBECF0"/>
<path d="M806.31 61.1001H528.94V208.39H806.31V61.1001Z" fill="#F8F9FA"/>
<path d="M534.83 58.3402C535.968 58.3402 536.89 57.4179 536.89 56.2802C536.89 55.1425 535.968 54.2202 534.83 54.2202C533.692 54.2202 532.77 55.1425 532.77 56.2802C532.77 57.4179 533.692 58.3402 534.83 58.3402Z" fill="#F8F9FA"/>
<path d="M540.33 58.3402C541.468 58.3402 542.39 57.4179 542.39 56.2802C542.39 55.1425 541.468 54.2202 540.33 54.2202C539.192 54.2202 538.27 55.1425 538.27 56.2802C538.27 57.4179 539.192 58.3402 540.33 58.3402Z" fill="#F8F9FA"/>
<path d="M545.84 58.3402C546.978 58.3402 547.9 57.4179 547.9 56.2802C547.9 55.1425 546.978 54.2202 545.84 54.2202C544.702 54.2202 543.78 55.1425 543.78 56.2802C543.78 57.4179 544.702 58.3402 545.84 58.3402Z" fill="#F8F9FA"/>
<path d="M7.12 441.68C7.12 441.68 -42.45 519.12 120.05 520.45C120.05 520.45 122.44 453.07 69.32 425.31C58.9909 419.888 47.0319 418.443 35.7085 421.248C24.3851 424.053 14.4837 430.914 7.87999 440.53L7.12 441.68Z" fill="#446FC8"/>
<path d="M7.48999 440.38C7.48999 440.38 90.72 456.78 120.05 520.45" stroke="#535461" stroke-miterlimit="10"/>
<path d="M127.31 510.03C127.31 510.03 73.8701 440.97 78.7501 372.89C80.7501 344.32 74.04 315.78 58.54 291.68C51.1646 280.269 42.7595 269.558 33.4301 259.68" stroke="#535461" stroke-width="2" stroke-miterlimit="10"/>
<path d="M36.23 216.77C39.96 226.33 33.47 260.82 33.47 260.82C33.47 260.82 5.34001 239.83 1.61001 230.27C0.626514 227.978 0.114155 225.512 0.103443 223.018C0.0927311 220.525 0.583882 218.054 1.54766 215.754C2.51143 213.454 3.92813 211.372 5.71341 209.63C7.49869 207.889 9.61606 206.525 11.9395 205.619C14.2629 204.713 16.7448 204.284 19.2376 204.357C21.7303 204.43 24.1829 205.003 26.4493 206.044C28.7157 207.084 30.7495 208.57 32.4298 210.413C34.1101 212.256 35.4025 214.418 36.23 216.77V216.77Z" fill="#446FC8"/>
<path d="M85.53 258.55C83.47 268.61 59.27 294.03 59.27 294.03C59.27 294.03 47.05 261.13 49.11 251.03C49.5476 248.588 50.4694 246.259 51.821 244.179C53.1726 242.1 54.9268 240.311 56.9802 238.92C59.0335 237.529 61.3446 236.562 63.7772 236.078C66.2098 235.593 68.7147 235.601 71.1445 236.099C73.5743 236.598 75.8797 237.577 77.925 238.98C79.9703 240.384 81.7142 242.182 83.0538 244.269C84.3934 246.357 85.3018 248.691 85.7253 251.135C86.1488 253.579 86.079 256.083 85.52 258.5L85.53 258.55Z" fill="#446FC8"/>
<path d="M119.61 349.55C112.75 357.19 79.04 366.92 79.04 366.92C79.04 366.92 85.1 332.35 91.95 324.71C95.264 321.119 99.8591 318.976 104.741 318.747C109.622 318.518 114.398 320.22 118.034 323.485C121.67 326.751 123.874 331.316 124.169 336.194C124.464 341.072 122.826 345.87 119.61 349.55V349.55Z" fill="#446FC8"/>
<path d="M129.89 424.22C124.42 432.91 92.83 448.22 92.83 448.22C92.83 448.22 92.96 413.13 98.43 404.44C99.7042 402.32 101.389 400.476 103.385 399.016C105.381 397.555 107.648 396.507 110.054 395.934C112.46 395.361 114.956 395.273 117.396 395.677C119.837 396.081 122.172 396.967 124.265 398.284C126.358 399.602 128.168 401.324 129.587 403.349C131.006 405.375 132.007 407.663 132.531 410.08C133.055 412.498 133.091 414.995 132.638 417.427C132.184 419.858 131.25 422.174 129.89 424.24V424.22Z" fill="#446FC8"/>
<path d="M23.61 310.07C33.07 314.07 67.72 308.49 67.72 308.49C67.72 308.49 47.54 279.77 38.08 275.77C35.8278 274.82 33.4105 274.322 30.9662 274.307C28.5219 274.291 26.0984 274.756 23.834 275.677C21.5696 276.598 19.5088 277.955 17.7691 279.673C16.0295 281.39 14.6451 283.433 13.695 285.685C12.7449 287.937 12.2476 290.354 12.2317 292.799C12.2158 295.243 12.6815 297.666 13.6022 299.931C14.5229 302.195 15.8805 304.256 17.5977 305.996C19.3148 307.735 21.3578 309.12 23.61 310.07V310.07Z" fill="#446FC8"/>
<path d="M36.77 397.24C46.99 398.24 78.38 382.53 78.38 382.53C78.38 382.53 50.51 361.21 40.29 360.23C37.8257 359.93 35.3262 360.126 32.939 360.808C30.5518 361.489 28.3253 362.642 26.3908 364.198C24.4563 365.754 22.853 367.681 21.6756 369.867C20.4982 372.052 19.7705 374.452 19.5353 376.923C19.3002 379.395 19.5625 381.888 20.3067 384.256C21.0509 386.625 22.2619 388.82 23.8683 390.713C25.4747 392.606 27.4439 394.157 29.6598 395.277C31.8756 396.396 34.2933 397.06 36.77 397.23V397.24Z" fill="#446FC8"/>
<path d="M61.16 480.2C71.07 482.89 104.66 472.73 104.66 472.73C104.66 472.73 80.79 447 70.88 444.32C68.5077 443.629 66.0213 443.417 63.5663 443.698C61.1113 443.979 58.7369 444.746 56.5819 445.955C54.427 447.165 52.5347 448.791 51.0158 450.74C49.4969 452.689 48.3817 454.922 47.7356 457.307C47.0895 459.692 46.9254 462.182 47.2528 464.631C47.5802 467.08 48.3927 469.44 49.6426 471.571C50.8925 473.703 52.5549 475.564 54.5324 477.045C56.51 478.527 58.7631 479.599 61.16 480.2V480.2Z" fill="#446FC8"/>
<path opacity="0.25" d="M36.23 216.77C39.96 226.33 33.47 260.82 33.47 260.82C33.47 260.82 5.34001 239.83 1.61001 230.27C0.626514 227.978 0.114155 225.512 0.103443 223.018C0.0927311 220.525 0.583882 218.054 1.54766 215.754C2.51143 213.454 3.92813 211.372 5.71341 209.63C7.49869 207.889 9.61606 206.525 11.9395 205.619C14.2629 204.713 16.7448 204.284 19.2376 204.357C21.7303 204.43 24.1829 205.003 26.4493 206.044C28.7157 207.084 30.7495 208.57 32.4298 210.413C34.1101 212.256 35.4025 214.418 36.23 216.77V216.77Z" fill="black"/>
<path opacity="0.25" d="M85.53 258.55C83.47 268.61 59.27 294.03 59.27 294.03C59.27 294.03 47.05 261.13 49.11 251.03C49.5476 248.588 50.4694 246.259 51.821 244.179C53.1726 242.1 54.9268 240.311 56.9802 238.92C59.0335 237.529 61.3446 236.562 63.7772 236.078C66.2098 235.593 68.7147 235.601 71.1445 236.099C73.5743 236.598 75.8797 237.577 77.925 238.98C79.9703 240.384 81.7142 242.182 83.0538 244.269C84.3934 246.357 85.3018 248.691 85.7253 251.135C86.1488 253.579 86.079 256.083 85.52 258.5L85.53 258.55Z" fill="black"/>
<path opacity="0.25" d="M119.61 349.55C112.75 357.19 79.04 366.92 79.04 366.92C79.04 366.92 85.1 332.35 91.95 324.71C95.264 321.119 99.8591 318.976 104.741 318.747C109.622 318.518 114.398 320.22 118.034 323.485C121.67 326.751 123.874 331.316 124.169 336.194C124.464 341.072 122.826 345.87 119.61 349.55V349.55Z" fill="black"/>
<path opacity="0.25" d="M129.89 424.22C124.42 432.91 92.83 448.22 92.83 448.22C92.83 448.22 92.96 413.13 98.43 404.44C99.7042 402.32 101.389 400.476 103.385 399.016C105.381 397.555 107.648 396.507 110.054 395.934C112.46 395.361 114.956 395.273 117.396 395.677C119.837 396.081 122.172 396.967 124.265 398.284C126.358 399.602 128.168 401.324 129.587 403.349C131.006 405.375 132.007 407.663 132.531 410.08C133.055 412.498 133.091 414.995 132.638 417.427C132.184 419.858 131.25 422.174 129.89 424.24V424.22Z" fill="black"/>
<path opacity="0.25" d="M23.61 310.07C33.07 314.07 67.72 308.49 67.72 308.49C67.72 308.49 47.54 279.77 38.08 275.77C35.8278 274.82 33.4105 274.322 30.9662 274.307C28.5219 274.291 26.0984 274.756 23.834 275.677C21.5696 276.598 19.5088 277.955 17.7691 279.673C16.0295 281.39 14.6451 283.433 13.695 285.685C12.7449 287.937 12.2476 290.354 12.2317 292.799C12.2158 295.243 12.6815 297.666 13.6022 299.931C14.5229 302.195 15.8805 304.256 17.5977 305.996C19.3148 307.735 21.3578 309.12 23.61 310.07V310.07Z" fill="black"/>
<path opacity="0.25" d="M36.77 397.24C46.99 398.24 78.38 382.53 78.38 382.53C78.38 382.53 50.51 361.21 40.29 360.23C37.8257 359.93 35.3262 360.126 32.939 360.808C30.5518 361.489 28.3253 362.642 26.3908 364.198C24.4563 365.754 22.853 367.681 21.6756 369.867C20.4982 372.052 19.7705 374.452 19.5353 376.923C19.3002 379.395 19.5625 381.888 20.3067 384.256C21.0509 386.625 22.2619 388.82 23.8683 390.713C25.4747 392.606 27.4439 394.157 29.6598 395.277C31.8756 396.396 34.2933 397.06 36.77 397.23V397.24Z" fill="black"/>
<path opacity="0.25" d="M61.16 480.2C71.07 482.89 104.66 472.73 104.66 472.73C104.66 472.73 80.79 447 70.88 444.32C68.5077 443.629 66.0213 443.417 63.5663 443.698C61.1113 443.979 58.7369 444.746 56.5819 445.955C54.427 447.165 52.5347 448.791 51.0158 450.74C49.4969 452.689 48.3817 454.922 47.7356 457.307C47.0895 459.692 46.9254 462.182 47.2528 464.631C47.5802 467.08 48.3927 469.44 49.6426 471.571C50.8925 473.703 52.5549 475.564 54.5324 477.045C56.51 478.527 58.7631 479.599 61.16 480.2V480.2Z" fill="black"/>
<path opacity="0.1" d="M463.5 377.44C444.5 377.02 424.09 377.97 408.99 385.44C380.99 399.26 384.76 427.29 366.5 446.74C351.08 463.16 321.61 471.69 293.03 477.13C246.47 486 197.64 489.32 151.4 498.85C124.14 504.47 97.08 512.64 78.4 526.62C59.72 540.6 51.34 561.45 63.97 577.99C75.65 593.28 101.38 601.46 124.81 609.38C148.24 617.3 173.06 627.69 179.58 644.2C183.21 653.39 180.51 663.3 184.75 672.37C193.11 690.27 224.42 698.72 252.55 703.29C275.02 706.94 297.86 709.63 320.88 711.29C339.27 712.64 358.08 713.35 376.13 710.72C391.76 708.44 406.23 703.72 421.22 700.09C516.46 676.9 626 696.96 723.14 677.32C740.82 673.77 758.21 668.77 771.61 660.59C781.61 654.51 789.01 646.91 795.24 639.03C811.1 619.03 819.79 596.6 820.46 574.11C820.86 560.63 818.46 547.01 822.15 533.73C826.02 519.91 836.35 507.2 841.85 493.61C851.85 468.91 844.85 441.61 823.08 420.24C815.309 412.364 805.782 406.442 795.28 402.96C786.48 400.14 776.64 399.06 766.95 397.96C739.95 395.03 712.6 392.09 685.36 393.74C665.98 394.92 647.01 398.41 627.57 399.04C600.29 399.93 578.92 393.64 554.19 387.73C525.74 380.99 493.73 378.1 463.5 377.44Z" fill="#446FC8"/>
<path d="M120.14 173.01V440.48L476.02 371.35L469.22 166.21L120.14 173.01Z" fill="#DBACA2"/>
<path d="M789.11 488.37V576.77L412.83 686.71L408.99 684.72L111.36 530.3V164.79L479.7 152.89L481.97 355.76L467.23 360.3L461.56 170.55L137.42 181.79L135.16 456.63L417.36 580.17L417.58 580.12L789.11 488.37Z" fill="#E8C2B8"/>
<path opacity="0.1" d="M789.11 488.37V576.77L412.83 686.71L408.99 684.72L417.58 580.12L789.11 488.37Z" fill="black"/>
<path d="M335.48 360.01C335.48 360.01 153.3 378.19 135.61 404.52C117.92 430.85 135.46 463.15 135.46 463.15L417.1 585.55L799.04 486.95C799.04 486.95 788.84 417.81 757.11 409.88C725.38 401.95 472.61 347.55 472.61 347.55C472.61 347.55 370.61 341.31 335.48 360.01Z" fill="#EBECF0"/>
<path d="M135.44 404.77L422.75 503.94C422.75 503.94 729.2 411.02 772.61 419.77C772.61 419.77 558.24 343.04 472.61 346.38C404.37 349.04 332.92 360.24 332.92 360.24C332.92 360.24 143.38 379.28 135.44 404.77Z" fill="#F8F9FA"/>
<path d="M577.49 468.57L577.56 468.47V468.41L577.61 468.31V468.24V468.14V468.07V467.96V467.89V467.76V467.7C577.61 467.64 577.61 467.58 577.61 467.52C577.61 467.45 577.61 467.38 577.61 467.31C577.61 467.24 577.61 467.31 577.61 467.24C577.61 467.17 577.61 467.14 577.61 467.09V467V466.85V466.75V466.6V466.5V466.34V466.24V466.07V465.98L577.53 465.73L577.43 465.45V465.36L577.35 465.16V465.05L577.27 464.86L577.22 464.74L577.14 464.55L577.08 464.42L576.99 464.23L576.93 464.11L576.82 463.9L576.76 463.79L576.61 463.5L576.43 463.16L576.37 463.05L576.24 462.81L576.17 462.68L576.04 462.46L575.96 462.32L575.83 462.1L575.61 461.77L575.47 461.55L575.38 461.41L575.23 461.17L575.15 461.04L574.95 460.72V460.66L574.7 460.28L574.62 460.17L574.44 459.9L574.34 459.76L574.17 459.52L574.07 459.37L573.9 459.13L573.79 458.97L573.61 458.77L573.5 458.62L573.31 458.36L573.21 458.23L572.96 457.89V457.84L572.67 457.44L572.57 457.3L572.38 457.04L572.25 456.87L572.07 456.63L571.94 456.46L571.76 456.22L571.63 456.06L571.44 455.81L571.31 455.65L571.11 455.39L570.99 455.24L570.75 454.94L570.67 454.84C569.77 453.7 568.84 452.56 567.91 451.46C565.287 448.342 562.075 445.772 558.458 443.896C554.841 442.021 550.89 440.877 546.83 440.53C546 440.46 545.13 440.37 544.25 440.26H543.88L543.23 440.17H542.92L541.92 440.03L540.97 439.88L540.64 439.82L539.97 439.7L539.57 439.62L538.96 439.5L538.53 439.41L537.95 439.28L537.51 439.18L536.93 439.04L536.48 438.93L535.91 438.78L535.46 438.66L534.89 438.5C531.89 434.04 527.33 430.07 522.89 429.3C521.667 429.11 520.417 429.175 519.22 429.49L519.01 429.26L518.71 428.92L518.31 428.41L518.05 428.07L517.63 427.48L517.42 427.19C517.213 426.89 517.017 426.583 516.83 426.27C516.24 426.007 515.623 425.809 514.99 425.68C523.839 424.339 532.564 422.283 541.08 419.53C541.493 419.374 541.886 419.169 542.25 418.92L542.43 418.86C549.84 416.16 558.94 389.86 552.54 386.18C546.14 382.5 536.37 352.18 530.64 336.65C524.91 321.12 508.4 319.47 508.4 319.47C508.4 319.47 484.48 300.94 473.7 302.96C462.92 304.98 461.23 288.81 460.22 288.14C460.102 288.042 460.004 287.924 459.93 287.79C457.33 283.72 436.66 278.29 425.51 275.61C414.61 267.71 401.61 261.58 391.1 259.05C387.589 258.1 383.906 257.976 380.339 258.687C376.772 259.398 373.418 260.926 370.54 263.15C348.46 264.27 344.94 280.95 344.94 280.95C344.864 283.226 345.259 285.493 346.1 287.61C344.907 287.626 343.714 287.562 342.53 287.42C345.09 283.19 345.17 277.75 347.08 273.1C350.85 263.9 361.25 259.15 371.08 257.91C376.81 257.19 383.08 257.19 387.6 253.6C389.926 251.741 391.515 249.114 392.08 246.19C392.263 245.558 392.206 244.882 391.92 244.29C391.64 243.906 391.264 243.602 390.83 243.41C384.91 240.25 377.78 241.07 371.06 240.92C360.14 240.68 349.5 237.69 338.94 234.92C334.47 233.75 329.64 232.62 325.32 234.28C321.24 235.84 318.46 239.56 315.19 242.45C301.79 254.27 279.54 252.56 267.62 265.88C264.86 268.97 262.79 273.16 263.8 277.18C264.21 278.82 265.12 280.33 265.41 282C265.99 285.3 264.11 288.46 262.52 291.41C260.93 294.36 259.52 297.94 261.02 300.94C263.29 305.52 270.22 305.18 273.82 308.81C275.49 310.5 276.3 312.92 278.04 314.53C280.83 317.1 285.12 316.9 288.9 316.53C290.39 316.39 292.62 315.98 293.44 314.67C296.364 317.42 299.886 319.454 303.73 320.611C307.573 321.768 311.633 322.017 315.589 321.339C319.545 320.66 323.29 319.072 326.528 316.7C329.766 314.328 332.41 311.237 334.25 307.67C342.396 307.12 350.492 309.309 357.25 313.89C358.268 316.891 360.137 319.532 362.63 321.49C364.99 323.34 367.8 325.61 370.63 328.04C363.46 329.93 357.09 331.14 357.09 331.14C357.09 331.14 328.79 340.24 328.79 346.3C328.89 347.397 329.232 348.459 329.79 349.41C329.073 350.917 328.669 352.553 328.6 354.22C320.79 352.9 314.54 350.91 311.31 347.98C311.31 347.98 310.39 347.73 308.97 347.45C307.07 345.02 301.49 338.27 298.17 338.54C295.96 338.72 295.17 343.86 294.89 348.46C294.599 348.711 294.344 349 294.13 349.32C290.76 354.37 296.83 364.48 300.87 366.17C304.91 367.86 327.15 367.17 342.31 378.3C349.03 383.23 360.58 384.18 371.31 383.72C360.52 391.34 345.41 403.05 343.31 410.31C342.18 414.16 340.85 418.94 340.93 423.85C334.33 432.58 324.34 451.01 349.04 459.85C369.4 467.12 424.6 466.19 463.93 464.41C482.23 467.64 497.34 470.89 503.68 474C503.68 474 518.84 476 524.91 479.73C530.98 483.46 542.09 482.43 542.09 482.43C542.09 482.43 563.65 486.14 568.37 490.85C573.09 495.56 581.17 482.76 571.07 476.7C567.13 474.34 561.26 470.45 555.57 466.19C562.88 467.05 569.33 467.99 573.43 468.95L573.84 469.04H573.97H574.23H574.38H574.6H574.74H574.95H575.95H576.21H576.29H576.45H576.54H576.67H576.75H576.87H576.95L577.06 468.99H577.13L577.23 468.92H577.28L577.41 468.81L577.49 468.57ZM484.42 436.27C484.42 436.27 481.58 435.62 477.34 434.62L468.92 431.22C468.92 431.22 483.29 426.7 496.6 420.95C500.41 422.62 503.76 423.95 504.6 425.16C504.962 425.561 505.455 425.819 505.99 425.89C500.99 427.13 494.57 430.32 487.04 437.68C486.127 437.288 485.25 436.816 484.42 436.27V436.27ZM382.68 355.07L390.99 351.21C392.8 352.75 394.74 354.21 396.64 355.63C392.08 355.9 385.95 356.2 379.02 356.39C381.14 355.68 382.68 355.07 382.68 355.07Z" fill="url(#paint0_linear)"/>
<path d="M311.87 348.63C311.87 348.63 304.61 338.77 300.66 339.07C296.71 339.37 297.36 355.89 297.36 355.89L311.87 348.63Z" fill="#FFD5D8"/>
<path d="M405.21 355.23C405.21 355.23 328.03 361.5 313.52 348.3C313.52 348.3 300 344.67 296.7 349.62C293.4 354.57 299.34 364.46 303.3 366.11C307.26 367.76 329.03 367.11 343.87 377.98C358.71 388.85 397.63 379.98 397.63 379.98L413.79 373.71L405.21 355.23Z" fill="#FF7C5E"/>
<path opacity="0.05" d="M405.21 355.23C405.21 355.23 328.03 361.5 313.52 348.3C313.52 348.3 300 344.67 296.7 349.62C293.4 354.57 299.34 364.46 303.3 366.11C307.26 367.76 329.03 367.11 343.87 377.98C358.71 388.85 397.63 379.98 397.63 379.98L413.79 373.71L405.21 355.23Z" fill="black"/>
<path d="M515.7 392.17C515.7 392.17 499.21 380.3 465.24 395.17C431.27 410.04 346.51 417.93 346.51 417.93C346.51 417.93 318.15 446.29 350.51 457.84C382.87 469.39 504.86 459.84 504.86 459.84C504.86 459.84 554.66 463.14 570.16 466.77C579.54 468.97 572.16 458.35 564.81 449.63C562.244 446.575 559.1 444.057 555.558 442.221C552.016 440.385 548.146 439.266 544.17 438.93C534.43 438.1 520.92 435.04 514.74 424.88C514.74 424.88 502.87 418.94 485.06 436.75L467.88 429.77C467.88 429.77 515.04 414.93 516.69 405.03C518.34 395.13 515.7 392.17 515.7 392.17Z" fill="black"/>
<path opacity="0.05" d="M515.7 392.17C515.7 392.17 499.21 380.3 465.24 395.17C431.27 410.04 346.51 417.93 346.51 417.93C346.51 417.93 318.15 446.29 350.51 457.84C382.87 469.39 504.86 459.84 504.86 459.84C504.86 459.84 554.66 463.14 570.16 466.77C578.38 468.69 573.71 460.77 567.52 452.95C564.433 449.022 560.6 445.743 556.241 443.303C551.881 440.862 547.082 439.308 542.12 438.73C532.62 437.65 520.5 434.34 514.75 424.88C514.75 424.88 502.88 418.94 485.07 436.75L467.88 429.77C467.88 429.77 515.04 414.93 516.69 405.03C518.34 395.13 515.7 392.17 515.7 392.17Z" fill="black"/>
<path d="M516.03 345.34C516.03 345.34 495.25 312.34 446.11 341.05L383.11 376.05C383.11 376.05 348.11 398.15 344.85 409.36C341.59 420.57 336.6 439.7 370.91 446.96C405.22 454.22 485.03 463.45 501.85 471.7C501.85 471.7 516.69 473.7 522.63 477.31C528.57 480.92 539.45 479.95 539.45 479.95C539.45 479.95 560.56 483.58 565.18 488.2C569.8 492.82 577.71 480.28 567.82 474.35C557.93 468.42 535.5 452.58 535.82 446.35C536.14 440.12 528.23 429.11 520.61 427.77C512.99 426.43 503.13 437.66 503.13 437.66C503.13 437.66 490.6 439.66 483.01 434.66C483.01 434.66 444.09 425.75 440.13 423.12C436.17 420.49 409.13 410.26 409.13 410.26C409.13 410.26 473.13 409.6 491.91 392.45C491.91 392.45 499.17 387.17 505.1 388.82C505.15 388.87 534.5 377.66 516.03 345.34Z" fill="black"/>
<path d="M329.02 283.33C329.02 283.33 347.82 296.52 362.33 283.33C376.84 270.14 368.61 323.9 368.61 323.9C368.61 323.9 348.49 297.18 318.48 314.67L329.02 283.33Z" fill="#FFD5D8"/>
<path opacity="0.05" d="M329.02 283.33C329.02 283.33 347.82 296.52 362.33 283.33C376.84 270.14 368.61 323.9 368.61 323.9C368.61 323.9 348.49 297.18 318.48 314.67L329.02 283.33Z" fill="black"/>
<path d="M248.55 396.46C248.55 396.46 268.34 379.64 279.55 379.31C282.89 379.21 286.75 375.81 290.55 371.09C295.35 365.126 301.682 360.58 308.867 357.938C316.052 355.296 323.82 354.657 331.34 356.09C337.72 357.27 345.57 357.24 355.1 354.88C389.73 346.3 372.58 324.88 372.58 324.88L361.7 315.65C361.7 315.65 346.86 305.43 341.25 306.09C335.64 306.75 321.13 321.59 319.48 319.94C317.83 318.29 297.71 303.45 294.41 299.49C291.11 295.53 264.71 282.67 271.31 279.04C277.91 275.41 311.21 261.89 304.61 259.25C298.01 256.61 262.39 252.65 248.54 269.14C234.69 285.63 241.61 386.89 248.55 396.46Z" fill="#F8F9FA"/>
<path opacity="0.05" d="M248.55 396.46C248.55 396.46 268.34 379.64 279.55 379.31C282.89 379.21 286.75 375.81 290.55 371.09C295.35 365.126 301.682 360.58 308.867 357.938C316.052 355.296 323.82 354.657 331.34 356.09C337.72 357.27 345.57 357.24 355.1 354.88C389.73 346.3 372.58 324.88 372.58 324.88L361.7 315.65C361.7 315.65 346.86 305.43 341.25 306.09C335.64 306.75 321.13 321.59 319.48 319.94C317.83 318.29 297.71 303.45 294.41 299.49C291.11 295.53 264.71 282.67 271.31 279.04C277.91 275.41 311.21 261.89 304.61 259.25C298.01 256.61 262.39 252.65 248.54 269.14C234.69 285.63 241.61 386.89 248.55 396.46Z" fill="black"/>
<path d="M249.87 394.15C249.87 394.15 269.66 377.33 280.87 377C284.21 376.9 288.07 373.5 291.87 368.78C296.665 362.823 302.987 358.281 310.163 355.637C317.338 352.994 325.097 352.348 332.61 353.77C338.99 354.95 346.84 354.92 356.37 352.56C391 343.98 373.85 322.56 373.85 322.56L362.97 313.33C362.97 313.33 348.13 303.11 342.52 303.77C336.91 304.43 322.4 319.27 320.75 317.62C319.1 315.97 298.98 301.13 295.68 297.17C292.38 293.21 266.03 280.36 272.61 276.77C279.19 273.18 312.52 259.62 305.92 256.98C299.32 254.34 263.7 250.38 249.85 266.87C236 283.36 242.94 384.58 249.87 394.15Z" fill="#F8F9FA"/>
<path d="M346.5 282.67C346.5 282.67 351.78 257.6 390.37 267.5C428.96 277.4 448.09 298.83 448.09 298.83L413.09 314.99L370.21 300.48C370.21 300.48 346.18 300.77 346.5 282.67Z" fill="#FFD5D8"/>
<path opacity="0.05" d="M417.09 276.4C417.09 276.4 454.2 284.4 457.7 289.91C457.774 290.041 457.873 290.156 457.99 290.25C458.99 290.91 460.63 306.74 471.18 304.76C481.73 302.78 505.18 320.92 505.18 320.92C505.18 320.92 521.34 322.57 526.95 337.74C532.56 352.91 542.12 382.6 548.39 386.22C554.66 389.84 545.75 415.57 538.5 418.22C531.25 420.87 505.19 427.13 502.88 423.83C500.57 420.53 480.45 416.9 481.77 406.35C483.09 395.8 491 385.9 484.77 379.63C478.54 373.36 474.55 356.87 465.31 353.57C456.07 350.27 439.58 349.28 429.69 355.88C419.8 362.48 407.85 362.77 407.85 362.77C407.85 362.77 387.4 350.9 384.1 342.65C381.88 337.09 370.82 327.79 363.84 322.32C362.011 320.884 360.516 319.066 359.461 316.994C358.406 314.922 357.815 312.644 357.73 310.32C357.44 302.18 357.18 290.18 358.04 288.24C359.36 285.24 377.5 267.46 377.5 267.46L417.09 276.4Z" fill="black"/>
<path d="M418.41 275.77C418.41 275.77 455.52 283.77 459.02 289.28C459.094 289.411 459.193 289.526 459.31 289.62C460.31 290.28 461.95 306.11 472.5 304.13C483.05 302.15 506.5 320.29 506.5 320.29C506.5 320.29 522.66 321.94 528.27 337.11C533.88 352.28 543.44 381.97 549.71 385.59C555.98 389.21 547.07 414.94 539.82 417.59C532.57 420.24 506.51 426.5 504.2 423.2C501.89 419.9 481.77 416.27 483.09 405.72C484.41 395.17 492.32 385.27 486.09 379C479.86 372.73 475.87 356.24 466.63 352.94C457.39 349.64 440.9 348.65 431.01 355.25C421.12 361.85 408.09 363 408.09 363C408.09 363 388.8 350.3 385.5 342.06C383.28 336.5 372.22 327.2 365.24 321.73C363.411 320.294 361.916 318.477 360.861 316.404C359.806 314.332 359.215 312.054 359.13 309.73C358.84 301.59 358.58 289.59 359.44 287.65C360.76 284.65 378.9 266.87 378.9 266.87L418.41 275.77Z" fill="#FF7C5E"/>
<path d="M332.98 347.31C332.65 347.64 327.04 355.89 333.64 360.5C335.466 361.839 337.576 362.74 339.805 363.134C342.035 363.527 344.326 363.403 346.5 362.77L332.98 347.31Z" fill="#FFD5D8"/>
<path opacity="0.1" d="M364.61 275.41C364.61 275.41 373.52 257.6 392.61 262.22C411.7 266.84 439.44 283.66 446.04 300.48C452.64 317.3 421.04 337.77 421.04 337.77L383.44 355.25C383.44 355.25 371.9 359.87 368.6 358.25C365.3 356.63 349.47 370.77 349.47 370.77C349.47 370.77 331.66 353.62 331.66 347.68C331.66 341.74 359.37 332.77 359.37 332.77C359.37 332.77 392.37 326.5 392.02 320.24C392.02 320.24 397.63 313.64 394.66 311.66C391.69 309.68 359.86 300.28 359.86 300.28C359.86 300.28 358.71 279.37 364.61 275.41Z" fill="black"/>
<path d="M363.61 274.42C363.61 274.42 372.52 256.61 391.61 261.23C410.7 265.85 438.44 282.67 445.04 299.49C451.64 316.31 420.05 336.77 420.05 336.77L382.45 354.25C382.45 354.25 370.91 358.87 367.61 357.25C364.31 355.63 348.48 369.77 348.48 369.77C348.48 369.77 330.67 352.62 330.67 346.68C330.67 340.74 358.38 331.77 358.38 331.77C358.38 331.77 391.38 325.5 391.03 319.24C391.03 319.24 396.64 312.64 393.67 310.66C390.7 308.68 358.87 299.28 358.87 299.28C358.87 299.28 357.72 278.38 363.61 274.42Z" fill="#FF7C5E"/>
<path opacity="0.1" d="M321.44 311.36C326.79 308.101 332.813 306.107 339.05 305.53C340.86 302.04 336.11 298.24 336.11 294.04C336.11 290.52 334.77 289.18 333.47 286.12C328.75 284.41 331.99 280.02 331.99 280.02L321.44 311.36Z" fill="black"/>
<path d="M313.52 322.58C327.548 322.58 338.92 311.208 338.92 297.18C338.92 283.152 327.548 271.78 313.52 271.78C299.492 271.78 288.12 283.152 288.12 297.18C288.12 311.208 299.492 322.58 313.52 322.58Z" fill="#FFD5D8"/>
<path d="M294.48 307.6C300.15 303.22 307.53 301.75 314.67 301.11C319.13 300.71 323.67 300.57 327.95 299.21C330.411 298.351 332.799 297.294 335.09 296.05C338.15 294.49 341.31 292.85 343.4 290.12C346.66 285.86 346.56 279.96 348.6 274.99C352.29 265.99 362.47 261.33 372.13 260.12C377.74 259.41 383.87 259.41 388.31 255.9C390.588 254.081 392.144 251.511 392.7 248.65C392.878 248.031 392.821 247.369 392.54 246.79C392.265 246.414 391.896 246.118 391.47 245.93C385.67 242.84 378.69 243.64 372.12 243.49C361.43 243.26 351.01 240.32 340.67 237.61C336.29 236.46 331.56 235.36 327.34 236.98C323.34 238.51 320.63 242.15 317.42 244.98C304.3 256.56 282.52 254.88 270.85 267.92C268.15 270.92 266.12 275.05 267.11 278.98C267.52 280.59 268.4 282.06 268.69 283.7C269.26 286.93 267.42 290.03 265.86 292.91C264.3 295.79 262.94 299.31 264.39 302.24C266.62 306.72 273.39 306.39 276.92 309.94C278.56 311.59 279.34 313.94 281.05 315.54C283.79 318.06 287.98 317.86 291.68 317.54C293.68 317.35 296.95 316.69 296.38 314.01C295.9 311.61 292.73 310.58 294.48 307.6Z" fill="#85596B"/>
<path d="M285.61 322.77C285.61 322.77 302.93 309.77 313.81 314.03C324.69 318.29 327.66 320.63 334.59 318.03C341.52 315.43 344.48 323.31 344.48 323.31L301.32 335.77L285.61 322.77Z" fill="#F8F9FA"/>
<path opacity="0.05" d="M262.24 345.5C262.24 345.5 270.16 325.05 279.72 321.09Z" fill="black"/>
<path opacity="0.05" d="M252.01 338.9C252.01 338.9 259.93 318.45 269.49 314.49Z" fill="black"/>
<path opacity="0.05" d="M437.37 343.85C437.37 343.85 465.37 330.33 484.2 331.65C503.03 332.97 506.3 321.1 506.3 321.1" fill="black"/>
<path d="M316.24 681.41C313.91 679.24 311.72 676.68 311.04 673.57C310.36 670.46 311.69 666.72 314.67 665.57C318 664.29 321.57 666.57 324.27 668.94C326.97 671.31 330.07 673.94 333.6 673.44C331.782 671.791 330.422 669.699 329.653 667.368C328.883 665.037 328.731 662.547 329.21 660.14C329.365 659.146 329.787 658.213 330.43 657.44C332.28 655.44 335.64 656.31 337.85 657.87C344.85 662.87 346.85 672.4 346.9 681.02C347.61 677.91 347.01 674.67 347.03 671.48C347.05 668.29 347.92 664.76 350.61 663.04C352.285 662.139 354.169 661.698 356.07 661.76C359.24 661.64 362.77 661.96 364.93 664.28C367.62 667.16 366.93 671.99 364.58 675.16C362.23 678.33 358.68 680.32 355.41 682.51C352.785 684.075 350.546 686.211 348.86 688.76C348.66 689.116 348.496 689.491 348.37 689.88H328.52C324.063 687.623 319.932 684.774 316.24 681.41V681.41Z" fill="#446FC8"/>
<path d="M774.77 592.26C773.223 590.999 772.097 589.297 771.54 587.38C771.12 585.44 771.95 583.12 773.8 582.38C775.87 581.59 778.09 583.02 779.8 584.48C781.51 585.94 783.4 587.59 785.6 587.28C784.469 586.255 783.623 584.955 783.145 583.505C782.666 582.056 782.572 580.507 782.87 579.01C782.966 578.392 783.229 577.811 783.63 577.33C784.78 576.1 786.87 576.63 788.25 577.6C792.63 580.68 793.85 586.6 793.88 591.99C794.32 590.06 793.95 588.04 793.96 586.06C793.97 584.08 794.51 581.88 796.19 580.82C797.233 580.258 798.406 579.982 799.59 580.02C801.59 579.95 803.75 580.15 805.1 581.59C806.77 583.38 806.34 586.38 804.88 588.35C803.42 590.32 801.21 591.56 799.18 592.92C797.548 593.894 796.157 595.224 795.11 596.81C794.988 597.03 794.887 597.261 794.81 597.5H782.4C779.632 596.105 777.066 594.342 774.77 592.26Z" fill="#446FC8"/>
<path d="M618.016 208.456L596.018 186.781L590.563 181.405L574.281 165.362L554.097 186.909L534 208.366" fill="#F2F2F2"/>
<path d="M726.348 208.587H577.617L596.018 188.639L630.017 148.761L632.308 146.074L663.062 110L684.342 143.703L684.899 144.585L711.972 187.457L726.348 208.587Z" fill="#F2F2F2"/>
<path d="M800 208.456L763.263 165.109L745.254 143.861L727.848 165.685L711.971 185.598L693.813 208.366" fill="#F2F2F2"/>
<path opacity="0.1" d="M590.563 181.405L580.87 187.904L569.426 183.396L554.097 186.909L574.281 165.362L590.563 181.405Z" fill="black"/>
<path d="M763.374 208.876L762.889 208.625C769.192 196.438 765.822 180.612 761.884 169.481C759.21 162 755.8 154.802 751.703 147.995L752.165 147.703C756.283 154.545 759.711 161.779 762.399 169.299C766.373 180.531 769.767 196.516 763.374 208.876Z" fill="#2F2E41"/>
<path d="M744.487 164.322L744.087 164.694L762.385 184.358L762.785 183.985L744.487 164.322Z" fill="#2F2E41"/>
<path d="M777.382 185.921L768.101 198.76L768.544 199.08L777.825 186.241L777.382 185.921Z" fill="#2F2E41"/>
<path d="M780.61 183.899C782.118 183.899 783.341 182.676 783.341 181.168C783.341 179.659 782.118 178.437 780.61 178.437C779.102 178.437 777.879 179.659 777.879 181.168C777.879 182.676 779.102 183.899 780.61 183.899Z" fill="#3F3D56"/>
<path d="M771.598 186.902C773.106 186.902 774.329 185.68 774.329 184.171C774.329 182.663 773.106 181.44 771.598 181.44C770.089 181.44 768.867 182.663 768.867 184.171C768.867 185.68 770.089 186.902 771.598 186.902Z" fill="#3F3D56"/>
<path d="M777.879 195.642C779.387 195.642 780.61 194.419 780.61 192.911C780.61 191.402 779.387 190.18 777.879 190.18C776.371 190.18 775.148 191.402 775.148 192.911C775.148 194.419 776.371 195.642 777.879 195.642Z" fill="#3F3D56"/>
<path d="M695.372 208.33L694.887 208.079C701.19 195.892 697.82 180.066 693.882 168.935C691.208 161.454 687.798 154.256 683.701 147.449L684.163 147.157C688.281 153.999 691.709 161.233 694.397 168.753C698.371 179.985 701.765 195.97 695.372 208.33Z" fill="#2F2E41"/>
<path d="M676.485 163.776L676.085 164.148L694.383 183.811L694.783 183.439L676.485 163.776Z" fill="#2F2E41"/>
<path d="M709.38 185.375L700.099 198.214L700.542 198.534L709.823 185.696L709.38 185.375Z" fill="#2F2E41"/>
<path d="M712.608 183.352C714.116 183.352 715.339 182.129 715.339 180.621C715.339 179.113 714.116 177.89 712.608 177.89C711.1 177.89 709.877 179.113 709.877 180.621C709.877 182.129 711.1 183.352 712.608 183.352Z" fill="#004DE6"/>
<path d="M703.596 186.357C705.104 186.357 706.327 185.134 706.327 183.626C706.327 182.117 705.104 180.895 703.596 180.895C702.087 180.895 700.865 182.117 700.865 183.626C700.865 185.134 702.087 186.357 703.596 186.357Z" fill="#3F3D56"/>
<path d="M709.877 195.096C711.385 195.096 712.608 193.873 712.608 192.365C712.608 190.857 711.385 189.634 709.877 189.634C708.368 189.634 707.146 190.857 707.146 192.365C707.146 193.873 708.368 195.096 709.877 195.096Z" fill="#3F3D56"/>
<path d="M581.277 208.33L581.762 208.079C575.459 195.892 578.829 180.066 582.767 168.935C585.441 161.454 588.851 154.256 592.948 147.449L592.486 147.157C588.368 153.999 584.94 161.233 582.252 168.753C578.278 179.985 574.884 195.97 581.277 208.33Z" fill="#2F2E41"/>
<path d="M600.163 163.776L581.866 183.439L582.266 183.811L600.563 164.148L600.163 163.776Z" fill="#2F2E41"/>
<path d="M567.269 185.375L566.826 185.695L576.107 198.534L576.55 198.214L567.269 185.375Z" fill="#2F2E41"/>
<path d="M564.041 183.352C565.549 183.352 566.772 182.129 566.772 180.621C566.772 179.113 565.549 177.89 564.041 177.89C562.533 177.89 561.31 179.113 561.31 180.621C561.31 182.129 562.533 183.352 564.041 183.352Z" fill="#3F3D56"/>
<path d="M573.053 186.357C574.562 186.357 575.784 185.134 575.784 183.626C575.784 182.117 574.562 180.895 573.053 180.895C571.545 180.895 570.322 182.117 570.322 183.626C570.322 185.134 571.545 186.357 573.053 186.357Z" fill="#3F3D56"/>
<path d="M566.772 195.096C568.28 195.096 569.503 193.873 569.503 192.365C569.503 190.857 568.28 189.634 566.772 189.634C565.264 189.634 564.041 190.857 564.041 192.365C564.041 193.873 565.264 195.096 566.772 195.096Z" fill="#004DE6"/>
<path d="M641.037 150.083C651.422 150.083 659.84 141.664 659.84 131.279C659.84 120.894 651.422 112.475 641.037 112.475C630.652 112.475 622.233 120.894 622.233 131.279C622.233 141.664 630.652 150.083 641.037 150.083Z" fill="#004DE6"/>
<path opacity="0.1" d="M684.566 144.353L681.305 150.082L673.995 142.423L665.985 150.082L661.457 141.378L654.144 150.082L652.055 144.512L647.182 150.082L638.475 144.512L632.319 146.733L663.199 110.512L684.566 144.353Z" fill="black"/>
<path opacity="0.1" d="M763.809 165.847L754.78 176.895L747.467 168.19L736.324 177.244L728.249 166.425L745.726 144.511L763.809 165.847Z" fill="black"/>
<path d="M770.258 143.306C771.772 143.306 773 142.078 773 140.563C773 139.049 771.772 137.821 770.258 137.821C768.743 137.821 767.516 139.049 767.516 140.563C767.516 142.078 768.743 143.306 770.258 143.306Z" fill="#004DE6"/>
<path d="M740.368 164.42C741.883 164.42 743.111 163.193 743.111 161.678C743.111 160.164 741.883 158.936 740.368 158.936C738.854 158.936 737.626 160.164 737.626 161.678C737.626 163.193 738.854 164.42 740.368 164.42Z" fill="#3F3D56"/>
<path d="M752.434 167.163C753.948 167.163 755.176 165.935 755.176 164.42C755.176 162.906 753.948 161.678 752.434 161.678C750.919 161.678 749.692 162.906 749.692 164.42C749.692 165.935 750.919 167.163 752.434 167.163Z" fill="#3F3D56"/>
<path d="M749.692 146.597C751.206 146.597 752.434 145.369 752.434 143.854C752.434 142.34 751.206 141.112 749.692 141.112C748.177 141.112 746.949 142.34 746.949 143.854C746.949 145.369 748.177 146.597 749.692 146.597Z" fill="#3F3D56"/>
<path d="M700.334 147.919L696.777 167.389L697.316 167.488L700.874 148.017L700.334 147.919Z" fill="#2F2E41"/>
<path d="M672.089 163.872C673.603 163.872 674.831 162.644 674.831 161.13C674.831 159.615 673.603 158.388 672.089 158.388C670.574 158.388 669.346 159.615 669.346 161.13C669.346 162.644 670.574 163.872 672.089 163.872Z" fill="#3F3D56"/>
<path d="M684.154 166.614C685.669 166.614 686.896 165.386 686.896 163.872C686.896 162.358 685.669 161.13 684.154 161.13C682.64 161.13 681.412 162.358 681.412 163.872C681.412 165.386 682.64 166.614 684.154 166.614Z" fill="#3F3D56"/>
<path d="M678.67 177.309C680.184 177.309 681.412 176.081 681.412 174.566C681.412 173.052 680.184 171.824 678.67 171.824C677.155 171.824 675.928 173.052 675.928 174.566C675.928 176.081 677.155 177.309 678.67 177.309Z" fill="#3F3D56"/>
<path d="M681.412 146.048C682.927 146.048 684.154 144.821 684.154 143.306C684.154 141.792 682.927 140.564 681.412 140.564C679.898 140.564 678.67 141.792 678.67 143.306C678.67 144.821 679.898 146.048 681.412 146.048Z" fill="#3F3D56"/>
<path d="M701.742 146.484C703.257 146.484 704.484 145.257 704.484 143.742C704.484 142.228 703.257 141 701.742 141C700.228 141 699 142.228 699 143.742C699 145.257 700.228 146.484 701.742 146.484Z" fill="#3F3D56"/>
<path d="M576.387 147.918L575.847 148.016L579.405 167.487L579.944 167.388L576.387 147.918Z" fill="#2F2E41"/>
<path d="M574.742 142.757C576.257 142.757 577.484 141.53 577.484 140.015C577.484 138.501 576.257 137.273 574.742 137.273C573.228 137.273 572 138.501 572 140.015C572 141.53 573.228 142.757 574.742 142.757Z" fill="#3F3D56"/>
<path d="M604.632 163.872C606.146 163.872 607.374 162.644 607.374 161.13C607.374 159.615 606.146 158.388 604.632 158.388C603.117 158.388 601.889 159.615 601.889 161.13C601.889 162.644 603.117 163.872 604.632 163.872Z" fill="#3F3D56"/>
<path d="M592.566 166.614C594.081 166.614 595.308 165.386 595.308 163.872C595.308 162.358 594.081 161.13 592.566 161.13C591.052 161.13 589.824 162.358 589.824 163.872C589.824 165.386 591.052 166.614 592.566 166.614Z" fill="#3F3D56"/>
<path d="M598.051 177.309C599.565 177.309 600.793 176.081 600.793 174.566C600.793 173.052 599.565 171.824 598.051 171.824C596.536 171.824 595.308 173.052 595.308 174.566C595.308 176.081 596.536 177.309 598.051 177.309Z" fill="#3F3D56"/>
<path d="M595.308 146.048C596.823 146.048 598.05 144.821 598.05 143.306C598.05 141.792 596.823 140.564 595.308 140.564C593.794 140.564 592.566 141.792 592.566 143.306C592.566 144.821 593.794 146.048 595.308 146.048Z" fill="#3F3D56"/>
<path d="M594.335 110.04C592.862 108.561 591.041 107.475 589.039 106.884C587.037 106.292 584.919 106.213 582.878 106.653C580.838 107.093 578.94 108.039 577.361 109.404C575.781 110.769 574.57 112.509 573.838 114.464L596.723 113.403C596.12 112.157 595.313 111.02 594.335 110.04V110.04Z" fill="#F2F2F2"/>
<path d="M643.694 91.6671C642.221 90.1881 640.4 89.1029 638.398 88.5111C636.396 87.9194 634.278 87.84 632.237 88.2805C630.196 88.7209 628.299 89.6669 626.72 91.0317C625.14 92.3964 623.929 94.1362 623.197 96.0912L646.082 95.0308C645.479 93.7845 644.672 92.6476 643.694 91.6671V91.6671Z" fill="#F2F2F2"/>
<path d="M730.62 137.461C729.147 135.982 727.326 134.897 725.324 134.305C723.322 133.713 721.204 133.634 719.163 134.074C717.123 134.515 715.225 135.461 713.646 136.826C712.066 138.19 710.855 139.93 710.123 141.885L733.008 140.825C732.405 139.578 731.598 138.442 730.62 137.461V137.461Z" fill="#F2F2F2"/>
<defs>
<linearGradient id="paint0_linear" x1="419.15" y1="491.87" x2="419.15" y2="233.44" gradientUnits="userSpaceOnUse">
<stop stop-color="#808080" stop-opacity="0.25"/>
<stop offset="0.54" stop-color="#808080" stop-opacity="0.12"/>
<stop offset="1" stop-color="#808080" stop-opacity="0.1"/>
</linearGradient>
</defs>
</svg>
