<svg width="1474" height="533" viewBox="0 0 1474 533" fill="none" xmlns="http://www.w3.org/2000/svg">
<rect x="1434.71" y="424.809" width="27.0148" height="27.0148" transform="rotate(-45 1434.71 424.809)" stroke="#5D5A55"/>
<rect x="299.707" y="512.809" width="27.0148" height="27.0148" transform="rotate(-45 299.707 512.809)" stroke="#5D5A55"/>
<path d="M801.805 107.635C800.459 107.635 799.143 107.235 798.024 106.486C796.905 105.737 796.033 104.672 795.518 103.426C795.003 102.181 794.868 100.81 795.131 99.4874C795.393 98.1649 796.041 96.9501 796.993 95.9967C797.945 95.0432 799.157 94.3939 800.477 94.1309C801.797 93.8678 803.166 94.0028 804.409 94.5188C805.652 95.0348 806.715 95.9087 807.463 97.0298C808.211 98.1509 808.61 99.469 808.61 100.817C808.608 102.625 807.89 104.358 806.614 105.636C805.339 106.914 803.609 107.633 801.805 107.635ZM801.805 95.1361C800.683 95.1361 799.587 95.4693 798.654 96.0936C797.722 96.7179 796.995 97.6052 796.566 98.6433C796.137 99.6814 796.024 100.824 796.243 101.926C796.462 103.028 797.002 104.04 797.795 104.835C798.588 105.629 799.599 106.17 800.699 106.39C801.799 106.609 802.939 106.496 803.975 106.066C805.011 105.636 805.897 104.908 806.52 103.974C807.143 103.039 807.476 101.941 807.476 100.817C807.474 99.3112 806.876 97.8671 805.813 96.8021C804.75 95.737 803.308 95.1379 801.805 95.1361Z" fill="#3F3D56" fill-opacity="0.25"/>
<rect x="179.707" y="14.6243" width="19.6821" height="19.6821" transform="rotate(-45 179.707 14.6243)" stroke="#5D5A55"/>
<rect x="1182.71" y="84.3123" width="97.0223" height="97.0223" transform="rotate(-45 1182.71 84.3123)" stroke="#5D5A55"/>
<circle cx="84" cy="321" r="83.5" stroke="#3F3D56" stroke-opacity="0.25"/>
<circle cx="916" cy="379" r="15.5" stroke="#3F3D56" stroke-opacity="0.25"/>
</svg>
