<svg width="1440" height="442" viewBox="0 0 1440 442" fill="none" xmlns="http://www.w3.org/2000/svg">
<rect x="1359.71" y="385.81" width="27.0148" height="27.0148" transform="rotate(-45 1359.71 385.81)" stroke="#5D5A55"/>
<path d="M737.805 134.635C736.459 134.635 735.143 134.235 734.024 133.486C732.905 132.737 732.033 131.672 731.518 130.427C731.003 129.181 730.868 127.81 731.131 126.488C731.393 125.165 732.041 123.95 732.993 122.997C733.945 122.043 735.157 121.394 736.477 121.131C737.797 120.868 739.166 121.003 740.409 121.519C741.652 122.035 742.715 122.909 743.463 124.03C744.211 125.151 744.61 126.469 744.61 127.818C744.608 129.625 743.89 131.358 742.614 132.636C741.339 133.914 739.609 134.633 737.805 134.635ZM737.805 122.136C736.683 122.136 735.587 122.469 734.654 123.094C733.722 123.718 732.995 124.605 732.566 125.643C732.137 126.682 732.024 127.824 732.243 128.926C732.462 130.028 733.002 131.04 733.795 131.835C734.588 132.629 735.599 133.17 736.699 133.39C737.799 133.609 738.939 133.496 739.975 133.066C741.011 132.636 741.897 131.908 742.52 130.974C743.143 130.04 743.476 128.941 743.476 127.818C743.474 126.311 742.876 124.867 741.813 123.802C740.75 122.737 739.308 122.138 737.805 122.136Z" fill="#3F3D56"/>
<rect x="115.707" y="41.6244" width="19.6821" height="19.6821" transform="rotate(-45 115.707 41.6244)" stroke="#5D5A55"/>
<path d="M622 41.6207C622.326 35.3932 625.03 29.5282 629.553 25.2353C634.077 20.9425 640.076 18.5492 646.313 18.5491C647.053 18.5491 647.783 18.5876 648.507 18.6523C651.351 13.7599 655.429 9.69918 660.333 6.87577C665.238 4.05237 670.798 2.56506 676.457 2.56238C682.117 2.55971 687.678 4.04176 692.585 6.86053C697.493 9.6793 701.575 13.7361 704.423 18.6258C705.033 18.58 705.648 18.5491 706.269 18.5491C712.506 18.5492 718.505 20.9425 723.029 25.2353C727.553 29.5282 730.256 35.3932 730.582 41.6207" fill="#F2F2F2"/>
<path d="M626.687 40.0584C627.013 33.8308 629.717 27.9658 634.24 23.6729C638.764 19.3801 644.763 16.9868 651 16.9867C651.74 16.9867 652.471 17.0253 653.194 17.0899C656.038 12.1975 660.116 8.1368 665.02 5.3134C669.925 2.48999 675.485 1.00268 681.144 1C686.804 0.997328 692.365 2.47938 697.272 5.29815C702.18 8.11692 706.262 12.1737 709.11 17.0635C709.72 17.0176 710.335 16.9867 710.956 16.9867C717.193 16.9868 723.192 19.3801 727.716 23.6729C732.24 27.9658 734.943 33.8308 735.269 40.0584" stroke="#3F3D56" stroke-miterlimit="10"/>
<circle cx="20" cy="348" r="83.5" stroke="#3F3D56"/>
<path d="M425 442C425.53 431.881 429.922 422.352 437.273 415.377C444.623 408.402 454.37 404.514 464.503 404.513C465.705 404.513 466.893 404.576 468.067 404.681C472.689 396.732 479.314 390.134 487.284 385.547C495.253 380.959 504.286 378.543 513.481 378.538C522.677 378.534 531.713 380.942 539.686 385.522C547.659 390.102 554.292 396.693 558.92 404.638C559.911 404.564 560.909 404.513 561.92 404.513C572.053 404.514 581.8 408.402 589.15 415.377C596.5 422.352 600.893 431.881 601.423 442" fill="#F2F2F2"/>
<path d="M432.615 439.461C433.145 429.343 437.538 419.814 444.888 412.839C452.238 405.864 461.985 401.975 472.118 401.975C473.321 401.975 474.508 402.038 475.683 402.143C480.304 394.193 486.93 387.596 494.899 383.008C502.868 378.421 511.901 376.004 521.097 376C530.292 375.996 539.328 378.404 547.301 382.984C555.275 387.563 561.907 394.155 566.535 402.1C567.527 402.025 568.525 401.975 569.535 401.975C579.668 401.975 589.415 405.864 596.765 412.839C604.115 419.814 608.508 429.343 609.038 439.461" stroke="#3F3D56" stroke-miterlimit="10"/>
<path d="M283 127.793C283.432 119.546 287.012 111.779 293.003 106.094C298.994 100.409 306.938 97.24 315.197 97.2398C316.177 97.2398 317.145 97.2909 318.102 97.3765C321.869 90.8976 327.269 85.5201 333.764 81.7811C340.259 78.0421 347.622 76.0725 355.117 76.069C362.611 76.0654 369.976 78.0281 376.475 81.7609C382.973 85.4938 388.379 90.8661 392.152 97.3415C392.959 97.2808 393.773 97.2398 394.596 97.2398C402.855 97.24 410.8 100.409 416.79 106.094C422.781 111.779 426.362 119.546 426.793 127.793" fill="#F2F2F2"/>
<path d="M289.207 125.724C289.639 117.477 293.219 109.71 299.21 104.025C305.2 98.3404 313.145 95.171 321.404 95.1708C322.384 95.1708 323.351 95.2219 324.309 95.3075C328.075 88.8286 333.476 83.4511 339.971 79.7121C346.466 75.9732 353.829 74.0035 361.324 74C368.818 73.9965 376.183 75.9591 382.682 79.692C389.18 83.4248 394.586 88.7971 398.358 95.2725C399.166 95.2118 399.98 95.1708 400.803 95.1708C409.062 95.171 417.006 98.3404 422.997 104.025C428.988 109.71 432.568 117.477 433 125.724" stroke="#3F3D56" stroke-width="0.815049" stroke-miterlimit="10"/>
<path d="M1284 101.175C1284.54 90.8021 1289.05 81.0333 1296.58 73.8831C1304.11 66.7329 1314.1 62.7466 1324.49 62.7464C1325.72 62.7464 1326.94 62.8107 1328.14 62.9183C1332.88 54.7695 1339.67 48.006 1347.84 43.3033C1356.01 38.6006 1365.26 36.1234 1374.69 36.1189C1384.11 36.1144 1393.38 38.583 1401.55 43.2779C1409.72 47.9729 1416.52 54.73 1421.26 62.8743C1422.28 62.798 1423.3 62.7464 1424.34 62.7464C1434.72 62.7466 1444.71 66.7329 1452.25 73.8831C1459.78 81.0333 1464.28 90.8021 1464.82 101.175" fill="#F2F2F2"/>
<path d="M1292.44 98.0559C1292.99 87.6832 1297.49 77.9144 1305.02 70.7642C1312.56 63.614 1322.55 59.6277 1332.93 59.6275C1334.17 59.6275 1335.38 59.6918 1336.59 59.7994C1341.32 51.6506 1348.11 44.8871 1356.28 40.1844C1364.45 35.4817 1373.71 33.0045 1383.13 33C1392.56 32.9955 1401.82 35.4641 1409.99 40.159C1418.16 44.854 1424.96 51.6111 1429.71 59.7554C1430.72 59.6791 1431.74 59.6275 1432.78 59.6275C1443.17 59.6277 1453.16 63.614 1460.69 70.7642C1468.22 77.9144 1472.73 87.6832 1473.27 98.0559" stroke="#3F3D56" stroke-miterlimit="10"/>
</svg>
