<svg width="464" height="350" viewBox="0 0 464 350" fill="none" xmlns="http://www.w3.org/2000/svg">
<g clip-path="url(#clip0)">
<path opacity="0.1" d="M549 208.018C549.031 224.595 544.505 240.861 535.917 255.04C535.917 272.38 527.833 288.098 514.72 299.553C511.438 302.416 507.904 304.977 504.162 307.206C504.011 307.301 503.856 307.391 503.701 307.482C503.42 307.647 503.14 307.812 502.854 307.982L502.589 308.138C490.173 315.053 476.18 318.642 461.968 318.556H84.7748C81.7696 318.556 78.7911 318.436 75.8392 318.195C65.3492 317.369 55.0412 314.982 45.2559 311.113C43.3459 310.358 41.4726 309.547 39.6361 308.679C38.7612 308.268 37.8947 307.846 37.0365 307.411C36.5006 307.141 35.9646 306.861 35.4337 306.58C29.263 303.328 23.4739 299.399 18.1736 294.865C1.14388 280.224 -9.41455 259.999 -9.41455 237.66C-18.9675 222.95 -24.0352 205.778 -24 188.238C-24 138.582 15.6893 98.3266 64.6547 98.3266C66.1573 98.3266 67.66 98.3716 69.1626 98.4518C69.378 98.4518 69.5883 98.4518 69.8037 98.4818C78.0581 84.4123 89.0924 71.4847 102.361 60.1049C138.544 29.1007 191.426 9.55664 250.334 9.55664C299.83 9.55664 345.074 23.3557 379.73 46.1555C392.862 38.732 407.694 34.8405 422.78 34.8608C471.735 34.8608 511.434 75.1161 511.434 124.773C511.427 127.915 511.26 131.054 510.934 134.179C522.734 142.533 532.353 153.602 538.978 166.453C545.603 179.304 549.041 193.56 549 208.018Z" fill="#F3F2F2"/>
<path d="M455.837 69.3261V309.335C455.837 311.781 454.866 314.126 453.137 315.855C451.407 317.585 449.062 318.556 446.616 318.556H78.3837C77.5227 318.557 76.666 318.436 75.8393 318.195C73.9143 317.645 72.2211 316.483 71.0163 314.884C69.8115 313.285 69.1607 311.337 69.1626 309.335V202.228C69.1626 201.682 69.1626 201.141 69.1626 200.6V98.4519C69.378 98.4519 69.5883 98.4519 69.8037 98.482C78.0581 84.4124 89.0924 71.4848 102.361 60.105H446.616C449.062 60.105 451.407 61.0765 453.137 62.8058C454.866 64.5351 455.837 66.8805 455.837 69.3261Z" fill="white"/>
<path d="M392.737 91.2743H341.713C336.74 91.2743 332.708 95.3063 332.708 100.28C332.708 105.254 336.74 109.286 341.713 109.286H392.737C397.711 109.286 401.743 105.254 401.743 100.28C401.743 95.3063 397.711 91.2743 392.737 91.2743Z" fill="#3F3D56"/>
<path opacity="0.1" d="M391.245 94.2845H343.201C339.89 94.2845 337.205 96.9677 337.205 100.278C337.205 103.587 339.89 106.27 343.201 106.27H391.245C394.556 106.27 397.24 103.587 397.24 100.278C397.24 96.9677 394.556 94.2845 391.245 94.2845Z" fill="black"/>
<path d="M390.403 94.9407H379.394C376.448 94.9407 374.06 97.3289 374.06 100.275V100.28C374.06 103.226 376.448 105.614 379.394 105.614H390.403C393.349 105.614 395.738 103.226 395.738 100.28V100.275C395.738 97.3289 393.349 94.9407 390.403 94.9407Z" fill="#446FC8"/>
<path d="M384.733 103.616C386.576 103.616 388.069 102.122 388.069 100.28C388.069 98.4377 386.576 96.9442 384.733 96.9442C382.891 96.9442 381.398 98.4377 381.398 100.28C381.398 102.122 382.891 103.616 384.733 103.616Z" fill="white"/>
<path d="M392.737 210.006H341.713C336.74 210.006 332.708 214.038 332.708 219.012C332.708 223.986 336.74 228.018 341.713 228.018H392.737C397.711 228.018 401.743 223.986 401.743 219.012C401.743 214.038 397.711 210.006 392.737 210.006Z" fill="#3F3D56"/>
<path opacity="0.1" d="M391.245 213.017H343.201C339.89 213.017 337.205 215.7 337.205 219.01C337.205 222.319 339.89 225.003 343.201 225.003H391.245C394.556 225.003 397.24 222.319 397.24 219.01C397.24 215.7 394.556 213.017 391.245 213.017Z" fill="black"/>
<path d="M390.403 213.673H379.394C376.448 213.673 374.06 216.061 374.06 219.007V219.012C374.06 221.958 376.448 224.346 379.394 224.346H390.403C393.349 224.346 395.738 221.958 395.738 219.012V219.007C395.738 216.061 393.349 213.673 390.403 213.673Z" fill="#004DE6"/>
<path d="M384.733 222.348C386.576 222.348 388.069 220.855 388.069 219.012C388.069 217.17 386.576 215.676 384.733 215.676C382.891 215.676 381.398 217.17 381.398 219.012C381.398 220.855 382.891 222.348 384.733 222.348Z" fill="white"/>
<path d="M392.737 269.37H341.713C336.74 269.37 332.708 273.402 332.708 278.376C332.708 283.35 336.74 287.382 341.713 287.382H392.737C397.711 287.382 401.743 283.35 401.743 278.376C401.743 273.402 397.711 269.37 392.737 269.37Z" fill="#3F3D56"/>
<path opacity="0.1" d="M391.245 272.385H343.201C339.89 272.385 337.205 275.069 337.205 278.378C337.205 281.688 339.89 284.371 343.201 284.371H391.245C394.556 284.371 397.24 281.688 397.24 278.378C397.24 275.069 394.556 272.385 391.245 272.385Z" fill="black"/>
<path d="M390.403 273.042H379.394C376.448 273.042 374.06 275.43 374.06 278.376V278.381C374.06 281.327 376.448 283.715 379.394 283.715H390.403C393.349 283.715 395.738 281.327 395.738 278.381V278.376C395.738 275.43 393.349 273.042 390.403 273.042Z" fill="#446FC8"/>
<path d="M384.733 281.712C386.576 281.712 388.069 280.218 388.069 278.376C388.069 276.534 386.576 275.04 384.733 275.04C382.891 275.04 381.398 276.534 381.398 278.376C381.398 280.218 382.891 281.712 384.733 281.712Z" fill="white"/>
<path d="M158.278 79.9344H128.591C125.645 79.9344 123.257 82.3227 123.257 85.2688V85.2738C123.257 88.2198 125.645 90.6081 128.591 90.6081H158.278C161.224 90.6081 163.612 88.2198 163.612 85.2738V85.2688C163.612 82.3227 161.224 79.9344 158.278 79.9344Z" fill="#446FC8"/>
<path d="M229.983 94.9407H128.591C125.645 94.9407 123.257 97.3289 123.257 100.275V100.28C123.257 103.226 125.645 105.614 128.591 105.614H229.983C232.929 105.614 235.318 103.226 235.318 100.28V100.275C235.318 97.3289 232.929 94.9407 229.983 94.9407Z" fill="#446FC8"/>
<path d="M229.983 109.952H128.591C125.645 109.952 123.257 112.34 123.257 115.286V115.291C123.257 118.237 125.645 120.626 128.591 120.626H229.983C232.929 120.626 235.318 118.237 235.318 115.291V115.286C235.318 112.34 232.929 109.952 229.983 109.952Z" fill="#446FC8"/>
<g opacity="0.5">
<path opacity="0.5" d="M158.278 139.298H128.591C125.645 139.298 123.257 141.686 123.257 144.632V144.637C123.257 147.583 125.645 149.972 128.591 149.972H158.278C161.224 149.972 163.612 147.583 163.612 144.637V144.632C163.612 141.686 161.224 139.298 158.278 139.298Z" fill="#004DE6"/>
<path opacity="0.5" d="M201.569 154.309H128.591C125.645 154.309 123.257 156.697 123.257 159.644V159.649C123.257 162.595 125.645 164.983 128.591 164.983H201.569C204.515 164.983 206.903 162.595 206.903 159.649V159.644C206.903 156.697 204.515 154.309 201.569 154.309Z" fill="#004DE6"/>
<path opacity="0.5" d="M229.983 169.316H128.591C125.645 169.316 123.257 171.704 123.257 174.65V174.655C123.257 177.601 125.645 179.989 128.591 179.989H229.983C232.929 179.989 235.318 177.601 235.318 174.655V174.65C235.318 171.704 232.929 169.316 229.983 169.316Z" fill="#004DE6"/>
</g>
<path d="M158.278 198.667H128.591C125.645 198.667 123.257 201.055 123.257 204.001V204.006C123.257 206.952 125.645 209.34 128.591 209.34H158.278C161.224 209.34 163.612 206.952 163.612 204.006V204.001C163.612 201.055 161.224 198.667 158.278 198.667Z" fill="#446FC8"/>
<path d="M229.983 213.673H128.591C125.645 213.673 123.257 216.061 123.257 219.007V219.012C123.257 221.958 125.645 224.346 128.591 224.346H229.983C232.929 224.346 235.318 221.958 235.318 219.012V219.007C235.318 216.061 232.929 213.673 229.983 213.673Z" fill="#446FC8"/>
<path d="M187.544 228.684H128.591C125.645 228.684 123.257 231.072 123.257 234.018V234.023C123.257 236.969 125.645 239.358 128.591 239.358H187.544C190.49 239.358 192.879 236.969 192.879 234.023V234.018C192.879 231.072 190.49 228.684 187.544 228.684Z" fill="#446FC8"/>
<path d="M158.278 258.03H128.591C125.645 258.03 123.257 260.419 123.257 263.365V263.37C123.257 266.316 125.645 268.704 128.591 268.704H158.278C161.224 268.704 163.612 266.316 163.612 263.37V263.365C163.612 260.419 161.224 258.03 158.278 258.03Z" fill="#446FC8"/>
<path d="M229.983 273.042H128.591C125.645 273.042 123.257 275.43 123.257 278.376V278.381C123.257 281.327 125.645 283.715 128.591 283.715H229.983C232.929 283.715 235.318 281.327 235.318 278.381V278.376C235.318 275.43 232.929 273.042 229.983 273.042Z" fill="#446FC8"/>
<path d="M208.08 288.048H128.591C125.645 288.048 123.257 290.436 123.257 293.382V293.387C123.257 296.333 125.645 298.721 128.591 298.721H208.08C211.026 298.721 213.414 296.333 213.414 293.387V293.382C213.414 290.436 211.026 288.048 208.08 288.048Z" fill="#446FC8"/>
<path opacity="0.7" d="M106.227 130.222H432.797" stroke="#3F3D56" stroke-width="0.500874" stroke-miterlimit="10" stroke-linecap="round"/>
<path opacity="0.7" d="M106.227 190.578H432.797" stroke="#3F3D56" stroke-width="0.500874" stroke-miterlimit="10" stroke-linecap="round"/>
<path opacity="0.7" d="M106.227 250.933H432.797" stroke="#3F3D56" stroke-width="0.500874" stroke-miterlimit="10" stroke-linecap="round"/>
<path opacity="0.7" d="M106.227 312.791H432.797" stroke="#3F3D56" stroke-width="0.500874" stroke-miterlimit="10" stroke-linecap="round"/>
<path opacity="0.1" d="M374.195 349.605C415.047 349.605 448.164 347.251 448.164 344.346C448.164 341.441 415.047 339.087 374.195 339.087C333.343 339.087 300.226 341.441 300.226 344.346C300.226 347.251 333.343 349.605 374.195 349.605Z" fill="#004DE6"/>
<path opacity="0.1" d="M11.3216 81.5473C17.305 81.5473 22.1555 76.6968 22.1555 70.7134C22.1555 64.73 17.305 59.8795 11.3216 59.8795C5.33824 59.8795 0.487732 64.73 0.487732 70.7134C0.487732 76.6968 5.33824 81.5473 11.3216 81.5473Z" fill="#004DE6"/>
<path opacity="0.1" d="M56.4754 21.6678C62.4588 21.6678 67.3093 16.8173 67.3093 10.8339C67.3093 4.8505 62.4588 0 56.4754 0C50.492 0 45.6415 4.8505 45.6415 10.8339C45.6415 16.8173 50.492 21.6678 56.4754 21.6678Z" fill="#004DE6"/>
<path opacity="0.1" d="M52.804 70.1273C62.8317 70.1273 70.9607 61.9983 70.9607 51.9707C70.9607 41.943 62.8317 33.814 52.804 33.814C42.7764 33.814 34.6473 41.943 34.6473 51.9707C34.6473 61.9983 42.7764 70.1273 52.804 70.1273Z" fill="#004DE6"/>
<path d="M392.737 150.638H341.713C336.74 150.638 332.708 154.67 332.708 159.644C332.708 164.617 336.74 168.649 341.713 168.649H392.737C397.711 168.649 401.743 164.617 401.743 159.644C401.743 154.67 397.711 150.638 392.737 150.638Z" fill="#3F3D56"/>
<path opacity="0.1" d="M391.245 153.653H343.201C339.89 153.653 337.205 156.336 337.205 159.646C337.205 162.956 339.89 165.639 343.201 165.639H391.245C394.556 165.639 397.24 162.956 397.24 159.646C397.24 156.336 394.556 153.653 391.245 153.653Z" fill="black"/>
<path d="M339.219 331.078C340.005 330.963 340.792 330.802 341.563 330.622C341.462 331.394 341.239 332.145 340.902 332.846C340.136 334.299 338.638 335.175 337.26 336.067C337.071 335.889 336.825 335.783 336.566 335.765C336.307 335.748 336.05 335.821 335.838 335.971C334.18 336.973 332.858 338.386 331.1 339.247C330.484 339.548 329.843 339.788 329.241 340.124C327.783 341.012 326.576 342.259 325.735 343.745C325.235 344.521 324.829 345.543 325.32 346.314C325.508 346.575 325.751 346.792 326.031 346.951C326.745 347.449 327.6 347.703 328.47 347.677C328.971 347.632 329.472 347.441 330.018 347.356C330.704 347.236 331.405 347.296 332.096 347.236C333.099 347.107 334.082 346.853 335.022 346.48L338.463 345.278C339.434 344.964 340.38 344.575 341.293 344.116C341.838 343.82 342.354 343.475 342.91 343.204C343.536 342.927 344.182 342.699 344.844 342.523L346.797 341.952C347.078 341.844 347.38 341.805 347.679 341.837C347.949 341.887 348.18 342.057 348.455 342.127C348.876 342.202 349.309 342.16 349.707 342.007L351.971 341.366C352.449 341.258 352.905 341.068 353.319 340.805C354.355 340.069 354.541 338.606 354.536 337.329C354.531 335.394 354.312 333.466 353.885 331.579C353.595 331.696 353.341 331.888 353.148 332.135C352.917 331.809 352.668 331.496 352.402 331.198C351.359 329.985 350.589 328.562 350.143 327.026C350.961 326.418 351.643 325.647 352.146 324.762C350.949 320.199 349.722 315.566 347.288 311.539C346.492 310.226 345.58 308.994 344.784 307.702C342.414 303.946 341.929 299.187 339.219 295.681C338.961 295.326 338.823 294.898 338.823 294.459C338.823 294.02 338.961 293.592 339.219 293.237C339.529 292.826 340.03 292.44 339.935 291.93C339.865 291.564 339.484 291.228 339.63 290.888C339.7 290.722 339.87 290.632 340 290.512C340.461 290.081 340.401 289.355 340.446 288.724C340.546 287.131 341.493 285.719 342.404 284.436C342.589 284.13 342.835 283.864 343.126 283.655C343.371 283.505 343.662 283.435 343.907 283.284C344.769 282.739 344.708 281.471 345.119 280.53C345.66 279.287 347.023 278.661 347.914 277.655C349.051 276.372 349.342 274.589 350.539 273.472C350.661 273.355 350.794 273.247 350.934 273.152C350.415 275.052 350.177 277.018 350.228 278.987C350.113 285.764 351.796 292.776 351.009 299.523C350.388 304.862 353.649 310.186 358.272 312.856C360.083 313.821 361.975 314.624 363.927 315.255C366.822 316.292 369.707 317.359 372.547 318.551C374.551 319.392 376.527 320.296 378.477 321.261C380.884 322.436 383.225 323.742 385.49 325.173C388.275 326.961 391.064 328.774 393.043 331.443C394.253 331.382 395.417 330.954 396.379 330.216C397.14 330.817 398.062 331.273 398.778 331.939C399.767 332.97 400.429 334.27 400.681 335.676H400.381C400.416 336.342 400.446 337.008 400.481 337.679C400.507 337.85 400.481 338.025 400.406 338.18C400.333 338.28 400.241 338.363 400.135 338.426L398.593 339.473C397.471 340.229 396.233 341.186 396.173 342.543C396.142 342.938 396.262 343.33 396.509 343.64C396.886 343.991 397.368 344.209 397.881 344.261C400.566 344.827 403.316 345.378 406.036 345.012C407.328 344.837 408.665 344.411 409.507 343.409C410.278 342.498 410.508 341.261 410.719 340.084C411.054 338.08 411.335 336.032 411.555 333.998C411.623 332.616 411.903 331.252 412.387 329.956C412.424 329.843 412.5 329.747 412.602 329.685C412.717 329.635 412.852 329.685 412.973 329.635C413.093 329.585 413.173 329.4 413.213 329.25C413.709 327.272 413.95 325.238 413.929 323.199C413.953 322.67 413.873 322.14 413.694 321.641C413.482 321.224 413.18 320.859 412.809 320.573C412.438 320.287 412.008 320.087 411.55 319.989C410.637 319.803 409.711 319.692 408.78 319.658C408.003 319.583 407.234 319.442 406.481 319.237C406.176 319.122 405.849 319.079 405.525 319.112C405.364 319.134 405.216 319.213 405.109 319.336C405.002 319.458 404.943 319.616 404.944 319.778C404.961 319.894 405.002 320.005 405.064 320.104L404.282 319.948C403.651 319.833 402.78 319.558 401.833 319.327C401.833 319.167 401.843 319 401.863 318.826C401.865 318.647 401.817 318.471 401.723 318.319C401.629 318.166 401.493 318.044 401.332 317.965L388.099 310.893L385.625 309.57C380.205 306.67 374.606 303.991 369.171 301.091C368.811 301.201 368.51 300.785 368.405 300.414C368.3 300.044 368.225 299.603 367.879 299.438C367.709 299.358 367.483 299.363 367.378 299.217C367.289 299.087 367.254 298.927 367.283 298.771C367.458 296.132 369.346 293.698 368.971 291.083C368.811 289.966 368.235 288.864 368.47 287.767C368.645 287.011 369.186 286.395 369.472 285.674C370.123 284.061 369.472 282.122 370.183 280.545C370.657 279.508 370.979 278.408 371.14 277.279C371.475 275.029 372.151 272.844 373.143 270.798C373.623 269.765 374.25 268.809 375.006 267.958C375.402 267.527 375.848 267.141 376.228 266.696C377.381 265.318 377.806 263.485 378.132 261.687C378.723 258.476 379.134 255.145 378.392 251.96C378.142 250.878 377.761 249.801 377.776 248.689C377.776 247.357 378.312 245.829 377.666 244.762C378.332 244.228 378.776 243.466 378.913 242.624C378.923 242.32 378.982 242.021 379.088 241.737C379.309 241.428 379.594 241.171 379.925 240.986C380.442 240.591 380.837 240.059 381.066 239.451C381.294 238.842 381.347 238.182 381.217 237.545C381.903 237.855 382.625 237.159 382.95 236.473C383.276 235.787 383.521 234.97 384.217 234.66C384.688 234.459 385.219 234.579 385.72 234.449C386.516 234.244 387.002 233.447 387.563 232.861C388.705 231.629 390.323 230.993 391.821 230.237C396.258 227.978 399.875 224.407 403.416 220.891C405.263 219.176 406.94 217.287 408.425 215.251C408.82 214.665 409.181 214.059 409.522 213.438L409.612 213.392L409.642 213.503C409.697 213.723 409.762 213.943 409.827 214.159C409.987 214.66 410.168 215.196 410.328 215.707C410.869 217.209 411.455 218.812 412.557 219.949C412.895 220.296 413.279 220.594 413.699 220.835C414.609 221.325 415.61 221.624 416.639 221.717C417.03 221.767 417.425 221.797 417.821 221.817C418.217 221.837 418.612 221.852 419.003 221.862L427.107 222.078C424.322 218.041 424.102 212.791 424.287 207.878C424.753 195.256 427.212 182.519 424.928 170.097C424.653 168.594 424.287 167.092 423.371 165.885C422.169 164.307 420.195 163.546 418.272 163.1C416.349 162.654 414.35 162.439 412.552 161.632C411.049 160.946 409.667 159.844 408.044 159.483C406.848 159.283 405.626 159.303 404.438 159.544C402.975 159.761 401.521 160.018 400.075 160.315L399.724 160.39H399.74L399.499 160.445H399.434L399.219 160.495H399.138L398.938 160.55L398.848 160.575L398.663 160.635L398.557 160.67L398.387 160.726L398.277 160.771L398.117 160.831L397.996 160.881L397.851 160.946L397.731 161.006L397.596 161.071L397.476 161.141L397.35 161.211L397.23 161.292L397.115 161.367L396.995 161.452L396.895 161.532L396.779 161.632L396.684 161.717C396.645 161.753 396.608 161.792 396.574 161.833L396.489 161.918C396.449 161.962 396.413 162.009 396.379 162.058C396.379 162.083 396.334 162.108 396.314 162.138C396.293 162.168 396.223 162.268 396.178 162.343V162.373C396.065 162.562 395.973 162.761 395.903 162.969C395.868 163.075 395.833 163.18 395.808 163.285C395.756 163.499 395.719 163.717 395.697 163.936C395.697 164.046 395.697 164.162 395.672 164.272C395.672 164.492 395.672 164.718 395.672 164.938C395.693 165.314 395.734 165.689 395.798 166.06C394.021 167.11 392.54 168.593 391.492 170.37C390.444 172.148 389.864 174.162 389.806 176.225C389.748 178.288 390.214 180.331 391.16 182.165C392.106 183.999 393.502 185.563 395.217 186.711C395.241 186.909 395.254 187.108 395.257 187.307V187.437C395.229 188.146 395.155 188.852 395.036 189.551C393.057 189.166 391.042 188.987 389.026 189.015C387.824 189.015 386.612 189.125 385.399 189.22C384.1 187.653 382.89 186.014 381.773 184.312L379.098 180.39C378.18 179.108 377.344 177.77 376.594 176.383C375.938 175.111 375.427 173.758 374.696 172.526C373.193 169.987 370.739 167.828 370.433 164.888L369.727 165.033C369.341 164.402 368.856 163.736 368.675 163.37C367.708 161.284 366.963 159.101 366.451 156.859C366.206 155.697 366.021 154.485 365.385 153.483C364.951 152.857 364.426 152.3 363.827 151.83C362.861 150.921 361.728 150.206 360.491 149.726C359.939 149.526 359.351 149.44 358.765 149.474C358.178 149.509 357.605 149.663 357.08 149.927C356.917 149.851 356.75 149.784 356.579 149.726C355.959 149.49 355.291 149.407 354.632 149.484C353.973 149.561 353.342 149.795 352.793 150.167C351.741 150.974 351.29 152.356 351.13 153.673C350.853 155.496 351.165 157.36 352.021 158.993C353.023 160.786 354.816 161.998 356.299 163.42C357.331 164.42 358.234 165.544 358.988 166.766C359.221 169.472 359.152 172.195 358.783 174.885C358.593 176.037 358.282 177.169 358.192 178.331C357.826 182.529 360.01 186.726 359.229 190.853C359.1 191.474 359.167 192.119 359.421 192.699C359.675 193.28 360.103 193.767 360.646 194.094C361.768 194.7 363.081 194.78 364.313 195.096C366.732 195.717 368.821 197.264 371.265 197.84C372.392 198.111 373.564 198.161 374.686 198.461L374.861 198.517C373.997 199.495 373.38 200.666 373.063 201.932C372.562 204.036 373.033 206.285 372.532 208.389C372.121 210.122 371.09 211.634 370.073 213.102C368.116 215.934 366.156 218.772 364.193 221.617C362.88 223.612 361.433 225.515 359.86 227.312C357.16 230.262 352.502 232.601 351.13 236.147C351.1 236.062 351.06 235.977 351.03 235.892C349.086 237.319 348.36 239.979 346.812 241.827C346.056 242.724 345.124 243.45 344.308 244.281C343.296 245.355 342.37 246.505 341.538 247.722C339.234 250.918 336.915 254.129 335.267 257.71C334.406 259.573 333.739 261.511 333.053 263.44C330.358 271.038 325.961 278.246 324.133 286.104C323.687 288.023 322.52 289.756 322.344 291.719C322.149 293.813 323.106 295.826 324.098 297.675C325.6 300.499 327.273 303.244 328.605 306.149C329.392 307.842 330.073 309.59 330.949 311.243C331.906 313.046 333.078 314.719 334.08 316.497C336.519 321.06 337.922 326.104 339.219 331.078ZM372.357 187.552L372.116 187.432C371.218 187.044 370.396 186.499 369.687 185.824C367.528 183.52 366.602 180.049 365.926 176.949C365.845 176.578 365.775 176.213 365.71 175.842C368.33 179.563 370.804 183.41 372.357 187.562V187.552Z" fill="url(#paint0_linear)"/>
<path d="M362.515 157.475C362.269 156.318 362.089 155.116 361.453 154.124C361.017 153.501 360.49 152.947 359.89 152.481C358.918 151.578 357.783 150.869 356.544 150.392C355.924 150.159 355.257 150.077 354.598 150.153C353.94 150.229 353.309 150.46 352.758 150.828C351.701 151.63 351.255 153.002 351.09 154.334C350.813 156.146 351.125 157.998 351.981 159.619C353.008 161.402 354.781 162.594 356.269 164.016C357.349 165.058 358.289 166.237 359.064 167.522C359.417 168.189 359.844 168.814 360.336 169.386C360.585 169.666 360.895 169.884 361.243 170.024C361.59 170.164 361.966 170.222 362.339 170.192C362.964 170.027 363.531 169.692 363.977 169.225C364.588 168.689 366.231 167.723 366.281 166.886C366.321 166.2 365.039 164.647 364.723 164.001C363.76 161.909 363.019 159.722 362.515 157.475Z" fill="#FBBEBE"/>
<path opacity="0.1" d="M362.515 157.475C362.269 156.318 362.089 155.116 361.453 154.124C361.017 153.501 360.49 152.947 359.89 152.481C358.918 151.578 357.783 150.869 356.544 150.392C355.924 150.159 355.257 150.077 354.598 150.153C353.94 150.229 353.309 150.46 352.758 150.828C351.701 151.63 351.255 153.002 351.09 154.334C350.813 156.146 351.125 157.998 351.981 159.619C353.008 161.402 354.781 162.594 356.269 164.016C357.349 165.058 358.289 166.237 359.064 167.522C359.417 168.189 359.844 168.814 360.336 169.386C360.585 169.666 360.895 169.884 361.243 170.024C361.59 170.164 361.966 170.222 362.339 170.192C362.964 170.027 363.531 169.692 363.977 169.225C364.588 168.689 366.231 167.723 366.281 166.886C366.321 166.2 365.039 164.647 364.723 164.001C363.76 161.909 363.019 159.722 362.515 157.475Z" fill="black"/>
<path d="M397.16 190.447C394.518 189.739 391.791 189.402 389.056 189.446C384.493 189.511 379.795 190.618 375.447 189.215C374.329 188.834 373.241 188.371 372.191 187.828C371.292 187.443 370.468 186.902 369.757 186.23C367.593 183.941 366.662 180.49 365.991 177.415C365.398 174.32 365.054 171.183 364.964 168.033C363.837 168.559 362.645 169.075 361.408 168.97C360.17 168.865 358.903 167.913 358.903 166.671C359.089 169.586 359.224 172.536 358.738 175.411C358.548 176.553 358.237 177.68 358.152 178.832C357.781 183.004 359.97 187.172 359.189 191.284C359.058 191.901 359.124 192.543 359.378 193.12C359.633 193.697 360.062 194.18 360.606 194.499C361.728 195.105 363.045 195.181 364.278 195.501C366.697 196.117 368.785 197.655 371.24 198.231C372.367 198.496 373.544 198.546 374.666 198.847C376.264 199.273 377.721 200.189 379.354 200.475C380.576 200.695 381.858 200.545 383.075 200.65C384.152 200.74 385.204 201.021 386.286 201.051C388.931 201.116 391.425 199.623 393.178 197.64C394.931 195.656 396.048 192.836 397.16 190.447Z" fill="#28E6E1"/>
<path opacity="0.1" d="M397.16 190.447C394.518 189.739 391.791 189.402 389.056 189.446C384.493 189.511 379.795 190.618 375.447 189.215C374.329 188.834 373.241 188.371 372.191 187.828C371.292 187.443 370.468 186.902 369.757 186.23C367.593 183.941 366.662 180.49 365.991 177.415C365.398 174.32 365.054 171.183 364.964 168.033C363.837 168.559 362.645 169.075 361.408 168.97C360.17 168.865 358.903 167.913 358.903 166.671C359.089 169.586 359.224 172.536 358.738 175.411C358.548 176.553 358.237 177.68 358.152 178.832C357.781 183.004 359.97 187.172 359.189 191.284C359.058 191.901 359.124 192.543 359.378 193.12C359.633 193.697 360.062 194.18 360.606 194.499C361.728 195.105 363.045 195.181 364.278 195.501C366.697 196.117 368.785 197.655 371.24 198.231C372.367 198.496 373.544 198.546 374.666 198.847C376.264 199.273 377.721 200.189 379.354 200.475C380.576 200.695 381.858 200.545 383.075 200.65C384.152 200.74 385.204 201.021 386.286 201.051C388.931 201.116 391.425 199.623 393.178 197.64C394.931 195.656 396.048 192.836 397.16 190.447Z" fill="black"/>
<path d="M404.403 319.392C405.22 319.494 406.012 319.741 406.742 320.124C407.693 320.8 408.405 321.761 408.775 322.868C409.867 325.563 410.093 328.528 410.143 331.438C410.183 333.787 410.103 336.192 409.261 338.386C409.031 339.078 408.634 339.702 408.104 340.204C407.634 340.572 407.091 340.835 406.511 340.975C405.254 341.321 403.802 341.316 402.775 340.514C401.633 339.623 401.347 338.045 401.107 336.617C400.781 334.694 400.321 332.645 398.888 331.318C397.826 330.316 396.304 329.816 395.532 328.603C394.611 327.146 395.096 325.243 395.682 323.62C396.183 322.212 396.94 319.362 398.412 318.641C399.885 317.92 402.875 319.117 404.403 319.392Z" fill="#FBBEBE"/>
<path d="M350.153 326.304C350.595 327.877 351.378 329.332 352.447 330.567C353.098 331.318 353.915 332.23 353.574 333.161C353.43 333.478 353.22 333.76 352.958 333.988C348.119 338.716 341.353 341 334.641 341.862C334.534 341.889 334.422 341.889 334.315 341.862C334.12 341.777 334.07 341.526 334.05 341.311C333.94 340.612 333.94 339.901 334.05 339.202C334.375 337.564 335.813 336.407 337.22 335.501C338.628 334.594 340.166 333.722 340.947 332.245C341.924 330.412 341.513 328.022 342.675 326.304C343.617 324.907 345.37 324.301 347.038 324.051C347.614 323.96 348.841 323.329 349.332 323.62C349.822 323.91 349.983 325.728 350.153 326.304Z" fill="#FBBEBE"/>
<path d="M405.064 319.222C405.064 319.06 405.123 318.904 405.23 318.782C405.337 318.66 405.484 318.582 405.645 318.561C405.969 318.529 406.296 318.57 406.601 318.681C407.354 318.89 408.123 319.033 408.9 319.107C409.833 319.139 410.761 319.248 411.675 319.432C412.133 319.528 412.563 319.725 412.935 320.008C413.307 320.292 413.61 320.655 413.824 321.07C414.003 321.568 414.083 322.095 414.06 322.623C414.08 324.649 413.839 326.669 413.343 328.633C413.303 328.784 413.243 328.959 413.098 329.014C412.953 329.069 412.847 329.014 412.732 329.069C412.68 329.098 412.634 329.137 412.598 329.183C412.561 329.229 412.533 329.283 412.517 329.34C412.032 330.624 411.75 331.976 411.68 333.347C411.46 335.35 411.179 337.384 410.844 339.387C410.649 340.559 410.403 341.791 409.632 342.693C408.785 343.695 407.448 344.11 406.156 344.286C403.431 344.646 400.681 344.1 397.991 343.539C397.478 343.488 396.995 343.272 396.614 342.923C396.367 342.616 396.247 342.225 396.278 341.831C396.339 340.484 397.581 339.532 398.698 338.781L400.245 337.744C400.353 337.684 400.446 337.6 400.516 337.499C400.592 337.344 400.618 337.169 400.591 336.998L400.491 334.995C401.516 335.013 402.517 335.308 403.387 335.85C404.258 336.391 404.965 337.159 405.434 338.07C405.645 338.496 405.85 338.992 406.291 339.157C406.578 339.222 406.878 339.174 407.13 339.021C407.381 338.869 407.564 338.625 407.638 338.34C407.771 337.767 407.755 337.169 407.593 336.602C406.687 331.759 406.902 326.78 406.351 321.887C406.316 321.336 406.144 320.802 405.85 320.334C405.615 319.998 405.119 319.673 405.064 319.222Z" fill="#00308F"/>
<path d="M344.042 164.983H355.052C357.998 164.983 360.386 162.595 360.386 159.649V159.644C360.386 156.698 357.998 154.309 355.052 154.309H344.042C341.096 154.309 338.708 156.698 338.708 159.644V159.649C338.708 162.595 341.096 164.983 344.042 164.983Z" fill="#446FC8"/>
<path d="M349.712 162.98C351.555 162.98 353.048 161.486 353.048 159.644C353.048 157.801 351.555 156.308 349.712 156.308C347.87 156.308 346.376 157.801 346.376 159.644C346.376 161.486 347.87 162.98 349.712 162.98Z" fill="white"/>
<path d="M337.686 338C337.461 338.375 337.105 338.666 336.895 339.052C336.776 339.235 336.727 339.456 336.758 339.672C336.79 339.889 336.899 340.087 337.065 340.229C337.29 340.327 337.541 340.352 337.781 340.299C342.619 339.695 347.16 337.637 350.804 334.399C351.41 333.888 351.948 333.3 352.402 332.651C352.828 332.004 353.188 331.213 353.905 330.943C354.34 332.823 354.566 334.747 354.576 336.678C354.576 337.95 354.395 339.397 353.359 340.134C352.942 340.393 352.485 340.579 352.006 340.685L349.742 341.326C349.341 341.477 348.907 341.518 348.485 341.446C348.22 341.376 347.984 341.205 347.709 341.155C347.41 341.124 347.108 341.163 346.827 341.271L344.869 341.842C344.207 342.013 343.56 342.24 342.935 342.518C342.374 342.783 341.858 343.124 341.313 343.419C340.399 343.877 339.451 344.262 338.478 344.571L335.037 345.768C334.094 346.137 333.11 346.389 332.106 346.52C331.415 346.58 330.709 346.52 330.023 346.635C329.522 346.725 329.021 346.915 328.47 346.955C327.601 346.982 326.746 346.73 326.031 346.234C325.752 346.076 325.509 345.861 325.32 345.603C324.819 344.837 325.255 343.825 325.735 343.049C326.583 341.574 327.789 340.337 329.241 339.452C329.843 339.122 330.489 338.881 331.105 338.581C332.863 337.729 334.19 336.307 335.848 335.335C337.416 334.419 338.423 336.788 337.686 338Z" fill="#00308F"/>
<path d="M386.061 199.318C387.881 200.567 389.965 201.378 392.151 201.687C393.294 201.829 394.446 201.891 395.597 201.872C400.402 201.867 405.198 201.467 409.937 200.675C408.054 198.597 406.146 196.373 405.429 193.663C405.076 192.226 405.001 190.735 405.209 189.27C405.498 187.399 405.947 185.555 406.551 183.761C404.53 183.867 402.504 183.815 400.491 183.605C399.344 183.485 396.529 182.443 395.532 183.235C394.535 184.026 395.302 186.576 395.317 187.773C395.319 187.816 395.319 187.86 395.317 187.903C395.268 189.726 394.876 191.524 394.16 193.202C392.727 196.438 389.622 199.102 386.061 199.318Z" fill="#FBBEBE"/>
<path opacity="0.1" d="M395.322 187.748C396.767 188.692 398.398 189.315 400.105 189.574C401.811 189.833 403.554 189.723 405.214 189.25C405.503 187.379 405.952 185.535 406.556 183.741C404.535 183.847 402.509 183.795 400.496 183.585C399.349 183.465 396.534 182.423 395.537 183.215C394.54 184.006 395.307 186.551 395.322 187.748Z" fill="black"/>
<path d="M401.933 189.155C408.603 189.155 414.009 183.748 414.009 177.079C414.009 170.41 408.603 165.003 401.933 165.003C395.264 165.003 389.857 170.41 389.857 177.079C389.857 183.748 395.264 189.155 401.933 189.155Z" fill="#FBBEBE"/>
<path d="M350.699 238.181C350.695 239.155 350.944 240.113 351.421 240.962C351.899 241.811 352.589 242.522 353.424 243.024C354.353 243.512 355.349 243.863 356.379 244.066C361.888 245.398 367.558 246.47 373.233 246.145C374.463 246.134 375.679 245.879 376.809 245.393C377.372 245.144 377.866 244.763 378.251 244.283C378.635 243.803 378.898 243.237 379.018 242.633C379.024 242.334 379.082 242.037 379.189 241.757C379.409 241.449 379.695 241.195 380.025 241.011C380.542 240.622 380.938 240.095 381.167 239.49C381.397 238.886 381.45 238.228 381.322 237.595C382.009 237.905 382.73 237.209 383.055 236.528C383.381 235.847 383.631 235.025 384.323 234.73C384.793 234.529 385.324 234.65 385.825 234.519C386.622 234.314 387.107 233.518 387.668 232.942C388.81 231.719 390.438 231.088 391.931 230.332C396.379 228.093 400 224.542 403.551 221.051C405.397 219.35 407.075 217.475 408.56 215.451C408.958 214.869 409.326 214.267 409.662 213.648C410.732 211.592 411.661 209.465 412.442 207.282C412.892 206.11 413.348 204.878 413.163 203.635C413.163 203.525 413.123 203.415 413.098 203.3C412.866 202.503 412.495 201.753 412.001 201.086C410.774 199.283 409.166 197.58 407.052 197.019C404.939 196.458 402.835 197.134 400.686 197.59C399.975 197.749 399.254 197.86 398.527 197.92C396.253 198.081 394.019 197.47 391.806 196.864L389.411 196.202C388.214 195.872 387.613 194.424 386.406 194.169C385.863 194.087 385.31 194.116 384.778 194.254C382.319 194.72 379.835 195.326 377.666 196.578C377.181 196.855 376.719 197.17 376.284 197.52C374.71 198.695 373.577 200.366 373.068 202.263C372.567 204.352 373.038 206.586 372.537 208.674C372.126 210.397 371.089 211.9 370.078 213.352L364.177 221.802C362.862 223.782 361.413 225.67 359.84 227.452C356.664 230.903 350.784 233.498 350.699 238.181Z" fill="#28E6E1"/>
<path d="M366.446 157.475C366.201 156.318 366.021 155.116 365.385 154.124C364.949 153.501 364.422 152.947 363.822 152.481C362.85 151.578 361.714 150.869 360.476 150.392C359.855 150.159 359.188 150.077 358.53 150.153C357.872 150.229 357.241 150.46 356.689 150.828C355.633 151.63 355.187 153.002 355.021 154.334C354.745 156.146 355.057 157.998 355.913 159.619C356.915 161.402 358.713 162.594 360.2 164.016C361.281 165.058 362.22 166.237 362.995 167.522C363.349 168.189 363.775 168.814 364.268 169.386C364.516 169.666 364.827 169.884 365.175 170.024C365.522 170.164 365.898 170.222 366.271 170.192C366.896 170.027 367.462 169.692 367.909 169.225C368.52 168.689 370.163 167.723 370.213 166.886C370.253 166.2 368.971 164.647 368.655 164.001C367.692 161.909 366.951 159.722 366.446 157.475Z" fill="#FBBEBE"/>
<path d="M324.012 297.339C325.515 300.144 327.188 302.849 328.545 305.754C329.332 307.442 330.013 309.175 330.889 310.817C331.846 312.606 333.023 314.268 334.025 316.032C336.529 320.489 337.947 325.518 339.244 330.472C342.869 329.933 346.358 328.705 349.522 326.855C349.735 326.735 349.94 326.603 350.138 326.46C350.985 325.854 351.692 325.073 352.212 324.171C351.014 319.663 349.787 315.04 347.348 311.038C346.552 309.736 345.64 308.533 344.844 307.226C342.475 303.495 341.984 298.791 339.274 295.3C339.015 294.949 338.876 294.524 338.876 294.088C338.876 293.652 339.015 293.227 339.274 292.876C339.585 292.47 340.085 292.085 339.99 291.579C339.92 291.213 339.539 290.883 339.685 290.542C339.755 290.377 339.925 290.287 340.055 290.166C340.516 289.746 340.456 289.019 340.501 288.398C340.601 286.816 341.548 285.428 342.465 284.136C342.651 283.832 342.896 283.568 343.186 283.359C343.431 283.209 343.722 283.139 343.967 282.989C344.829 282.453 344.769 281.191 345.184 280.254C345.725 279.022 347.088 278.396 347.984 277.399C349.121 276.127 349.407 274.359 350.609 273.247C350.733 273.131 350.865 273.024 351.004 272.926C350.483 274.819 350.245 276.779 350.298 278.741C350.183 285.473 351.866 292.435 351.08 299.122C350.459 304.421 353.724 309.71 358.352 312.365C360.167 313.323 362.063 314.121 364.017 314.749C366.912 315.776 369.807 316.833 372.647 318.02C374.651 318.851 376.654 319.753 378.588 320.71C380.994 321.876 383.335 323.174 385.6 324.596C388.39 326.37 391.185 328.173 393.163 330.822C395.081 330.772 396.839 329.62 398.052 328.133C399.264 326.645 400.02 324.847 400.726 323.069C401.342 321.531 401.953 319.953 401.998 318.295C401.999 318.117 401.95 317.943 401.856 317.791C401.762 317.64 401.627 317.518 401.468 317.439L388.214 310.427L385.71 309.114C380.286 306.234 374.691 303.57 369.236 300.695C368.871 300.8 368.57 300.384 368.465 300.024C368.36 299.663 368.285 299.212 367.939 299.052C367.764 298.972 367.543 298.972 367.438 298.831C367.352 298.702 367.32 298.544 367.348 298.391C367.523 295.766 369.417 293.352 369.036 290.752C368.876 289.64 368.3 288.549 368.535 287.462C368.71 286.705 369.251 286.094 369.537 285.378C370.183 283.775 369.537 281.872 370.248 280.284C370.723 279.254 371.045 278.161 371.205 277.038C371.546 274.803 372.23 272.634 373.233 270.607C373.713 269.58 374.341 268.628 375.097 267.782C375.497 267.357 375.943 266.971 376.319 266.53C377.476 265.163 377.896 263.34 378.227 261.581C378.818 258.391 379.229 255.07 378.487 251.92C378.237 250.843 377.856 249.776 377.871 248.669C377.871 247.211 378.528 245.503 377.516 244.447C377.089 244.067 376.571 243.805 376.013 243.685C373.657 243.05 371.253 242.606 368.826 242.358L357.776 240.92C356.5 240.836 355.251 240.512 354.095 239.964C352.592 239.137 351.59 237.6 350.989 235.997C349.046 237.414 348.315 240.054 346.767 241.887C346.011 242.784 345.079 243.505 344.263 244.326C343.248 245.391 342.32 246.535 341.488 247.747C339.179 250.918 336.855 254.113 335.202 257.665C334.345 259.513 333.699 261.441 332.988 263.355C330.288 270.903 325.886 278.065 324.057 285.864C323.607 287.772 322.44 289.49 322.264 291.444C322.059 293.512 323.016 295.516 324.012 297.339Z" fill="#434175"/>
<path opacity="0.1" d="M381.974 234.68C382.242 235.182 382.382 235.743 382.379 236.312C382.134 235.09 380.451 234.414 380.346 233.207C380.296 232.651 380.396 232.676 380.741 232.972C381.267 233.407 381.493 234.199 381.974 234.68Z" fill="black"/>
<path opacity="0.1" d="M376.86 238.386C377.212 238.687 377.477 239.079 377.626 239.518C377.906 240.136 377.96 240.833 377.776 241.486C377.531 241.371 377.446 241.071 377.37 240.805C377.257 240.395 377.089 240.003 376.87 239.638C376.669 239.323 375.753 238.571 375.763 238.226C375.748 237.705 376.614 238.201 376.86 238.386Z" fill="black"/>
<path opacity="0.1" d="M376.269 197.52C377.045 198.185 377.899 198.753 378.813 199.213C381.207 200.425 383.857 201.061 386.266 202.218C387.454 202.821 388.608 203.49 389.722 204.221C392.111 205.724 394.495 207.227 396.88 208.754C397.454 209.085 397.984 209.488 398.457 209.951C399.319 210.873 399.314 212.456 400.1 213.457C400.534 213.953 401.068 214.351 401.666 214.627C402.264 214.903 402.913 215.051 403.571 215.06C404.89 215.071 406.2 214.851 407.443 214.409C408.197 214.186 408.936 213.917 409.657 213.603C410.411 213.285 411.123 212.878 411.781 212.391C412.437 211.929 412.997 211.342 413.426 210.664C413.856 209.986 414.148 209.23 414.285 208.439C414.371 207.346 414.226 206.246 413.859 205.213C413.66 204.54 413.406 203.885 413.098 203.255C412.921 202.897 412.717 202.554 412.487 202.228C410.844 199.899 407.949 198.802 405.149 198.256C403.671 197.97 402.169 197.795 400.686 197.545C399.975 197.704 399.254 197.815 398.527 197.875C396.253 198.036 394.02 197.425 391.806 196.818L389.411 196.157C388.214 195.827 387.613 194.379 386.406 194.124C385.863 194.042 385.31 194.071 384.778 194.209C382.319 194.675 379.835 195.281 377.666 196.533C377.175 196.824 376.707 197.154 376.269 197.52Z" fill="black"/>
<path d="M370.433 165.469C370.739 168.389 373.203 170.533 374.706 173.052C375.437 174.279 375.948 175.621 376.604 176.889C377.354 178.276 378.19 179.614 379.108 180.896L381.788 184.787C383.366 187.076 384.959 189.385 386.972 191.299C390.478 191.895 393.433 194.504 396.764 195.772C399.434 196.773 402.339 196.924 405.139 197.47C407.939 198.016 410.834 199.107 412.477 201.442C413.091 202.364 413.554 203.379 413.849 204.447C414.216 205.478 414.361 206.576 414.275 207.667C414.138 208.459 413.847 209.216 413.417 209.896C412.987 210.575 412.428 211.162 411.771 211.624C410.453 212.537 408.987 213.215 407.438 213.628C406.195 214.067 404.885 214.288 403.566 214.279C402.907 214.269 402.257 214.121 401.659 213.845C401.06 213.569 400.526 213.171 400.09 212.676C399.309 211.674 399.314 210.077 398.452 209.17C397.979 208.706 397.449 208.304 396.875 207.973L389.717 203.465C388.603 202.734 387.449 202.065 386.261 201.462C383.852 200.285 381.202 199.648 378.808 198.456C376.414 197.264 374.185 195.246 373.714 192.606C372.257 184.497 366.642 177.66 361.843 170.963C361.999 170.933 361.954 170.573 362.009 170.422C362.703 168.851 363.951 167.589 365.515 166.876C367.057 166.04 368.77 165.824 370.433 165.469Z" fill="#28E6E1"/>
<path d="M395.733 165.529C395.643 164.65 395.817 163.764 396.233 162.984C397.03 161.662 398.693 161.196 400.205 160.886C401.718 160.575 403.11 160.335 404.573 160.124C405.763 159.885 406.986 159.863 408.184 160.059C409.817 160.42 411.189 161.517 412.692 162.193C414.495 162.999 416.499 163.195 418.422 163.656C420.345 164.116 422.324 164.853 423.531 166.42C424.448 167.608 424.813 169.125 425.089 170.603C427.378 182.939 424.913 195.591 424.448 208.128C424.262 213.007 424.483 218.221 427.273 222.233L419.153 222.017C417.075 221.962 414.841 221.852 413.208 220.57C411.765 219.443 411.084 217.625 410.473 215.907C409.92 214.572 409.569 213.163 409.431 211.725C409.306 208.779 410.979 205.889 410.433 202.989C410.027 200.825 408.43 199.072 406.767 197.655C405.104 196.237 403.211 195 401.843 193.272C399.414 190.192 398.948 185.99 399.249 182.078C399.429 179.754 399.85 177.425 399.644 175.101C399.542 173.322 398.901 171.617 397.806 170.212C396.529 168.669 395.853 167.708 395.733 165.529Z" fill="#434175"/>
<path opacity="0.1" d="M396.233 162.984C397.015 161.682 398.638 161.211 400.125 160.906C399.336 161.183 398.659 161.711 398.197 162.408C397.783 163.191 397.609 164.077 397.696 164.958C397.806 167.137 398.482 168.098 399.775 169.641C400.873 171.044 401.516 172.75 401.618 174.53C401.818 176.854 401.402 179.178 401.222 181.507C400.917 185.414 401.382 189.621 403.817 192.701C405.179 194.429 407.057 195.661 408.74 197.084C410.423 198.506 412.001 200.254 412.407 202.418C412.948 205.313 411.275 208.208 411.405 211.153C411.537 212.59 411.887 213.999 412.442 215.331C413.058 217.054 413.739 218.872 415.176 219.999C416.809 221.281 419.048 221.391 421.127 221.446L426.877 221.597C427.002 221.807 427.137 222.017 427.278 222.223L419.158 222.007C417.08 221.952 414.846 221.842 413.213 220.56C411.771 219.433 411.089 217.615 410.478 215.897C409.925 214.562 409.574 213.153 409.436 211.714C409.311 208.769 410.984 205.879 410.438 202.979C410.032 200.815 408.435 199.062 406.772 197.645C405.109 196.227 403.216 194.99 401.848 193.262C399.419 190.182 398.953 185.98 399.254 182.068C399.434 179.744 399.855 177.415 399.649 175.091C399.547 173.312 398.906 171.607 397.811 170.202C396.519 168.659 395.843 167.698 395.728 165.519C395.641 164.643 395.817 163.76 396.233 162.984Z" fill="black"/>
<path opacity="0.1" d="M335.237 290.121L350.153 326.46C351 325.854 351.707 325.073 352.227 324.171C351.029 319.663 349.802 315.04 347.363 311.038C346.567 309.736 345.655 308.534 344.859 307.226C342.49 303.495 341.999 298.792 339.289 295.3C339.03 294.949 338.891 294.524 338.891 294.088C338.891 293.652 339.03 293.227 339.289 292.876C339.6 292.47 340.1 292.085 340.005 291.579C339.935 291.213 339.554 290.883 339.7 290.542C339.77 290.377 339.94 290.287 340.07 290.166C340.531 289.746 340.471 289.019 340.516 288.398C340.616 286.816 341.563 285.428 342.48 284.136C342.666 283.832 342.911 283.568 343.201 283.36C343.446 283.209 343.737 283.139 343.982 282.989C344.844 282.453 344.784 281.191 345.199 280.254C345.74 279.022 347.103 278.396 347.999 277.399C349.136 276.127 349.422 274.359 350.624 273.247L350.729 272.986L349.602 265.974L335.237 290.121Z" fill="black"/>
</g>
<defs>
<linearGradient id="paint0_linear" x1="374.681" y1="347.697" x2="374.681" y2="149.521" gradientUnits="userSpaceOnUse">
<stop stop-color="#808080" stop-opacity="0.25"/>
<stop offset="0.54" stop-color="#808080" stop-opacity="0.12"/>
<stop offset="1" stop-color="#808080" stop-opacity="0.1"/>
</linearGradient>
<clipPath id="clip0">
<rect width="464" height="350" fill="white"/>
</clipPath>
</defs>
</svg>
