<svg width="650" height="429" viewBox="0 0 650 429" fill="none" xmlns="http://www.w3.org/2000/svg">
<g clip-path="url(#clip0)">
<rect x="580.707" y="54.4351" width="18" height="18" transform="rotate(-45 580.707 54.4351)" stroke="#5D5A55"/>
<g clip-path="url(#clip1)">
<path d="M504.399 248.098C504.399 287.311 527.632 301.002 556.291 301.002C584.95 301.002 608.183 287.311 608.183 248.098C608.183 208.885 556.291 159 556.291 159C556.291 159 504.399 208.885 504.399 248.098Z" fill="#F2F2F2"/>
<path d="M558.181 295.004L557.65 262.186L535.532 221.586L557.566 257.038L557.328 242.282L542.084 212.908L557.264 238.377L556.835 211.838L540.512 188.452L556.767 207.664L556.499 159L558.186 223.423L558.047 220.765L574.643 195.277L558.313 225.867L559.86 255.507L559.906 254.72L579.038 227.898L559.964 257.499L560.157 261.206L560.192 261.262L560.176 261.566L564.099 336.766H558.857L558.228 297.924L539.202 268.394L558.181 295.004Z" fill="#3F3D56"/>
<path d="M350 264.158C350 296.256 369.017 307.463 392.476 307.463C415.935 307.463 434.952 296.256 434.952 264.158C434.952 232.061 392.476 191.227 392.476 191.227C392.476 191.227 350 232.061 350 264.158Z" fill="#F2F2F2"/>
<path d="M394.023 302.553L393.588 275.69L375.484 242.457L393.52 271.476L393.324 259.398L380.847 235.354L393.273 256.201L392.921 234.477L379.56 215.336L392.866 231.062L392.646 191.227L394.027 243.96L393.914 241.785L407.498 220.922L394.131 245.961L395.397 270.223L395.435 269.579L411.095 247.623L395.482 271.854L395.641 274.888L395.669 274.934L395.656 275.183L398.867 336.737H394.577L394.062 304.943L378.487 280.772L394.023 302.553Z" fill="#3F3D56"/>
<path d="M496.476 342.978C417.21 342.978 352.952 339.719 352.952 335.699C352.952 331.678 417.21 328.419 496.476 328.419C575.742 328.419 640 331.678 640 335.699C640 339.719 575.742 342.978 496.476 342.978Z" fill="#3F3D56"/>
<path d="M409.043 348.973C395.466 348.973 384.46 348.415 384.46 347.726C384.46 347.037 395.466 346.479 409.043 346.479C422.619 346.479 433.625 347.037 433.625 347.726C433.625 348.415 422.619 348.973 409.043 348.973Z" fill="#3F3D56"/>
<path d="M497.996 361C484.419 361 473.414 360.442 473.414 359.753C473.414 359.065 484.419 358.506 497.996 358.506C511.572 358.506 522.578 359.065 522.578 359.753C522.578 360.442 511.572 361 497.996 361Z" fill="#3F3D56"/>
<path d="M565.482 352.517C534.465 352.517 509.321 351.242 509.321 349.669C509.321 348.096 534.465 346.82 565.482 346.82C596.499 346.82 621.644 348.096 621.644 349.669C621.644 351.242 596.499 352.517 565.482 352.517Z" fill="#3F3D56"/>
<path d="M605.749 322.251L611.959 322.177L612.091 333.342L605.88 333.416L605.749 322.251Z" fill="#2F2E41"/>
<path d="M614.162 333.448C614.149 332.372 616.456 331.473 619.315 331.439C622.173 331.405 624.5 332.25 624.513 333.325C624.526 334.401 622.219 335.3 619.36 335.334C616.502 335.368 614.175 334.523 614.162 333.448Z" fill="#2F2E41"/>
<path d="M601.738 333.335C601.725 332.259 604.032 331.36 606.891 331.326C609.749 331.293 612.076 332.137 612.089 333.213C612.102 334.288 609.795 335.187 606.936 335.221C604.078 335.255 601.751 334.41 601.738 333.335Z" fill="#2F2E41"/>
<path d="M583.689 317.486C583.689 331.788 592.162 336.781 602.614 336.781C602.856 336.781 603.098 336.779 603.34 336.773C603.824 336.763 604.304 336.74 604.778 336.707C614.211 336.037 621.54 330.787 621.54 317.486C621.54 303.722 604.01 286.353 602.693 285.068L602.69 285.066C602.64 285.016 602.614 284.991 602.614 284.991C602.614 284.991 583.689 303.185 583.689 317.486Z" fill="#8CF2F0"/>
<path d="M603.304 334.594L596.382 324.889L603.321 335.659L603.34 336.773C603.824 336.763 604.304 336.74 604.777 336.707L604.031 322.399L604.037 322.288L604.024 322.267L603.954 320.916L610.911 310.119L603.932 319.902L603.916 320.189L603.352 309.378L609.308 298.222L603.28 307.481L602.693 285.068L602.69 284.991V285.066L602.788 302.74L596.859 295.733L602.813 304.262L602.969 313.941L597.433 304.652L602.992 315.366L603.08 320.747L595.043 307.818L603.11 322.625L603.304 334.594Z" fill="#3F3D56"/>
<path d="M453.87 322.125L459.807 323.956L456.538 334.629L450.601 332.798L453.87 322.125Z" fill="#2F2E41"/>
<path d="M441.996 318.465L447.933 320.295L444.664 330.968L438.727 329.138L441.996 318.465Z" fill="#2F2E41"/>
<path d="M450.982 335.089C448.25 334.246 446.29 332.73 446.605 331.701C446.92 330.673 449.39 330.523 452.122 331.366C454.855 332.208 456.815 333.725 456.5 334.753C456.185 335.781 453.714 335.931 450.982 335.089Z" fill="#2F2E41"/>
<path d="M439.184 331.179C436.452 330.336 434.492 328.82 434.807 327.792C435.122 326.764 437.592 326.613 440.324 327.456C443.057 328.298 445.017 329.815 444.702 330.843C444.387 331.871 441.917 332.022 439.184 331.179Z" fill="#2F2E41"/>
<path d="M456.641 307.715C452.782 307.715 449.653 304.576 449.653 300.704C449.653 296.831 452.782 293.693 456.641 293.693C460.5 293.693 463.628 296.831 463.628 300.704C463.628 304.576 460.5 307.715 456.641 307.715Z" fill="white"/>
<path d="M492.077 314.868C492.077 327.996 499.854 332.579 509.449 332.579C509.672 332.579 509.894 332.577 510.115 332.572C510.56 332.562 511 332.541 511.435 332.512C520.094 331.897 526.822 327.077 526.822 314.868C526.822 302.232 510.73 286.289 509.521 285.109L509.519 285.107C509.473 285.061 509.449 285.039 509.449 285.039C509.449 285.039 492.077 301.74 492.077 314.868Z" fill="#EEB4D1"/>
<path d="M510.082 330.571L503.728 321.663L510.098 331.549L510.115 332.572C510.56 332.563 511 332.541 511.435 332.512L510.75 319.377L510.755 319.275L510.744 319.256L510.679 318.016L517.065 308.104L510.659 317.085L510.644 317.349L510.127 307.425L515.594 297.183L510.06 305.683L509.521 285.109L509.519 285.039V285.107L509.609 301.331L504.166 294.899L509.631 302.728L509.775 311.613L504.694 303.086L509.796 312.921L509.877 317.86L502.499 305.992L509.904 319.584L510.082 330.571Z" fill="#3F3D56"/>
<path d="M423.756 320.343C423.756 334.644 432.228 339.638 442.681 339.638C442.923 339.638 443.165 339.635 443.406 339.63C443.891 339.619 444.37 339.596 444.844 339.564C454.277 338.894 461.606 333.643 461.606 320.343C461.606 306.578 444.076 289.21 442.759 287.924L442.757 287.922C442.706 287.872 442.681 287.848 442.681 287.848C442.681 287.848 423.756 306.041 423.756 320.343Z" fill="#60E1D7"/>
<path d="M443.371 337.45L436.449 327.745L443.388 338.516L443.406 339.63C443.891 339.619 444.37 339.596 444.844 339.564L444.098 325.255L444.104 325.144L444.091 325.123L444.021 323.772L450.978 312.975L443.999 322.759L443.983 323.045L443.419 312.235L449.375 301.078L443.346 310.337L442.76 287.924L442.757 287.848V287.922L442.855 305.596L436.926 298.589L442.879 307.119L443.036 316.798L437.5 307.508L443.059 318.222L443.147 323.603L435.11 310.674L443.177 325.481L443.371 337.45Z" fill="#3F3D56"/>
</g>
<g clip-path="url(#clip2)">
<path d="M209.77 248.855C209.77 302.045 241.334 320.617 280.271 320.617C319.208 320.617 350.772 302.045 350.772 248.855C350.772 195.666 280.271 128 280.271 128C280.271 128 209.77 195.666 209.77 248.855Z" fill="#F2F2F2"/>
<path d="M282.84 312.481L282.117 267.966L252.068 212.894L282.004 260.983L281.68 240.967L260.97 201.123L281.594 235.67L281.01 199.671L258.833 167.95L280.918 194.01L280.553 128L282.846 215.385L282.657 211.78L305.204 177.207L283.019 218.7L285.12 258.905L285.182 257.838L311.175 221.455L285.261 261.608L285.524 266.636L285.571 266.712L285.549 267.125L290.879 369.128H283.758L282.903 316.441L257.053 276.386L282.84 312.481Z" fill="#3F3D56"/>
<path d="M-0.000121723 270.64C-0.000121723 314.179 25.8369 329.381 57.7086 329.381C89.5802 329.381 115.417 314.179 115.417 270.64C115.417 227.102 57.7086 171.714 57.7086 171.714C57.7086 171.714 -0.000121723 227.102 -0.000121723 270.64Z" fill="#FFF3CC"/>
<path d="M59.8108 322.721L59.2201 286.283L34.6232 241.205L59.1273 280.567L58.8615 264.183L41.9094 231.569L58.7911 259.847L58.3133 230.38L40.1609 204.416L58.2384 225.747L57.9396 171.714L59.8161 243.243L59.6617 240.293L78.1179 211.993L59.9577 245.957L61.6774 278.867L61.7288 277.993L83.0051 248.212L61.7931 281.079L62.0083 285.195L62.0466 285.257L62.029 285.594L66.392 369.089H60.5629L59.8635 325.962L38.7036 293.176L59.8108 322.721Z" fill="#3F3D56"/>
<path d="M199.005 377.555C91.313 377.555 4.01096 373.134 4.01096 367.68C4.01096 362.227 91.313 357.806 199.005 357.806C306.698 357.806 394 362.227 394 367.68C394 373.134 306.698 377.555 199.005 377.555Z" fill="#3F3D56"/>
<path d="M80.2165 385.686C61.7714 385.686 46.8186 384.929 46.8186 383.995C46.8186 383.061 61.7714 382.303 80.2165 382.303C98.6617 382.303 113.615 383.061 113.615 383.995C113.615 384.929 98.6617 385.686 80.2165 385.686Z" fill="#3F3D56"/>
<path d="M201.07 402C182.625 402 167.672 401.243 167.672 400.309C167.672 399.375 182.625 398.617 201.07 398.617C219.515 398.617 234.468 399.375 234.468 400.309C234.468 401.243 219.515 402 201.07 402Z" fill="#3F3D56"/>
<path d="M292.759 390.494C250.618 390.494 216.457 388.764 216.457 386.63C216.457 384.496 250.618 382.766 292.759 382.766C334.899 382.766 369.061 384.496 369.061 386.63C369.061 388.764 334.899 390.494 292.759 390.494Z" fill="#3F3D56"/>
<path d="M347.466 349.439L355.903 349.34L356.081 364.484L347.644 364.584L347.466 349.439Z" fill="#2F2E41"/>
<path d="M358.896 364.627C358.879 363.168 362.013 361.948 365.897 361.902C369.78 361.857 372.942 363.002 372.959 364.461C372.976 365.92 369.842 367.14 365.959 367.185C362.075 367.231 358.913 366.086 358.896 364.627Z" fill="#2F2E41"/>
<path d="M342.017 364.474C341.999 363.015 345.134 361.795 349.017 361.75C352.9 361.704 356.062 362.849 356.08 364.308C356.097 365.767 352.962 366.987 349.079 367.033C345.196 367.078 342.034 365.933 342.017 364.474Z" fill="#2F2E41"/>
<path d="M317.494 342.977C317.494 362.376 329.006 369.149 343.207 369.149C343.536 369.149 343.864 369.145 344.192 369.138C344.85 369.124 345.502 369.093 346.146 369.049C358.962 368.14 368.919 361.018 368.919 342.977C368.919 324.306 345.103 300.746 343.313 299.003L343.31 299C343.241 298.932 343.207 298.899 343.207 298.899C343.207 298.899 317.494 323.578 317.494 342.977Z" fill="#60E1D7"/>
<path d="M344.144 366.181L334.74 353.017L344.167 367.627L344.192 369.138C344.85 369.124 345.502 369.093 346.146 369.049L345.132 349.64L345.14 349.49L345.123 349.461L345.027 347.628L354.479 332.983L344.998 346.253L344.976 346.643L344.21 331.979L352.301 316.845L344.111 329.405L343.314 299.003L343.311 298.899V299L343.444 322.974L335.388 313.469L343.477 325.039L343.69 338.168L336.168 325.568L343.721 340.1L343.84 347.399L332.921 329.861L343.881 349.946L344.144 366.181Z" fill="#3F3D56"/>
<path d="M141.12 349.268L149.186 351.752L144.744 366.229L136.678 363.746L141.12 349.268Z" fill="#2F2E41"/>
<path d="M124.988 344.303L133.054 346.787L128.613 361.264L120.547 358.781L124.988 344.303Z" fill="#2F2E41"/>
<path d="M137.196 366.853C133.484 365.71 130.821 363.653 131.249 362.258C131.677 360.864 135.033 360.66 138.746 361.803C142.458 362.946 145.12 365.003 144.693 366.397C144.265 367.792 140.909 367.996 137.196 366.853Z" fill="#2F2E41"/>
<path d="M121.167 361.55C117.455 360.407 114.792 358.35 115.22 356.955C115.648 355.561 119.004 355.357 122.717 356.5C126.429 357.642 129.092 359.7 128.664 361.094C128.236 362.489 124.88 362.693 121.167 361.55Z" fill="#2F2E41"/>
<path d="M144.884 329.722C139.641 329.722 135.391 325.464 135.391 320.212C135.391 314.959 139.641 310.702 144.884 310.702C150.127 310.702 154.377 314.959 154.377 320.212C154.377 325.464 150.127 329.722 144.884 329.722Z" fill="white"/>
<path d="M193.028 339.424C193.028 357.232 203.595 363.449 216.631 363.449C216.933 363.449 217.235 363.446 217.536 363.439C218.14 363.426 218.738 363.398 219.329 363.357C231.094 362.523 240.234 355.986 240.234 339.424C240.234 322.285 218.371 300.659 216.729 299.058L216.726 299.056C216.663 298.994 216.631 298.963 216.631 298.963C216.631 298.963 193.028 321.617 193.028 339.424Z" fill="#60E1D7"/>
<path d="M217.491 360.725L208.858 348.641L217.513 362.052L217.536 363.439C218.14 363.426 218.738 363.398 219.329 363.357L218.399 345.541L218.406 345.403L218.39 345.377L218.302 343.694L226.978 330.251L218.275 342.432L218.255 342.79L217.552 329.329L224.979 315.437L217.461 326.966L216.729 299.058L216.726 298.963V299.056L216.848 321.062L209.454 312.338L216.879 322.958L217.074 335.01L210.17 323.444L217.103 336.784L217.212 343.484L207.189 327.385L217.25 345.822L217.491 360.725Z" fill="#3F3D56"/>
<path d="M100.206 346.851C100.206 366.25 111.717 373.024 125.918 373.024C126.247 373.024 126.576 373.02 126.904 373.013C127.562 372.998 128.213 372.967 128.857 372.923C141.674 372.014 151.631 364.893 151.631 346.851C151.631 328.18 127.814 304.621 126.025 302.877L126.022 302.874C125.953 302.807 125.918 302.774 125.918 302.774C125.918 302.774 100.206 327.452 100.206 346.851Z" fill="#BDFFFD"/>
<path d="M126.855 370.056L117.451 356.892L126.879 371.501L126.904 373.013C127.562 372.998 128.213 372.967 128.857 372.923L127.844 353.515L127.851 353.364L127.834 353.336L127.739 351.503L137.19 336.857L127.709 350.128L127.687 350.517L126.921 335.853L135.012 320.72L126.822 333.279L126.025 302.877L126.022 302.774V302.874L126.155 326.848L118.099 317.344L126.188 328.913L126.401 342.043L118.88 329.442L126.432 343.974L126.551 351.274L115.632 333.736L126.592 353.821L126.855 370.056Z" fill="#3F3D56"/>
</g>
<g filter="url(#filter0_d)">
<path fill-rule="evenodd" clip-rule="evenodd" d="M205.509 4.88641C188.024 4.88641 173.85 19.0603 173.85 36.5447V77.5164H169.102C167.878 77.5164 166.886 78.5086 166.886 79.7325V96.8959C166.886 98.1198 167.878 99.112 169.102 99.112H173.85V117.849H169.102C167.878 117.849 166.886 118.841 166.886 120.065V154.378C166.886 155.602 167.878 156.594 169.102 156.594H173.85V167.075H169.102C167.878 167.075 166.886 168.067 166.886 169.291V203.603C166.886 204.827 167.878 205.819 169.102 205.819H173.85V511.212C173.85 528.696 188.024 542.87 205.509 542.87H404.36C421.844 542.87 436.018 528.696 436.018 511.212V36.5447C436.018 19.0603 421.844 4.88641 404.36 4.88641H205.509Z" fill="url(#paint0_linear)"/>
</g>
<g filter="url(#filter1_d)">
<path fill-rule="evenodd" clip-rule="evenodd" d="M172.964 36.5447C172.964 18.5708 187.535 4 205.509 4H404.36C422.334 4 436.905 18.5708 436.905 36.5447V511.212C436.905 529.186 422.334 543.757 404.36 543.757H205.509C187.535 543.757 172.964 529.186 172.964 511.212V206.706H169.103C167.389 206.706 166 205.317 166 203.603V169.291C166 167.577 167.389 166.188 169.103 166.188H172.964V157.481H169.103C167.389 157.481 166 156.092 166 154.378V120.065C166 118.352 167.389 116.963 169.103 116.963H172.964V99.9984H169.103C167.389 99.9984 166 98.6094 166 96.8959V79.7325C166 78.019 167.389 76.63 169.103 76.63H172.964V36.5447ZM173.851 36.5447C173.851 19.0603 188.025 4.88643 205.509 4.88643H404.36C421.845 4.88643 436.018 19.0603 436.018 36.5447V511.212C436.018 528.696 421.845 542.87 404.36 542.87H205.509C188.024 542.87 173.851 528.696 173.851 511.212V205.819H169.103C167.879 205.819 166.886 204.827 166.886 203.603V169.291C166.886 168.067 167.879 167.074 169.103 167.074H173.851V156.594H169.103C167.879 156.594 166.886 155.602 166.886 154.378V120.065C166.886 118.841 167.879 117.849 169.103 117.849H173.851V99.112H169.103C167.879 99.112 166.886 98.1198 166.886 96.8959V79.7325C166.886 78.5086 167.879 77.5164 169.103 77.5164H173.851V36.5447Z" fill="black" fill-opacity="0.04"/>
</g>
<path fill-rule="evenodd" clip-rule="evenodd" d="M185.881 42.9886V503.3C185.881 518.161 197.929 530.209 212.791 530.209H396.409C411.27 530.209 423.318 518.161 423.318 503.3V42.9886C423.318 28.1269 411.27 16.0791 396.409 16.0791H212.791C197.929 16.0791 185.881 28.1269 185.881 42.9886Z" fill="#FF3B3B"/>
<path d="M186.15 42.9886C186.15 28.1269 198.198 16.0791 213.059 16.0791H396.677C411.539 16.0791 423.587 28.1269 423.587 42.9886V503.3C423.587 518.161 411.539 530.209 396.677 530.209H213.059C198.198 530.209 186.15 518.161 186.15 503.3V42.9886Z" fill="#F5F8FF"/>
<path fill-rule="evenodd" clip-rule="evenodd" d="M185.723 42.9881C185.723 28.039 197.841 15.9203 212.79 15.9203H396.408C411.357 15.9203 423.476 28.039 423.476 42.9881V503.299C423.476 518.248 411.357 530.367 396.408 530.367H212.79C197.841 530.367 185.723 518.248 185.723 503.299V42.9881ZM212.79 16.2369C198.016 16.2369 186.039 28.2138 186.039 42.9881V503.299C186.039 518.073 198.016 530.05 212.79 530.05H396.408C411.183 530.05 423.16 518.073 423.16 503.299V42.9881C423.16 28.2138 411.183 16.2369 396.408 16.2369H212.79Z" fill="#979797"/>
<path d="M254.735 105.5C259.541 105.5 263.437 101.59 263.437 96.7657C263.437 91.9418 259.541 88.0313 254.735 88.0313C249.929 88.0313 246.032 91.9418 246.032 96.7657C246.032 101.59 249.929 105.5 254.735 105.5Z" fill="#FF6584"/>
<path d="M297.073 129.536C297.073 150.145 284.867 157.341 269.809 157.341C254.752 157.341 242.545 150.145 242.545 129.536C242.545 108.927 269.809 82.7089 269.809 82.7089C269.809 82.7089 297.073 108.927 297.073 129.536Z" fill="#F2F2F2"/>
<path d="M268.816 154.189L269.095 136.941L280.716 115.602L269.139 134.235L269.265 126.48L277.274 111.042L269.298 124.427L269.524 110.479L278.1 98.1882L269.559 108.285L269.7 82.7089L268.814 116.568L268.887 115.171L260.167 101.775L268.747 117.852L267.934 133.43L267.91 133.017L257.858 118.919L267.88 134.477L267.778 136.426L267.76 136.455L267.768 136.615L265.707 176.138H268.461L268.791 155.723L278.788 140.203L268.816 154.189Z" fill="#3F3D56"/>
<path d="M378.195 137.977C378.195 154.847 368.204 160.737 355.878 160.737C343.553 160.737 333.561 154.847 333.561 137.977C333.561 121.107 355.878 99.6466 355.878 99.6466C355.878 99.6466 378.195 121.107 378.195 137.977Z" fill="#F2F2F2"/>
<path d="M355.065 158.156L355.294 144.038L364.806 126.572L355.33 141.823L355.433 135.475L361.988 122.838L355.46 133.795L355.644 122.378L362.664 112.317L355.673 120.582L355.789 99.6466L355.063 127.362L355.123 126.218L347.986 115.253L355.009 128.413L354.344 141.164L354.324 140.826L346.096 129.287L354.299 142.022L354.216 143.616L354.201 143.64L354.208 143.771L352.52 176.122H354.775L355.045 159.412L363.228 146.709L355.065 158.156Z" fill="#3F3D56"/>
<path d="M319.5 179C372.243 179 415 177.433 415 175.5C415 173.567 372.243 172 319.5 172C266.757 172 224 173.567 224 175.5C224 177.433 266.757 179 319.5 179Z" fill="#3F3D56"/>
<path d="M347.174 182.553C354.307 182.553 360.09 182.26 360.09 181.898C360.09 181.536 354.307 181.242 347.174 181.242C340.041 181.242 334.259 181.536 334.259 181.898C334.259 182.26 340.041 182.553 347.174 182.553Z" fill="#3F3D56"/>
<path d="M300.438 188.874C307.571 188.874 313.353 188.581 313.353 188.219C313.353 187.857 307.571 187.564 300.438 187.564C293.305 187.564 287.522 187.857 287.522 188.219C287.522 188.581 293.305 188.874 300.438 188.874Z" fill="#3F3D56"/>
<path d="M264.98 184.416C281.277 184.416 294.488 183.746 294.488 182.919C294.488 182.092 281.277 181.422 264.98 181.422C248.684 181.422 235.473 182.092 235.473 182.919C235.473 183.746 248.684 184.416 264.98 184.416Z" fill="#3F3D56"/>
<path d="M200 183C211.046 183 220 182.328 220 181.5C220 180.672 211.046 180 200 180C188.954 180 180 180.672 180 181.5C180 182.328 188.954 183 200 183Z" fill="#3F3D56"/>
<path d="M243.824 168.509L240.561 168.47L240.492 174.338L243.755 174.377L243.824 168.509Z" fill="#2F2E41"/>
<path d="M239.404 174.394C239.41 173.828 238.198 173.356 236.696 173.338C235.195 173.32 233.972 173.764 233.965 174.329C233.959 174.894 235.171 175.367 236.672 175.385C238.174 175.403 239.397 174.959 239.404 174.394Z" fill="#2F2E41"/>
<path d="M245.931 174.334C245.938 173.769 244.726 173.296 243.224 173.279C241.722 173.261 240.5 173.705 240.493 174.27C240.486 174.835 241.698 175.308 243.2 175.326C244.702 175.343 245.925 174.9 245.931 174.334Z" fill="#2F2E41"/>
<path d="M255.414 166.005C255.414 173.521 250.963 176.146 245.471 176.146C245.344 176.146 245.217 176.144 245.09 176.141C244.835 176.136 244.583 176.124 244.334 176.107C239.378 175.755 235.527 172.995 235.527 166.005C235.527 158.771 244.738 149.642 245.43 148.967L245.431 148.965C245.458 148.939 245.471 148.926 245.471 148.926C245.471 148.926 255.414 158.488 255.414 166.005Z" fill="#60E1D7"/>
<path d="M245.108 174.996L248.745 169.895L245.099 175.556L245.09 176.141C244.835 176.136 244.583 176.124 244.334 176.107L244.726 168.587L244.723 168.528L244.73 168.517L244.767 167.807L241.112 162.133L244.778 167.274L244.787 167.425L245.083 161.743L241.954 155.88L245.121 160.746L245.43 148.967L245.431 148.926V148.965L245.379 158.254L248.494 154.572L245.367 159.055L245.284 164.142L248.193 159.259L245.272 164.89L245.226 167.718L249.449 160.923L245.21 168.705L245.108 174.996Z" fill="#3F3D56"/>
<path d="M323.622 168.443L320.502 169.405L322.22 175.014L325.339 174.052L323.622 168.443Z" fill="#2F2E41"/>
<path d="M329.86 166.519L326.741 167.481L328.458 173.091L331.578 172.128L329.86 166.519Z" fill="#2F2E41"/>
<path d="M325.139 175.256C326.575 174.813 327.604 174.016 327.439 173.476C327.273 172.936 325.975 172.856 324.54 173.299C323.104 173.742 322.075 174.539 322.24 175.08C322.405 175.62 323.703 175.699 325.139 175.256Z" fill="#2F2E41"/>
<path d="M331.338 173.201C332.773 172.758 333.803 171.961 333.638 171.421C333.472 170.881 332.174 170.802 330.739 171.245C329.303 171.687 328.273 172.484 328.439 173.025C328.604 173.565 329.902 173.644 331.338 173.201Z" fill="#2F2E41"/>
<path d="M322.166 160.869C324.194 160.869 325.837 159.219 325.837 157.184C325.837 155.149 324.194 153.499 322.166 153.499C320.139 153.499 318.495 155.149 318.495 157.184C318.495 159.219 320.139 160.869 322.166 160.869Z" fill="white"/>
<path d="M303.548 164.628C303.548 171.528 299.461 173.937 294.42 173.937C294.303 173.937 294.187 173.936 294.07 173.933C293.837 173.928 293.605 173.917 293.377 173.902C288.827 173.578 285.292 171.045 285.292 164.628C285.292 157.988 293.747 149.608 294.382 148.988L294.383 148.987C294.408 148.963 294.42 148.951 294.42 148.951C294.42 148.951 303.548 157.729 303.548 164.628Z" fill="#60E1D7"/>
<path d="M294.087 172.882L297.426 168.2L294.079 173.396L294.07 173.933C293.837 173.928 293.605 173.917 293.377 173.902L293.737 166.998L293.734 166.945L293.74 166.935L293.774 166.283L290.419 161.074L293.784 165.794L293.792 165.932L294.064 160.717L291.192 155.334L294.099 159.801L294.382 148.988L294.383 148.951V148.987L294.336 157.514L297.196 154.133L294.324 158.248L294.249 162.918L296.919 158.436L294.238 163.605L294.195 166.201L298.072 159.964L294.181 167.107L294.087 172.882Z" fill="#3F3D56"/>
<path d="M339.444 167.506C339.444 175.022 334.992 177.647 329.5 177.647C329.373 177.647 329.246 177.646 329.119 177.643C328.865 177.637 328.613 177.625 328.364 177.608C323.408 177.256 319.557 174.496 319.557 167.506C319.557 160.272 328.767 151.143 329.459 150.468L329.46 150.466C329.487 150.44 329.5 150.428 329.5 150.428C329.5 150.428 339.444 159.99 339.444 167.506Z" fill="#60E1D7"/>
<path d="M329.138 176.497L332.775 171.396L329.129 177.057L329.119 177.643C328.865 177.637 328.613 177.625 328.364 177.608L328.756 170.088L328.753 170.03L328.759 170.019L328.796 169.308L325.141 163.634L328.808 168.776L328.816 168.926L329.113 163.245L325.983 157.381L329.151 162.247L329.459 150.468L329.46 150.428V150.466L329.409 159.755L332.524 156.073L329.396 160.556L329.314 165.643L332.222 160.761L329.302 166.391L329.256 169.22L333.478 162.424L329.24 170.206L329.138 176.497Z" fill="#3F3D56"/>
<path d="M232.957 281.778H231.999L228.055 275.636H228.016C228.068 276.357 228.095 277.018 228.095 277.618V281.778H227.32V274.46H228.268L232.202 280.576H232.241C232.234 280.486 232.22 280.198 232.197 279.711C232.174 279.22 232.165 278.87 232.172 278.659V274.46H232.957V281.778Z" fill="#504E49"/>
<path d="M239.79 279.03C239.79 279.924 239.568 280.623 239.124 281.127C238.68 281.627 238.066 281.878 237.283 281.878C236.799 281.878 236.37 281.763 235.995 281.532C235.619 281.302 235.33 280.972 235.126 280.541C234.922 280.111 234.82 279.607 234.82 279.03C234.82 278.136 235.04 277.44 235.481 276.943C235.922 276.442 236.534 276.192 237.318 276.192C238.074 276.192 238.675 276.447 239.119 276.958C239.567 277.468 239.79 278.159 239.79 279.03ZM235.669 279.03C235.669 279.731 235.807 280.264 236.083 280.631C236.36 280.999 236.766 281.182 237.303 281.182C237.839 281.182 238.245 281 238.522 280.636C238.802 280.269 238.941 279.734 238.941 279.03C238.941 278.332 238.802 277.804 238.522 277.443C238.245 277.08 237.836 276.898 237.293 276.898C236.756 276.898 236.352 277.076 236.079 277.433C235.805 277.79 235.669 278.322 235.669 279.03Z" fill="#504E49"/>
<path d="M245.953 281.778L244.961 278.559C244.898 278.362 244.781 277.915 244.61 277.218H244.571C244.439 277.802 244.324 278.252 244.225 278.569L243.203 281.778H242.256L240.78 276.292H241.639C241.988 277.67 242.252 278.72 242.433 279.44C242.618 280.161 242.723 280.646 242.749 280.897H242.789C242.825 280.707 242.883 280.461 242.962 280.161C243.044 279.857 243.115 279.617 243.174 279.44L244.166 276.292H245.054L246.022 279.44C246.206 280.014 246.331 280.496 246.397 280.887H246.437C246.45 280.767 246.484 280.581 246.54 280.331C246.599 280.081 246.943 278.735 247.572 276.292H248.421L246.925 281.778H245.953Z" fill="#504E49"/>
<path d="M254.383 281.192C254.528 281.192 254.668 281.182 254.803 281.162C254.937 281.139 255.044 281.115 255.123 281.092V281.728C255.035 281.771 254.903 281.806 254.729 281.833C254.557 281.863 254.403 281.878 254.265 281.878C253.218 281.878 252.695 281.319 252.695 280.201V276.938H251.92V276.537L252.695 276.192L253.04 275.021H253.514V276.292H255.084V276.938H253.514V280.166C253.514 280.496 253.592 280.75 253.746 280.927C253.901 281.104 254.113 281.192 254.383 281.192Z" fill="#504E49"/>
<path d="M260.215 281.778V278.229C260.215 277.782 260.114 277.448 259.914 277.228C259.713 277.008 259.399 276.898 258.971 276.898C258.401 276.898 257.985 277.054 257.722 277.368C257.462 277.682 257.332 278.196 257.332 278.91V281.778H256.513V273.99H257.332V276.347C257.332 276.631 257.319 276.866 257.293 277.053H257.342C257.503 276.789 257.732 276.582 258.028 276.432C258.327 276.279 258.668 276.202 259.05 276.202C259.711 276.202 260.206 276.362 260.536 276.682C260.868 276.999 261.034 277.505 261.034 278.199V281.778H260.215Z" fill="#504E49"/>
<path d="M266.352 281.778L266.189 280.997H266.15C265.88 281.341 265.61 281.574 265.34 281.698C265.074 281.818 264.74 281.878 264.338 281.878C263.802 281.878 263.381 281.738 263.075 281.457C262.772 281.177 262.621 280.778 262.621 280.261C262.621 279.153 263.494 278.573 265.242 278.519L266.16 278.489V278.149C266.16 277.718 266.068 277.402 265.883 277.198C265.702 276.991 265.411 276.888 265.01 276.888C264.559 276.888 264.049 277.028 263.48 277.308L263.228 276.672C263.494 276.526 263.786 276.41 264.102 276.327C264.421 276.244 264.74 276.202 265.059 276.202C265.704 276.202 266.181 276.347 266.491 276.637C266.803 276.928 266.959 277.393 266.959 278.034V281.778H266.352ZM264.501 281.192C265.011 281.192 265.411 281.05 265.701 280.767C265.994 280.483 266.14 280.086 266.14 279.575V279.08L265.321 279.115C264.669 279.138 264.199 279.242 263.909 279.425C263.623 279.605 263.48 279.887 263.48 280.271C263.48 280.571 263.568 280.8 263.746 280.957C263.927 281.114 264.179 281.192 264.501 281.192Z" fill="#504E49"/>
<path d="M270.703 281.192C270.848 281.192 270.988 281.182 271.123 281.162C271.258 281.139 271.365 281.115 271.444 281.092V281.728C271.355 281.771 271.223 281.806 271.049 281.833C270.878 281.863 270.723 281.878 270.585 281.878C269.538 281.878 269.015 281.319 269.015 280.201V276.938H268.24V276.537L269.015 276.192L269.361 275.021H269.834V276.292H271.404V276.938H269.834V280.166C269.834 280.496 269.912 280.75 270.066 280.927C270.221 281.104 270.433 281.192 270.703 281.192Z" fill="#504E49"/>
<path d="M274.903 276.292H275.782L276.966 279.42C277.226 280.134 277.388 280.65 277.45 280.967H277.49C277.532 280.797 277.621 280.506 277.756 280.096C277.894 279.682 278.342 278.414 279.099 276.292H279.977L277.653 282.538C277.422 283.156 277.152 283.593 276.843 283.85C276.537 284.11 276.16 284.24 275.713 284.24C275.463 284.24 275.216 284.212 274.972 284.155V283.489C275.153 283.529 275.356 283.549 275.579 283.549C276.142 283.549 276.544 283.229 276.784 282.588L277.085 281.808L274.903 276.292Z" fill="#504E49"/>
<path d="M285.829 279.03C285.829 279.924 285.607 280.623 285.162 281.127C284.718 281.627 284.104 281.878 283.321 281.878C282.838 281.878 282.408 281.763 282.033 281.532C281.658 281.302 281.368 280.972 281.164 280.541C280.96 280.111 280.858 279.607 280.858 279.03C280.858 278.136 281.079 277.44 281.52 276.943C281.961 276.442 282.573 276.192 283.356 276.192C284.113 276.192 284.713 276.447 285.158 276.958C285.605 277.468 285.829 278.159 285.829 279.03ZM281.707 279.03C281.707 279.731 281.845 280.264 282.122 280.631C282.398 280.999 282.805 281.182 283.341 281.182C283.877 281.182 284.284 281 284.56 280.636C284.84 280.269 284.98 279.734 284.98 279.03C284.98 278.332 284.84 277.804 284.56 277.443C284.284 277.08 283.874 276.898 283.331 276.898C282.795 276.898 282.39 277.076 282.117 277.433C281.844 277.79 281.707 278.322 281.707 279.03Z" fill="#504E49"/>
<path d="M288.343 276.292V279.851C288.343 280.298 288.444 280.631 288.645 280.852C288.845 281.072 289.16 281.182 289.587 281.182C290.153 281.182 290.566 281.025 290.826 280.712C291.09 280.398 291.221 279.886 291.221 279.175V276.292H292.041V281.778H291.364L291.246 281.042H291.201C291.034 281.312 290.8 281.519 290.5 281.663C290.204 281.806 289.865 281.878 289.484 281.878C288.826 281.878 288.332 281.719 288.003 281.402C287.677 281.085 287.514 280.578 287.514 279.881V276.292H288.343Z" fill="#504E49"/>
<path d="M294.743 274.46L294.817 274.57C294.731 274.904 294.608 275.293 294.447 275.736C294.285 276.177 294.118 276.587 293.943 276.968H293.341C293.571 276.017 293.739 275.181 293.844 274.46H294.743Z" fill="#504E49"/>
<path d="M297.292 281.778L295.239 276.292H296.117L297.282 279.545C297.545 280.306 297.7 280.8 297.746 281.027H297.786C297.822 280.85 297.935 280.485 298.126 279.931C298.32 279.374 298.753 278.161 299.424 276.292H300.303L298.25 281.778H297.292Z" fill="#504E49"/>
<path d="M303.76 281.878C302.961 281.878 302.329 281.631 301.865 281.137C301.404 280.643 301.174 279.957 301.174 279.08C301.174 278.196 301.388 277.493 301.816 276.973C302.247 276.452 302.824 276.192 303.548 276.192C304.226 276.192 304.762 276.419 305.157 276.873C305.552 277.323 305.75 277.919 305.75 278.659V279.185H302.023C302.039 279.829 302.199 280.318 302.502 280.651C302.808 280.985 303.237 281.152 303.79 281.152C304.372 281.152 304.948 281.029 305.518 280.782V281.522C305.228 281.649 304.953 281.739 304.693 281.793C304.437 281.849 304.126 281.878 303.76 281.878ZM303.538 276.888C303.104 276.888 302.757 277.031 302.497 277.318C302.24 277.605 302.089 278.002 302.043 278.509H304.871C304.871 277.985 304.756 277.585 304.525 277.308C304.295 277.028 303.966 276.888 303.538 276.888Z" fill="#504E49"/>
<path d="M312.901 281.878C312.549 281.878 312.227 281.813 311.934 281.683C311.644 281.549 311.401 281.346 311.203 281.072H311.144C311.184 281.392 311.203 281.696 311.203 281.983V284.24H310.384V276.292H311.05L311.164 277.043H311.203C311.414 276.742 311.659 276.526 311.939 276.392C312.218 276.259 312.539 276.192 312.901 276.192C313.619 276.192 314.172 276.441 314.56 276.938C314.951 277.435 315.147 278.132 315.147 279.03C315.147 279.931 314.948 280.631 314.55 281.132C314.155 281.629 313.605 281.878 312.901 281.878ZM312.783 276.898C312.23 276.898 311.83 277.053 311.583 277.363C311.337 277.673 311.21 278.167 311.203 278.845V279.03C311.203 279.801 311.33 280.353 311.583 280.687C311.837 281.017 312.243 281.182 312.803 281.182C313.27 281.182 313.635 280.99 313.898 280.606C314.165 280.223 314.298 279.694 314.298 279.02C314.298 278.336 314.165 277.812 313.898 277.448C313.635 277.081 313.263 276.898 312.783 276.898Z" fill="#504E49"/>
<path d="M319.355 276.192C319.595 276.192 319.811 276.212 320.002 276.252L319.888 277.023C319.664 276.973 319.467 276.948 319.296 276.948C318.858 276.948 318.483 277.128 318.17 277.488C317.861 277.849 317.706 278.297 317.706 278.835V281.778H316.887V276.292H317.563L317.657 277.308H317.696C317.897 276.951 318.139 276.676 318.422 276.482C318.705 276.289 319.016 276.192 319.355 276.192Z" fill="#504E49"/>
<path d="M324.644 281.778L324.481 280.997H324.441C324.171 281.341 323.902 281.574 323.632 281.698C323.365 281.818 323.031 281.878 322.63 281.878C322.093 281.878 321.672 281.738 321.366 281.457C321.063 281.177 320.912 280.778 320.912 280.261C320.912 279.153 321.786 278.573 323.533 278.519L324.451 278.489V278.149C324.451 277.718 324.359 277.402 324.175 277.198C323.994 276.991 323.702 276.888 323.301 276.888C322.85 276.888 322.34 277.028 321.771 277.308L321.519 276.672C321.786 276.526 322.077 276.41 322.393 276.327C322.712 276.244 323.031 276.202 323.35 276.202C323.995 276.202 324.472 276.347 324.782 276.637C325.094 276.928 325.251 277.393 325.251 278.034V281.778H324.644ZM322.793 281.192C323.303 281.192 323.702 281.05 323.992 280.767C324.285 280.483 324.431 280.086 324.431 279.575V279.08L323.612 279.115C322.96 279.138 322.49 279.242 322.2 279.425C321.914 279.605 321.771 279.887 321.771 280.271C321.771 280.571 321.86 280.8 322.037 280.957C322.218 281.114 322.47 281.192 322.793 281.192Z" fill="#504E49"/>
<path d="M329.409 281.878C328.626 281.878 328.019 281.634 327.588 281.147C327.16 280.656 326.946 279.964 326.946 279.07C326.946 278.152 327.163 277.443 327.597 276.943C328.035 276.442 328.657 276.192 329.463 276.192C329.723 276.192 329.983 276.22 330.243 276.277C330.503 276.334 330.707 276.4 330.855 276.477L330.604 277.183C330.423 277.11 330.225 277.049 330.011 277.003C329.797 276.953 329.608 276.928 329.444 276.928C328.344 276.928 327.795 277.638 327.795 279.06C327.795 279.734 327.928 280.251 328.195 280.611C328.465 280.972 328.863 281.152 329.389 281.152C329.84 281.152 330.302 281.054 330.776 280.857V281.592C330.414 281.783 329.959 281.878 329.409 281.878Z" fill="#504E49"/>
<path d="M334.115 281.192C334.26 281.192 334.4 281.182 334.535 281.162C334.67 281.139 334.777 281.115 334.856 281.092V281.728C334.767 281.771 334.635 281.806 334.461 281.833C334.29 281.863 334.135 281.878 333.997 281.878C332.95 281.878 332.427 281.319 332.427 280.201V276.938H331.652V276.537L332.427 276.192L332.773 275.021H333.247V276.292H334.816V276.938H333.247V280.166C333.247 280.496 333.324 280.75 333.479 280.927C333.633 281.104 333.845 281.192 334.115 281.192Z" fill="#504E49"/>
<path d="M337.064 281.778H336.245V276.292H337.064V281.778ZM336.176 274.806C336.176 274.615 336.222 274.477 336.314 274.39C336.406 274.3 336.521 274.255 336.659 274.255C336.791 274.255 336.905 274.3 337 274.39C337.096 274.48 337.143 274.619 337.143 274.806C337.143 274.992 337.096 275.133 337 275.226C336.905 275.316 336.791 275.361 336.659 275.361C336.521 275.361 336.406 275.316 336.314 275.226C336.222 275.133 336.176 274.992 336.176 274.806Z" fill="#504E49"/>
<path d="M341.267 281.878C340.484 281.878 339.877 281.634 339.446 281.147C339.018 280.656 338.804 279.964 338.804 279.07C338.804 278.152 339.021 277.443 339.455 276.943C339.893 276.442 340.515 276.192 341.321 276.192C341.581 276.192 341.841 276.22 342.101 276.277C342.361 276.334 342.565 276.4 342.713 276.477L342.462 277.183C342.281 277.11 342.083 277.049 341.869 277.003C341.655 276.953 341.466 276.928 341.302 276.928C340.202 276.928 339.653 277.638 339.653 279.06C339.653 279.734 339.786 280.251 340.053 280.611C340.323 280.972 340.721 281.152 341.247 281.152C341.698 281.152 342.16 281.054 342.634 280.857V281.592C342.272 281.783 341.817 281.878 341.267 281.878Z" fill="#504E49"/>
<path d="M346.511 281.878C345.712 281.878 345.08 281.631 344.616 281.137C344.155 280.643 343.925 279.957 343.925 279.08C343.925 278.196 344.139 277.493 344.566 276.973C344.998 276.452 345.575 276.192 346.299 276.192C346.977 276.192 347.513 276.419 347.908 276.873C348.303 277.323 348.5 277.919 348.5 278.659V279.185H344.774C344.79 279.829 344.95 280.318 345.253 280.651C345.559 280.985 345.988 281.152 346.541 281.152C347.123 281.152 347.699 281.029 348.268 280.782V281.522C347.979 281.649 347.704 281.739 347.444 281.793C347.187 281.849 346.877 281.878 346.511 281.878ZM346.289 276.888C345.855 276.888 345.508 277.031 345.248 277.318C344.991 277.605 344.84 278.002 344.794 278.509H347.622C347.622 277.985 347.507 277.585 347.276 277.308C347.046 277.028 346.717 276.888 346.289 276.888Z" fill="#504E49"/>
<path d="M353.888 281.042H353.843C353.465 281.599 352.899 281.878 352.145 281.878C351.438 281.878 350.887 281.632 350.492 281.142C350.1 280.651 349.905 279.954 349.905 279.05C349.905 278.146 350.102 277.443 350.497 276.943C350.892 276.442 351.441 276.192 352.145 276.192C352.879 276.192 353.442 276.462 353.834 277.003H353.898L353.863 276.607L353.843 276.222V273.99H354.663V281.778H353.996L353.888 281.042ZM352.249 281.182C352.809 281.182 353.213 281.029 353.463 280.722C353.717 280.411 353.843 279.912 353.843 279.225V279.05C353.843 278.272 353.715 277.718 353.458 277.388C353.205 277.054 352.799 276.888 352.239 276.888C351.759 276.888 351.39 277.078 351.134 277.458C350.88 277.835 350.754 278.369 350.754 279.06C350.754 279.761 350.88 280.289 351.134 280.646C351.387 281.004 351.759 281.182 352.249 281.182Z" fill="#504E49"/>
<path d="M358.779 276.292H359.658L360.842 279.42C361.102 280.134 361.263 280.65 361.326 280.967H361.365C361.408 280.797 361.497 280.506 361.632 280.096C361.77 279.682 362.218 278.414 362.975 276.292H363.853L361.528 282.538C361.298 283.156 361.028 283.593 360.719 283.85C360.413 284.11 360.036 284.24 359.588 284.24C359.338 284.24 359.092 284.212 358.848 284.155V283.489C359.029 283.529 359.231 283.549 359.455 283.549C360.018 283.549 360.419 283.229 360.66 282.588L360.961 281.808L358.779 276.292Z" fill="#504E49"/>
<path d="M369.705 279.03C369.705 279.924 369.482 280.623 369.038 281.127C368.594 281.627 367.98 281.878 367.197 281.878C366.713 281.878 366.284 281.763 365.909 281.532C365.534 281.302 365.244 280.972 365.04 280.541C364.836 280.111 364.734 279.607 364.734 279.03C364.734 278.136 364.954 277.44 365.395 276.943C365.836 276.442 366.448 276.192 367.232 276.192C367.988 276.192 368.589 276.447 369.033 276.958C369.481 277.468 369.705 278.159 369.705 279.03ZM365.583 279.03C365.583 279.731 365.721 280.264 365.998 280.631C366.274 280.999 366.68 281.182 367.217 281.182C367.753 281.182 368.16 281 368.436 280.636C368.716 280.269 368.856 279.734 368.856 279.03C368.856 278.332 368.716 277.804 368.436 277.443C368.16 277.08 367.75 276.898 367.207 276.898C366.671 276.898 366.266 277.076 365.993 277.433C365.72 277.79 365.583 278.322 365.583 279.03Z" fill="#504E49"/>
<path d="M372.219 276.292V279.851C372.219 280.298 372.32 280.631 372.52 280.852C372.721 281.072 373.035 281.182 373.463 281.182C374.029 281.182 374.442 281.025 374.702 280.712C374.965 280.398 375.097 279.886 375.097 279.175V276.292H375.916V281.778H375.24L375.122 281.042H375.077C374.909 281.312 374.676 281.519 374.376 281.663C374.08 281.806 373.741 281.878 373.359 281.878C372.701 281.878 372.208 281.719 371.879 281.402C371.553 281.085 371.39 280.578 371.39 279.881V276.292H372.219Z" fill="#504E49"/>
<path d="M380.43 276.192C380.67 276.192 380.886 276.212 381.077 276.252L380.963 277.023C380.739 276.973 380.542 276.948 380.371 276.948C379.933 276.948 379.558 277.128 379.245 277.488C378.936 277.849 378.781 278.297 378.781 278.835V281.778H377.962V276.292H378.638L378.732 277.308H378.772C378.972 276.951 379.214 276.676 379.497 276.482C379.78 276.289 380.091 276.192 380.43 276.192Z" fill="#504E49"/>
<path d="M238.071 291.578C238.782 291.578 239.333 291.825 239.725 292.318C240.12 292.809 240.317 293.505 240.317 294.406C240.317 295.306 240.118 296.007 239.72 296.508C239.325 297.005 238.776 297.253 238.071 297.253C237.719 297.253 237.397 297.188 237.104 297.058C236.814 296.925 236.571 296.721 236.373 296.448H236.314L236.141 297.153H235.554V289.365H236.373V291.257C236.373 291.681 236.36 292.061 236.334 292.398H236.373C236.755 291.851 237.321 291.578 238.071 291.578ZM237.953 292.273C237.393 292.273 236.99 292.437 236.744 292.764C236.497 293.088 236.373 293.635 236.373 294.406C236.373 295.176 236.5 295.729 236.753 296.062C237.007 296.393 237.413 296.558 237.973 296.558C238.476 296.558 238.851 296.373 239.098 296.002C239.345 295.628 239.468 295.093 239.468 294.396C239.468 293.681 239.345 293.149 239.098 292.799C238.851 292.449 238.47 292.273 237.953 292.273Z" fill="#504E49"/>
<path d="M244.525 291.568C244.765 291.568 244.981 291.588 245.172 291.628L245.058 292.398C244.834 292.348 244.637 292.323 244.466 292.323C244.028 292.323 243.653 292.504 243.34 292.864C243.031 293.224 242.876 293.673 242.876 294.21V297.153H242.057V291.668H242.733L242.827 292.684H242.866C243.067 292.327 243.309 292.051 243.592 291.858C243.875 291.664 244.186 291.568 244.525 291.568Z" fill="#504E49"/>
<path d="M248.772 297.253C247.972 297.253 247.341 297.007 246.877 296.513C246.416 296.019 246.186 295.333 246.186 294.456C246.186 293.571 246.4 292.869 246.827 292.348C247.258 291.828 247.836 291.568 248.56 291.568C249.238 291.568 249.774 291.795 250.169 292.248C250.564 292.699 250.761 293.294 250.761 294.035V294.561H247.035C247.051 295.205 247.211 295.694 247.513 296.027C247.819 296.361 248.249 296.528 248.802 296.528C249.384 296.528 249.96 296.404 250.529 296.157V296.898C250.24 297.025 249.965 297.115 249.705 297.168C249.448 297.225 249.137 297.253 248.772 297.253ZM248.55 292.263C248.116 292.263 247.768 292.407 247.508 292.694C247.252 292.981 247.1 293.378 247.054 293.885H249.883C249.883 293.361 249.768 292.961 249.537 292.684C249.307 292.403 248.978 292.263 248.55 292.263Z" fill="#504E49"/>
<path d="M255.793 297.153L255.63 296.373H255.591C255.321 296.716 255.051 296.95 254.781 297.073C254.515 297.193 254.181 297.253 253.779 297.253C253.243 297.253 252.822 297.113 252.516 296.833C252.213 296.553 252.062 296.154 252.062 295.637C252.062 294.529 252.935 293.948 254.683 293.895L255.601 293.865V293.525C255.601 293.094 255.509 292.777 255.324 292.574C255.143 292.367 254.852 292.263 254.451 292.263C254 292.263 253.49 292.403 252.921 292.684L252.669 292.048C252.935 291.901 253.227 291.786 253.542 291.703C253.862 291.619 254.181 291.578 254.5 291.578C255.145 291.578 255.622 291.723 255.932 292.013C256.244 292.303 256.4 292.769 256.4 293.41V297.153H255.793ZM253.942 296.568C254.452 296.568 254.852 296.426 255.142 296.142C255.435 295.859 255.581 295.462 255.581 294.951V294.456L254.762 294.491C254.11 294.514 253.64 294.617 253.35 294.801C253.064 294.981 252.921 295.263 252.921 295.647C252.921 295.947 253.009 296.176 253.187 296.332C253.368 296.489 253.62 296.568 253.942 296.568Z" fill="#504E49"/>
<path d="M260.144 296.568C260.289 296.568 260.429 296.558 260.564 296.538C260.699 296.514 260.806 296.491 260.885 296.468V297.103C260.796 297.147 260.664 297.182 260.49 297.208C260.319 297.238 260.164 297.253 260.026 297.253C258.979 297.253 258.456 296.695 258.456 295.577V292.313H257.681V291.913L258.456 291.568L258.802 290.396H259.275V291.668H260.845V292.313H259.275V295.542C259.275 295.872 259.353 296.126 259.507 296.302C259.662 296.479 259.874 296.568 260.144 296.568Z" fill="#504E49"/>
<path d="M265.976 297.153V293.605C265.976 293.158 265.875 292.824 265.675 292.604C265.474 292.383 265.16 292.273 264.732 292.273C264.163 292.273 263.746 292.43 263.483 292.744C263.223 293.057 263.093 293.571 263.093 294.285V297.153H262.274V289.365H263.093V291.723C263.093 292.006 263.08 292.242 263.054 292.429H263.103C263.264 292.165 263.493 291.958 263.789 291.808C264.089 291.654 264.429 291.578 264.811 291.578C265.472 291.578 265.968 291.738 266.297 292.058C266.629 292.375 266.795 292.881 266.795 293.575V297.153H265.976Z" fill="#504E49"/>
<path d="M269.606 297.153H268.787V291.668H269.606V297.153ZM268.717 290.181C268.717 289.991 268.764 289.853 268.856 289.766C268.948 289.676 269.063 289.631 269.201 289.631C269.333 289.631 269.446 289.676 269.542 289.766C269.637 289.856 269.685 289.994 269.685 290.181C269.685 290.368 269.637 290.508 269.542 290.602C269.446 290.692 269.333 290.737 269.201 290.737C269.063 290.737 268.948 290.692 268.856 290.602C268.764 290.508 268.717 290.368 268.717 290.181Z" fill="#504E49"/>
<path d="M275.349 297.153V293.605C275.349 293.158 275.248 292.824 275.048 292.604C274.847 292.383 274.533 292.273 274.105 292.273C273.539 292.273 273.124 292.429 272.861 292.739C272.598 293.049 272.466 293.561 272.466 294.275V297.153H271.647V291.668H272.313L272.446 292.418H272.486C272.654 292.148 272.889 291.94 273.192 291.793C273.494 291.643 273.832 291.568 274.204 291.568C274.855 291.568 275.345 291.728 275.675 292.048C276.004 292.365 276.168 292.874 276.168 293.575V297.153H275.349Z" fill="#504E49"/>
<path d="M282.587 291.668V292.193L281.585 292.313C281.677 292.43 281.76 292.584 281.832 292.774C281.904 292.961 281.941 293.173 281.941 293.41C281.941 293.947 281.76 294.375 281.398 294.696C281.036 295.016 280.539 295.176 279.907 295.176C279.746 295.176 279.594 295.163 279.453 295.136C279.104 295.323 278.93 295.558 278.93 295.842C278.93 295.992 278.99 296.104 279.112 296.177C279.234 296.247 279.443 296.282 279.739 296.282H280.697C281.282 296.282 281.732 296.408 282.044 296.658C282.36 296.908 282.518 297.272 282.518 297.749C282.518 298.356 282.278 298.818 281.797 299.135C281.317 299.456 280.616 299.616 279.695 299.616C278.987 299.616 278.441 299.482 278.056 299.215C277.674 298.948 277.483 298.571 277.483 298.084C277.483 297.751 277.589 297.462 277.799 297.218C278.01 296.975 278.306 296.81 278.688 296.723C278.55 296.659 278.433 296.561 278.337 296.428C278.245 296.294 278.199 296.139 278.199 295.962C278.199 295.762 278.252 295.587 278.357 295.437C278.462 295.286 278.628 295.141 278.856 295.001C278.576 294.884 278.347 294.686 278.169 294.406C277.995 294.125 277.908 293.805 277.908 293.445C277.908 292.844 278.086 292.382 278.441 292.058C278.796 291.731 279.3 291.568 279.951 291.568C280.234 291.568 280.489 291.601 280.716 291.668H282.587ZM278.273 298.074C278.273 298.371 278.397 298.596 278.643 298.75C278.89 298.903 279.244 298.98 279.705 298.98C280.392 298.98 280.901 298.875 281.23 298.665C281.562 298.458 281.728 298.176 281.728 297.819C281.728 297.522 281.638 297.315 281.457 297.198C281.276 297.085 280.935 297.028 280.435 297.028H279.453C279.081 297.028 278.791 297.118 278.584 297.298C278.377 297.479 278.273 297.737 278.273 298.074ZM278.717 293.425C278.717 293.808 278.824 294.099 279.038 294.295C279.252 294.492 279.55 294.591 279.932 294.591C280.731 294.591 281.131 294.197 281.131 293.41C281.131 292.585 280.726 292.173 279.917 292.173C279.532 292.173 279.236 292.278 279.028 292.489C278.821 292.699 278.717 293.011 278.717 293.425Z" fill="#504E49"/>
<path d="M284.86 295.962L284.934 296.077C284.848 296.411 284.725 296.798 284.564 297.238C284.403 297.682 284.235 298.094 284.06 298.475H283.443C283.532 298.128 283.629 297.699 283.735 297.188C283.843 296.678 283.919 296.269 283.962 295.962H284.86Z" fill="#504E49"/>
<path d="M293.414 297.153V293.605C293.414 293.158 293.313 292.824 293.112 292.604C292.912 292.383 292.597 292.273 292.17 292.273C291.6 292.273 291.184 292.43 290.921 292.744C290.661 293.057 290.531 293.571 290.531 294.285V297.153H289.712V289.365H290.531V291.723C290.531 292.006 290.518 292.242 290.491 292.429H290.541C290.702 292.165 290.931 291.958 291.227 291.808C291.526 291.654 291.867 291.578 292.249 291.578C292.91 291.578 293.405 291.738 293.734 292.058C294.067 292.375 294.233 292.881 294.233 293.575V297.153H293.414Z" fill="#504E49"/>
<path d="M300.894 294.406C300.894 295.3 300.672 295.999 300.227 296.503C299.783 297.003 299.17 297.253 298.386 297.253C297.903 297.253 297.473 297.138 297.098 296.908C296.723 296.678 296.433 296.348 296.229 295.917C296.025 295.487 295.923 294.983 295.923 294.406C295.923 293.511 296.144 292.816 296.585 292.318C297.026 291.818 297.638 291.568 298.421 291.568C299.178 291.568 299.778 291.823 300.223 292.333C300.67 292.844 300.894 293.535 300.894 294.406ZM296.772 294.406C296.772 295.106 296.91 295.64 297.187 296.007C297.463 296.374 297.87 296.558 298.406 296.558C298.942 296.558 299.349 296.376 299.625 296.012C299.905 295.645 300.045 295.11 300.045 294.406C300.045 293.708 299.905 293.179 299.625 292.819C299.349 292.455 298.939 292.273 298.396 292.273C297.86 292.273 297.455 292.452 297.182 292.809C296.909 293.166 296.772 293.698 296.772 294.406Z" fill="#504E49"/>
<path d="M307.056 297.153L306.064 293.935C306.002 293.738 305.885 293.291 305.714 292.594H305.674C305.542 293.178 305.427 293.628 305.329 293.945L304.307 297.153H303.359L301.883 291.668H302.742C303.091 293.046 303.356 294.095 303.537 294.816C303.721 295.537 303.826 296.022 303.853 296.272H303.892C303.928 296.082 303.986 295.837 304.065 295.537C304.147 295.233 304.218 294.993 304.277 294.816L305.269 291.668H306.158L307.125 294.816C307.31 295.39 307.435 295.872 307.5 296.262H307.54C307.553 296.142 307.588 295.957 307.644 295.707C307.703 295.457 308.047 294.11 308.675 291.668H309.524L308.029 297.153H307.056Z" fill="#504E49"/>
<path d="M317.421 296.418H317.377C316.998 296.975 316.432 297.253 315.679 297.253C314.971 297.253 314.42 297.008 314.025 296.518C313.634 296.027 313.438 295.33 313.438 294.426C313.438 293.521 313.635 292.819 314.03 292.318C314.425 291.818 314.975 291.568 315.679 291.568C316.413 291.568 316.975 291.838 317.367 292.378H317.431L317.397 291.983L317.377 291.598V289.365H318.196V297.153H317.53L317.421 296.418ZM315.783 296.558C316.342 296.558 316.747 296.404 316.997 296.097C317.25 295.787 317.377 295.288 317.377 294.601V294.426C317.377 293.648 317.249 293.094 316.992 292.764C316.739 292.43 316.332 292.263 315.773 292.263C315.292 292.263 314.924 292.454 314.667 292.834C314.414 293.211 314.287 293.745 314.287 294.436C314.287 295.136 314.414 295.665 314.667 296.022C314.92 296.379 315.292 296.558 315.783 296.558Z" fill="#504E49"/>
<path d="M324.911 294.406C324.911 295.3 324.689 295.999 324.245 296.503C323.801 297.003 323.187 297.253 322.404 297.253C321.92 297.253 321.491 297.138 321.116 296.908C320.741 296.678 320.451 296.348 320.247 295.917C320.043 295.487 319.941 294.983 319.941 294.406C319.941 293.511 320.161 292.816 320.602 292.318C321.043 291.818 321.655 291.568 322.439 291.568C323.195 291.568 323.796 291.823 324.24 292.333C324.688 292.844 324.911 293.535 324.911 294.406ZM320.79 294.406C320.79 295.106 320.928 295.64 321.205 296.007C321.481 296.374 321.887 296.558 322.424 296.558C322.96 296.558 323.366 296.376 323.643 296.012C323.923 295.645 324.062 295.11 324.062 294.406C324.062 293.708 323.923 293.179 323.643 292.819C323.366 292.455 322.957 292.273 322.414 292.273C321.877 292.273 321.473 292.452 321.2 292.809C320.926 293.166 320.79 293.698 320.79 294.406Z" fill="#504E49"/>
<path d="M328.726 291.668H329.605L330.79 294.796C331.05 295.51 331.211 296.026 331.273 296.343H331.313C331.356 296.172 331.445 295.882 331.58 295.472C331.718 295.058 332.165 293.79 332.922 291.668H333.801L331.476 297.914C331.246 298.531 330.976 298.969 330.666 299.225C330.36 299.486 329.984 299.616 329.536 299.616C329.286 299.616 329.039 299.587 328.796 299.531V298.865C328.977 298.905 329.179 298.925 329.403 298.925C329.965 298.925 330.367 298.605 330.607 297.964L330.908 297.183L328.726 291.668Z" fill="#504E49"/>
<path d="M339.652 294.406C339.652 295.3 339.43 295.999 338.986 296.503C338.542 297.003 337.928 297.253 337.145 297.253C336.661 297.253 336.231 297.138 335.856 296.908C335.481 296.678 335.192 296.348 334.988 295.917C334.784 295.487 334.682 294.983 334.682 294.406C334.682 293.511 334.902 292.816 335.343 292.318C335.784 291.818 336.396 291.568 337.179 291.568C337.936 291.568 338.537 291.823 338.981 292.333C339.428 292.844 339.652 293.535 339.652 294.406ZM335.531 294.406C335.531 295.106 335.669 295.64 335.945 296.007C336.222 296.374 336.628 296.558 337.164 296.558C337.701 296.558 338.107 296.376 338.384 296.012C338.663 295.645 338.803 295.11 338.803 294.406C338.803 293.708 338.663 293.179 338.384 292.819C338.107 292.455 337.697 292.273 337.154 292.273C336.618 292.273 336.213 292.452 335.94 292.809C335.667 293.166 335.531 293.698 335.531 294.406Z" fill="#504E49"/>
<path d="M342.167 291.668V295.226C342.167 295.673 342.267 296.007 342.468 296.227C342.669 296.448 342.983 296.558 343.411 296.558C343.977 296.558 344.39 296.401 344.65 296.087C344.913 295.774 345.044 295.261 345.044 294.551V291.668H345.864V297.153H345.188L345.069 296.418H345.025C344.857 296.688 344.623 296.895 344.324 297.038C344.028 297.182 343.689 297.253 343.307 297.253C342.649 297.253 342.155 297.095 341.826 296.778C341.5 296.461 341.337 295.954 341.337 295.256V291.668H342.167Z" fill="#504E49"/>
<path d="M353.277 292.313H351.9V297.153H351.081V292.313H350.113V291.938L351.081 291.638V291.332C351.081 289.984 351.661 289.31 352.823 289.31C353.109 289.31 353.445 289.369 353.83 289.486L353.618 290.151C353.302 290.048 353.032 289.996 352.808 289.996C352.499 289.996 352.27 290.101 352.122 290.311C351.974 290.518 351.9 290.852 351.9 291.312V291.668H353.277V292.313Z" fill="#504E49"/>
<path d="M356.853 297.253C356.053 297.253 355.422 297.007 354.958 296.513C354.497 296.019 354.267 295.333 354.267 294.456C354.267 293.571 354.48 292.869 354.908 292.348C355.339 291.828 355.917 291.568 356.641 291.568C357.319 291.568 357.855 291.795 358.25 292.248C358.645 292.699 358.842 293.294 358.842 294.035V294.561H355.116C355.132 295.205 355.292 295.694 355.594 296.027C355.9 296.361 356.33 296.528 356.883 296.528C357.465 296.528 358.041 296.404 358.61 296.157V296.898C358.321 297.025 358.046 297.115 357.786 297.168C357.529 297.225 357.218 297.253 356.853 297.253ZM356.631 292.263C356.197 292.263 355.849 292.407 355.589 292.694C355.333 292.981 355.181 293.378 355.135 293.885H357.964C357.964 293.361 357.849 292.961 357.618 292.684C357.388 292.403 357.059 292.263 356.631 292.263Z" fill="#504E49"/>
<path d="M362.833 297.253C362.033 297.253 361.401 297.007 360.937 296.513C360.477 296.019 360.246 295.333 360.246 294.456C360.246 293.571 360.46 292.869 360.888 292.348C361.319 291.828 361.897 291.568 362.621 291.568C363.298 291.568 363.835 291.795 364.23 292.248C364.625 292.699 364.822 293.294 364.822 294.035V294.561H361.095C361.112 295.205 361.271 295.694 361.574 296.027C361.88 296.361 362.31 296.528 362.862 296.528C363.445 296.528 364.021 296.404 364.59 296.157V296.898C364.3 297.025 364.026 297.115 363.766 297.168C363.509 297.225 363.198 297.253 362.833 297.253ZM362.611 292.263C362.176 292.263 361.829 292.407 361.569 292.694C361.313 292.981 361.161 293.378 361.115 293.885H363.943C363.943 293.361 363.828 292.961 363.598 292.684C363.368 292.403 363.038 292.263 362.611 292.263Z" fill="#504E49"/>
<path d="M367.347 297.153H366.527V289.365H367.347V297.153Z" fill="#504E49"/>
<path d="M369.945 295.136V294.866C369.945 294.476 370.004 294.155 370.123 293.905C370.241 293.651 370.462 293.384 370.784 293.104C371.232 292.72 371.513 292.432 371.628 292.238C371.747 292.045 371.806 291.811 371.806 291.538C371.806 291.197 371.697 290.935 371.48 290.752C371.266 290.565 370.957 290.472 370.552 290.472C370.292 290.472 370.039 290.503 369.792 290.567C369.545 290.627 369.262 290.738 368.943 290.902L368.652 290.226C369.274 289.896 369.924 289.731 370.602 289.731C371.23 289.731 371.719 289.888 372.068 290.201C372.416 290.515 372.591 290.957 372.591 291.528C372.591 291.771 372.558 291.986 372.492 292.173C372.43 292.357 372.336 292.532 372.211 292.699C372.086 292.862 371.816 293.128 371.401 293.495C371.069 293.782 370.848 294.02 370.74 294.21C370.634 294.401 370.582 294.654 370.582 294.971V295.136H369.945ZM369.703 296.623C369.703 296.169 369.901 295.942 370.296 295.942C370.486 295.942 370.633 296 370.735 296.117C370.84 296.234 370.893 296.403 370.893 296.623C370.893 296.836 370.84 297.003 370.735 297.123C370.63 297.24 370.483 297.298 370.296 297.298C370.124 297.298 369.983 297.247 369.871 297.143C369.759 297.037 369.703 296.863 369.703 296.623Z" fill="#504E49"/>
<g clip-path="url(#clip3)">
<path d="M305.316 339.282C302.637 339.297 300.234 340.608 298.947 342.888C298.824 343.106 298.901 343.382 299.118 343.504C299.189 343.544 299.265 343.562 299.34 343.562C299.497 343.562 299.651 343.479 299.734 343.333C300.858 341.34 302.946 340.189 305.308 340.186C307.621 340.205 309.7 341.404 310.733 343.312C310.851 343.532 311.127 343.613 311.346 343.494C311.565 343.375 311.647 343.1 311.527 342.881C310.338 340.684 307.957 339.305 305.316 339.282Z" fill="#00308F"/>
<path d="M300.917 336.309C301.913 336.309 302.724 335.499 302.724 334.502C302.724 333.505 301.913 332.695 300.917 332.695C299.92 332.695 299.109 333.505 299.109 334.502C299.109 335.499 299.92 336.309 300.917 336.309ZM300.917 333.598C301.414 333.598 301.82 334.003 301.82 334.502C301.82 335.001 301.414 335.406 300.917 335.406C300.419 335.406 300.013 335.001 300.013 334.502C300.013 334.003 300.419 333.598 300.917 333.598Z" fill="#00308F"/>
<path d="M309.049 336.309C310.045 336.309 310.856 335.499 310.856 334.502C310.856 333.505 310.045 332.695 309.049 332.695C308.052 332.695 307.241 333.505 307.241 334.502C307.241 335.499 308.052 336.309 309.049 336.309ZM309.049 333.598C309.546 333.598 309.952 334.003 309.952 334.502C309.952 335.001 309.546 335.406 309.049 335.406C308.551 335.406 308.145 335.001 308.145 334.502C308.145 334.003 308.551 333.598 309.049 333.598Z" fill="#00308F"/>
<path d="M305.208 326.822C299.229 326.822 294.365 331.686 294.365 337.665C294.365 343.644 299.229 348.508 305.208 348.508C311.187 348.508 316.051 343.644 316.051 337.665C316.051 331.686 311.187 326.822 305.208 326.822ZM305.208 347.604C299.728 347.604 295.269 343.145 295.269 337.665C295.269 332.184 299.728 327.725 305.208 327.725C310.689 327.725 315.148 332.184 315.148 337.665C315.148 343.145 310.689 347.604 305.208 347.604Z" fill="#00308F"/>
</g>
<g clip-path="url(#clip4)">
<path d="M238.739 339.811C238.655 339.686 238.514 339.611 238.364 339.611C238.213 339.611 238.073 339.686 237.989 339.811L236.541 341.961L235.116 339.813C235.033 339.688 234.892 339.612 234.742 339.611C234.584 339.633 234.45 339.684 234.365 339.81L232.908 341.961L231.493 339.814C231.41 339.689 231.27 339.612 231.119 339.611C230.985 339.596 230.828 339.685 230.743 339.809L229.3 341.929C229.16 342.135 229.213 342.416 229.419 342.556C229.626 342.697 229.906 342.643 230.047 342.436L231.11 340.874L232.526 343.022C232.609 343.148 232.721 343.22 232.903 343.225C233.053 343.225 233.193 343.151 233.277 343.026L234.735 340.874L236.16 343.023C236.244 343.148 236.385 343.224 236.535 343.225C236.536 343.225 236.536 343.225 236.537 343.225C236.688 343.225 236.828 343.15 236.912 343.025L238.362 340.872L239.409 342.435C239.548 342.641 239.827 342.697 240.036 342.558C240.243 342.42 240.299 342.139 240.16 341.932L238.739 339.811Z" fill="#00308F"/>
<path d="M234.729 326.822C228.75 326.822 223.886 331.686 223.886 337.665C223.886 343.644 228.75 348.508 234.729 348.508C240.708 348.508 245.572 343.644 245.572 337.665C245.572 331.686 240.708 326.822 234.729 326.822ZM234.729 347.604C229.249 347.604 224.79 343.145 224.79 337.665C224.79 332.184 229.249 327.725 234.729 327.725C240.209 327.725 244.669 332.184 244.669 337.665C244.669 343.145 240.209 347.604 234.729 347.604Z" fill="#00308F"/>
<path d="M239.869 333.016L237.083 335.802C236.907 335.978 236.907 336.265 237.083 336.441C237.172 336.53 237.287 336.573 237.403 336.573C237.519 336.573 237.634 336.529 237.723 336.441L240.509 333.654C240.685 333.478 240.685 333.192 240.509 333.016C240.332 332.839 240.045 332.839 239.869 333.016Z" fill="#00308F"/>
<path d="M232.038 336.556C232.154 336.556 232.27 336.512 232.358 336.424C232.534 336.248 232.534 335.961 232.358 335.785L229.59 333.016C229.413 332.839 229.127 332.839 228.95 333.016C228.773 333.192 228.774 333.478 228.95 333.654L231.718 336.423C231.807 336.512 231.923 336.556 232.038 336.556Z" fill="#00308F"/>
</g>
<g clip-path="url(#clip5)">
<path d="M374.061 326.822C368.082 326.822 363.218 331.686 363.218 337.665C363.218 343.644 368.082 348.508 374.061 348.508C380.04 348.508 384.904 343.644 384.904 337.665C384.904 331.686 380.04 326.822 374.061 326.822ZM374.061 347.604C368.581 347.604 364.122 343.145 364.122 337.665C364.122 332.184 368.581 327.725 374.061 327.725C379.541 327.725 384.001 332.184 384.001 337.665C384.001 343.145 379.541 347.604 374.061 347.604Z" fill="#00308F"/>
<path d="M368.133 334.939C368.228 334.939 368.325 334.909 368.407 334.845C369.288 334.169 370.336 333.737 371.436 333.594C371.684 333.562 371.858 333.336 371.826 333.089C371.793 332.842 371.564 332.665 371.32 332.698C370.062 332.862 368.865 333.356 367.858 334.13C367.66 334.282 367.622 334.564 367.774 334.763C367.863 334.879 367.997 334.939 368.133 334.939Z" fill="#00308F"/>
<path d="M376.802 332.698C376.554 332.665 376.327 332.841 376.296 333.089C376.263 333.336 376.438 333.562 376.685 333.595C377.787 333.738 378.833 334.17 379.714 334.846C379.796 334.909 379.893 334.94 379.989 334.94C380.124 334.94 380.259 334.88 380.347 334.764C380.499 334.566 380.462 334.282 380.264 334.131C379.258 333.356 378.06 332.862 376.802 332.698Z" fill="#00308F"/>
<path d="M380.156 339.981C379.936 339.857 379.663 339.935 379.541 340.153C378.436 342.12 376.397 343.294 374.088 343.294C371.696 343.294 369.638 342.128 368.586 340.175C368.467 339.955 368.194 339.875 367.974 339.991C367.754 340.11 367.672 340.384 367.79 340.604C369.003 342.854 371.357 344.198 374.088 344.198C376.728 344.198 379.061 342.852 380.329 340.598C380.451 340.379 380.374 340.103 380.156 339.981Z" fill="#00308F"/>
</g>
<g clip-path="url(#clip6)">
<path d="M276.108 335.579C275.937 335.36 275.567 335.36 275.396 335.579C275.154 335.89 273.945 337.482 273.945 338.342C273.945 339.521 274.854 340.138 275.751 340.138C276.65 340.138 277.559 339.521 277.559 338.342C277.559 337.482 276.35 335.89 276.108 335.579ZM275.751 339.234C275.334 339.234 274.848 339 274.848 338.342C274.848 338.049 275.271 337.303 275.752 336.617C276.232 337.303 276.655 338.049 276.655 338.342C276.655 339.001 276.168 339.234 275.751 339.234Z" fill="#00308F"/>
<path d="M266.264 336.309C267.261 336.309 268.071 335.499 268.071 334.502C268.071 333.505 267.261 332.695 266.264 332.695C265.268 332.695 264.457 333.505 264.457 334.502C264.457 335.499 265.268 336.309 266.264 336.309ZM266.264 333.598C266.762 333.598 267.168 334.003 267.168 334.502C267.168 335.001 266.762 335.406 266.264 335.406C265.766 335.406 265.361 335.001 265.361 334.502C265.361 334.003 265.766 333.598 266.264 333.598Z" fill="#00308F"/>
<path d="M272.589 336.309C273.586 336.309 274.396 335.499 274.396 334.502C274.396 333.505 273.586 332.695 272.589 332.695C271.592 332.695 270.782 333.505 270.782 334.502C270.782 335.499 271.592 336.309 272.589 336.309ZM272.589 333.598C273.087 333.598 273.493 334.003 273.493 334.502C273.493 335.001 273.087 335.406 272.589 335.406C272.091 335.406 271.686 335.001 271.686 334.502C271.686 334.003 272.091 333.598 272.589 333.598Z" fill="#00308F"/>
<path d="M269.534 339.282C269.511 339.282 269.487 339.282 269.464 339.282C266.792 339.282 264.441 340.626 263.165 342.888C263.042 343.106 263.119 343.382 263.337 343.504C263.407 343.544 263.483 343.562 263.558 343.562C263.715 343.562 263.869 343.479 263.952 343.333C265.066 341.357 267.124 340.186 269.465 340.186C269.486 340.186 269.505 340.186 269.526 340.186C271.839 340.205 273.918 341.404 274.951 343.312C275.07 343.531 275.345 343.612 275.564 343.494C275.783 343.375 275.865 343.1 275.746 342.881C274.556 340.684 272.175 339.305 269.534 339.282Z" fill="#00308F"/>
<path d="M269.427 326.822C263.448 326.822 258.584 331.686 258.584 337.665C258.584 343.644 263.448 348.508 269.427 348.508C275.406 348.508 280.27 343.644 280.27 337.665C280.27 331.686 275.406 326.822 269.427 326.822ZM269.427 347.604C263.946 347.604 259.487 343.145 259.487 337.665C259.487 332.184 263.946 327.725 269.427 327.725C274.907 327.725 279.366 332.184 279.366 337.665C279.366 343.145 274.907 347.604 269.427 347.604Z" fill="#00308F"/>
</g>
<g clip-path="url(#clip7)">
<path d="M337.285 332.695C336.289 332.695 335.478 333.505 335.478 334.502C335.478 335.499 336.289 336.309 337.285 336.309C338.282 336.309 339.093 335.499 339.093 334.502C339.093 333.505 338.282 332.695 337.285 332.695ZM337.285 335.406C336.788 335.406 336.382 335.001 336.382 334.502C336.382 334.003 336.788 333.598 337.285 333.598C337.783 333.598 338.189 334.003 338.189 334.502C338.189 335.001 337.783 335.406 337.285 335.406Z" fill="#00308F"/>
<path d="M343.61 336.309C344.607 336.309 345.418 335.499 345.418 334.502C345.418 333.505 344.607 332.695 343.61 332.695C342.614 332.695 341.803 333.505 341.803 334.502C341.803 335.499 342.614 336.309 343.61 336.309ZM343.61 333.598C344.108 333.598 344.514 334.003 344.514 334.502C344.514 335.001 344.108 335.406 343.61 335.406C343.113 335.406 342.707 335.001 342.707 334.502C342.707 334.003 343.113 333.598 343.61 333.598Z" fill="#00308F"/>
<path d="M345.72 340.708C344.544 342.48 342.573 343.538 340.448 343.538C340.198 343.538 339.996 343.74 339.996 343.99C339.996 344.239 340.198 344.441 340.448 344.441C342.877 344.441 345.128 343.232 346.473 341.207C346.611 341.001 346.554 340.72 346.346 340.581C346.138 340.444 345.858 340.5 345.72 340.708Z" fill="#00308F"/>
<path d="M340.448 326.822C334.469 326.822 329.605 331.686 329.605 337.665C329.605 343.644 334.469 348.508 340.448 348.508C346.427 348.508 351.291 343.644 351.291 337.665C351.291 331.686 346.427 326.822 340.448 326.822ZM340.448 347.604C334.968 347.604 330.509 343.145 330.509 337.665C330.509 332.184 334.968 327.725 340.448 327.725C345.928 327.725 350.387 332.184 350.387 337.665C350.387 343.145 345.928 347.604 340.448 347.604Z" fill="#00308F"/>
</g>
<path d="M247.771 249.222H245.99V244.242H240.99V249.222H239.218V238.174H240.99V242.693H245.99V238.174H247.771V249.222Z" fill="#00308F"/>
<path d="M258.174 245.028C258.174 246.393 257.83 247.459 257.143 248.224C256.455 248.99 255.498 249.373 254.272 249.373C253.505 249.373 252.828 249.197 252.239 248.844C251.651 248.491 251.198 247.985 250.882 247.325C250.565 246.665 250.407 245.9 250.407 245.028C250.407 243.673 250.748 242.615 251.431 241.854C252.113 241.094 253.075 240.713 254.317 240.713C255.503 240.713 256.443 241.104 257.135 241.885C257.828 242.66 258.174 243.708 258.174 245.028ZM252.202 245.028C252.202 246.957 252.902 247.922 254.302 247.922C255.686 247.922 256.379 246.957 256.379 245.028C256.379 243.119 255.681 242.164 254.287 242.164C253.555 242.164 253.023 242.411 252.692 242.905C252.366 243.398 252.202 244.106 252.202 245.028Z" fill="#00308F"/>
<path d="M267.368 249.222L266.307 245.323C266.179 244.91 265.946 243.95 265.61 242.444H265.543C265.256 243.804 265.029 244.769 264.861 245.338L263.77 249.222H261.842L259.542 240.864H261.322L262.368 244.983C262.606 246 262.774 246.872 262.873 247.597H262.917C262.967 247.229 263.041 246.809 263.14 246.335C263.244 245.857 263.333 245.499 263.407 245.262L264.653 240.864H266.567L267.776 245.262C267.85 245.509 267.942 245.887 268.051 246.396C268.164 246.905 268.231 247.3 268.251 247.582H268.31C268.384 246.962 268.557 246.096 268.829 244.983L269.89 240.864H271.641L269.326 249.222H267.368Z" fill="#00308F"/>
<path d="M280.683 249.373C279.659 249.373 278.86 248.995 278.287 248.24C277.713 247.484 277.426 246.423 277.426 245.058C277.426 243.688 277.715 242.623 278.294 241.862C278.878 241.096 279.684 240.713 280.712 240.713C281.79 240.713 282.611 241.119 283.175 241.93H283.264C283.18 241.33 283.138 240.857 283.138 240.509V237.464H284.889V249.222H283.524L283.22 248.126H283.138C282.579 248.957 281.761 249.373 280.683 249.373ZM281.15 247.937C281.867 247.937 282.389 247.733 282.715 247.325C283.042 246.912 283.21 246.245 283.22 245.323V245.073C283.22 244.021 283.051 243.272 282.715 242.829C282.379 242.386 281.852 242.164 281.135 242.164C280.522 242.164 280.05 242.419 279.718 242.927C279.387 243.431 279.221 244.151 279.221 245.088C279.221 246.015 279.382 246.723 279.703 247.212C280.025 247.695 280.507 247.937 281.15 247.937Z" fill="#00308F"/>
<path d="M295.114 245.028C295.114 246.393 294.77 247.459 294.083 248.224C293.395 248.99 292.439 249.373 291.212 249.373C290.446 249.373 289.768 249.197 289.18 248.844C288.591 248.491 288.139 247.985 287.822 247.325C287.506 246.665 287.347 245.9 287.347 245.028C287.347 243.673 287.689 242.615 288.371 241.854C289.053 241.094 290.015 240.713 291.257 240.713C292.443 240.713 293.383 241.104 294.075 241.885C294.768 242.66 295.114 243.708 295.114 245.028ZM289.142 245.028C289.142 246.957 289.842 247.922 291.242 247.922C292.626 247.922 293.319 246.957 293.319 245.028C293.319 243.119 292.621 242.164 291.227 242.164C290.495 242.164 289.963 242.411 289.632 242.905C289.306 243.398 289.142 244.106 289.142 245.028Z" fill="#00308F"/>
<path d="M300.736 240.864H302.635L304.304 245.602C304.556 246.277 304.724 246.912 304.808 247.507H304.868C304.912 247.229 304.994 246.894 305.113 246.502C305.231 246.104 305.859 244.225 306.997 240.864H308.881L305.372 250.333C304.734 252.071 303.671 252.94 302.182 252.94C301.797 252.94 301.421 252.897 301.055 252.811V251.406C301.317 251.466 301.616 251.496 301.953 251.496C302.793 251.496 303.384 251 303.725 250.008L304.03 249.222L300.736 240.864Z" fill="#00308F"/>
<path d="M317.86 245.028C317.86 246.393 317.516 247.459 316.829 248.224C316.142 248.99 315.185 249.373 313.958 249.373C313.192 249.373 312.514 249.197 311.926 248.844C311.337 248.491 310.885 247.985 310.568 247.325C310.252 246.665 310.093 245.9 310.093 245.028C310.093 243.673 310.435 242.615 311.117 241.854C311.8 241.094 312.761 240.713 314.003 240.713C315.19 240.713 316.129 241.104 316.822 241.885C317.514 242.66 317.86 243.708 317.86 245.028ZM311.889 245.028C311.889 246.957 312.588 247.922 313.988 247.922C315.373 247.922 316.065 246.957 316.065 245.028C316.065 243.119 315.368 242.164 313.973 242.164C313.241 242.164 312.709 242.411 312.378 242.905C312.052 243.398 311.889 244.106 311.889 245.028Z" fill="#00308F"/>
<path d="M326.112 249.222L325.867 248.126H325.778C325.536 248.514 325.19 248.819 324.74 249.041C324.295 249.262 323.785 249.373 323.212 249.373C322.218 249.373 321.476 249.121 320.986 248.617C320.497 248.114 320.252 247.35 320.252 246.328V240.864H322.01V246.018C322.01 246.658 322.139 247.139 322.396 247.461C322.653 247.779 323.056 247.937 323.605 247.937C324.337 247.937 324.873 247.716 325.215 247.272C325.561 246.824 325.734 246.076 325.734 245.028V240.864H327.485V249.222H326.112Z" fill="#00308F"/>
<path d="M338.945 242.209H336.942V249.222H335.191V242.209H333.841V241.378L335.191 240.834V240.29C335.191 239.303 335.418 238.572 335.873 238.099C336.328 237.62 337.023 237.381 337.958 237.381C338.571 237.381 339.174 237.484 339.768 237.691L339.308 239.036C338.878 238.895 338.467 238.824 338.077 238.824C337.681 238.824 337.392 238.95 337.209 239.202C337.031 239.449 336.942 239.822 336.942 240.32V240.864H338.945V242.209Z" fill="#00308F"/>
<path d="M344.385 249.373C343.109 249.373 342.11 248.995 341.388 248.24C340.671 247.479 340.313 246.434 340.313 245.104C340.313 243.738 340.646 242.665 341.314 241.885C341.982 241.104 342.899 240.713 344.066 240.713C345.149 240.713 346.005 241.048 346.633 241.718C347.261 242.388 347.575 243.31 347.575 244.484V245.444H342.108C342.133 246.255 342.348 246.879 342.753 247.318C343.159 247.751 343.73 247.967 344.467 247.967C344.951 247.967 345.401 247.922 345.817 247.831C346.237 247.736 346.687 247.58 347.167 247.363V248.806C346.742 249.013 346.311 249.159 345.876 249.245C345.441 249.33 344.944 249.373 344.385 249.373ZM344.066 242.058C343.512 242.058 343.067 242.237 342.731 242.595C342.4 242.953 342.202 243.474 342.138 244.159H345.861C345.851 243.469 345.688 242.947 345.372 242.595C345.055 242.237 344.62 242.058 344.066 242.058Z" fill="#00308F"/>
<path d="M353.594 249.373C352.318 249.373 351.319 248.995 350.597 248.24C349.88 247.479 349.522 246.434 349.522 245.104C349.522 243.738 349.856 242.665 350.523 241.885C351.191 241.104 352.108 240.713 353.275 240.713C354.358 240.713 355.214 241.048 355.842 241.718C356.47 242.388 356.784 243.31 356.784 244.484V245.444H351.317C351.342 246.255 351.557 246.879 351.962 247.318C352.368 247.751 352.939 247.967 353.676 247.967C354.16 247.967 354.611 247.922 355.026 247.831C355.446 247.736 355.896 247.58 356.376 247.363V248.806C355.951 249.013 355.52 249.159 355.085 249.245C354.65 249.33 354.153 249.373 353.594 249.373ZM353.275 242.058C352.721 242.058 352.276 242.237 351.94 242.595C351.609 242.953 351.411 243.474 351.347 244.159H355.07C355.061 243.469 354.897 242.947 354.581 242.595C354.264 242.237 353.829 242.058 353.275 242.058Z" fill="#00308F"/>
<path d="M360.964 249.222H359.22V237.464H360.964V249.222Z" fill="#00308F"/>
<path d="M364.772 245.867V245.383C364.772 244.829 364.871 244.368 365.069 244C365.267 243.633 365.613 243.252 366.108 242.859C366.696 242.386 367.074 242.018 367.243 241.756C367.416 241.494 367.502 241.182 367.502 240.819C367.502 240.396 367.364 240.071 367.087 239.844C366.81 239.618 366.412 239.504 365.892 239.504C365.423 239.504 364.987 239.572 364.587 239.708C364.186 239.844 363.796 240.008 363.415 240.199L362.792 238.87C363.796 238.3 364.871 238.016 366.019 238.016C366.988 238.016 367.757 238.257 368.326 238.741C368.894 239.225 369.179 239.892 369.179 240.744C369.179 241.121 369.124 241.459 369.015 241.756C368.907 242.048 368.741 242.328 368.518 242.595C368.301 242.862 367.923 243.209 367.383 243.638C366.924 244.005 366.614 244.31 366.456 244.552C366.303 244.794 366.226 245.119 366.226 245.527V245.867H364.772ZM364.468 248.277C364.468 247.517 364.832 247.136 365.559 247.136C365.915 247.136 366.187 247.237 366.375 247.439C366.563 247.635 366.657 247.915 366.657 248.277C366.657 248.635 366.56 248.92 366.367 249.131C366.179 249.338 365.91 249.441 365.559 249.441C365.208 249.441 364.938 249.34 364.75 249.139C364.562 248.932 364.468 248.645 364.468 248.277Z" fill="#00308F"/>
<path d="M213.79 398.231C213.79 389.639 220.866 382.673 229.596 382.673H378.168C386.897 382.673 393.974 389.639 393.974 398.231V398.231C393.974 406.824 386.897 413.79 378.168 413.79H229.596C220.866 413.79 213.79 406.824 213.79 398.231V398.231Z" fill="#00308F"/>
<path d="M297.98 400.035C297.98 400.667 297.747 401.163 297.283 401.523C296.819 401.883 296.178 402.063 295.362 402.063C294.545 402.063 293.877 401.938 293.356 401.688V400.59C293.686 400.742 294.035 400.862 294.404 400.949C294.776 401.037 295.121 401.081 295.441 401.081C295.908 401.081 296.252 400.993 296.473 400.818C296.697 400.643 296.809 400.408 296.809 400.113C296.809 399.847 296.707 399.622 296.503 399.437C296.299 399.253 295.877 399.034 295.238 398.781C294.58 398.518 294.115 398.219 293.845 397.881C293.575 397.544 293.44 397.139 293.44 396.666C293.44 396.073 293.654 395.606 294.083 395.266C294.511 394.925 295.085 394.755 295.806 394.755C296.498 394.755 297.186 394.904 297.871 395.202L297.496 396.15C296.853 395.885 296.28 395.752 295.777 395.752C295.395 395.752 295.105 395.834 294.907 396C294.71 396.162 294.611 396.377 294.611 396.646C294.611 396.831 294.651 396.99 294.73 397.123C294.809 397.253 294.939 397.376 295.12 397.492C295.301 397.609 295.627 397.763 296.098 397.954C296.628 398.172 297.016 398.374 297.263 398.562C297.51 398.75 297.691 398.962 297.807 399.199C297.922 399.436 297.98 399.714 297.98 400.035Z" fill="#28E6E1"/>
<path d="M302.672 401.966L302.44 401.217H302.4C302.137 401.544 301.872 401.768 301.605 401.888C301.338 402.004 300.996 402.063 300.578 402.063C300.041 402.063 299.621 401.92 299.318 401.635C299.018 401.35 298.869 400.946 298.869 400.424C298.869 399.87 299.078 399.452 299.496 399.17C299.914 398.888 300.551 398.734 301.407 398.708L302.351 398.679V398.392C302.351 398.048 302.268 397.792 302.104 397.624C301.943 397.452 301.691 397.366 301.348 397.366C301.068 397.366 300.8 397.407 300.543 397.488C300.286 397.569 300.039 397.664 299.802 397.774L299.427 396.958C299.723 396.805 300.047 396.69 300.4 396.612C300.752 396.531 301.085 396.491 301.398 396.491C302.092 396.491 302.616 396.64 302.968 396.938C303.324 397.236 303.502 397.705 303.502 398.343V401.966H302.672ZM300.943 401.188C301.365 401.188 301.702 401.073 301.956 400.842C302.213 400.609 302.341 400.283 302.341 399.865V399.398L301.64 399.428C301.093 399.447 300.695 399.538 300.444 399.7C300.197 399.859 300.074 400.103 300.074 400.434C300.074 400.674 300.146 400.86 300.291 400.993C300.436 401.123 300.653 401.188 300.943 401.188Z" fill="#28E6E1"/>
<path d="M306.366 401.966L304.292 396.588H305.517L306.628 399.714C306.819 400.24 306.934 400.664 306.974 400.988H307.013C307.043 400.755 307.158 400.33 307.359 399.714L308.471 396.588H309.705L307.621 401.966H306.366Z" fill="#28E6E1"/>
<path d="M312.921 402.063C312.071 402.063 311.406 401.82 310.925 401.333C310.448 400.844 310.209 400.171 310.209 399.316C310.209 398.437 310.431 397.747 310.876 397.244C311.32 396.742 311.931 396.491 312.708 396.491C313.43 396.491 313.999 396.706 314.417 397.137C314.836 397.569 315.045 398.162 315.045 398.917V399.535H311.404C311.421 400.056 311.564 400.458 311.834 400.74C312.104 401.019 312.485 401.158 312.975 401.158C313.298 401.158 313.597 401.129 313.874 401.071C314.154 401.009 314.454 400.909 314.773 400.769V401.698C314.49 401.831 314.203 401.925 313.914 401.98C313.624 402.035 313.293 402.063 312.921 402.063ZM312.708 397.356C312.34 397.356 312.043 397.471 311.819 397.702C311.599 397.932 311.467 398.267 311.424 398.708H313.904C313.897 398.264 313.788 397.928 313.578 397.702C313.367 397.471 313.077 397.356 312.708 397.356Z" fill="#28E6E1"/>
<path fill-rule="evenodd" clip-rule="evenodd" d="M175.434 38.5564C175.434 21.072 189.608 6.89813 207.092 6.89813H402.107C419.591 6.89813 433.765 21.072 433.765 38.5564V507.732C433.765 525.216 419.591 539.39 402.107 539.39H207.092C189.608 539.39 175.434 525.216 175.434 507.732V38.5564ZM185.881 42.9885C185.881 28.1268 197.929 16.079 212.791 16.079H239.076C239.07 16.1838 239.067 16.2894 239.067 16.3956V28.1092C239.067 34.9281 244.595 40.4559 251.414 40.4559H357.786C364.604 40.4559 370.132 34.9281 370.132 28.1092V16.3956C370.132 16.2894 370.129 16.1838 370.124 16.079H396.409C411.27 16.079 423.318 28.1268 423.318 42.9885V503.299C423.318 518.161 411.27 530.209 396.409 530.209H212.791C197.929 530.209 185.881 518.161 185.881 503.299V42.9885Z" fill="url(#paint1_linear)"/>
<path fill-rule="evenodd" clip-rule="evenodd" d="M174.674 38.5565C174.674 20.6525 189.188 6.13843 207.092 6.13843H402.107C420.011 6.13843 434.525 20.6525 434.525 38.5565V507.732C434.525 525.636 420.011 540.15 402.107 540.15H207.092C189.188 540.15 174.674 525.636 174.674 507.732V38.5565ZM207.092 7.65802C190.028 7.65802 176.194 21.4917 176.194 38.5565V507.732C176.194 524.796 190.028 538.63 207.092 538.63H402.107C419.172 538.63 433.006 524.796 433.006 507.732V38.5565C433.006 21.4917 419.172 7.65802 402.107 7.65802H207.092ZM185.122 42.9886C185.122 27.7073 197.51 15.3193 212.791 15.3193H239.878L239.834 16.1207C239.83 16.2116 239.827 16.3033 239.827 16.3957V28.1092C239.827 34.5085 245.015 39.6962 251.414 39.6962H357.786C364.185 39.6962 369.373 34.5085 369.373 28.1092V16.3957C369.373 16.3033 369.37 16.2116 369.365 16.1207L369.321 15.3193H396.409C411.69 15.3193 424.078 27.7073 424.078 42.9886V503.299C424.078 518.581 411.69 530.969 396.409 530.969H212.791C197.51 530.969 185.122 518.581 185.122 503.299V42.9886ZM212.791 16.8389C198.349 16.8389 186.641 28.5465 186.641 42.9886V503.299C186.641 517.742 198.349 529.449 212.791 529.449H396.409C410.851 529.449 422.558 517.742 422.558 503.299V42.9886C422.558 28.5465 410.851 16.8389 396.409 16.8389H370.892V28.1092C370.892 35.3478 365.024 41.2158 357.786 41.2158H251.414C244.175 41.2158 238.307 35.3478 238.307 28.1092V16.8389H212.791Z" fill="black" fill-opacity="0.03"/>
<g opacity="0.6">
<g opacity="0.75">
<g filter="url(#filter2_di)">
<path fill-rule="evenodd" clip-rule="evenodd" d="M338.474 29.3755C340.572 29.3755 342.273 27.6746 342.273 25.5765C342.273 23.4784 340.572 21.7775 338.474 21.7775C336.376 21.7775 334.675 23.4784 334.675 25.5765C334.675 27.6746 336.376 29.3755 338.474 29.3755Z" fill="#9092A5"/>
</g>
<g filter="url(#filter3_di)">
<path fill-rule="evenodd" clip-rule="evenodd" d="M338.474 28.4258C340.048 28.4258 341.323 27.1502 341.323 25.5766C341.323 24.003 340.048 22.7273 338.474 22.7273C336.9 22.7273 335.625 24.003 335.625 25.5766C335.625 27.1502 336.9 28.4258 338.474 28.4258Z" fill="#9092A5"/>
</g>
</g>
<g filter="url(#filter4_di)">
<path d="M287.188 25.5766C287.188 24.7023 287.896 23.9937 288.771 23.9937H317.263C318.137 23.9937 318.846 24.7023 318.846 25.5766V25.5766C318.846 26.4508 318.137 27.1595 317.263 27.1595H288.771C287.896 27.1595 287.188 26.4508 287.188 25.5766V25.5766Z" fill="#9092A5"/>
</g>
</g>
<rect x="-44" y="428" width="665" height="426" fill="#F9F9F9"/>
<rect x="236.707" y="50.1526" width="24.6716" height="24.6716" transform="rotate(-45 236.707 50.1526)" stroke="#5D5A55"/>
</g>
<defs>
<filter id="filter0_d" x="46.8862" y="-43.1136" width="509.132" height="777.984" filterUnits="userSpaceOnUse" color-interpolation-filters="sRGB">
<feFlood flood-opacity="0" result="BackgroundImageFix"/>
<feColorMatrix in="SourceAlpha" type="matrix" values="0 0 0 0 0 0 0 0 0 0 0 0 0 0 0 0 0 0 127 0"/>
<feOffset dy="72"/>
<feGaussianBlur stdDeviation="60"/>
<feColorMatrix type="matrix" values="0 0 0 0 0 0 0 0 0 0 0 0 0 0 0 0 0 0 0.132841 0"/>
<feBlend mode="normal" in2="BackgroundImageFix" result="effect1_dropShadow"/>
<feBlend mode="normal" in="SourceGraphic" in2="effect1_dropShadow" result="shape"/>
</filter>
<filter id="filter1_d" x="46" y="-44" width="510.905" height="779.757" filterUnits="userSpaceOnUse" color-interpolation-filters="sRGB">
<feFlood flood-opacity="0" result="BackgroundImageFix"/>
<feColorMatrix in="SourceAlpha" type="matrix" values="0 0 0 0 0 0 0 0 0 0 0 0 0 0 0 0 0 0 127 0"/>
<feOffset dy="72"/>
<feGaussianBlur stdDeviation="60"/>
<feColorMatrix type="matrix" values="0 0 0 0 0 0 0 0 0 0 0 0 0 0 0 0 0 0 0.132841 0"/>
<feBlend mode="normal" in2="BackgroundImageFix" result="effect1_dropShadow"/>
<feBlend mode="normal" in="SourceGraphic" in2="effect1_dropShadow" result="shape"/>
</filter>
<filter id="filter2_di" x="331.675" y="18.7775" width="13.598" height="13.598" filterUnits="userSpaceOnUse" color-interpolation-filters="sRGB">
<feFlood flood-opacity="0" result="BackgroundImageFix"/>
<feColorMatrix in="SourceAlpha" type="matrix" values="0 0 0 0 0 0 0 0 0 0 0 0 0 0 0 0 0 0 127 0"/>
<feOffset/>
<feGaussianBlur stdDeviation="1.5"/>
<feColorMatrix type="matrix" values="0 0 0 0 0.49062 0 0 0 0 0.49062 0 0 0 0 0.49062 0 0 0 0.25 0"/>
<feBlend mode="normal" in2="BackgroundImageFix" result="effect1_dropShadow"/>
<feBlend mode="normal" in="SourceGraphic" in2="effect1_dropShadow" result="shape"/>
<feColorMatrix in="SourceAlpha" type="matrix" values="0 0 0 0 0 0 0 0 0 0 0 0 0 0 0 0 0 0 127 0" result="hardAlpha"/>
<feOffset dx="2" dy="2"/>
<feGaussianBlur stdDeviation="2"/>
<feComposite in2="hardAlpha" operator="arithmetic" k2="-1" k3="1"/>
<feColorMatrix type="matrix" values="0 0 0 0 0 0 0 0 0 0 0 0 0 0 0 0 0 0 0.344061 0"/>
<feBlend mode="normal" in2="shape" result="effect2_innerShadow"/>
</filter>
<filter id="filter3_di" x="332.625" y="20.7273" width="11.6985" height="13.6985" filterUnits="userSpaceOnUse" color-interpolation-filters="sRGB">
<feFlood flood-opacity="0" result="BackgroundImageFix"/>
<feColorMatrix in="SourceAlpha" type="matrix" values="0 0 0 0 0 0 0 0 0 0 0 0 0 0 0 0 0 0 127 0"/>
<feOffset dy="3"/>
<feGaussianBlur stdDeviation="1.5"/>
<feColorMatrix type="matrix" values="0 0 0 0 0.49062 0 0 0 0 0.49062 0 0 0 0 0.49062 0 0 0 0.428838 0"/>
<feBlend mode="normal" in2="BackgroundImageFix" result="effect1_dropShadow"/>
<feBlend mode="normal" in="SourceGraphic" in2="effect1_dropShadow" result="shape"/>
<feColorMatrix in="SourceAlpha" type="matrix" values="0 0 0 0 0 0 0 0 0 0 0 0 0 0 0 0 0 0 127 0" result="hardAlpha"/>
<feOffset dx="-2" dy="-2"/>
<feGaussianBlur stdDeviation="2.5"/>
<feComposite in2="hardAlpha" operator="arithmetic" k2="-1" k3="1"/>
<feColorMatrix type="matrix" values="0 0 0 0 0 0 0 0 0 0 0 0 0 0 0 0 0 0 0.344061 0"/>
<feBlend mode="normal" in2="shape" result="effect2_innerShadow"/>
</filter>
<filter id="filter4_di" x="284.188" y="20.9937" width="37.6582" height="9.16582" filterUnits="userSpaceOnUse" color-interpolation-filters="sRGB">
<feFlood flood-opacity="0" result="BackgroundImageFix"/>
<feColorMatrix in="SourceAlpha" type="matrix" values="0 0 0 0 0 0 0 0 0 0 0 0 0 0 0 0 0 0 127 0"/>
<feOffset/>
<feGaussianBlur stdDeviation="1.5"/>
<feColorMatrix type="matrix" values="0 0 0 0 0.49062 0 0 0 0 0.49062 0 0 0 0 0.49062 0 0 0 0.25 0"/>
<feBlend mode="normal" in2="BackgroundImageFix" result="effect1_dropShadow"/>
<feBlend mode="normal" in="SourceGraphic" in2="effect1_dropShadow" result="shape"/>
<feColorMatrix in="SourceAlpha" type="matrix" values="0 0 0 0 0 0 0 0 0 0 0 0 0 0 0 0 0 0 127 0" result="hardAlpha"/>
<feOffset dx="2" dy="2"/>
<feGaussianBlur stdDeviation="2"/>
<feComposite in2="hardAlpha" operator="arithmetic" k2="-1" k3="1"/>
<feColorMatrix type="matrix" values="0 0 0 0 0 0 0 0 0 0 0 0 0 0 0 0 0 0 0.344061 0"/>
<feBlend mode="normal" in2="shape" result="effect2_innerShadow"/>
</filter>
<linearGradient id="paint0_linear" x1="32.3202" y1="273.878" x2="462.842" y2="489.251" gradientUnits="userSpaceOnUse">
<stop stop-color="white"/>
<stop offset="1" stop-color="#FEFEFE"/>
</linearGradient>
<linearGradient id="paint1_linear" x1="46.2684" y1="273.144" x2="464.498" y2="476.042" gradientUnits="userSpaceOnUse">
<stop stop-color="white"/>
<stop offset="1" stop-color="#FEFEFE"/>
</linearGradient>
<clipPath id="clip0">
<rect width="650" height="429" fill="white"/>
</clipPath>
<clipPath id="clip1">
<rect width="290" height="202" fill="white" transform="matrix(-1 0 0 1 640 159)"/>
</clipPath>
<clipPath id="clip2">
<rect width="394" height="274" fill="white" transform="matrix(-1 0 0 1 394 128)"/>
</clipPath>
<clipPath id="clip3">
<rect width="21.6859" height="21.6859" fill="white" transform="translate(294.365 326.822)"/>
</clipPath>
<clipPath id="clip4">
<rect width="21.6859" height="21.6859" fill="white" transform="translate(223.886 326.822)"/>
</clipPath>
<clipPath id="clip5">
<rect width="21.6859" height="21.6859" fill="white" transform="translate(363.218 326.822)"/>
</clipPath>
<clipPath id="clip6">
<rect width="21.6859" height="21.6859" fill="white" transform="translate(258.584 326.822)"/>
</clipPath>
<clipPath id="clip7">
<rect width="21.6859" height="21.6859" fill="white" transform="translate(329.605 326.822)"/>
</clipPath>
</defs>
</svg>
