<svg width="735" height="403" viewBox="0 0 735 403" fill="none" xmlns="http://www.w3.org/2000/svg">
<g clip-path="url(#clip0)">
<path opacity="0.1" d="M367.519 391.819C570.494 391.819 735.037 371.819 735.037 347.148C735.037 322.477 570.494 302.477 367.519 302.477C164.544 302.477 0 322.477 0 347.148C0 371.819 164.544 391.819 367.519 391.819Z" fill="#446FC8"/>
<path d="M628.849 369.044C628.849 369.044 648.017 344.654 646.467 320.454C645.752 310.308 648.347 300.204 653.863 291.658C656.514 287.622 659.529 283.837 662.87 280.351" stroke="#535461" stroke-width="1.31491" stroke-miterlimit="10"/>
<path d="M661.984 265.095C660.633 268.482 662.847 280.752 662.847 280.752C662.847 280.752 672.899 273.376 674.25 269.989C674.898 268.363 674.873 266.546 674.182 264.938C673.49 263.33 672.188 262.062 670.563 261.413C668.937 260.764 667.12 260.788 665.511 261.478C663.903 262.169 662.634 263.469 661.984 265.095Z" fill="#446FC8"/>
<path d="M644.36 279.812C645.066 283.39 653.593 292.486 653.593 292.486C653.593 292.486 658.023 280.832 657.316 277.254C657.148 276.403 656.814 275.594 656.334 274.872C655.853 274.151 655.235 273.531 654.514 273.048C653.794 272.565 652.986 272.229 652.135 272.059C651.285 271.888 650.41 271.887 649.559 272.055C648.708 272.223 647.899 272.557 647.177 273.038C646.456 273.518 645.836 274.137 645.353 274.857C644.87 275.577 644.534 276.386 644.364 277.236C644.193 278.086 644.192 278.962 644.36 279.812Z" fill="#446FC8"/>
<path d="M632.01 312.052C634.426 314.784 646.378 318.331 646.378 318.331C646.378 318.331 644.319 306.035 641.903 303.303C641.328 302.653 640.632 302.123 639.852 301.742C639.073 301.362 638.226 301.138 637.36 301.085C636.495 301.032 635.627 301.15 634.807 301.432C633.987 301.714 633.23 302.155 632.581 302.73C631.931 303.304 631.401 304.001 631.021 304.781C630.64 305.56 630.417 306.407 630.364 307.273C630.311 308.138 630.429 309.006 630.712 309.826C630.994 310.646 631.435 311.402 632.01 312.052Z" fill="#446FC8"/>
<path d="M628.159 338.549C630.078 341.65 641.259 347.166 641.259 347.166C641.259 347.166 641.307 334.698 639.388 331.598C638.932 330.86 638.335 330.219 637.631 329.712C636.927 329.205 636.13 328.842 635.286 328.643C634.441 328.444 633.566 328.413 632.71 328.553C631.854 328.692 631.033 328.999 630.296 329.456C629.558 329.912 628.918 330.51 628.411 331.214C627.904 331.918 627.542 332.715 627.343 333.56C627.145 334.404 627.115 335.279 627.255 336.135C627.394 336.992 627.702 337.812 628.159 338.549Z" fill="#446FC8"/>
<path d="M666.209 298.281C662.838 299.671 650.544 297.6 650.544 297.6C650.544 297.6 657.802 287.463 661.173 286.072C662.792 285.404 664.61 285.407 666.227 286.079C667.844 286.752 669.128 288.039 669.795 289.658C670.463 291.277 670.461 293.095 669.788 294.712C669.116 296.329 667.828 297.613 666.209 298.281Z" fill="#446FC8"/>
<path d="M661.312 329.212C657.679 329.531 646.568 323.876 646.568 323.876C646.568 323.876 656.526 316.374 660.159 316.056C661.024 315.979 661.895 316.074 662.722 316.334C663.55 316.594 664.319 317.015 664.984 317.572C665.649 318.13 666.197 318.813 666.598 319.582C666.999 320.352 667.245 321.193 667.32 322.057C667.396 322.922 667.301 323.792 667.04 324.62C666.779 325.447 666.357 326.215 665.799 326.88C665.241 327.544 664.558 328.092 663.788 328.493C663.018 328.893 662.177 329.137 661.312 329.212Z" fill="#446FC8"/>
<path d="M652.427 358.623C648.9 359.551 636.993 355.855 636.993 355.855C636.993 355.855 645.541 346.778 649.067 345.851C650.761 345.405 652.563 345.651 654.075 346.533C655.588 347.416 656.688 348.863 657.133 350.557C657.579 352.251 657.333 354.052 656.451 355.565C655.568 357.077 654.121 358.177 652.427 358.623Z" fill="#446FC8"/>
<path opacity="0.25" d="M661.984 265.095C660.633 268.482 662.847 280.752 662.847 280.752C662.847 280.752 672.899 273.376 674.25 269.989C674.898 268.363 674.873 266.546 674.182 264.938C673.49 263.33 672.188 262.062 670.563 261.413C668.937 260.764 667.12 260.788 665.511 261.478C663.903 262.169 662.634 263.469 661.984 265.095Z" fill="black"/>
<path opacity="0.25" d="M644.36 279.812C645.066 283.39 653.593 292.486 653.593 292.486C653.593 292.486 658.023 280.832 657.316 277.254C657.148 276.403 656.814 275.594 656.334 274.872C655.853 274.151 655.235 273.531 654.514 273.048C653.794 272.565 652.986 272.229 652.135 272.059C651.285 271.888 650.41 271.887 649.559 272.055C648.708 272.223 647.899 272.557 647.177 273.038C646.456 273.518 645.836 274.137 645.353 274.857C644.87 275.577 644.534 276.386 644.364 277.236C644.193 278.086 644.192 278.962 644.36 279.812Z" fill="black"/>
<path opacity="0.25" d="M632.01 312.052C634.426 314.784 646.378 318.331 646.378 318.331C646.378 318.331 644.319 306.035 641.903 303.303C641.328 302.653 640.632 302.123 639.852 301.742C639.073 301.362 638.226 301.138 637.36 301.085C636.495 301.032 635.627 301.15 634.807 301.432C633.987 301.714 633.23 302.155 632.581 302.73C631.931 303.304 631.401 304.001 631.021 304.781C630.64 305.56 630.417 306.407 630.364 307.273C630.311 308.138 630.429 309.006 630.712 309.826C630.994 310.646 631.435 311.402 632.01 312.052Z" fill="black"/>
<path opacity="0.25" d="M628.159 338.549C630.078 341.65 641.259 347.166 641.259 347.166C641.259 347.166 641.307 334.698 639.388 331.598C638.932 330.86 638.335 330.219 637.631 329.712C636.927 329.205 636.13 328.842 635.286 328.643C634.441 328.444 633.566 328.413 632.71 328.553C631.854 328.692 631.033 328.999 630.296 329.456C629.558 329.912 628.918 330.51 628.411 331.214C627.904 331.918 627.542 332.715 627.343 333.56C627.145 334.404 627.115 335.279 627.255 336.135C627.394 336.992 627.702 337.812 628.159 338.549Z" fill="black"/>
<path opacity="0.25" d="M666.209 298.281C662.838 299.671 650.544 297.6 650.544 297.6C650.544 297.6 657.802 287.463 661.173 286.072C662.792 285.404 664.61 285.407 666.227 286.079C667.844 286.752 669.128 288.039 669.795 289.658C670.463 291.277 670.461 293.095 669.788 294.712C669.116 296.329 667.828 297.613 666.209 298.281Z" fill="black"/>
<path opacity="0.25" d="M661.312 329.212C657.679 329.531 646.568 323.876 646.568 323.876C646.568 323.876 656.526 316.374 660.159 316.056C661.024 315.979 661.895 316.074 662.722 316.334C663.55 316.594 664.319 317.015 664.984 317.572C665.649 318.13 666.197 318.813 666.598 319.582C666.999 320.352 667.245 321.193 667.32 322.057C667.396 322.922 667.301 323.792 667.04 324.62C666.779 325.447 666.357 326.215 665.799 326.88C665.241 327.544 664.558 328.092 663.788 328.493C663.018 328.893 662.177 329.137 661.312 329.212Z" fill="black"/>
<path opacity="0.25" d="M652.427 358.623C648.9 359.551 636.993 355.855 636.993 355.855C636.993 355.855 645.541 346.778 649.067 345.851C650.761 345.405 652.563 345.651 654.075 346.533C655.588 347.416 656.688 348.863 657.133 350.557C657.579 352.251 657.333 354.052 656.451 355.565C655.568 357.077 654.121 358.177 652.427 358.623Z" fill="black"/>
<path d="M629.011 368.029C629.011 368.029 656.418 353.498 664.808 330.746C668.265 321.181 674.733 312.995 683.238 307.418C687.297 304.802 691.587 302.563 696.054 300.73" stroke="#535461" stroke-width="1.31491" stroke-miterlimit="10"/>
<path d="M701.427 286.424C698.819 288.973 695.871 301.087 695.871 301.087C695.871 301.087 708.049 298.417 710.658 295.868C711.91 294.644 712.625 292.973 712.645 291.222C712.665 289.47 711.989 287.783 710.765 286.531C709.541 285.278 707.869 284.563 706.118 284.543C704.367 284.523 702.679 285.199 701.427 286.424Z" fill="#446FC8"/>
<path d="M679.351 292.737C678.547 296.294 682.656 308.065 682.656 308.065C682.656 308.065 691.428 299.205 692.232 295.648C692.423 294.802 692.446 293.927 692.299 293.073C692.152 292.218 691.838 291.401 691.375 290.668C690.912 289.934 690.309 289.299 689.601 288.799C688.893 288.299 688.093 287.943 687.247 287.752C686.401 287.561 685.526 287.538 684.671 287.685C683.817 287.832 683 288.146 682.266 288.609C681.533 289.072 680.898 289.675 680.398 290.383C679.898 291.091 679.542 291.891 679.351 292.737Z" fill="#446FC8"/>
<path d="M654.996 317.206C656.097 320.683 665.587 328.769 665.587 328.769C665.587 328.769 668.687 316.693 667.585 313.217C667.323 312.39 666.901 311.623 666.343 310.96C665.784 310.296 665.101 309.749 664.331 309.35C663.561 308.951 662.72 308.707 661.856 308.632C660.992 308.558 660.122 308.655 659.296 308.917C658.469 309.179 657.702 309.601 657.039 310.159C656.375 310.718 655.828 311.401 655.429 312.171C655.03 312.941 654.786 313.782 654.712 314.646C654.637 315.51 654.734 316.38 654.996 317.206Z" fill="#446FC8"/>
<path d="M640.738 339.87C641.236 343.483 649.223 353.057 649.223 353.057C649.223 353.057 654.319 341.678 653.82 338.065C653.702 337.206 653.415 336.379 652.977 335.63C652.539 334.882 651.958 334.228 651.266 333.704C650.575 333.18 649.788 332.798 648.949 332.579C648.11 332.359 647.236 332.308 646.377 332.426C645.518 332.545 644.69 332.831 643.942 333.269C643.194 333.708 642.539 334.289 642.015 334.98C641.492 335.671 641.109 336.459 640.89 337.298C640.671 338.137 640.619 339.011 640.738 339.87Z" fill="#446FC8"/>
<path d="M691.842 318.475C688.196 318.38 677.796 311.505 677.796 311.505C677.796 311.505 688.539 305.178 692.185 305.273C693.935 305.318 695.596 306.057 696.802 307.327C698.008 308.597 698.66 310.294 698.614 312.045C698.569 313.796 697.83 315.457 696.56 316.663C695.29 317.868 693.593 318.52 691.842 318.475H691.842Z" fill="#446FC8"/>
<path d="M674.831 344.769C671.38 343.587 663.513 333.915 663.513 333.915C663.513 333.915 675.658 331.093 679.108 332.274C680.765 332.841 682.129 334.043 682.899 335.616C683.67 337.189 683.784 339.003 683.217 340.66C682.65 342.317 681.447 343.68 679.875 344.451C678.302 345.222 676.488 345.336 674.831 344.769V344.769Z" fill="#446FC8"/>
<path d="M654.79 368.056C651.19 367.475 641.801 359.271 641.801 359.271C641.801 359.271 653.294 354.437 656.894 355.018C658.623 355.297 660.17 356.251 661.196 357.671C662.221 359.091 662.64 360.86 662.361 362.589C662.082 364.318 661.127 365.865 659.708 366.89C658.288 367.916 656.519 368.335 654.79 368.056Z" fill="#446FC8"/>
<path opacity="0.1" d="M418.892 -73.4906C382.576 -74.7514 347.987 -86.4753 314.959 -99.3021C281.93 -112.129 249.215 -126.34 213.769 -133.137C190.97 -137.508 164.898 -138.127 146.528 -125.903C128.851 -114.14 123.139 -93.8356 120.068 -74.9954C117.758 -60.8206 116.399 -45.9021 122.73 -32.632C127.125 -23.4191 134.929 -15.6748 140.326 -6.8504C159.105 23.8556 145.832 61.7195 125.481 91.7012C115.935 105.765 104.863 119.182 97.4968 134.153C90.1305 149.125 86.7229 166.279 93.1676 181.551C99.5556 196.689 114.779 208.059 131.269 216.056C164.761 232.298 204.229 236.947 242.714 239.58C327.907 245.408 413.555 242.885 498.974 240.357C530.585 239.422 562.336 238.474 593.434 233.586C610.703 230.872 628.533 226.564 641.07 216.163C656.986 202.959 660.931 180.602 650.266 164.046C632.377 136.275 582.916 129.378 570.412 99.5751C563.53 83.1705 570.598 64.8977 580.599 49.6836C602.056 17.046 638.02 -11.587 639.914 -48.8923C641.215 -74.5142 623.926 -100.174 597.195 -112.296C569.174 -125.004 530.32 -123.405 509.648 -102.371C488.363 -80.7112 450.956 -72.3773 418.892 -73.4906Z" fill="#F3F2F2"/>
<path d="M356.712 327.112C370.349 327.112 381.404 315.378 381.404 300.902C381.404 286.427 370.349 274.693 356.712 274.693C343.075 274.693 332.02 286.427 332.02 300.902C332.02 315.378 343.075 327.112 356.712 327.112Z" fill="#FBD56F"/>
<path opacity="0.1" d="M356.712 327.112C370.349 327.112 381.404 315.378 381.404 300.902C381.404 286.427 370.349 274.693 356.712 274.693C343.075 274.693 332.02 286.427 332.02 300.902C332.02 315.378 343.075 327.112 356.712 327.112Z" fill="black"/>
<path d="M360.973 327.112C374.61 327.112 385.665 315.639 385.665 301.486C385.665 287.333 374.61 275.86 360.973 275.86C347.336 275.86 336.281 287.333 336.281 301.486C336.281 315.639 347.336 327.112 360.973 327.112Z" fill="#FBD56F"/>
<path d="M370.975 324.709L368.406 323.279C368.406 323.279 367.205 328.292 367.597 331.865C367.636 332.227 367.785 332.569 368.024 332.844C368.264 333.119 368.581 333.314 368.935 333.402C374.843 334.87 403.005 341.121 422.37 332.316C422.651 332.188 422.893 331.989 423.074 331.738C423.254 331.488 423.366 331.195 423.399 330.888C423.637 328.692 422.796 324.162 422.46 323.279C421.738 321.379 370.975 324.709 370.975 324.709Z" fill="#FBD56F"/>
<path opacity="0.1" d="M370.975 324.709L368.406 323.279C368.406 323.279 367.205 328.292 367.597 331.865C367.636 332.227 367.785 332.569 368.024 332.844C368.264 333.119 368.581 333.314 368.935 333.402C374.843 334.87 403.005 341.121 422.37 332.316C422.651 332.188 422.893 331.989 423.074 331.738C423.254 331.488 423.366 331.195 423.399 330.888C423.637 328.692 422.796 324.162 422.46 323.279C421.738 321.379 370.975 324.709 370.975 324.709Z" fill="black"/>
<path d="M395.433 329.371C410.36 329.371 422.46 326.644 422.46 323.279C422.46 319.914 410.36 317.187 395.433 317.187C380.507 317.187 368.406 319.914 368.406 323.279C368.406 326.644 380.507 329.371 395.433 329.371Z" fill="#FBD56F"/>
<path d="M381.3 315.72L378.732 314.29C378.732 314.29 377.531 319.304 377.923 322.876C377.962 323.239 378.111 323.58 378.35 323.855C378.589 324.13 378.907 324.325 379.261 324.414C385.169 325.881 413.33 332.133 432.696 323.327C432.977 323.199 433.219 323 433.4 322.75C433.58 322.499 433.692 322.206 433.725 321.899C433.962 319.704 433.122 315.173 432.786 314.29C432.064 312.391 381.3 315.72 381.3 315.72Z" fill="#FBD56F"/>
<path opacity="0.1" d="M381.3 315.72L378.732 314.29C378.732 314.29 377.531 319.304 377.923 322.876C377.962 323.239 378.111 323.58 378.35 323.855C378.589 324.13 378.907 324.325 379.261 324.414C385.169 325.881 413.33 332.133 432.696 323.327C432.977 323.199 433.219 323 433.4 322.75C433.58 322.499 433.692 322.206 433.725 321.899C433.962 319.704 433.122 315.173 432.786 314.29C432.064 312.391 381.3 315.72 381.3 315.72Z" fill="black"/>
<path d="M405.759 320.383C420.686 320.383 432.786 317.655 432.786 314.29C432.786 310.926 420.686 308.198 405.759 308.198C390.832 308.198 378.732 310.926 378.732 314.29C378.732 317.655 390.832 320.383 405.759 320.383Z" fill="#FBD56F"/>
<path d="M390.429 303.907L387.86 302.477C387.86 302.477 386.659 307.49 387.052 311.063C387.091 311.425 387.24 311.767 387.479 312.042C387.718 312.317 388.036 312.511 388.389 312.6C394.298 314.067 422.459 320.319 441.824 311.514C442.105 311.385 442.348 311.186 442.528 310.936C442.709 310.686 442.821 310.393 442.853 310.086C443.091 307.89 442.25 303.359 441.914 302.477C441.192 300.577 390.429 303.907 390.429 303.907Z" fill="#FBD56F"/>
<path opacity="0.1" d="M390.429 303.907L387.86 302.477C387.86 302.477 386.659 307.49 387.052 311.063C387.091 311.425 387.24 311.767 387.479 312.042C387.718 312.317 388.036 312.511 388.389 312.6C394.298 314.067 422.459 320.319 441.824 311.514C442.105 311.385 442.348 311.186 442.528 310.936C442.709 310.686 442.821 310.393 442.853 310.086C443.091 307.89 442.25 303.359 441.914 302.477C441.192 300.577 390.429 303.907 390.429 303.907Z" fill="black"/>
<path d="M414.887 308.569C429.814 308.569 441.915 305.841 441.915 302.477C441.915 299.112 429.814 296.384 414.887 296.384C399.961 296.384 387.86 299.112 387.86 302.477C387.86 305.841 399.961 308.569 414.887 308.569Z" fill="#FBD56F"/>
<path d="M380.32 291.609L377.751 290.179C377.751 290.179 376.55 295.192 376.943 298.765C376.981 299.127 377.13 299.469 377.369 299.744C377.609 300.019 377.927 300.214 378.28 300.302C384.189 301.769 412.35 308.021 431.715 299.216C431.996 299.088 432.238 298.889 432.419 298.638C432.599 298.388 432.711 298.095 432.744 297.788C432.982 295.592 432.141 291.061 431.805 290.179C431.083 288.279 380.32 291.609 380.32 291.609Z" fill="#FBD56F"/>
<path opacity="0.1" d="M380.32 291.609L377.751 290.179C377.751 290.179 376.55 295.192 376.943 298.765C376.981 299.127 377.13 299.469 377.369 299.744C377.609 300.019 377.927 300.214 378.28 300.302C384.189 301.769 412.35 308.021 431.715 299.216C431.996 299.088 432.238 298.889 432.419 298.638C432.599 298.388 432.711 298.095 432.744 297.788C432.982 295.592 432.141 291.061 431.805 290.179C431.083 288.279 380.32 291.609 380.32 291.609Z" fill="black"/>
<path d="M404.778 296.271C419.705 296.271 431.805 293.543 431.805 290.179C431.805 286.814 419.705 284.086 404.778 284.086C389.852 284.086 377.751 286.814 377.751 290.179C377.751 293.543 389.852 296.271 404.778 296.271Z" fill="#FBD56F"/>
<path d="M403.062 281.74L400.493 280.309C400.493 280.309 399.292 285.323 399.685 288.895C399.723 289.258 399.872 289.599 400.112 289.874C400.351 290.149 400.669 290.344 401.022 290.433C406.931 291.9 435.092 298.152 454.457 289.346C454.738 289.218 454.981 289.019 455.161 288.769C455.342 288.518 455.454 288.225 455.486 287.918C455.724 285.723 454.883 281.192 454.547 280.309C453.825 278.41 403.062 281.74 403.062 281.74Z" fill="#FBD56F"/>
<path opacity="0.1" d="M403.062 281.74L400.493 280.309C400.493 280.309 399.292 285.323 399.685 288.895C399.723 289.258 399.872 289.599 400.112 289.874C400.351 290.149 400.669 290.344 401.022 290.433C406.931 291.9 435.092 298.152 454.457 289.346C454.738 289.218 454.981 289.019 455.161 288.769C455.342 288.518 455.454 288.225 455.486 287.918C455.724 285.723 454.883 281.192 454.547 280.309C453.825 278.41 403.062 281.74 403.062 281.74Z" fill="black"/>
<path d="M427.52 286.402C442.447 286.402 454.547 283.674 454.547 280.309C454.547 276.945 442.447 274.217 427.52 274.217C412.594 274.217 400.493 276.945 400.493 280.309C400.493 283.674 412.594 286.402 427.52 286.402Z" fill="#FBD56F"/>
<path d="M387.696 275.106L385.128 273.676C385.128 273.676 383.926 278.689 384.319 282.262C384.358 282.624 384.507 282.966 384.746 283.241C384.985 283.516 385.303 283.711 385.657 283.799C391.565 285.267 419.726 291.518 439.092 282.713C439.372 282.585 439.615 282.386 439.795 282.135C439.976 281.885 440.088 281.592 440.121 281.285C440.358 279.089 439.517 274.559 439.182 273.676C438.459 271.776 387.696 275.106 387.696 275.106Z" fill="#FBD56F"/>
<path opacity="0.1" d="M387.696 275.106L385.128 273.676C385.128 273.676 383.926 278.689 384.319 282.262C384.358 282.624 384.507 282.966 384.746 283.241C384.985 283.516 385.303 283.711 385.657 283.799C391.565 285.267 419.726 291.518 439.092 282.713C439.372 282.585 439.615 282.386 439.795 282.135C439.976 281.885 440.088 281.592 440.121 281.285C440.358 279.089 439.517 274.559 439.182 273.676C438.459 271.776 387.696 275.106 387.696 275.106Z" fill="black"/>
<path d="M412.155 279.768C427.081 279.768 439.182 277.041 439.182 273.676C439.182 270.311 427.081 267.584 412.155 267.584C397.228 267.584 385.128 270.311 385.128 273.676C385.128 277.041 397.228 279.768 412.155 279.768Z" fill="#FBD56F"/>
<path d="M397.955 262.3L395.387 260.87C395.387 260.87 394.185 265.883 394.578 269.456C394.617 269.818 394.766 270.16 395.005 270.435C395.244 270.71 395.562 270.905 395.915 270.993C401.824 272.461 429.985 278.712 449.35 269.907C449.631 269.779 449.874 269.58 450.054 269.329C450.235 269.079 450.347 268.786 450.38 268.479C450.617 266.283 449.776 261.753 449.441 260.87C448.718 258.97 397.955 262.3 397.955 262.3Z" fill="#FBD56F"/>
<path opacity="0.1" d="M397.955 262.3L395.387 260.87C395.387 260.87 394.185 265.883 394.578 269.456C394.617 269.818 394.766 270.16 395.005 270.435C395.244 270.71 395.562 270.905 395.915 270.993C401.824 272.461 429.985 278.712 449.35 269.907C449.631 269.779 449.874 269.58 450.054 269.329C450.235 269.079 450.347 268.786 450.38 268.479C450.617 266.283 449.776 261.753 449.441 260.87C448.718 258.97 397.955 262.3 397.955 262.3Z" fill="black"/>
<path d="M422.414 266.962C437.34 266.962 449.441 264.235 449.441 260.87C449.441 257.505 437.34 254.778 422.414 254.778C407.487 254.778 395.387 257.505 395.387 260.87C395.387 264.235 407.487 266.962 422.414 266.962Z" fill="#FBD56F"/>
<path d="M403.015 247.1L400.447 245.67C400.447 245.67 399.246 250.683 399.638 254.255C399.677 254.618 399.826 254.96 400.065 255.235C400.304 255.51 400.622 255.704 400.976 255.793C406.884 257.26 435.045 263.512 454.411 254.707C454.691 254.578 454.934 254.379 455.114 254.129C455.295 253.879 455.407 253.586 455.44 253.279C455.677 251.083 454.836 246.552 454.501 245.67C453.778 243.77 403.015 247.1 403.015 247.1Z" fill="#FBD56F"/>
<path opacity="0.1" d="M403.015 247.1L400.447 245.67C400.447 245.67 399.246 250.683 399.638 254.255C399.677 254.618 399.826 254.96 400.065 255.235C400.304 255.51 400.622 255.704 400.976 255.793C406.884 257.26 435.045 263.512 454.411 254.707C454.691 254.578 454.934 254.379 455.114 254.129C455.295 253.879 455.407 253.586 455.44 253.279C455.677 251.083 454.836 246.552 454.501 245.67C453.778 243.77 403.015 247.1 403.015 247.1Z" fill="black"/>
<path d="M427.474 251.762C442.4 251.762 454.501 249.034 454.501 245.67C454.501 242.305 442.4 239.577 427.474 239.577C412.547 239.577 400.447 242.305 400.447 245.67C400.447 249.034 412.547 251.762 427.474 251.762Z" fill="#FBD56F"/>
<path d="M448.639 328.234L446.071 326.804C446.071 326.804 444.87 331.818 445.262 335.39C445.301 335.753 445.45 336.094 445.689 336.369C445.928 336.644 446.246 336.839 446.6 336.928C452.508 338.395 480.669 344.647 500.035 335.841C500.315 335.713 500.558 335.514 500.739 335.264C500.919 335.013 501.031 334.72 501.064 334.413C501.301 332.218 500.461 327.687 500.125 326.804C499.403 324.905 448.639 328.234 448.639 328.234Z" fill="#FBD56F"/>
<path opacity="0.1" d="M448.639 328.234L446.071 326.804C446.071 326.804 444.87 331.818 445.262 335.39C445.301 335.753 445.45 336.094 445.689 336.369C445.928 336.644 446.246 336.839 446.6 336.928C452.508 338.395 480.669 344.647 500.035 335.841C500.315 335.713 500.558 335.514 500.739 335.264C500.919 335.013 501.031 334.72 501.064 334.413C501.301 332.218 500.461 327.687 500.125 326.804C499.403 324.905 448.639 328.234 448.639 328.234Z" fill="black"/>
<path d="M473.098 332.897C488.024 332.897 500.125 330.169 500.125 326.804C500.125 323.44 488.024 320.712 473.098 320.712C458.171 320.712 446.071 323.44 446.071 326.804C446.071 330.169 458.171 332.897 473.098 332.897Z" fill="#FBD56F"/>
<path d="M457.768 316.421L455.199 314.991C455.199 314.991 453.998 320.004 454.391 323.577C454.429 323.939 454.578 324.281 454.818 324.556C455.057 324.831 455.375 325.025 455.728 325.114C461.637 326.581 489.798 332.833 509.163 324.028C509.444 323.899 509.687 323.7 509.867 323.45C510.048 323.2 510.16 322.907 510.192 322.6C510.43 320.404 509.589 315.873 509.253 314.991C508.531 313.091 457.768 316.421 457.768 316.421Z" fill="#FBD56F"/>
<path opacity="0.1" d="M457.768 316.421L455.199 314.991C455.199 314.991 453.998 320.004 454.391 323.577C454.429 323.939 454.578 324.281 454.818 324.556C455.057 324.831 455.375 325.025 455.728 325.114C461.637 326.581 489.798 332.833 509.163 324.028C509.444 323.899 509.687 323.7 509.867 323.45C510.048 323.2 510.16 322.907 510.192 322.6C510.43 320.404 509.589 315.873 509.253 314.991C508.531 313.091 457.768 316.421 457.768 316.421Z" fill="black"/>
<path d="M482.226 321.083C497.153 321.083 509.253 318.355 509.253 314.991C509.253 311.626 497.153 308.898 482.226 308.898C467.3 308.898 455.199 311.626 455.199 314.991C455.199 318.355 467.3 321.083 482.226 321.083Z" fill="#FBD56F"/>
<path d="M447.659 304.123L445.09 302.693C445.09 302.693 443.889 307.706 444.282 311.279C444.32 311.641 444.469 311.983 444.708 312.258C444.948 312.533 445.265 312.727 445.619 312.816C451.528 314.283 479.689 320.535 499.054 311.73C499.335 311.602 499.577 311.402 499.758 311.152C499.938 310.902 500.05 310.609 500.083 310.302C500.321 308.106 499.48 303.575 499.144 302.693C498.422 300.793 447.659 304.123 447.659 304.123Z" fill="#FBD56F"/>
<path opacity="0.1" d="M447.659 304.123L445.09 302.693C445.09 302.693 443.889 307.706 444.282 311.279C444.32 311.641 444.469 311.983 444.708 312.258C444.948 312.533 445.265 312.727 445.619 312.816C451.528 314.283 479.689 320.535 499.054 311.73C499.335 311.602 499.577 311.402 499.758 311.152C499.938 310.902 500.05 310.609 500.083 310.302C500.321 308.106 499.48 303.575 499.144 302.693C498.422 300.793 447.659 304.123 447.659 304.123Z" fill="black"/>
<path d="M472.117 308.785C487.044 308.785 499.144 306.057 499.144 302.693C499.144 299.328 487.044 296.6 472.117 296.6C457.191 296.6 445.09 299.328 445.09 302.693C445.09 306.057 457.191 308.785 472.117 308.785Z" fill="#FBD56F"/>
<path d="M470.401 294.254L467.832 292.823C467.832 292.823 466.631 297.837 467.024 301.409C467.062 301.772 467.211 302.113 467.451 302.388C467.69 302.663 468.008 302.858 468.361 302.947C474.27 304.414 502.431 310.666 521.796 301.86C522.077 301.732 522.32 301.533 522.5 301.283C522.68 301.032 522.793 300.739 522.825 300.432C523.063 298.237 522.222 293.706 521.886 292.823C521.164 290.924 470.401 294.254 470.401 294.254Z" fill="#FBD56F"/>
<path opacity="0.1" d="M470.401 294.254L467.832 292.823C467.832 292.823 466.631 297.837 467.024 301.409C467.062 301.772 467.211 302.113 467.451 302.388C467.69 302.663 468.008 302.858 468.361 302.947C474.27 304.414 502.431 310.666 521.796 301.86C522.077 301.732 522.32 301.533 522.5 301.283C522.68 301.032 522.793 300.739 522.825 300.432C523.063 298.237 522.222 293.706 521.886 292.823C521.164 290.924 470.401 294.254 470.401 294.254Z" fill="black"/>
<path d="M494.859 298.916C509.786 298.916 521.886 296.188 521.886 292.823C521.886 289.459 509.786 286.731 494.859 286.731C479.933 286.731 467.832 289.459 467.832 292.823C467.832 296.188 479.933 298.916 494.859 298.916Z" fill="#FBD56F"/>
<path d="M455.035 287.62L452.467 286.19C452.467 286.19 451.265 291.203 451.658 294.776C451.697 295.138 451.846 295.48 452.085 295.755C452.324 296.03 452.642 296.225 452.996 296.313C458.904 297.781 487.065 304.032 506.431 295.227C506.711 295.099 506.954 294.9 507.134 294.649C507.315 294.399 507.427 294.106 507.46 293.799C507.697 291.603 506.856 287.073 506.521 286.19C505.798 284.29 455.035 287.62 455.035 287.62Z" fill="#FBD56F"/>
<path opacity="0.1" d="M455.035 287.62L452.467 286.19C452.467 286.19 451.265 291.203 451.658 294.776C451.697 295.138 451.846 295.48 452.085 295.755C452.324 296.03 452.642 296.225 452.996 296.313C458.904 297.781 487.065 304.032 506.431 295.227C506.711 295.099 506.954 294.9 507.134 294.649C507.315 294.399 507.427 294.106 507.46 293.799C507.697 291.603 506.856 287.073 506.521 286.19C505.798 284.29 455.035 287.62 455.035 287.62Z" fill="black"/>
<path d="M479.494 292.282C494.42 292.282 506.521 289.555 506.521 286.19C506.521 282.825 494.42 280.098 479.494 280.098C464.567 280.098 452.467 282.825 452.467 286.19C452.467 289.555 464.567 292.282 479.494 292.282Z" fill="#FBD56F"/>
<path d="M465.294 274.814L462.726 273.384C462.726 273.384 461.524 278.397 461.917 281.97C461.956 282.332 462.105 282.674 462.344 282.949C462.583 283.224 462.901 283.419 463.254 283.507C469.163 284.975 497.324 291.226 516.689 282.421C516.97 282.293 517.213 282.094 517.393 281.843C517.574 281.593 517.686 281.3 517.718 280.993C517.956 278.797 517.115 274.267 516.779 273.384C516.057 271.484 465.294 274.814 465.294 274.814Z" fill="#FBD56F"/>
<path opacity="0.1" d="M465.294 274.814L462.726 273.384C462.726 273.384 461.524 278.397 461.917 281.97C461.956 282.332 462.105 282.674 462.344 282.949C462.583 283.224 462.901 283.419 463.254 283.507C469.163 284.975 497.324 291.226 516.689 282.421C516.97 282.293 517.213 282.094 517.393 281.843C517.574 281.593 517.686 281.3 517.718 280.993C517.956 278.797 517.115 274.267 516.779 273.384C516.057 271.484 465.294 274.814 465.294 274.814Z" fill="black"/>
<path d="M489.753 279.476C504.679 279.476 516.78 276.749 516.78 273.384C516.78 270.019 504.679 267.292 489.753 267.292C474.826 267.292 462.725 270.019 462.725 273.384C462.725 276.749 474.826 279.476 489.753 279.476Z" fill="#FBD56F"/>
<path d="M470.354 259.614L467.786 258.184C467.786 258.184 466.584 263.197 466.977 266.769C467.016 267.132 467.165 267.474 467.404 267.749C467.643 268.023 467.961 268.218 468.315 268.307C474.223 269.774 502.384 276.026 521.75 267.221C522.03 267.092 522.273 266.893 522.453 266.643C522.634 266.393 522.746 266.099 522.779 265.793C523.016 263.597 522.175 259.066 521.84 258.184C521.117 256.284 470.354 259.614 470.354 259.614Z" fill="#FBD56F"/>
<path opacity="0.1" d="M470.354 259.614L467.786 258.184C467.786 258.184 466.584 263.197 466.977 266.769C467.016 267.132 467.165 267.474 467.404 267.749C467.643 268.023 467.961 268.218 468.315 268.307C474.223 269.774 502.384 276.026 521.75 267.221C522.03 267.092 522.273 266.893 522.453 266.643C522.634 266.393 522.746 266.099 522.779 265.793C523.016 263.597 522.175 259.066 521.84 258.184C521.117 256.284 470.354 259.614 470.354 259.614Z" fill="black"/>
<path d="M494.813 264.276C509.739 264.276 521.84 261.548 521.84 258.184C521.84 254.819 509.739 252.091 494.813 252.091C479.886 252.091 467.786 254.819 467.786 258.184C467.786 261.548 479.886 264.276 494.813 264.276Z" fill="#FBD56F"/>
<path d="M633.257 364.091C629.495 363.958 629.361 362.5 624.524 359.981C621.793 358.559 617.647 354.431 614.557 351.108C614.309 350.842 614.07 350.582 613.838 350.328C614.655 350.311 615.118 350.302 615.118 350.302C615.118 350.302 613.909 339.695 614.984 337.176C616.059 334.657 615.253 319.675 615.253 319.675C615.253 319.675 615.925 308.273 614.715 305.621C613.506 302.97 615.118 285.999 615.118 285.999C615.118 285.999 616.193 275.923 616.462 255.372C616.731 234.822 604.638 234.159 604.638 234.159C604.638 234.159 603.026 234.034 600.578 233.801C600.343 233.779 600.094 233.755 599.844 233.73C601.43 230.412 602.354 227.928 602.354 227.928C602.354 227.928 600.339 208.703 599.801 205.388C599.264 202.074 596.039 188.418 596.039 188.418C596.039 188.418 593.755 182.584 592.411 178.474C591.068 174.364 587.037 169.591 587.037 169.591C587.037 169.591 579.782 155.272 577.766 153.151C576.831 152.167 575.52 150.926 574.383 149.878C574.178 149.689 573.982 149.51 573.792 149.336C574.096 147.842 574.257 146.322 574.273 144.798C574.273 144.798 566.749 137.373 566.211 135.517C565.674 133.661 558.553 126.766 558.553 126.766C558.553 126.766 554.522 119.342 549.954 119.209C547.795 119.087 545.63 119.152 543.483 119.405C544.421 115.933 545.531 112.295 546.527 109.173C546.638 108.825 546.747 108.486 546.855 108.151C550.506 105.683 553.37 102.218 555.109 98.168C555.204 97.9526 555.29 97.7351 555.377 97.5175C555.425 97.5187 555.473 97.5266 555.521 97.526C555.711 97.5238 555.9 97.5066 556.087 97.4747C557.591 97.2164 558.864 95.5181 558.17 94.1779C558.215 94.2535 558.279 94.3158 558.356 94.3581C558.433 94.4005 558.52 94.4214 558.608 94.4186C559.11 94.402 559.721 93.6768 559.839 93.0389C559.859 92.9282 559.87 92.8163 559.887 92.7052C559.908 92.5667 559.931 92.4286 559.948 92.2895C559.963 92.1588 559.973 92.0277 559.984 91.8966C559.995 91.7613 560.006 91.6261 560.013 91.4905C560.019 91.3637 560.023 91.2369 560.025 91.1099C560.028 90.9638 560.027 90.8179 560.025 90.6718C560.022 90.5548 560.021 90.4381 560.015 90.3213C560.007 90.1435 559.992 89.9663 559.976 89.7891C559.969 89.7164 559.968 89.6432 559.96 89.5706L559.958 89.5811C559.88 88.8567 559.735 88.1409 559.525 87.443C558.783 84.9786 557.225 82.5346 557.826 80.0327C557.832 80.0057 557.844 79.9812 557.851 79.9544L557.852 79.9593C558.352 78.0177 560.032 76.6072 561.06 74.8725C561.158 74.707 561.244 74.5363 561.329 74.3651C561.344 74.3338 561.363 74.3038 561.378 74.2722C561.44 74.1433 561.492 74.0108 561.547 73.879C561.582 73.7943 561.62 73.7109 561.652 73.6252C561.696 73.5096 561.732 73.3918 561.769 73.2745C561.804 73.1677 561.84 73.0615 561.87 72.9534C561.899 72.8495 561.923 72.7443 561.947 72.6393C561.977 72.5128 562.007 72.3864 562.032 72.2587C562.049 72.167 562.062 72.0749 562.077 71.9827C562.099 71.8378 562.12 71.6929 562.136 71.5469C562.144 71.4679 562.15 71.3888 562.156 71.3095C562.169 71.1467 562.178 70.9839 562.182 70.8204C562.184 70.7549 562.184 70.6895 562.185 70.624C562.185 70.4453 562.181 70.2666 562.171 70.0879C562.168 70.0342 562.165 69.9808 562.161 69.9271C562.148 69.7367 562.128 69.5469 562.103 69.3573C562.099 69.3299 562.098 69.3023 562.095 69.2749L562.093 69.2825C561.865 67.6164 561.201 66.0401 560.169 64.7127C558.992 63.3123 557.506 62.2052 555.827 61.4792C554.148 60.7531 552.324 60.4281 550.498 60.5298C549.488 60.6437 548.47 60.6624 547.457 60.5857C545.77 60.3385 544.343 59.267 542.999 58.2315C539.248 55.3419 535.496 52.4522 531.745 49.5626C530.49 48.4717 529.049 47.6151 527.491 47.0335C525.9 46.5468 523.994 46.7148 522.816 47.8767C520.709 49.9561 522.049 53.5346 521.203 56.3542C520.47 58.7964 518.111 60.4514 515.669 61.2763C513.228 62.1013 510.615 62.2823 508.106 62.8795C507.359 63.0004 506.659 63.3219 506.081 63.8095C505.432 64.5983 505.116 65.6099 505.202 66.6283C505.187 69.1254 505.787 71.5879 506.949 73.7979C507.424 74.6984 507.998 75.6081 508.503 76.5307C508.545 76.6069 508.585 76.6833 508.626 76.7596C508.682 76.8655 508.739 76.9713 508.793 77.0776C508.88 77.25 508.963 77.4228 509.042 77.5961C509.076 77.671 509.107 77.7462 509.139 77.8213C509.192 77.944 509.242 78.067 509.29 78.1903C509.32 78.2688 509.349 78.3473 509.377 78.426C509.428 78.5711 509.473 78.7166 509.514 78.8624C509.783 79.7199 509.808 80.6351 509.587 81.5061C509.2 82.9312 508.087 84.0292 507.106 85.1426C506.305 86.0124 505.735 87.069 505.448 88.2159L505.444 88.2413C505.389 88.508 505.379 88.7818 505.413 89.0518C505.418 89.0854 505.422 89.1194 505.429 89.1518C505.441 89.2119 505.458 89.2712 505.478 89.3293C505.494 89.3713 505.511 89.4126 505.531 89.4527C505.551 89.5 505.575 89.5459 505.601 89.59C505.649 89.6641 505.706 89.7318 505.772 89.7915C505.802 89.8165 505.833 89.8399 505.866 89.8616C505.92 89.9019 505.978 89.9373 506.038 89.9674C506.075 89.9856 506.113 90.0029 506.153 90.0181C506.242 90.0513 506.335 90.0765 506.428 90.0932C506.455 90.0981 506.477 90.1064 506.505 90.1103C506.648 90.1288 506.793 90.1349 506.937 90.1287C506.979 90.1273 507.024 90.1221 507.068 90.119C507.206 90.1086 507.344 90.0912 507.48 90.0668C507.531 90.058 507.58 90.0501 507.632 90.0393C507.83 89.9984 508.038 89.9481 508.266 89.8771C509.02 89.6491 509.755 89.3589 510.461 89.0092C510.46 89.09 510.455 89.1697 510.455 89.2506C510.455 89.3899 510.455 89.5357 510.468 89.675C510.506 92.275 510.997 94.8485 511.92 97.2797C513.36 101.068 515.777 104.409 518.926 106.961C518.887 107.19 518.845 107.42 518.798 107.651C518.15 110.83 516.796 114.02 515.96 113.773C515.143 113.591 514.307 113.499 513.469 113.5C513.216 113.493 512.97 113.489 512.737 113.488L512.736 113.487C511.977 113.399 511.211 113.399 510.452 113.487C510.113 113.51 509.772 113.463 509.452 113.349C507.281 112.665 504.973 112.535 502.739 112.972C498.093 113.924 491.026 115.667 489.088 117.751C486.132 120.933 481.833 123.982 476.996 137.241C476.996 137.241 474.578 145.328 472.696 146.389C473.111 146.174 473.537 145.982 473.973 145.815C473.723 146.253 473.379 146.63 472.965 146.919C473.647 146.571 474.354 146.276 475.081 146.037C473.613 154.675 475.787 179.384 475.787 179.384C475.787 179.384 474.04 183.645 476.324 186.164C477.682 187.661 478.419 189.995 478.797 191.648C478.691 191.813 478.58 191.985 478.466 192.162V192.165C477.257 194.039 475.639 196.484 474.578 197.831C472.696 200.218 473.234 207.775 473.234 207.775C473.234 207.775 472.831 211.355 471.487 212.681C470.144 214.006 470.412 218.912 470.412 218.912L466.919 231.773C466.919 231.773 463.694 234.689 463.694 236.015C463.694 237.341 461.142 241.053 461.142 241.053C461.142 241.053 457.245 247.417 461.142 246.489C462.562 246.074 463.895 245.403 465.076 244.511L465.074 244.606C465.068 244.84 465.063 245.077 465.059 245.317C464.949 252.249 465.704 262.002 470.815 262.002C478.743 262.002 499.165 271.415 499.165 271.415C503.331 274.597 508.974 273.536 508.974 273.536C508.974 273.536 499.031 283.48 499.3 287.59C499.568 291.7 493.657 298.462 493.657 298.462L475.384 334.127C475.486 336.612 475.927 339.071 476.693 341.437C476.607 341.513 476.517 341.585 476.432 341.663C469.41 348.077 468.8 360.776 468.8 360.776L467.188 367.273L491.641 378.012C491.641 378.012 523.35 378.675 528.859 377.216C534.368 375.758 533.159 369.659 525.903 368.466C518.648 367.273 516.901 364.091 514.483 362.632C512.851 361.648 507.058 355.29 503.462 351.259C503.407 351.198 503.358 351.142 503.304 351.081L504.137 346.457C505.749 345.662 508.168 337.707 508.168 337.707C508.168 337.707 508.168 334.525 509.78 333.597C511.392 332.668 514.751 323.122 514.751 323.122C514.751 323.122 522.007 311.057 521.604 309.466C521.201 307.875 526.844 299.788 526.844 299.788C526.844 299.788 536.383 290.507 535.98 288.85C535.577 287.192 543.639 278.707 543.639 278.707C546.552 276.483 548.979 273.688 550.773 270.492C551.499 270.375 552.278 270.251 553.1 270.113C563.65 268.384 581.182 265.258 583.141 264.388C585.828 263.195 585.29 268.498 584.216 273.006C583.141 277.514 582.335 299.125 583.544 301.909C584.753 304.693 584.216 309.201 584.216 309.201L582.603 333.464L583.678 338.635C583.678 338.635 580.05 341.552 581.528 343.275C583.006 344.999 581.663 352.423 581.663 352.423C581.79 352.376 581.94 352.33 582.109 352.285C581.979 352.576 581.856 352.875 581.746 353.19C579.663 359.127 580.857 368.864 580.857 368.864V376.554C580.857 376.554 618.074 377.216 626.27 377.216C634.466 377.216 645.753 373.239 646.424 370.057C647.096 366.875 637.019 364.223 633.257 364.091ZM527.402 226.065L524.964 226.27C525.772 226.153 526.586 226.084 527.402 226.065ZM542.266 124.299C542.607 122.765 543.022 121.115 543.478 119.423L542.266 124.299ZM546.863 229.784C544.538 230.704 541.951 230.707 539.624 229.792L539.608 229.784C539.608 229.784 539.742 220.503 540.817 216.658C541.892 212.813 543.37 205.786 543.37 205.786C543.37 205.786 544.579 196.108 545.788 191.732C546.998 187.357 551.7 162.962 554.119 161.371C556.537 159.78 557.881 162.564 557.881 162.564C557.881 162.564 558.242 162.557 558.848 162.49C558.961 162.744 559.09 163.014 559.233 163.301C562.1 169.095 570.511 180.993 570.511 180.993C573.006 182.532 575.119 184.617 576.691 187.092C578.975 190.937 579.647 199.952 579.647 199.952C579.647 199.952 584.753 219.973 587.171 222.757C588.381 224.149 587.843 224.979 587.005 225.459C585.291 226.397 583.835 227.742 582.764 229.375C582.42 229.921 582.056 230.521 581.686 231.16C580.762 230.946 579.934 230.724 579.244 230.492C572.66 228.28 550.491 228.193 546.863 229.784Z" fill="url(#paint0_linear)"/>
<path d="M579.975 368.942V376.567C579.975 376.567 616.393 377.224 624.413 377.224C632.433 377.224 643.477 373.28 644.134 370.125C644.791 366.969 634.931 364.34 631.25 364.208C627.568 364.077 627.437 362.631 622.704 360.133C620.032 358.723 615.975 354.629 612.951 351.335C610.619 348.792 608.899 346.723 608.899 346.723C608.899 346.723 589.31 346.328 583.656 349.483C582.355 350.212 581.455 351.637 580.845 353.399C578.807 359.286 579.975 368.942 579.975 368.942Z" fill="#313235"/>
<path opacity="0.1" d="M580.845 353.399C584.952 351.971 608.999 351.416 612.951 351.335C610.619 348.792 608.899 346.723 608.899 346.723C608.899 346.723 589.31 346.328 583.656 349.483C582.355 350.212 581.455 351.637 580.845 353.399Z" fill="black"/>
<path d="M475.19 231.814C475.19 231.814 475.95 232.275 477.315 233.098C477.562 233.245 477.828 233.408 478.112 233.579C478.977 234.102 480.015 234.725 481.201 235.44C497.725 245.398 542.799 272.392 545.266 272.177C545.913 272.122 547.856 271.83 550.538 271.393C551.248 271.278 552.01 271.154 552.815 271.017C563.138 269.303 580.293 266.203 582.21 265.34C584.839 264.157 584.314 269.416 583.262 273.886C582.21 278.356 581.421 299.786 582.604 302.547C583.788 305.308 583.262 309.778 583.262 309.778L581.684 333.838L582.736 338.966C582.736 338.966 579.186 341.858 580.632 343.567C582.078 345.276 580.764 352.639 580.764 352.639C584.971 351.061 613.501 350.535 613.501 350.535C613.501 350.535 612.318 340.017 613.369 337.519C614.421 335.021 613.632 320.165 613.632 320.165C613.632 320.165 614.29 308.858 613.106 306.229C611.923 303.599 613.501 286.77 613.501 286.77C613.501 286.77 614.553 276.778 614.815 256.4C615.078 236.022 603.246 235.364 603.246 235.364C603.246 235.364 601.668 235.241 599.273 235.009C594.587 234.56 586.777 233.7 581.561 232.566C580.491 232.346 579.435 232.066 578.397 231.728C571.955 229.535 550.262 229.448 546.712 231.026C544.439 231.938 541.903 231.941 539.628 231.033L539.613 231.026L536.852 226.555L510.481 228.804L507.685 229.043L481.725 231.257L479.939 231.409L475.19 231.814Z" fill="#565387"/>
<path opacity="0.1" d="M580.895 251.982C588.555 255.716 595.865 242.48 599.273 235.009C594.587 234.56 586.777 233.7 581.56 232.566C578.129 238.325 573.551 248.404 580.895 251.982Z" fill="black"/>
<path d="M557.887 162.528C558.047 163.432 558.361 164.302 558.816 165.099C561.621 170.845 569.851 182.643 569.851 182.643C572.299 184.175 574.367 186.243 575.899 188.691C578.134 192.504 578.792 201.444 578.792 201.444C578.792 201.444 583.788 221.297 586.154 224.057C587.337 225.438 586.812 226.261 585.991 226.737C584.31 227.671 582.885 229.005 581.842 230.621C578.395 236.164 572.891 247.157 580.632 250.931C591.15 256.058 601.011 229.185 601.011 229.185C601.011 229.185 599.039 210.121 598.513 206.834C597.987 203.548 594.831 190.006 594.831 190.006C594.831 190.006 592.596 184.221 591.282 180.145C589.967 176.07 586.023 171.337 586.023 171.337C586.023 171.337 578.923 157.137 576.951 155.034C576.036 154.058 574.753 152.828 573.64 151.789C572.355 150.587 571.298 149.643 571.298 149.643C571.298 149.643 557.756 159.372 557.887 162.528Z" fill="#EE8E9E"/>
<path d="M468.748 367.364L492.676 378.013C492.676 378.013 523.704 378.671 529.095 377.224C534.485 375.778 533.302 369.73 526.202 368.547C519.103 367.364 517.393 364.208 515.027 362.762C513.431 361.787 507.762 355.481 504.243 351.484C502.55 349.56 501.354 348.169 501.354 348.169C501.354 348.169 496.752 335.942 483.999 338.703C481.672 339.205 479.526 340.335 477.794 341.968C470.923 348.329 470.326 360.922 470.326 360.922L468.748 367.364Z" fill="#313235"/>
<path opacity="0.1" d="M478.112 233.579C478.977 234.102 480.015 234.725 481.201 235.44C497.725 245.398 542.799 272.392 545.266 272.177C545.913 272.122 547.856 271.83 550.538 271.393C551.248 271.278 552.01 271.154 552.815 271.017C552.847 270.967 552.876 270.917 552.904 270.867C554.229 268.555 555.241 266.078 555.915 263.5C558.676 252.982 545.003 244.962 545.003 244.962L542.11 242.714C538.824 237.179 515.158 231.946 515.158 231.946L512.108 229.898L510.481 228.804L510.052 228.517L506.35 226.03L487.812 227.344L482.306 230.884L481.725 231.257L479.682 232.572L478.112 233.579Z" fill="black"/>
<path opacity="0.1" d="M477.794 341.968C482.826 359.375 503.852 353.691 503.852 353.691L504.243 351.484C502.55 349.56 501.354 348.169 501.354 348.169C501.354 348.169 496.752 335.942 483.999 338.703C481.672 339.205 479.526 340.335 477.794 341.968Z" fill="black"/>
<path d="M472.298 262.974C480.055 262.974 500.039 272.308 500.039 272.308C504.115 275.464 509.636 274.412 509.636 274.412C509.636 274.412 499.907 284.272 500.17 288.348C500.433 292.424 494.648 299.129 494.648 299.129L476.768 334.495C478.083 359.607 503.852 352.639 503.852 352.639L504.903 346.722C506.481 345.934 508.848 338.045 508.848 338.045C508.848 338.045 508.848 334.89 510.425 333.969C512.003 333.049 515.29 323.583 515.29 323.583C515.29 323.583 522.389 311.619 521.995 310.041C521.601 308.464 527.122 300.444 527.122 300.444C527.122 300.444 536.457 291.241 536.063 289.597C535.668 287.954 543.557 279.539 543.557 279.539C546.414 277.327 548.789 274.555 550.538 271.393C551.862 269.081 552.874 266.603 553.549 264.025C555.773 255.556 547.338 248.704 543.97 246.361C543.154 245.793 542.636 245.488 542.636 245.488L539.744 243.24C538.25 240.72 532.539 238.267 526.757 236.34C522.587 234.949 518.377 233.831 515.687 233.161C513.907 232.719 512.792 232.472 512.792 232.472L509.742 230.423L508.669 229.703L507.685 229.043L503.983 226.555L495.734 227.139L485.445 227.87L479.939 231.409L477.315 233.098L467.039 239.703C467.039 239.703 466.768 242.232 466.681 245.627C466.676 245.89 466.671 246.156 466.666 246.429C466.558 253.302 467.297 262.974 472.298 262.974Z" fill="#565387"/>
<path d="M511.871 115.723L514.632 125.584C514.632 125.584 519.497 142.544 520.023 143.727C520.549 144.91 533.302 156.874 533.828 157.137C534.354 157.4 541.298 161.344 541.298 161.344C541.298 161.344 541.848 139.651 541.322 133.341C541.276 131.954 541.391 130.567 541.663 129.207C542.502 124.261 544.624 117.009 546.383 111.424C547.856 106.743 549.079 103.233 549.079 103.233C549.079 103.233 518.314 101.918 519.365 104.942C519.763 106.086 519.634 107.998 519.25 109.915C518.616 113.067 517.291 116.231 516.473 115.986C515.673 115.805 514.856 115.714 514.035 115.715C512.9 115.681 511.871 115.723 511.871 115.723Z" fill="#EE8E9E"/>
<path opacity="0.1" d="M519.25 109.915C523.008 113.052 527.678 114.893 532.567 115.165C537.455 115.437 542.3 114.125 546.383 111.424C547.856 106.743 549.079 103.233 549.079 103.233C549.079 103.233 518.314 101.918 519.366 104.942C519.763 106.086 519.634 107.998 519.25 109.915Z" fill="black"/>
<path d="M556.575 91.6686C556.577 94.0809 556.193 96.4779 555.438 98.7691C555.248 99.3605 555.029 99.942 554.78 100.511C553.009 104.706 550.02 108.273 546.2 110.75C542.379 113.227 537.903 114.5 533.351 114.405C528.799 114.31 524.38 112.851 520.666 110.217C516.952 107.583 514.114 103.895 512.519 99.6304C511.616 97.217 511.136 94.666 511.099 92.0894C511.086 91.9513 511.086 91.8067 511.086 91.6686C511.086 85.6363 513.482 79.8511 517.748 75.5856C522.013 71.3202 527.798 68.9238 533.831 68.9238C539.863 68.9238 545.648 71.3202 549.914 75.5856C554.179 79.8511 556.575 85.6363 556.575 91.6686H556.575Z" fill="#EE8E9E"/>
<path opacity="0.1" d="M511.871 115.723L514.632 125.584C514.632 125.584 519.497 142.544 520.023 143.727C520.549 144.91 533.302 156.874 533.828 157.137C534.354 157.4 541.298 161.345 541.298 161.345C541.298 161.345 541.848 139.651 541.322 133.341C541.276 131.954 541.391 130.567 541.663 129.207L539.875 136.496L540.007 151.09L541.059 151.878L538.692 155.428V152.799C538.692 152.799 530.278 144.647 528.963 141.229C527.648 137.811 522.915 131.621 522.915 131.621C522.915 131.621 517.525 122.56 517.393 120.982C517.291 119.751 515.027 116.906 514.036 115.715C512.9 115.681 511.871 115.723 511.871 115.723Z" fill="black"/>
<path opacity="0.1" d="M557.887 162.528C558.047 163.432 558.361 164.302 558.816 165.099C561.69 164.805 571.484 162.977 573.64 151.789C572.355 150.587 571.298 149.643 571.298 149.643C571.298 149.643 557.756 159.372 557.887 162.528Z" fill="black"/>
<path opacity="0.1" d="M466.666 246.429C469.319 244.552 471.843 241.991 473.35 241.281C475.585 240.229 479.003 236.81 479.003 236.81C479.003 236.81 479.871 236.221 481.201 235.44C483.641 234.01 487.641 231.938 490.704 231.683C493.449 231.454 502.568 230.87 509.742 230.423C514.932 230.097 519.103 229.842 519.103 229.842C519.103 229.842 527.648 226.818 531.33 228.791C533.966 230.111 536.745 231.126 539.612 231.814C539.612 231.814 539.615 231.528 539.628 231.033L539.612 231.026L536.852 226.555L507.685 229.043L503.983 226.555L485.445 227.87L479.939 231.409L475.19 231.814C475.19 231.814 475.95 232.275 477.315 233.098L467.039 239.703C467.039 239.703 466.723 242.64 466.666 246.429Z" fill="black"/>
<path d="M462.832 247.591C464.224 247.178 465.529 246.513 466.681 245.63V245.627C469.329 243.752 471.846 241.199 473.35 240.492C475.585 239.44 479.003 236.022 479.003 236.022C479.003 236.022 485.971 231.289 490.704 230.894C491.995 230.786 494.693 230.6 497.935 230.389C501.254 230.168 505.137 229.921 508.669 229.703C510.704 229.574 512.621 229.453 514.241 229.353C517.144 229.174 519.103 229.053 519.103 229.053C519.103 229.053 527.648 226.03 531.33 228.002C533.966 229.322 536.745 230.337 539.612 231.026C539.612 231.026 539.744 221.822 540.796 218.01C541.847 214.197 543.294 207.229 543.294 207.229C543.294 207.229 544.477 197.631 545.66 193.293C546.844 188.954 551.445 164.763 553.812 163.185C556.178 161.607 557.493 164.368 557.493 164.368C557.493 164.368 573.27 164.105 573.533 146.751C573.533 146.751 566.17 139.388 565.644 137.548C565.118 135.707 558.15 128.871 558.15 128.871C558.15 128.871 554.206 121.508 549.736 121.376C547.624 121.255 545.505 121.32 543.404 121.571L539.612 137.022L539.744 151.615L540.796 152.404L538.429 155.954V153.325C538.429 153.325 530.015 145.173 528.7 141.755C527.385 138.337 522.652 132.147 522.652 132.147C522.652 132.147 517.262 123.086 517.131 121.508C516.999 119.93 513.318 115.702 513.318 115.702C512.575 115.615 511.825 115.615 511.083 115.702C510.751 115.725 510.418 115.678 510.105 115.565C507.982 114.887 505.722 114.759 503.536 115.192C498.99 116.136 492.074 117.864 490.178 119.93C487.286 123.086 483.079 126.11 478.346 139.257L503.852 148.46L501.669 152.609L481.37 191.189C481.37 191.189 480.696 192.285 479.784 193.719V193.721C478.601 195.58 477.018 198.005 475.979 199.34C474.139 201.707 474.664 209.201 474.664 209.201C474.664 209.201 474.27 212.751 472.955 214.065C471.641 215.38 471.904 220.245 471.904 220.245L468.485 232.998C468.485 232.998 465.33 235.89 465.33 237.205C465.33 238.52 462.832 242.201 462.832 242.201C462.832 242.201 459.019 248.512 462.832 247.591Z" fill="#00308F"/>
<path opacity="0.1" d="M597.461 257.057C597.461 257.057 589.178 259.818 586.943 263.762C584.708 267.707 597.461 257.057 597.461 257.057Z" fill="black"/>
<path opacity="0.1" d="M593.254 248.38C592.991 248.775 581.909 259.894 582.604 262.579C583.299 265.264 593.254 248.38 593.254 248.38Z" fill="black"/>
<path opacity="0.1" d="M532.381 256.269C532.381 256.269 520.023 262.097 518.971 264.639C517.919 267.181 532.381 256.269 532.381 256.269Z" fill="black"/>
<path opacity="0.1" d="M531.593 263.763C531.593 263.763 520.439 268.496 518.916 269.679C517.393 270.862 531.593 263.763 531.593 263.763Z" fill="black"/>
<path opacity="0.1" d="M526.465 273.886C526.465 273.886 521.525 277.567 518.802 274.675C516.079 271.782 526.465 273.886 526.465 273.886Z" fill="black"/>
<path opacity="0.1" d="M545.005 177.91C544.74 178.305 528.306 207.886 523.967 210.121C519.628 212.356 545.005 177.91 545.005 177.91Z" fill="black"/>
<path opacity="0.1" d="M544.214 189.085C544.214 189.743 528.174 224.057 525.545 224.452C522.915 224.846 544.214 189.085 544.214 189.085Z" fill="black"/>
<path opacity="0.1" d="M483.21 211.173C483.21 211.173 475.464 227.716 472.429 228.659C469.395 229.602 483.21 211.173 483.21 211.173Z" fill="black"/>
<path opacity="0.1" d="M481.895 203.811C481.895 203.811 479.225 209.595 477.602 209.595C475.979 209.595 481.895 203.811 481.895 203.811Z" fill="black"/>
<path opacity="0.1" d="M556.575 91.6686C556.577 94.0809 556.193 96.4779 555.438 98.7691C555.248 99.3605 555.029 99.942 554.781 100.511C553.613 100.334 552.512 99.8512 551.592 99.111C550.616 98.4496 549.8 97.5779 549.205 96.5601C548.757 95.4756 548.368 94.3672 548.042 93.2399C547.517 91.9676 546.662 90.8585 545.565 90.0274C544.468 89.1964 543.169 88.6735 541.802 88.5128C542.558 89.8014 541.355 91.57 539.876 91.8001C538.397 92.0236 536.957 91.1426 535.938 90.0447C534.919 88.9467 534.182 87.6121 533.17 86.5141C532.151 85.4162 530.711 84.5352 529.232 84.7587C527.923 84.956 526.911 85.9553 525.813 86.6982C524.722 87.4411 523.19 87.9408 522.131 87.1453C521.539 86.7048 521.25 85.9553 520.685 85.4754C519.232 84.2591 516.97 85.5148 515.898 87.0861C514.248 89.5187 513.242 90.9914 511.099 92.0894C511.086 91.9513 511.086 91.8067 511.086 91.6686C511.086 85.6363 513.482 79.8511 517.748 75.5856C522.013 71.3202 527.798 68.9238 533.831 68.9238C539.863 68.9238 545.648 71.3202 549.914 75.5856C554.179 79.8511 556.575 85.6363 556.575 91.6686Z" fill="black"/>
<path d="M515.901 86.4283C516.97 84.8559 519.231 83.5986 520.688 84.821C521.253 85.2954 521.542 86.0456 522.131 86.4899C523.188 87.286 524.722 86.7865 525.815 86.0409C526.908 85.2953 527.923 84.3005 529.231 84.1015C530.711 83.8763 532.152 84.7582 533.169 85.8571C534.185 86.9559 534.921 88.2891 535.937 89.3876C536.954 90.4862 538.396 91.3673 539.876 91.1409C541.355 90.9145 542.561 89.1443 541.801 87.8553C543.167 88.0163 544.466 88.5393 545.563 89.3703C546.659 90.2013 547.514 91.3101 548.039 92.5821C548.366 93.7091 548.754 94.8173 549.203 95.9017C549.799 96.9194 550.615 97.7904 551.593 98.4503C552.799 99.3347 554.261 100.08 555.735 99.824C557.209 99.5675 558.456 97.8788 557.771 96.5489C558.242 97.2642 559.253 96.2679 559.406 95.4253C559.74 93.5772 559.635 91.6768 559.102 89.8762C558.376 87.4324 556.852 85.0089 557.439 82.5279C557.904 80.5637 559.582 79.1533 560.601 77.4108C562.408 74.3219 561.928 70.1609 559.732 67.3361C558.59 65.9517 557.138 64.855 555.494 64.1345C553.85 63.414 552.06 63.0899 550.268 63.1882C549.28 63.3012 548.284 63.3198 547.293 63.2437C545.642 62.9985 544.246 61.936 542.931 60.9092L531.918 52.3128C530.693 51.2329 529.283 50.3833 527.756 49.805C526.2 49.3223 524.334 49.4888 523.182 50.641C521.12 52.7031 522.431 56.2516 521.603 59.0476C520.886 61.4694 518.578 63.1105 516.188 63.9285C513.799 64.7465 511.242 64.9261 508.787 65.5182C508.055 65.639 507.37 65.9579 506.806 66.4405C506.169 67.2262 505.861 68.2278 505.946 69.2357C505.93 71.7092 506.517 74.1494 507.655 76.3454C508.931 78.798 510.952 81.3188 510.236 83.989C509.858 85.4022 508.769 86.4909 507.809 87.595C505.728 89.9886 505.026 93.5253 508.942 92.2898C512.714 91.0997 513.772 89.5574 515.901 86.4283Z" fill="#434175"/>
<g opacity="0.1">
<path opacity="0.1" d="M559.409 92.8332C559.256 93.6758 558.244 94.6721 557.774 93.9569C558.458 95.2868 557.211 96.9754 555.737 97.2319C554.264 97.4884 552.802 96.7426 551.595 95.8583C550.618 95.1984 549.801 94.3274 549.206 93.3097C548.757 92.2253 548.368 91.1171 548.041 89.99C547.516 88.7181 546.661 87.6093 545.565 86.7783C544.468 85.9473 543.17 85.4243 541.803 85.2632C542.564 86.5522 541.357 88.3225 539.878 88.5489C538.399 88.7753 536.956 87.8942 535.94 86.7956C534.923 85.697 534.187 84.3639 533.171 83.265C532.155 82.1662 530.713 81.2843 529.233 81.5094C527.925 81.7085 526.91 82.7032 525.817 83.4489C524.724 84.1945 523.19 84.694 522.134 83.8978C521.544 83.4536 521.255 82.7034 520.69 82.2289C519.233 81.0065 516.973 82.2638 515.903 83.8363C513.774 86.9654 512.716 88.5077 508.944 89.6978C507.706 90.0885 506.931 90.0001 506.514 89.6234C505.687 91.5244 506.064 93.1986 508.944 92.2899C512.716 91.0997 513.774 89.5574 515.903 86.4284C516.973 84.8559 519.233 83.5986 520.69 84.821C521.255 85.2954 521.544 86.0457 522.134 86.4899C523.19 87.2861 524.724 86.7865 525.817 86.0409C526.91 85.2953 527.925 84.3005 529.233 84.1015C530.713 83.8763 532.155 84.7582 533.171 85.8571C534.187 86.956 534.923 88.2891 535.94 89.3877C536.956 90.4863 538.399 91.3674 539.878 91.1409C541.357 90.9145 542.564 89.1443 541.803 87.8553C543.17 88.0163 544.468 88.5394 545.565 89.3704C546.661 90.2014 547.516 91.3101 548.041 92.5821C548.368 93.7092 548.757 94.8174 549.206 95.9017C549.801 96.9195 550.618 97.7904 551.595 98.4503C552.802 99.3347 554.264 100.08 555.737 99.824C557.211 99.5675 558.458 97.8788 557.774 96.5489C558.244 97.2642 559.256 96.2679 559.409 95.4253C559.613 94.2905 559.653 93.1322 559.527 91.986C559.497 92.2696 559.459 92.5525 559.409 92.8332Z" fill="black"/>
<path opacity="0.1" d="M510.205 81.4968C510.215 81.4629 510.23 81.4312 510.239 81.3969C510.954 78.7268 508.933 76.2059 507.658 73.7533C506.763 72.0238 506.208 70.1389 506.023 68.2005C505.974 68.5434 505.949 68.8893 505.948 69.2357C505.932 71.7092 506.519 74.1494 507.658 76.3454C508.529 78.0219 509.749 79.7305 510.205 81.4968Z" fill="black"/>
<path opacity="0.1" d="M560.604 74.8188C559.585 76.5613 557.906 77.9717 557.441 79.9359C557.261 80.7669 557.269 81.6276 557.464 82.4551C557.954 80.5298 559.598 79.131 560.604 77.4109C561.553 75.7261 561.909 73.7716 561.616 71.8602C561.473 72.9026 561.129 73.9074 560.604 74.8188Z" fill="black"/>
</g>
<path opacity="0.1" d="M479.784 193.719V193.721C479.959 194.447 480.093 195.182 480.186 195.922C480.186 195.922 490.573 220.245 491.887 221.691C492.292 222.135 493.818 224.323 495.734 227.139C496.429 228.157 497.173 229.259 497.935 230.389C501.911 236.29 506.35 242.99 506.35 242.99L516.079 251.535C516.079 251.535 537.243 253.229 543.969 246.361C543.154 245.793 542.636 245.488 542.636 245.488L539.744 243.239C538.25 240.72 532.539 238.267 526.757 236.34C521.43 236.379 517.073 236.81 517.073 236.81L515.687 233.161L514.241 229.353L506.886 209.99C506.886 209.99 502.142 185.536 500.565 184.352C498.987 183.169 499.382 179.488 499.382 179.488C499.382 179.488 502.274 169.101 501.222 167.655C500.17 166.209 502.931 155.56 502.931 155.56C502.657 154.52 502.231 153.526 501.669 152.609L481.37 191.189C481.37 191.189 480.696 192.286 479.784 193.719Z" fill="black"/>
<path d="M503.194 154.771C503.194 154.771 500.433 165.42 501.485 166.866C502.537 168.313 499.644 178.699 499.644 178.699C499.644 178.699 499.25 182.38 500.828 183.564C502.405 184.747 507.149 209.201 507.149 209.201L517.335 236.022C517.335 236.022 549.21 232.866 545.923 242.858C542.636 252.85 516.342 250.747 516.342 250.747L506.613 242.201C506.613 242.201 493.465 222.348 492.15 220.902C490.836 219.456 480.449 195.133 480.449 195.133C480.449 195.133 479.923 190.269 477.688 187.771C475.453 185.273 477.162 181.048 477.162 181.048C477.162 181.048 474.402 149.249 477.294 145.436C480.186 141.623 500.17 143.333 503.194 154.771Z" fill="#EE8E9E"/>
<path opacity="0.1" d="M486.891 134.787L478.609 139.783C478.609 139.783 476.242 147.803 474.401 148.855C474.401 148.855 490.967 139.651 503.457 160.819C503.457 160.819 503.063 158.058 504.772 156.743C506.481 155.428 506.087 149.775 506.087 149.775C506.541 148.882 506.937 147.959 507.27 147.014C508.453 144.121 502.274 127.556 486.891 134.787Z" fill="black"/>
<path d="M486.629 134.261L478.346 139.257C478.346 139.257 475.979 147.277 474.139 148.329C474.139 148.329 490.704 139.125 503.194 160.293C503.194 160.293 502.8 157.532 504.509 156.217C506.218 154.902 505.824 149.249 505.824 149.249C506.278 148.356 506.674 147.433 507.007 146.488C508.19 143.596 502.011 127.03 486.629 134.261Z" fill="#00308F"/>
<path d="M412.803 364.506C426.44 364.506 437.495 352.772 437.495 338.297C437.495 323.821 426.44 312.087 412.803 312.087C399.166 312.087 388.111 323.821 388.111 338.297C388.111 352.772 399.166 364.506 412.803 364.506Z" fill="#FBD56F"/>
<path opacity="0.1" d="M412.803 364.506C426.44 364.506 437.495 352.772 437.495 338.297C437.495 323.821 426.44 312.087 412.803 312.087C399.166 312.087 388.111 323.821 388.111 338.297C388.111 352.772 399.166 364.506 412.803 364.506Z" fill="black"/>
<path d="M417.065 364.506C430.702 364.506 441.757 353.033 441.757 338.88C441.757 324.727 430.702 313.254 417.065 313.254C403.428 313.254 392.373 324.727 392.373 338.88C392.373 353.033 403.428 364.506 417.065 364.506Z" fill="#FBD56F"/>
<path d="M59.265 352.7C76.1078 352.7 89.7616 350.392 89.7616 347.545C89.7616 344.697 76.1078 342.389 59.265 342.389C42.4222 342.389 28.7684 344.697 28.7684 347.545C28.7684 350.392 42.4222 352.7 59.265 352.7Z" fill="#446FC8"/>
<path d="M71.8752 339.11C73.1812 337.897 74.4064 336.465 74.7827 334.722C75.159 332.98 74.4163 330.89 72.751 330.253C70.8851 329.54 68.8911 330.833 67.3794 332.139C65.8676 333.445 64.135 334.936 62.1565 334.659C63.1743 333.737 63.9357 332.567 64.3666 331.262C64.7976 329.958 64.8833 328.565 64.6155 327.218C64.5287 326.661 64.2923 326.139 63.9317 325.706C62.8959 324.599 61.0181 325.075 59.7779 325.947C55.8337 328.721 54.7331 334.079 54.7116 338.901C54.3139 337.162 54.6489 335.349 54.6391 333.565C54.6293 331.781 54.1403 329.803 52.6352 328.844C51.6976 328.34 50.6431 328.092 49.5788 328.126C47.8058 328.061 45.8311 328.238 44.6203 329.535C43.1159 331.146 43.5061 333.85 44.8149 335.624C46.1237 337.397 48.1145 338.509 49.947 339.734C51.417 340.61 52.6706 341.805 53.6146 343.232C53.7255 343.431 53.8166 343.64 53.8865 343.857H65.0015C67.4966 342.593 69.8088 340.996 71.8752 339.11Z" fill="#446FC8"/>
<path d="M335.054 313.927C336.413 315.787 337.524 317.816 338.36 319.963C338.58 320.518 338.797 321.101 339.001 321.713C342.287 331.532 337.081 343.307 335.592 342.037C334.104 340.767 329.466 338.41 328.569 341.722C327.672 345.033 324.36 348.418 324.36 348.418C318.324 354.489 312.861 347.93 309.275 341.153C308.103 338.917 307.061 336.615 306.155 334.259C305.359 332.178 304.901 330.74 304.901 330.74L330.04 309.32C330.04 309.32 332.471 310.436 335.054 313.927Z" fill="#446FC8"/>
<path d="M295.433 327.623C296.792 329.483 297.903 331.512 298.739 333.659C298.959 334.214 299.176 334.797 299.38 335.409C302.666 345.228 297.46 357.003 295.971 355.733C294.483 354.463 289.845 352.106 288.948 355.418C288.051 358.729 284.739 362.114 284.739 362.114C278.703 368.185 273.24 361.626 269.654 354.849C268.482 352.613 267.44 350.311 266.534 347.955C265.738 345.874 265.28 344.436 265.28 344.436L290.419 323.017C290.419 323.017 292.85 324.132 295.433 327.623Z" fill="#446FC8"/>
<path d="M215.879 346.544C215.737 348.844 215.298 351.115 214.571 353.301C214.387 353.869 214.182 354.456 213.949 355.057C210.211 364.714 198.689 370.457 198.354 368.529C198.018 366.601 195.952 361.827 193.148 363.804C190.344 365.781 185.633 366.273 185.633 366.273C177.112 367.095 177.092 358.559 178.656 351.053C179.181 348.584 179.848 346.147 180.654 343.754C181.369 341.644 181.935 340.245 181.935 340.245L214.959 339.798C214.959 339.798 216.117 342.208 215.879 346.544Z" fill="#446FC8"/>
<path d="M173.211 335.783C173.069 338.082 172.63 340.354 171.903 342.539C171.719 343.108 171.513 343.695 171.28 344.296C167.543 353.953 156.021 359.695 155.685 357.768C155.35 355.84 153.283 351.066 150.479 353.043C147.676 355.02 142.965 355.512 142.965 355.512C134.444 356.334 134.424 347.797 135.988 340.292C136.513 337.822 137.18 335.386 137.986 332.993C138.701 330.883 139.267 329.484 139.267 329.484L172.29 329.037C172.29 329.037 173.449 331.447 173.211 335.783Z" fill="#446FC8"/>
<path opacity="0.2" d="M335.054 313.927C336.413 315.787 337.524 317.816 338.36 319.963C338.58 320.518 338.797 321.101 339.001 321.713C342.287 331.532 337.081 343.307 335.592 342.037C334.104 340.767 329.466 338.41 328.569 341.722C327.672 345.033 324.36 348.418 324.36 348.418C318.324 354.489 312.861 347.93 309.275 341.153C308.103 338.917 307.061 336.615 306.155 334.259C305.359 332.178 304.901 330.74 304.901 330.74L330.04 309.32C330.04 309.32 332.471 310.436 335.054 313.927Z" fill="black"/>
<path opacity="0.2" d="M295.433 327.623C296.792 329.483 297.903 331.512 298.739 333.659C298.959 334.214 299.176 334.797 299.38 335.409C302.666 345.228 297.46 357.003 295.971 355.733C294.483 354.463 289.845 352.106 288.948 355.418C288.051 358.729 284.739 362.114 284.739 362.114C278.703 368.185 273.24 361.626 269.654 354.849C268.482 352.613 267.44 350.311 266.534 347.955C265.738 345.874 265.28 344.436 265.28 344.436L290.419 323.017C290.419 323.017 292.85 324.132 295.433 327.623Z" fill="black"/>
<path opacity="0.2" d="M215.879 346.544C215.737 348.844 215.298 351.115 214.571 353.301C214.387 353.869 214.182 354.456 213.949 355.057C210.211 364.714 198.689 370.457 198.354 368.529C198.018 366.601 195.952 361.827 193.148 363.804C190.344 365.781 185.633 366.273 185.633 366.273C177.112 367.095 177.092 358.559 178.656 351.053C179.181 348.584 179.848 346.147 180.654 343.754C181.369 341.644 181.935 340.245 181.935 340.245L214.959 339.798C214.959 339.798 216.117 342.208 215.879 346.544Z" fill="black"/>
<path opacity="0.2" d="M173.211 335.783C173.069 338.082 172.63 340.354 171.903 342.539C171.719 343.108 171.513 343.695 171.28 344.296C167.543 353.953 156.021 359.695 155.685 357.768C155.35 355.84 153.283 351.066 150.479 353.043C147.676 355.02 142.965 355.512 142.965 355.512C134.444 356.334 134.424 347.797 135.988 340.292C136.513 337.822 137.18 335.386 137.986 332.993C138.701 330.883 139.267 329.484 139.267 329.484L172.29 329.037C172.29 329.037 173.449 331.447 173.211 335.783Z" fill="black"/>
<path d="M402.111 191.055C402.111 279.258 372.273 350.762 234.578 350.762C142.052 350.762 70.4688 327.772 67.0447 191.055C64.8363 102.879 142.052 31.3477 234.578 31.3477C327.104 31.3477 402.111 102.851 402.111 191.055Z" fill="#446FC8"/>
<path opacity="0.2" d="M203.15 34.1358H203.171C203.166 34.1385 203.161 34.1403 203.155 34.1409L203.15 34.1358Z" fill="black"/>
<path opacity="0.2" d="M203.478 34.082C203.904 34.0136 204.745 33.8962 205.968 33.8032L203.243 34.126C203.282 34.1163 203.331 34.1065 203.39 34.0967C203.419 34.0918 203.444 34.0869 203.478 34.082Z" fill="black"/>
<path opacity="0.2" d="M327.272 99.3393L315.043 103.742C308.809 95.3818 302.102 87.3858 294.954 79.7929C287.152 71.4715 278.639 63.8462 269.513 57.0035C238.203 33.7983 213.985 33.2064 205.987 33.8031L224.37 31.6411C241.743 34.6304 258.451 40.6699 273.72 49.4804C284.402 55.6384 294.351 62.9883 303.377 71.3893C319.382 86.2448 327.272 99.3393 327.272 99.3393Z" fill="black"/>
<path opacity="0.2" d="M216.724 107.655C216.724 107.655 200.582 53.8485 214.278 39.1741C214.278 39.1741 235.801 31.8369 251.943 73.4145L216.724 107.655Z" fill="black"/>
<path d="M298.461 57.3998C298.461 57.3998 341.267 21.0232 360.204 27.6797C360.204 27.6797 375.562 44.449 343.956 75.9186L298.461 57.3998Z" fill="#446FC8"/>
<path opacity="0.2" d="M298.461 57.3998C298.461 57.3998 341.267 21.0232 360.204 27.6797C360.204 27.6797 375.562 44.449 343.956 75.9186L298.461 57.3998Z" fill="black"/>
<path d="M431.949 231.654C431.949 279.065 397.927 316.521 365.914 316.521C333.902 316.521 316.021 279.065 316.021 231.654C316.021 184.243 342.026 147.661 373.985 145.808C424.612 142.873 431.949 184.243 431.949 231.654Z" fill="#446FC8"/>
<path opacity="0.2" d="M431.949 231.654C431.949 279.065 397.927 316.521 365.914 316.521C333.902 316.521 316.021 279.065 316.021 231.654C316.021 184.243 342.026 147.661 373.985 145.808C424.612 142.873 431.949 184.243 431.949 231.654Z" fill="black"/>
<path d="M363.958 252.443C369.901 252.443 374.719 246.311 374.719 238.747C374.719 231.182 369.901 225.05 363.958 225.05C358.014 225.05 353.197 231.182 353.197 238.747C353.197 246.311 358.014 252.443 363.958 252.443Z" fill="#446FC8"/>
<path d="M402.111 240.703C408.055 240.703 412.873 234.571 412.873 227.007C412.873 219.443 408.055 213.311 402.111 213.311C396.168 213.311 391.35 219.443 391.35 227.007C391.35 234.571 396.168 240.703 402.111 240.703Z" fill="#446FC8"/>
<path d="M305.465 62.5553C305.473 65.6232 304.757 68.6496 303.377 71.3894C301.555 75.0298 298.598 77.9792 294.954 79.7929C287.152 71.4715 278.639 63.8462 269.513 57.0035C270.326 54.209 271.765 51.6363 273.72 49.4804C275.405 47.6013 277.467 46.0969 279.77 45.0647C282.074 44.0326 284.569 43.4955 287.093 43.4884C297.238 43.4884 305.465 52.024 305.465 62.5553Z" fill="#FAD46F"/>
</g>
<defs>
<linearGradient id="paint0_linear" x1="552.933" y1="378.162" x2="552.933" y2="46.7775" gradientUnits="userSpaceOnUse">
<stop stop-color="#808080" stop-opacity="0.25"/>
<stop offset="0.53514" stop-color="#808080" stop-opacity="0.12"/>
<stop offset="1" stop-color="#808080" stop-opacity="0.1"/>
</linearGradient>
<clipPath id="clip0">
<rect width="735" height="403" fill="white"/>
</clipPath>
</defs>
</svg>
