<svg width="375" height="350" viewBox="0 0 375 350" fill="none" xmlns="http://www.w3.org/2000/svg">
<g clip-path="url(#clip0)">
<g clip-path="url(#clip1)">
<path d="M350.042 202.873C350.042 234.981 369.066 246.193 392.532 246.193C415.999 246.193 435.023 234.981 435.023 202.873C435.023 170.765 392.532 129.918 392.532 129.918C392.532 129.918 350.042 170.765 350.042 202.873Z" fill="#F2F2F2"/>
<path d="M223.616 216.024C223.616 242.306 239.188 251.483 258.397 251.483C277.605 251.483 293.177 242.306 293.177 216.024C293.177 189.741 258.397 156.306 258.397 156.306C258.397 156.306 223.616 189.741 223.616 216.024Z" fill="#F2F2F2"/>
<path d="M259.664 247.462L259.308 225.467L244.483 198.254L259.252 222.016L259.092 212.126L248.875 192.438L259.049 209.508L258.761 191.72L247.821 176.046L258.716 188.923L258.536 156.306L259.667 199.485L259.574 197.704L270.697 180.62L259.752 201.123L260.789 220.99L260.82 220.462L273.643 202.484L260.858 222.325L260.988 224.81L261.011 224.847L261.001 225.051L263.63 275.453H260.117L259.695 249.419L246.943 229.627L259.664 247.462Z" fill="#3F3D56"/>
<path d="M343.555 280.563C278.65 280.563 226.034 277.895 226.034 274.603C226.034 271.311 278.65 268.642 343.555 268.642C408.459 268.642 461.075 271.311 461.075 274.603C461.075 277.895 408.459 280.563 343.555 280.563Z" fill="#3F3D56"/>
<path d="M271.962 285.472C260.845 285.472 251.833 285.015 251.833 284.451C251.833 283.887 260.845 283.43 271.962 283.43C283.079 283.43 292.091 283.887 292.091 284.451C292.091 285.015 283.079 285.472 271.962 285.472Z" fill="#3F3D56"/>
<path d="M344.799 295.32C333.682 295.32 324.67 294.863 324.67 294.299C324.67 293.735 333.682 293.278 344.799 293.278C355.916 293.278 364.927 293.735 364.927 294.299C364.927 294.863 355.916 295.32 344.799 295.32Z" fill="#3F3D56"/>
<path d="M400.058 288.374C374.661 288.374 354.072 287.33 354.072 286.042C354.072 284.754 374.661 283.709 400.058 283.709C425.456 283.709 446.045 284.754 446.045 286.042C446.045 287.33 425.456 288.374 400.058 288.374Z" fill="#3F3D56"/>
<path d="M308.668 263.488L313.529 264.987L310.852 273.726L305.991 272.227L308.668 263.488Z" fill="#2F2E41"/>
<path d="M298.945 260.491L303.806 261.99L301.13 270.729L296.268 269.23L298.945 260.491Z" fill="#2F2E41"/>
<path d="M306.303 274.103C304.066 273.413 302.461 272.172 302.719 271.33C302.977 270.488 304.999 270.365 307.237 271.055C309.474 271.745 311.079 272.986 310.821 273.828C310.563 274.67 308.54 274.793 306.303 274.103Z" fill="#2F2E41"/>
<path d="M296.643 270.902C294.405 270.212 292.8 268.97 293.058 268.128C293.316 267.287 295.339 267.163 297.576 267.853C299.814 268.543 301.418 269.785 301.161 270.627C300.903 271.469 298.88 271.592 296.643 270.902Z" fill="#2F2E41"/>
<path d="M310.936 251.689C307.776 251.689 305.215 249.118 305.215 245.948C305.215 242.777 307.776 240.207 310.936 240.207C314.096 240.207 316.658 242.777 316.658 245.948C316.658 249.118 314.096 251.689 310.936 251.689Z" fill="white"/>
<path d="M339.952 257.546C339.952 268.295 346.321 272.049 354.177 272.049C354.359 272.049 354.541 272.047 354.723 272.043C355.087 272.035 355.447 272.017 355.803 271.993C362.894 271.489 368.403 267.543 368.403 257.546C368.403 247.2 355.226 234.145 354.236 233.178L354.235 233.177C354.196 233.139 354.177 233.121 354.177 233.121C354.177 233.121 339.952 246.796 339.952 257.546Z" fill="#EEB4D1"/>
<path d="M354.696 270.404L349.493 263.11L354.709 271.205L354.723 272.043C355.087 272.035 355.447 272.017 355.803 271.993L355.243 261.238L355.247 261.155L355.237 261.139L355.184 260.123L360.413 252.008L355.168 259.361L355.156 259.577L354.732 251.451L359.209 243.065L354.677 250.025L354.236 233.178L354.235 233.121V233.177L354.308 246.461L349.852 241.195L354.326 247.606L354.444 254.881L350.283 247.899L354.462 255.952L354.528 259.996L348.487 250.278L354.55 261.408L354.696 270.404Z" fill="#3F3D56"/>
<path d="M284.009 262.029C284.009 273.739 290.947 277.828 299.506 277.828C299.704 277.828 299.902 277.826 300.1 277.821C300.496 277.813 300.889 277.794 301.277 277.767C309.001 277.219 315.003 272.92 315.003 262.029C315.003 250.758 300.648 236.536 299.57 235.484L299.568 235.482C299.527 235.441 299.506 235.421 299.506 235.421C299.506 235.421 284.009 250.319 284.009 262.029Z" fill="#60E1D7"/>
<path d="M300.071 276.037L294.403 268.09L300.085 276.909L300.1 277.821C300.496 277.813 300.889 277.794 301.277 277.767L300.666 266.051L300.671 265.96L300.661 265.943L300.603 264.837L306.299 255.996L300.585 264.007L300.572 264.242L300.11 255.39L304.987 246.254L300.051 253.836L299.57 235.484L299.568 235.421V235.482L299.648 249.954L294.794 244.217L299.668 251.201L299.797 259.126L295.264 251.52L299.816 260.292L299.887 264.699L293.307 254.112L299.912 266.236L300.071 276.037Z" fill="#3F3D56"/>
</g>
<g clip-path="url(#clip2)">
<path d="M108.793 203.493C108.793 247.046 134.639 262.254 166.521 262.254C198.403 262.254 224.249 247.046 224.249 203.493C224.249 159.94 166.521 104.534 166.521 104.534C166.521 104.534 108.793 159.94 108.793 203.493Z" fill="#F2F2F2"/>
<path d="M168.624 255.591L168.033 219.141L143.428 174.048L167.94 213.423L167.674 197.034L150.716 164.409L167.604 192.697L167.126 163.22L148.967 137.246L167.051 158.585L166.752 104.534L168.629 176.087L168.475 173.135L186.937 144.826L168.771 178.802L170.491 211.722L170.542 210.849L191.826 181.057L170.607 213.936L170.822 218.053L170.86 218.115L170.843 218.453L175.207 301.976H169.376L168.676 258.834L147.509 226.036L168.624 255.591Z" fill="#3F3D56"/>
<path d="M-62.9719 221.331C-62.9719 256.982 -41.8159 269.429 -15.7187 269.429C10.3786 269.429 31.5345 256.982 31.5345 221.331C31.5345 185.681 -15.7187 140.329 -15.7187 140.329C-15.7187 140.329 -62.9719 185.681 -62.9719 221.331Z" fill="#FFF3CC"/>
<path d="M-13.9973 263.976L-14.481 234.14L-34.6215 197.229L-14.557 229.46L-14.7746 216.044L-28.6554 189.339L-14.8322 212.494L-15.2235 188.366L-30.0871 167.105L-15.2848 184.572L-15.5295 140.329L-13.993 198.898L-14.1194 196.482L0.992973 173.309L-13.877 201.12L-12.4689 228.067L-12.4268 227.352L4.99477 202.966L-12.3741 229.879L-12.198 233.249L-12.1666 233.3L-12.181 233.576L-8.60843 301.944H-13.3815L-13.9541 266.63L-31.2804 239.784L-13.9973 263.976Z" fill="#3F3D56"/>
<path d="M99.9786 308.876C11.7975 308.876 -59.6875 305.256 -59.6875 300.79C-59.6875 296.325 11.7975 292.705 99.9786 292.705C188.16 292.705 259.645 296.325 259.645 300.79C259.645 305.256 188.16 308.876 99.9786 308.876Z" fill="#3F3D56"/>
<path d="M2.7114 315.533C-12.392 315.533 -24.6357 314.913 -24.6357 314.149C-24.6357 313.384 -12.392 312.764 2.7114 312.764C17.8148 312.764 30.0584 313.384 30.0584 314.149C30.0584 314.913 17.8148 315.533 2.7114 315.533Z" fill="#3F3D56"/>
<path d="M101.669 328.892C86.5659 328.892 74.3222 328.272 74.3222 327.507C74.3222 326.742 86.5659 326.122 101.669 326.122C116.773 326.122 129.016 326.742 129.016 327.507C129.016 328.272 116.773 328.892 101.669 328.892Z" fill="#3F3D56"/>
<path d="M176.746 319.47C142.24 319.47 114.268 318.054 114.268 316.307C114.268 314.559 142.24 313.143 176.746 313.143C211.252 313.143 239.224 314.559 239.224 316.307C239.224 318.054 211.252 319.47 176.746 319.47Z" fill="#3F3D56"/>
<path d="M221.541 285.854L228.45 285.772L228.596 298.173L221.687 298.254L221.541 285.854Z" fill="#2F2E41"/>
<path d="M230.901 298.29C230.887 297.095 233.453 296.097 236.633 296.059C239.813 296.021 242.402 296.959 242.416 298.154C242.43 299.348 239.864 300.347 236.684 300.385C233.504 300.422 230.915 299.484 230.901 298.29Z" fill="#2F2E41"/>
<path d="M217.079 298.165C217.065 296.97 219.632 295.971 222.811 295.934C225.991 295.896 228.58 296.834 228.594 298.029C228.609 299.223 226.042 300.222 222.862 300.26C219.683 300.297 217.093 299.359 217.079 298.165Z" fill="#2F2E41"/>
<path d="M197 280.562C197 296.446 206.426 301.993 218.054 301.993C218.324 301.993 218.593 301.99 218.861 301.984C219.4 301.972 219.933 301.946 220.461 301.91C230.955 301.166 239.108 295.335 239.108 280.562C239.108 265.274 219.606 245.983 218.141 244.555L218.139 244.553C218.082 244.498 218.054 244.471 218.054 244.471C218.054 244.471 197 264.678 197 280.562Z" fill="#60E1D7"/>
<path d="M218.821 299.563L211.121 288.784L218.841 300.746L218.861 301.984C219.4 301.972 219.934 301.946 220.461 301.91L219.631 286.018L219.637 285.895L219.623 285.872L219.545 284.371L227.284 272.379L219.52 283.245L219.503 283.564L218.875 271.557L225.501 259.165L218.794 269.449L218.142 244.555L218.139 244.471V244.553L218.248 264.183L211.652 256.401L218.275 265.874L218.449 276.625L212.291 266.307L218.475 278.207L218.573 284.183L209.632 269.823L218.606 286.269L218.821 299.563Z" fill="#3F3D56"/>
<path d="M52.5803 285.714L59.185 287.747L55.5483 299.602L48.9436 297.568L52.5803 285.714Z" fill="#2F2E41"/>
<path d="M39.3713 281.648L45.976 283.682L42.3394 295.536L35.7347 293.503L39.3713 281.648Z" fill="#2F2E41"/>
<path d="M49.3677 300.113C46.328 299.177 44.1478 297.492 44.4981 296.351C44.8484 295.209 47.5966 295.042 50.6363 295.977C53.6761 296.913 55.8563 298.598 55.506 299.739C55.1556 300.881 52.4075 301.048 49.3677 300.113Z" fill="#2F2E41"/>
<path d="M36.243 295.77C33.2032 294.834 31.023 293.15 31.3734 292.008C31.7237 290.866 34.4719 290.699 37.5116 291.635C40.5514 292.571 42.7316 294.255 42.3813 295.397C42.0309 296.539 39.2827 296.706 36.243 295.77Z" fill="#2F2E41"/>
<path d="M55.6626 269.709C51.3695 269.709 47.8893 266.222 47.8893 261.922C47.8893 257.621 51.3695 254.135 55.6626 254.135C59.9556 254.135 63.4359 257.621 63.4359 261.922C63.4359 266.222 59.9556 269.709 55.6626 269.709Z" fill="white"/>
<path d="M95.0843 277.653C95.0843 292.234 103.737 297.326 114.411 297.326C114.658 297.326 114.905 297.323 115.152 297.317C115.646 297.307 116.136 297.283 116.62 297.25C126.253 296.567 133.738 291.214 133.738 277.653C133.738 263.62 115.836 245.911 114.491 244.601L114.489 244.599C114.437 244.548 114.411 244.523 114.411 244.523C114.411 244.523 95.0843 263.072 95.0843 277.653Z" fill="#60E1D7"/>
<path d="M115.115 295.095L108.046 285.201L115.133 296.181L115.152 297.317C115.646 297.307 116.136 297.283 116.62 297.25L115.858 282.662L115.864 282.549L115.851 282.528L115.779 281.15L122.883 270.142L115.757 280.116L115.74 280.409L115.165 269.387L121.246 258.012L115.09 267.452L114.491 244.601L114.489 244.523V244.599L114.589 262.618L108.534 255.474L114.613 264.171L114.774 274.039L109.12 264.568L114.797 275.491L114.887 280.978L106.679 267.795L114.917 282.892L115.115 295.095Z" fill="#3F3D56"/>
<path d="M19.0792 283.735C19.0792 299.619 28.505 305.165 40.1332 305.165C40.4026 305.165 40.6715 305.162 40.9401 305.156C41.4788 305.145 42.0125 305.119 42.5397 305.083C53.034 304.339 61.1872 298.507 61.1872 283.735C61.1872 268.447 41.6854 249.156 40.2205 247.728L40.2179 247.725C40.1614 247.67 40.1332 247.643 40.1332 247.643C40.1332 247.643 19.0792 267.85 19.0792 283.735Z" fill="#BDFFFD"/>
<path d="M40.9003 302.735L33.1999 291.956L40.9195 303.919L40.94 305.156C41.4788 305.145 42.0124 305.119 42.5397 305.083L41.7097 289.191L41.7161 289.068L41.702 289.044L41.6238 287.543L49.3627 275.552L41.5994 286.418L41.5814 286.736L40.9541 274.729L47.5796 262.337L40.8733 272.622L40.2204 247.728L40.2178 247.643V247.725L40.3269 267.356L33.7309 259.573L40.3538 269.047L40.5283 279.797L34.3697 269.48L40.5539 281.379L40.6514 287.356L31.7106 272.996L40.6848 289.441L40.9003 302.735Z" fill="#3F3D56"/>
</g>
<g filter="url(#filter0_d)">
<path fill-rule="evenodd" clip-rule="evenodd" d="M105.304 3.72571C90.987 3.72571 79.3811 15.3316 79.3811 29.6482V63.1968H75.4933C74.4911 63.1968 73.6787 64.0093 73.6787 65.0114V79.0652C73.6787 80.0674 74.4911 80.8798 75.4933 80.8798H79.3811V96.2224H75.4933C74.4911 96.2224 73.6787 97.0348 73.6787 98.0369V126.133C73.6787 127.135 74.4911 127.948 75.4933 127.948H79.3811V136.529H75.4933C74.4911 136.529 73.6787 137.342 73.6787 138.344V166.44C73.6787 167.442 74.4911 168.254 75.4933 168.254H79.3811V418.317C79.3811 432.634 90.987 444.239 105.304 444.239H268.128C282.444 444.239 294.05 432.634 294.05 418.317V29.6482C294.05 15.3316 282.444 3.72571 268.128 3.72571H105.304Z" fill="url(#paint0_linear)"/>
</g>
<g filter="url(#filter1_d)">
<path fill-rule="evenodd" clip-rule="evenodd" d="M78.6554 29.6483C78.6554 14.9309 90.5863 3 105.304 3H268.128C282.845 3 294.776 14.9309 294.776 29.6483V418.317C294.776 433.035 282.845 444.965 268.128 444.965H105.304C90.5862 444.965 78.6554 433.035 78.6554 418.317V168.98H75.4933C74.0903 168.98 72.9529 167.843 72.9529 166.44V138.344C72.9529 136.941 74.0903 135.803 75.4933 135.803H78.6554V128.674H75.4933C74.0903 128.674 72.9529 127.536 72.9529 126.133V98.0371C72.9529 96.634 74.0903 95.4967 75.4933 95.4967H78.6554V81.6058H75.4933C74.0903 81.6058 72.9529 80.4684 72.9529 79.0654V65.0115C72.9529 63.6085 74.0903 62.4711 75.4933 62.4711H78.6554V29.6483ZM79.3812 29.6483C79.3812 15.3317 90.9871 3.72583 105.304 3.72583H268.128C282.445 3.72583 294.05 15.3317 294.05 29.6483V418.317C294.05 432.634 282.445 444.24 268.128 444.24H105.304C90.9871 444.24 79.3812 432.634 79.3812 418.317V168.255H75.4933C74.4912 168.255 73.6788 167.442 73.6788 166.44V138.344C73.6788 137.342 74.4912 136.529 75.4933 136.529H79.3812V127.948H75.4933C74.4912 127.948 73.6788 127.135 73.6788 126.133V98.0371C73.6788 97.0349 74.4912 96.2225 75.4933 96.2225H79.3812V80.8799H75.4933C74.4912 80.8799 73.6788 80.0675 73.6788 79.0654V65.0115C73.6788 64.0094 74.4912 63.197 75.4933 63.197H79.3812V29.6483Z" fill="black" fill-opacity="0.04"/>
</g>
<path fill-rule="evenodd" clip-rule="evenodd" d="M89.2323 34.9248V411.838C89.2323 424.007 99.0973 433.872 111.266 433.872H261.617C273.786 433.872 283.651 424.007 283.651 411.838V34.9248C283.651 22.7556 273.786 12.8906 261.617 12.8906H111.266C99.0973 12.8906 89.2323 22.7557 89.2323 34.9248Z" fill="#FF3B3B"/>
<path d="M89.4532 34.9248C89.4532 22.7557 99.3182 12.8906 111.487 12.8906H261.838C274.007 12.8906 283.872 22.7556 283.872 34.9248V411.838C283.872 424.007 274.007 433.872 261.838 433.872H111.487C99.3182 433.872 89.4532 424.007 89.4532 411.838V34.9248Z" fill="#F5F8FF"/>
<path fill-rule="evenodd" clip-rule="evenodd" d="M89.1018 34.9239C89.1018 22.6832 99.0248 12.7601 111.266 12.7601H261.616C273.857 12.7601 283.78 22.6832 283.78 34.9239V411.837C283.78 424.078 273.857 434.001 261.616 434.001H111.266C99.0248 434.001 89.1018 424.078 89.1018 411.837V34.9239ZM111.266 13.0194C99.168 13.0194 89.361 22.8264 89.361 34.9239V411.837C89.361 423.935 99.168 433.742 111.266 433.742H261.616C273.714 433.742 283.521 423.935 283.521 411.837V34.9239C283.521 22.8263 273.714 13.0194 261.616 13.0194H111.266Z" fill="#979797"/>
<path d="M145.611 86.1107C149.546 86.1107 152.736 82.9087 152.736 78.9588C152.736 75.0089 149.546 71.8069 145.611 71.8069C141.675 71.8069 138.485 75.0089 138.485 78.9588C138.485 82.9087 141.675 86.1107 145.611 86.1107Z" fill="#FF6584"/>
<path d="M180.279 105.792C180.279 122.667 170.284 128.559 157.954 128.559C145.625 128.559 135.63 122.667 135.63 105.792C135.63 88.9167 157.954 67.4487 157.954 67.4487C157.954 67.4487 180.279 88.9167 180.279 105.792Z" fill="#F2F2F2"/>
<path d="M157.141 125.978L157.37 111.855L166.885 94.3827L157.406 109.64L157.508 103.289L164.066 90.6482L157.536 101.609L157.72 90.1874L164.743 80.1236L157.75 88.3914L157.865 67.4487L157.139 95.173L157.199 94.0293L150.059 83.0604L157.084 96.2248L156.419 108.98L156.399 108.642L148.168 97.0988L156.374 109.838L156.291 111.433L156.276 111.457L156.283 111.588L154.595 143.95H156.85L157.121 127.235L165.306 114.527L157.141 125.978Z" fill="#3F3D56"/>
<path d="M246.704 112.704C246.704 126.517 238.522 131.34 228.43 131.34C218.338 131.34 210.156 126.517 210.156 112.704C210.156 98.8903 228.43 81.3177 228.43 81.3177C228.43 81.3177 246.704 98.8903 246.704 112.704Z" fill="#F2F2F2"/>
<path d="M227.764 129.227L227.951 117.666L235.74 103.365L227.981 115.853L228.065 110.655L233.433 100.308L228.087 109.279L228.238 99.9304L233.986 91.6927L228.262 98.4604L228.357 81.3177L227.762 104.011L227.811 103.075L221.967 94.0966L227.718 104.872L227.173 115.313L227.157 115.036L220.42 105.588L227.136 116.015L227.068 117.321L227.056 117.341L227.062 117.448L225.68 143.938H227.526L227.747 130.255L234.448 119.853L227.764 129.227Z" fill="#3F3D56"/>
<path d="M198.642 146.294C241.83 146.294 276.84 145.011 276.84 143.428C276.84 141.845 241.83 140.562 198.642 140.562C155.455 140.562 120.445 141.845 120.445 143.428C120.445 145.011 155.455 146.294 198.642 146.294Z" fill="#3F3D56"/>
<path d="M221.303 149.204C227.143 149.204 231.878 148.963 231.878 148.667C231.878 148.371 227.143 148.13 221.303 148.13C215.462 148.13 210.727 148.371 210.727 148.667C210.727 148.963 215.462 149.204 221.303 149.204Z" fill="#3F3D56"/>
<path d="M183.034 154.379C188.874 154.379 193.609 154.139 193.609 153.843C193.609 153.547 188.874 153.306 183.034 153.306C177.193 153.306 172.458 153.547 172.458 153.843C172.458 154.139 177.193 154.379 183.034 154.379Z" fill="#3F3D56"/>
<path d="M154 150.729C167.344 150.729 178.162 150.18 178.162 149.503C178.162 148.826 167.344 148.277 154 148.277C140.656 148.277 129.839 148.826 129.839 149.503C129.839 150.18 140.656 150.729 154 150.729Z" fill="#3F3D56"/>
<path d="M100.793 149.57C109.837 149.57 117.169 149.02 117.169 148.341C117.169 147.663 109.837 147.113 100.793 147.113C91.7484 147.113 84.4164 147.663 84.4164 148.341C84.4164 149.02 91.7484 149.57 100.793 149.57Z" fill="#3F3D56"/>
<path d="M136.677 137.704L134.005 137.672L133.949 142.477L136.621 142.509L136.677 137.704Z" fill="#2F2E41"/>
<path d="M133.057 142.522C133.063 142.059 132.07 141.672 130.841 141.658C129.611 141.643 128.61 142.007 128.604 142.47C128.599 142.932 129.591 143.319 130.821 143.334C132.051 143.349 133.052 142.985 133.057 142.522Z" fill="#2F2E41"/>
<path d="M138.403 142.474C138.408 142.011 137.416 141.624 136.186 141.609C134.956 141.595 133.955 141.958 133.949 142.421C133.944 142.884 134.936 143.271 136.166 143.285C137.396 143.3 138.397 142.937 138.403 142.474Z" fill="#2F2E41"/>
<path d="M146.167 135.653C146.167 141.808 142.522 143.957 138.025 143.957C137.921 143.957 137.817 143.956 137.713 143.954C137.505 143.949 137.299 143.939 137.095 143.925C133.037 143.637 129.884 141.377 129.884 135.653C129.884 129.73 137.425 122.255 137.992 121.702L137.993 121.701C138.015 121.68 138.025 121.669 138.025 121.669C138.025 121.669 146.167 129.499 146.167 135.653Z" fill="#60E1D7"/>
<path d="M137.729 143.015L140.707 138.839L137.721 143.474L137.713 143.953C137.505 143.949 137.299 143.939 137.095 143.925L137.416 137.767L137.413 137.72L137.419 137.711L137.449 137.129L134.456 132.483L137.458 136.693L137.465 136.816L137.708 132.164L135.146 127.363L137.739 131.347L137.992 121.702L137.993 121.669V121.701L137.951 129.307L140.501 126.292L137.94 129.962L137.873 134.128L140.254 130.13L137.863 134.741L137.825 137.056L141.283 131.492L137.812 137.865L137.729 143.015Z" fill="#3F3D56"/>
<path d="M202.017 137.65L199.463 138.437L200.87 143.031L203.424 142.243L202.017 137.65Z" fill="#2F2E41"/>
<path d="M207.126 136.074L204.571 136.862L205.978 141.455L208.532 140.668L207.126 136.074Z" fill="#2F2E41"/>
<path d="M203.26 143.229C204.435 142.866 205.278 142.213 205.143 141.771C205.007 141.328 203.945 141.264 202.769 141.626C201.594 141.989 200.75 142.642 200.886 143.084C201.021 143.526 202.084 143.591 203.26 143.229Z" fill="#2F2E41"/>
<path d="M208.335 141.546C209.511 141.183 210.354 140.531 210.218 140.088C210.083 139.646 209.02 139.581 207.845 139.944C206.669 140.306 205.826 140.959 205.961 141.401C206.097 141.844 207.16 141.909 208.335 141.546Z" fill="#2F2E41"/>
<path d="M200.825 131.448C202.486 131.448 203.831 130.097 203.831 128.431C203.831 126.765 202.486 125.414 200.825 125.414C199.165 125.414 197.819 126.765 197.819 128.431C197.819 130.097 199.165 131.448 200.825 131.448Z" fill="white"/>
<path d="M185.58 134.526C185.58 140.176 182.234 142.149 178.106 142.149C178.011 142.149 177.915 142.148 177.82 142.145C177.629 142.141 177.439 142.132 177.252 142.119C173.527 141.855 170.632 139.781 170.632 134.526C170.632 129.089 177.555 122.227 178.075 121.72L178.076 121.719C178.096 121.699 178.106 121.689 178.106 121.689C178.106 121.689 185.58 128.877 185.58 134.526Z" fill="#60E1D7"/>
<path d="M177.834 141.284L180.568 137.451L177.827 141.705L177.82 142.145C177.629 142.141 177.439 142.132 177.252 142.119L177.547 136.467L177.544 136.423L177.549 136.415L177.577 135.881L174.83 131.616L177.586 135.481L177.592 135.594L177.815 131.323L175.463 126.916L177.844 130.574L178.075 121.72L178.076 121.689V121.719L178.038 128.701L180.379 125.933L178.028 129.302L177.966 133.126L180.152 129.456L177.957 133.689L177.922 135.814L181.096 130.707L177.91 136.556L177.834 141.284Z" fill="#3F3D56"/>
<path d="M214.973 136.883C214.973 143.037 211.328 145.186 206.831 145.186C206.727 145.186 206.623 145.185 206.519 145.183C206.31 145.178 206.104 145.168 205.9 145.154C201.842 144.866 198.689 142.607 198.689 136.883C198.689 130.959 206.231 123.484 206.797 122.931L206.798 122.93C206.82 122.909 206.831 122.898 206.831 122.898C206.831 122.898 214.973 130.728 214.973 136.883Z" fill="#60E1D7"/>
<path d="M206.534 144.245L209.512 140.068L206.527 144.703L206.519 145.183C206.31 145.178 206.104 145.168 205.9 145.154L206.221 138.997L206.219 138.949L206.224 138.94L206.254 138.358L203.262 133.712L206.264 137.922L206.271 138.046L206.513 133.393L203.951 128.592L206.545 132.577L206.797 122.931L206.798 122.898V122.93L206.756 130.536L209.307 127.521L206.746 131.192L206.678 135.357L209.06 131.359L206.668 135.97L206.63 138.286L210.088 132.722L206.618 139.094L206.534 144.245Z" fill="#3F3D56"/>
<path d="M127.779 230.451H126.995L123.765 225.422H123.733C123.776 226.012 123.798 226.553 123.798 227.045V230.451H123.163V224.459H123.939L127.16 229.467H127.193C127.187 229.394 127.175 229.157 127.156 228.758C127.137 228.357 127.131 228.07 127.136 227.898V224.459H127.779V230.451Z" fill="#504E49"/>
<path d="M133.374 228.201C133.374 228.933 133.192 229.506 132.829 229.918C132.465 230.328 131.962 230.533 131.321 230.533C130.925 230.533 130.573 230.439 130.266 230.25C129.959 230.062 129.722 229.791 129.555 229.439C129.388 229.086 129.304 228.674 129.304 228.201C129.304 227.469 129.485 226.899 129.846 226.492C130.207 226.082 130.708 225.877 131.349 225.877C131.969 225.877 132.461 226.086 132.825 226.504C133.191 226.922 133.374 227.488 133.374 228.201ZM129.999 228.201C129.999 228.775 130.113 229.212 130.339 229.512C130.565 229.813 130.898 229.963 131.337 229.963C131.776 229.963 132.109 229.814 132.335 229.517C132.565 229.216 132.679 228.777 132.679 228.201C132.679 227.63 132.565 227.197 132.335 226.902C132.109 226.604 131.774 226.455 131.329 226.455C130.89 226.455 130.558 226.601 130.335 226.894C130.111 227.186 129.999 227.622 129.999 228.201Z" fill="#504E49"/>
<path d="M138.42 230.451L137.608 227.816C137.557 227.655 137.461 227.288 137.321 226.717H137.288C137.181 227.196 137.086 227.564 137.005 227.824L136.169 230.451H135.393L134.184 225.959H134.888C135.173 227.088 135.39 227.947 135.538 228.537C135.689 229.127 135.775 229.525 135.797 229.73H135.829C135.859 229.574 135.906 229.373 135.971 229.127C136.038 228.879 136.096 228.682 136.145 228.537L136.957 225.959H137.685L138.477 228.537C138.628 229.007 138.73 229.402 138.784 229.721H138.816C138.827 229.623 138.855 229.471 138.901 229.267C138.95 229.062 139.231 227.959 139.746 225.959H140.441L139.216 230.451H138.42Z" fill="#504E49"/>
<path d="M145.323 229.971C145.441 229.971 145.556 229.963 145.666 229.947C145.777 229.928 145.865 229.909 145.929 229.889V230.41C145.856 230.445 145.749 230.474 145.606 230.496C145.466 230.521 145.339 230.533 145.226 230.533C144.369 230.533 143.941 230.075 143.941 229.16V226.488H143.306V226.16L143.941 225.877L144.224 224.918H144.612V225.959H145.897V226.488H144.612V229.131C144.612 229.402 144.675 229.609 144.802 229.754C144.928 229.899 145.102 229.971 145.323 229.971Z" fill="#504E49"/>
<path d="M150.098 230.451V227.545C150.098 227.179 150.016 226.906 149.851 226.726C149.687 226.545 149.43 226.455 149.08 226.455C148.613 226.455 148.273 226.584 148.057 226.84C147.844 227.097 147.738 227.518 147.738 228.103V230.451H147.067V224.074H147.738V226.004C147.738 226.237 147.727 226.429 147.705 226.582H147.746C147.878 226.366 148.065 226.197 148.308 226.074C148.553 225.948 148.832 225.885 149.144 225.885C149.686 225.885 150.091 226.017 150.361 226.279C150.633 226.538 150.769 226.952 150.769 227.521V230.451H150.098Z" fill="#504E49"/>
<path d="M155.124 230.451L154.99 229.812H154.958C154.737 230.093 154.516 230.284 154.295 230.385C154.077 230.484 153.803 230.533 153.475 230.533C153.035 230.533 152.691 230.418 152.44 230.189C152.192 229.959 152.068 229.633 152.068 229.209C152.068 228.302 152.784 227.827 154.214 227.783L154.966 227.758V227.48C154.966 227.127 154.891 226.868 154.74 226.701C154.592 226.532 154.353 226.447 154.024 226.447C153.655 226.447 153.238 226.562 152.771 226.791L152.565 226.271C152.784 226.15 153.022 226.056 153.281 225.988C153.542 225.92 153.803 225.885 154.065 225.885C154.593 225.885 154.984 226.004 155.237 226.242C155.493 226.48 155.621 226.861 155.621 227.385V230.451H155.124ZM153.608 229.971C154.026 229.971 154.353 229.855 154.59 229.623C154.83 229.391 154.95 229.066 154.95 228.648V228.242L154.279 228.271C153.745 228.29 153.36 228.374 153.123 228.525C152.889 228.672 152.771 228.903 152.771 229.217C152.771 229.463 152.844 229.65 152.99 229.779C153.138 229.907 153.344 229.971 153.608 229.971Z" fill="#504E49"/>
<path d="M158.686 229.971C158.805 229.971 158.919 229.963 159.03 229.947C159.14 229.928 159.228 229.909 159.293 229.889V230.41C159.22 230.445 159.112 230.474 158.969 230.496C158.829 230.521 158.702 230.533 158.589 230.533C157.732 230.533 157.304 230.075 157.304 229.16V226.488H156.669V226.16L157.304 225.877L157.587 224.918H157.975V225.959H159.26V226.488H157.975V229.131C157.975 229.402 158.038 229.609 158.165 229.754C158.292 229.899 158.465 229.971 158.686 229.971Z" fill="#504E49"/>
<path d="M162.125 225.959H162.845L163.815 228.521C164.028 229.105 164.16 229.527 164.211 229.787H164.243C164.278 229.648 164.351 229.41 164.461 229.074C164.575 228.735 164.941 227.697 165.561 225.959H166.28L164.377 231.074C164.188 231.579 163.967 231.937 163.714 232.148C163.463 232.361 163.155 232.467 162.788 232.467C162.583 232.467 162.381 232.444 162.182 232.398V231.853C162.33 231.885 162.496 231.902 162.679 231.902C163.14 231.902 163.469 231.639 163.665 231.115L163.912 230.476L162.125 225.959Z" fill="#504E49"/>
<path d="M171.072 228.201C171.072 228.933 170.89 229.506 170.526 229.918C170.162 230.328 169.66 230.533 169.018 230.533C168.622 230.533 168.271 230.439 167.963 230.25C167.656 230.062 167.419 229.791 167.252 229.439C167.085 229.086 167.001 228.674 167.001 228.201C167.001 227.469 167.182 226.899 167.543 226.492C167.904 226.082 168.405 225.877 169.047 225.877C169.666 225.877 170.158 226.086 170.522 226.504C170.888 226.922 171.072 227.488 171.072 228.201ZM167.697 228.201C167.697 228.775 167.81 229.212 168.036 229.512C168.262 229.813 168.595 229.963 169.034 229.963C169.474 229.963 169.806 229.814 170.033 229.517C170.262 229.216 170.376 228.777 170.376 228.201C170.376 227.63 170.262 227.197 170.033 226.902C169.806 226.604 169.471 226.455 169.026 226.455C168.587 226.455 168.256 226.601 168.032 226.894C167.808 227.186 167.697 227.622 167.697 228.201Z" fill="#504E49"/>
<path d="M173.131 225.959V228.873C173.131 229.239 173.213 229.512 173.377 229.693C173.541 229.873 173.799 229.963 174.149 229.963C174.613 229.963 174.951 229.835 175.164 229.578C175.379 229.321 175.487 228.902 175.487 228.32V225.959H176.158V230.451H175.604L175.507 229.848H175.471C175.333 230.07 175.142 230.239 174.897 230.357C174.654 230.474 174.377 230.533 174.064 230.533C173.525 230.533 173.121 230.403 172.852 230.144C172.585 229.884 172.452 229.469 172.452 228.898V225.959H173.131Z" fill="#504E49"/>
<path d="M178.37 224.459L178.431 224.549C178.361 224.823 178.26 225.141 178.128 225.504C177.996 225.865 177.858 226.201 177.716 226.512H177.223C177.411 225.734 177.549 225.049 177.635 224.459H178.37Z" fill="#504E49"/>
<path d="M180.458 230.451L178.776 225.959H179.496L180.45 228.623C180.665 229.246 180.792 229.65 180.83 229.836H180.862C180.892 229.691 180.985 229.392 181.141 228.939C181.3 228.482 181.654 227.489 182.204 225.959H182.923L181.242 230.451H180.458Z" fill="#504E49"/>
<path d="M185.754 230.533C185.099 230.533 184.582 230.331 184.202 229.926C183.825 229.522 183.636 228.961 183.636 228.242C183.636 227.518 183.812 226.943 184.162 226.517C184.515 226.09 184.988 225.877 185.58 225.877C186.136 225.877 186.575 226.063 186.898 226.435C187.221 226.803 187.383 227.291 187.383 227.898V228.328H184.332C184.345 228.855 184.476 229.256 184.724 229.529C184.974 229.802 185.326 229.939 185.778 229.939C186.255 229.939 186.727 229.838 187.193 229.635V230.242C186.956 230.346 186.731 230.42 186.518 230.463C186.308 230.51 186.053 230.533 185.754 230.533ZM185.572 226.447C185.217 226.447 184.932 226.564 184.72 226.799C184.509 227.034 184.385 227.359 184.348 227.775H186.664C186.664 227.346 186.569 227.018 186.381 226.791C186.192 226.562 185.923 226.447 185.572 226.447Z" fill="#504E49"/>
<path d="M193.239 230.533C192.951 230.533 192.687 230.48 192.447 230.373C192.21 230.264 192.01 230.097 191.849 229.873H191.8C191.833 230.135 191.849 230.384 191.849 230.619V232.467H191.178V225.959H191.723L191.816 226.574H191.849C192.021 226.328 192.222 226.15 192.451 226.041C192.68 225.932 192.943 225.877 193.239 225.877C193.826 225.877 194.279 226.081 194.597 226.488C194.918 226.895 195.078 227.466 195.078 228.201C195.078 228.939 194.915 229.512 194.589 229.922C194.266 230.329 193.816 230.533 193.239 230.533ZM193.142 226.455C192.689 226.455 192.362 226.582 192.16 226.836C191.958 227.09 191.854 227.495 191.849 228.049V228.201C191.849 228.832 191.952 229.284 192.16 229.558C192.367 229.828 192.7 229.963 193.158 229.963C193.541 229.963 193.84 229.806 194.056 229.492C194.274 229.178 194.383 228.745 194.383 228.193C194.383 227.633 194.274 227.204 194.056 226.906C193.84 226.605 193.535 226.455 193.142 226.455Z" fill="#504E49"/>
<path d="M198.523 225.877C198.72 225.877 198.897 225.894 199.053 225.926L198.96 226.558C198.777 226.517 198.615 226.496 198.475 226.496C198.117 226.496 197.809 226.644 197.553 226.939C197.3 227.234 197.173 227.601 197.173 228.041V230.451H196.503V225.959H197.056L197.133 226.791H197.165C197.33 226.499 197.528 226.273 197.76 226.115C197.991 225.956 198.246 225.877 198.523 225.877Z" fill="#504E49"/>
<path d="M202.854 230.451L202.721 229.812H202.688C202.467 230.093 202.246 230.284 202.025 230.385C201.807 230.484 201.534 230.533 201.205 230.533C200.766 230.533 200.421 230.418 200.17 230.189C199.922 229.959 199.798 229.633 199.798 229.209C199.798 228.302 200.514 227.827 201.945 227.783L202.696 227.758V227.48C202.696 227.127 202.621 226.868 202.47 226.701C202.322 226.532 202.083 226.447 201.755 226.447C201.385 226.447 200.968 226.562 200.502 226.791L200.296 226.271C200.514 226.15 200.752 226.056 201.011 225.988C201.272 225.92 201.534 225.885 201.795 225.885C202.323 225.885 202.714 226.004 202.967 226.242C203.223 226.48 203.351 226.861 203.351 227.385V230.451H202.854ZM201.338 229.971C201.756 229.971 202.083 229.855 202.32 229.623C202.56 229.391 202.68 229.066 202.68 228.648V228.242L202.009 228.271C201.476 228.29 201.09 228.374 200.853 228.525C200.619 228.672 200.502 228.903 200.502 229.217C200.502 229.463 200.574 229.65 200.72 229.779C200.868 229.907 201.074 229.971 201.338 229.971Z" fill="#504E49"/>
<path d="M206.756 230.533C206.115 230.533 205.618 230.333 205.265 229.935C204.914 229.533 204.739 228.966 204.739 228.234C204.739 227.482 204.917 226.902 205.273 226.492C205.631 226.082 206.14 225.877 206.8 225.877C207.013 225.877 207.226 225.9 207.439 225.947C207.652 225.993 207.819 226.048 207.94 226.111L207.734 226.689C207.586 226.629 207.424 226.579 207.249 226.541C207.074 226.5 206.919 226.48 206.784 226.48C205.884 226.48 205.434 227.062 205.434 228.226C205.434 228.777 205.543 229.201 205.762 229.496C205.983 229.791 206.309 229.939 206.74 229.939C207.109 229.939 207.488 229.858 207.876 229.697V230.299C207.579 230.455 207.206 230.533 206.756 230.533Z" fill="#504E49"/>
<path d="M210.61 229.971C210.728 229.971 210.843 229.963 210.953 229.947C211.064 229.928 211.151 229.909 211.216 229.889V230.41C211.143 230.445 211.035 230.474 210.893 230.496C210.752 230.521 210.626 230.533 210.513 230.533C209.656 230.533 209.227 230.075 209.227 229.16V226.488H208.593V226.16L209.227 225.877L209.51 224.918H209.898V225.959H211.184V226.488H209.898V229.131C209.898 229.402 209.962 229.609 210.088 229.754C210.215 229.899 210.389 229.971 210.61 229.971Z" fill="#504E49"/>
<path d="M213.024 230.451H212.353V225.959H213.024V230.451ZM212.297 224.742C212.297 224.586 212.334 224.473 212.41 224.402C212.485 224.328 212.58 224.291 212.693 224.291C212.801 224.291 212.894 224.328 212.972 224.402C213.05 224.476 213.089 224.589 213.089 224.742C213.089 224.895 213.05 225.01 212.972 225.086C212.894 225.16 212.801 225.197 212.693 225.197C212.58 225.197 212.485 225.16 212.41 225.086C212.334 225.01 212.297 224.895 212.297 224.742Z" fill="#504E49"/>
<path d="M216.466 230.533C215.824 230.533 215.327 230.333 214.974 229.935C214.624 229.533 214.449 228.966 214.449 228.234C214.449 227.482 214.627 226.902 214.982 226.492C215.341 226.082 215.85 225.877 216.51 225.877C216.723 225.877 216.936 225.9 217.149 225.947C217.362 225.993 217.529 226.048 217.65 226.111L217.444 226.689C217.296 226.629 217.134 226.579 216.959 226.541C216.784 226.5 216.629 226.48 216.494 226.48C215.594 226.48 215.144 227.062 215.144 228.226C215.144 228.777 215.253 229.201 215.471 229.496C215.692 229.791 216.018 229.939 216.449 229.939C216.819 229.939 217.197 229.858 217.585 229.697V230.299C217.289 230.455 216.916 230.533 216.466 230.533Z" fill="#504E49"/>
<path d="M220.76 230.533C220.105 230.533 219.588 230.331 219.208 229.926C218.83 229.522 218.642 228.961 218.642 228.242C218.642 227.518 218.817 226.943 219.167 226.517C219.52 226.09 219.993 225.877 220.586 225.877C221.141 225.877 221.58 226.063 221.904 226.435C222.227 226.803 222.389 227.291 222.389 227.898V228.328H219.337C219.35 228.855 219.481 229.256 219.729 229.529C219.98 229.802 220.331 229.939 220.784 229.939C221.261 229.939 221.732 229.838 222.199 229.635V230.242C221.961 230.346 221.736 230.42 221.524 230.463C221.313 230.51 221.059 230.533 220.76 230.533ZM220.578 226.447C220.222 226.447 219.938 226.564 219.725 226.799C219.515 227.034 219.391 227.359 219.353 227.775H221.669C221.669 227.346 221.575 227.018 221.386 226.791C221.198 226.562 220.928 226.447 220.578 226.447Z" fill="#504E49"/>
<path d="M226.8 229.848H226.764C226.454 230.305 225.99 230.533 225.373 230.533C224.794 230.533 224.342 230.332 224.019 229.93C223.699 229.529 223.538 228.958 223.538 228.217C223.538 227.477 223.7 226.902 224.023 226.492C224.347 226.082 224.797 225.877 225.373 225.877C225.974 225.877 226.435 226.099 226.755 226.541H226.808L226.78 226.217L226.764 225.902V224.074H227.434V230.451H226.889L226.8 229.848ZM225.458 229.963C225.916 229.963 226.248 229.838 226.452 229.586C226.66 229.332 226.764 228.924 226.764 228.361V228.217C226.764 227.581 226.658 227.127 226.448 226.857C226.241 226.584 225.908 226.447 225.45 226.447C225.057 226.447 224.755 226.603 224.545 226.914C224.337 227.223 224.233 227.66 224.233 228.226C224.233 228.799 224.337 229.232 224.545 229.525C224.752 229.817 225.057 229.963 225.458 229.963Z" fill="#504E49"/>
<path d="M230.805 225.959H231.524L232.494 228.521C232.707 229.105 232.839 229.527 232.89 229.787H232.923C232.958 229.648 233.03 229.41 233.141 229.074C233.254 228.735 233.621 227.697 234.24 225.959H234.96L233.056 231.074C232.867 231.579 232.646 231.937 232.393 232.148C232.143 232.361 231.834 232.467 231.468 232.467C231.263 232.467 231.061 232.444 230.861 232.398V231.853C231.01 231.885 231.175 231.902 231.358 231.902C231.819 231.902 232.148 231.639 232.345 231.115L232.591 230.476L230.805 225.959Z" fill="#504E49"/>
<path d="M239.751 228.201C239.751 228.933 239.569 229.506 239.205 229.918C238.842 230.328 238.339 230.533 237.698 230.533C237.302 230.533 236.95 230.439 236.643 230.25C236.336 230.062 236.099 229.791 235.932 229.439C235.764 229.086 235.681 228.674 235.681 228.201C235.681 227.469 235.861 226.899 236.223 226.492C236.584 226.082 237.085 225.877 237.726 225.877C238.346 225.877 238.838 226.086 239.201 226.504C239.568 226.922 239.751 227.488 239.751 228.201ZM236.376 228.201C236.376 228.775 236.489 229.212 236.716 229.512C236.942 229.813 237.275 229.963 237.714 229.963C238.153 229.963 238.486 229.814 238.712 229.517C238.941 229.216 239.056 228.777 239.056 228.201C239.056 227.63 238.941 227.197 238.712 226.902C238.486 226.604 238.15 226.455 237.706 226.455C237.267 226.455 236.935 226.601 236.712 226.894C236.488 227.186 236.376 227.622 236.376 228.201Z" fill="#504E49"/>
<path d="M241.81 225.959V228.873C241.81 229.239 241.892 229.512 242.057 229.693C242.221 229.873 242.478 229.963 242.829 229.963C243.292 229.963 243.63 229.835 243.843 229.578C244.059 229.321 244.166 228.902 244.166 228.32V225.959H244.837V230.451H244.284L244.187 229.848H244.15C244.013 230.07 243.821 230.239 243.576 230.357C243.334 230.474 243.056 230.533 242.744 230.533C242.205 230.533 241.801 230.403 241.531 230.144C241.264 229.884 241.131 229.469 241.131 228.898V225.959H241.81Z" fill="#504E49"/>
<path d="M248.533 225.877C248.73 225.877 248.906 225.894 249.063 225.926L248.97 226.558C248.786 226.517 248.625 226.496 248.485 226.496C248.126 226.496 247.819 226.644 247.563 226.939C247.31 227.234 247.183 227.601 247.183 228.041V230.451H246.512V225.959H247.066L247.143 226.791H247.175C247.34 226.499 247.538 226.273 247.769 226.115C248.001 225.956 248.256 225.877 248.533 225.877Z" fill="#504E49"/>
<path d="M131.967 238.475C132.549 238.475 133 238.678 133.321 239.082C133.644 239.484 133.806 240.053 133.806 240.791C133.806 241.529 133.643 242.102 133.316 242.512C132.993 242.919 132.543 243.123 131.967 243.123C131.678 243.123 131.414 243.07 131.174 242.963C130.937 242.854 130.738 242.687 130.576 242.463H130.528L130.386 243.041H129.905V236.664H130.576V238.213C130.576 238.56 130.565 238.872 130.544 239.148H130.576C130.889 238.699 131.352 238.475 131.967 238.475ZM131.87 239.045C131.411 239.045 131.081 239.179 130.879 239.447C130.677 239.712 130.576 240.16 130.576 240.791C130.576 241.422 130.68 241.874 130.887 242.147C131.095 242.418 131.428 242.553 131.886 242.553C132.298 242.553 132.605 242.402 132.807 242.098C133.009 241.792 133.11 241.354 133.11 240.783C133.11 240.198 133.009 239.762 132.807 239.475C132.605 239.189 132.293 239.045 131.87 239.045Z" fill="#504E49"/>
<path d="M137.251 238.467C137.448 238.467 137.624 238.484 137.78 238.516L137.687 239.148C137.504 239.107 137.343 239.086 137.202 239.086C136.844 239.086 136.537 239.234 136.281 239.529C136.028 239.824 135.901 240.191 135.901 240.631V243.041H135.23V238.549H135.784L135.861 239.381H135.893C136.057 239.089 136.255 238.863 136.487 238.705C136.719 238.546 136.973 238.467 137.251 238.467Z" fill="#504E49"/>
<path d="M140.729 243.123C140.074 243.123 139.556 242.921 139.177 242.516C138.799 242.112 138.611 241.551 138.611 240.832C138.611 240.108 138.786 239.533 139.136 239.107C139.489 238.68 139.962 238.467 140.555 238.467C141.11 238.467 141.549 238.653 141.872 239.025C142.196 239.393 142.357 239.881 142.357 240.488V240.918H139.306C139.319 241.445 139.45 241.846 139.698 242.119C139.949 242.392 140.3 242.529 140.753 242.529C141.23 242.529 141.701 242.428 142.167 242.225V242.832C141.93 242.936 141.705 243.009 141.492 243.053C141.282 243.1 141.028 243.123 140.729 243.123ZM140.547 239.037C140.191 239.037 139.907 239.154 139.694 239.389C139.484 239.624 139.36 239.949 139.322 240.365H141.638C141.638 239.936 141.544 239.608 141.355 239.381C141.166 239.152 140.897 239.037 140.547 239.037Z" fill="#504E49"/>
<path d="M146.478 243.041L146.344 242.402H146.312C146.091 242.683 145.87 242.874 145.649 242.975C145.431 243.074 145.157 243.123 144.829 243.123C144.39 243.123 144.045 243.008 143.794 242.779C143.546 242.549 143.422 242.223 143.422 241.799C143.422 240.892 144.138 240.417 145.568 240.373L146.32 240.348V240.07C146.32 239.717 146.245 239.458 146.094 239.291C145.946 239.122 145.707 239.037 145.378 239.037C145.009 239.037 144.592 239.152 144.125 239.381L143.919 238.861C144.138 238.74 144.376 238.646 144.635 238.578C144.896 238.51 145.157 238.475 145.419 238.475C145.947 238.475 146.338 238.594 146.591 238.832C146.847 239.07 146.975 239.451 146.975 239.975V243.041H146.478ZM144.962 242.561C145.38 242.561 145.707 242.445 145.944 242.213C146.184 241.981 146.304 241.656 146.304 241.238V240.832L145.633 240.861C145.1 240.88 144.714 240.964 144.477 241.115C144.243 241.262 144.125 241.493 144.125 241.807C144.125 242.053 144.198 242.24 144.344 242.369C144.492 242.497 144.698 242.561 144.962 242.561Z" fill="#504E49"/>
<path d="M150.04 242.561C150.159 242.561 150.273 242.553 150.384 242.537C150.494 242.518 150.582 242.499 150.647 242.479V243C150.574 243.035 150.466 243.064 150.323 243.086C150.183 243.111 150.056 243.123 149.943 243.123C149.086 243.123 148.658 242.665 148.658 241.75V239.078H148.023V238.75L148.658 238.467L148.941 237.508H149.329V238.549H150.614V239.078H149.329V241.721C149.329 241.992 149.392 242.199 149.519 242.344C149.646 242.489 149.819 242.561 150.04 242.561Z" fill="#504E49"/>
<path d="M154.815 243.041V240.135C154.815 239.769 154.733 239.496 154.569 239.316C154.404 239.135 154.147 239.045 153.797 239.045C153.331 239.045 152.99 239.173 152.774 239.43C152.561 239.687 152.455 240.108 152.455 240.693V243.041H151.784V236.664H152.455V238.594C152.455 238.826 152.444 239.019 152.423 239.172H152.463C152.595 238.956 152.782 238.787 153.025 238.664C153.27 238.538 153.549 238.475 153.862 238.475C154.403 238.475 154.809 238.607 155.078 238.869C155.35 239.128 155.486 239.542 155.486 240.111V243.041H154.815Z" fill="#504E49"/>
<path d="M157.788 243.041H157.117V238.549H157.788V243.041ZM157.06 237.332C157.06 237.176 157.098 237.063 157.174 236.992C157.249 236.918 157.343 236.881 157.456 236.881C157.564 236.881 157.657 236.918 157.735 236.992C157.813 237.066 157.853 237.179 157.853 237.332C157.853 237.485 157.813 237.6 157.735 237.676C157.657 237.75 157.564 237.787 157.456 237.787C157.343 237.787 157.249 237.75 157.174 237.676C157.098 237.6 157.06 237.485 157.06 237.332Z" fill="#504E49"/>
<path d="M162.49 243.041V240.135C162.49 239.769 162.408 239.496 162.244 239.316C162.079 239.135 161.822 239.045 161.472 239.045C161.008 239.045 160.669 239.172 160.453 239.426C160.238 239.68 160.13 240.1 160.13 240.684V243.041H159.459V238.549H160.005L160.114 239.164H160.146C160.283 238.943 160.476 238.772 160.724 238.652C160.972 238.529 161.248 238.467 161.553 238.467C162.086 238.467 162.488 238.598 162.757 238.861C163.026 239.12 163.161 239.537 163.161 240.111V243.041H162.49Z" fill="#504E49"/>
<path d="M168.417 238.549V238.979L167.597 239.078C167.672 239.173 167.74 239.299 167.799 239.455C167.858 239.608 167.888 239.781 167.888 239.975C167.888 240.415 167.74 240.766 167.443 241.029C167.147 241.291 166.74 241.422 166.223 241.422C166.09 241.422 165.967 241.411 165.851 241.389C165.565 241.542 165.422 241.735 165.422 241.967C165.422 242.09 165.472 242.182 165.572 242.242C165.672 242.299 165.843 242.328 166.085 242.328H166.869C167.349 242.328 167.717 242.43 167.973 242.635C168.231 242.84 168.361 243.138 168.361 243.529C168.361 244.026 168.164 244.404 167.771 244.664C167.377 244.926 166.803 245.057 166.049 245.057C165.469 245.057 165.022 244.948 164.707 244.729C164.394 244.511 164.238 244.202 164.238 243.803C164.238 243.53 164.324 243.294 164.497 243.094C164.669 242.895 164.912 242.76 165.224 242.688C165.111 242.637 165.015 242.556 164.937 242.447C164.862 242.337 164.824 242.21 164.824 242.066C164.824 241.902 164.867 241.758 164.953 241.635C165.04 241.512 165.176 241.393 165.362 241.279C165.133 241.183 164.945 241.02 164.8 240.791C164.657 240.561 164.586 240.299 164.586 240.004C164.586 239.512 164.731 239.134 165.022 238.869C165.313 238.601 165.725 238.467 166.259 238.467C166.491 238.467 166.699 238.495 166.885 238.549H168.417ZM164.885 243.795C164.885 244.038 164.986 244.223 165.188 244.348C165.39 244.474 165.68 244.537 166.057 244.537C166.62 244.537 167.036 244.451 167.306 244.279C167.578 244.109 167.714 243.878 167.714 243.586C167.714 243.343 167.64 243.173 167.492 243.078C167.343 242.985 167.065 242.938 166.655 242.938H165.851C165.546 242.938 165.309 243.012 165.139 243.16C164.97 243.307 164.885 243.519 164.885 243.795ZM165.248 239.988C165.248 240.302 165.336 240.54 165.511 240.701C165.686 240.862 165.93 240.943 166.243 240.943C166.898 240.943 167.225 240.62 167.225 239.975C167.225 239.301 166.893 238.963 166.231 238.963C165.915 238.963 165.673 239.049 165.503 239.221C165.333 239.393 165.248 239.649 165.248 239.988Z" fill="#504E49"/>
<path d="M170.278 242.066L170.339 242.16C170.269 242.433 170.168 242.75 170.036 243.111C169.904 243.474 169.766 243.811 169.623 244.123H169.118C169.191 243.839 169.27 243.488 169.357 243.07C169.446 242.652 169.508 242.317 169.543 242.066H170.278Z" fill="#504E49"/>
<path d="M177.282 243.041V240.135C177.282 239.769 177.2 239.496 177.036 239.316C176.871 239.135 176.614 239.045 176.264 239.045C175.797 239.045 175.457 239.173 175.241 239.43C175.028 239.687 174.922 240.108 174.922 240.693V243.041H174.251V236.664H174.922V238.594C174.922 238.826 174.911 239.019 174.889 239.172H174.93C175.062 238.956 175.249 238.787 175.492 238.664C175.737 238.538 176.016 238.475 176.328 238.475C176.87 238.475 177.275 238.607 177.545 238.869C177.817 239.128 177.953 239.542 177.953 240.111V243.041H177.282Z" fill="#504E49"/>
<path d="M183.407 240.791C183.407 241.523 183.225 242.096 182.861 242.508C182.498 242.918 181.995 243.123 181.354 243.123C180.958 243.123 180.606 243.029 180.299 242.84C179.992 242.652 179.755 242.381 179.588 242.029C179.421 241.676 179.337 241.264 179.337 240.791C179.337 240.059 179.518 239.489 179.879 239.082C180.24 238.672 180.741 238.467 181.382 238.467C182.002 238.467 182.494 238.676 182.857 239.094C183.224 239.512 183.407 240.078 183.407 240.791ZM180.032 240.791C180.032 241.365 180.145 241.802 180.372 242.102C180.598 242.403 180.931 242.553 181.37 242.553C181.809 242.553 182.142 242.404 182.368 242.107C182.597 241.806 182.712 241.367 182.712 240.791C182.712 240.22 182.597 239.787 182.368 239.492C182.142 239.194 181.807 239.045 181.362 239.045C180.923 239.045 180.591 239.191 180.368 239.484C180.144 239.776 180.032 240.212 180.032 240.791Z" fill="#504E49"/>
<path d="M188.453 243.041L187.641 240.406C187.589 240.245 187.494 239.878 187.354 239.307H187.321C187.214 239.785 187.119 240.154 187.038 240.414L186.202 243.041H185.426L184.217 238.549H184.92C185.206 239.678 185.423 240.537 185.571 241.127C185.722 241.717 185.808 242.115 185.83 242.32H185.862C185.892 242.164 185.939 241.963 186.004 241.717C186.071 241.469 186.129 241.272 186.177 241.127L186.99 238.549H187.717L188.51 241.127C188.66 241.597 188.763 241.992 188.817 242.311H188.849C188.86 242.213 188.888 242.061 188.934 241.857C188.982 241.652 189.264 240.549 189.779 238.549H190.474L189.249 243.041H188.453Z" fill="#504E49"/>
<path d="M196.94 242.438H196.904C196.594 242.895 196.131 243.123 195.513 243.123C194.934 243.123 194.483 242.922 194.159 242.52C193.839 242.119 193.679 241.548 193.679 240.807C193.679 240.067 193.84 239.492 194.164 239.082C194.487 238.672 194.937 238.467 195.513 238.467C196.114 238.467 196.575 238.689 196.896 239.131H196.948L196.92 238.807L196.904 238.492V236.664H197.575V243.041H197.029L196.94 242.438ZM195.598 242.553C196.056 242.553 196.388 242.428 196.593 242.176C196.8 241.922 196.904 241.514 196.904 240.951V240.807C196.904 240.171 196.799 239.717 196.589 239.447C196.381 239.173 196.048 239.037 195.59 239.037C195.197 239.037 194.895 239.193 194.685 239.504C194.477 239.813 194.374 240.25 194.374 240.816C194.374 241.389 194.477 241.822 194.685 242.115C194.892 242.407 195.197 242.553 195.598 242.553Z" fill="#504E49"/>
<path d="M203.073 240.791C203.073 241.523 202.891 242.096 202.528 242.508C202.164 242.918 201.661 243.123 201.02 243.123C200.624 243.123 200.272 243.029 199.965 242.84C199.658 242.652 199.421 242.381 199.254 242.029C199.087 241.676 199.003 241.264 199.003 240.791C199.003 240.059 199.184 239.489 199.545 239.082C199.906 238.672 200.407 238.467 201.048 238.467C201.668 238.467 202.16 238.676 202.524 239.094C202.89 239.512 203.073 240.078 203.073 240.791ZM199.698 240.791C199.698 241.365 199.812 241.802 200.038 242.102C200.264 242.403 200.597 242.553 201.036 242.553C201.475 242.553 201.808 242.404 202.035 242.107C202.264 241.806 202.378 241.367 202.378 240.791C202.378 240.22 202.264 239.787 202.035 239.492C201.808 239.194 201.473 239.045 201.028 239.045C200.589 239.045 200.258 239.191 200.034 239.484C199.81 239.776 199.698 240.212 199.698 240.791Z" fill="#504E49"/>
<path d="M206.197 238.549H206.917L207.887 241.111C208.099 241.695 208.231 242.117 208.283 242.377H208.315C208.35 242.238 208.423 242 208.533 241.664C208.646 241.325 209.013 240.287 209.633 238.549H210.352L208.448 243.664C208.26 244.169 208.039 244.527 207.786 244.738C207.535 244.951 207.226 245.057 206.86 245.057C206.655 245.057 206.453 245.034 206.254 244.988V244.443C206.402 244.475 206.568 244.492 206.751 244.492C207.212 244.492 207.54 244.229 207.737 243.705L207.984 243.066L206.197 238.549Z" fill="#504E49"/>
<path d="M215.143 240.791C215.143 241.523 214.961 242.096 214.598 242.508C214.234 242.918 213.731 243.123 213.09 243.123C212.694 243.123 212.342 243.029 212.035 242.84C211.728 242.652 211.491 242.381 211.324 242.029C211.157 241.676 211.073 241.264 211.073 240.791C211.073 240.059 211.254 239.489 211.615 239.082C211.976 238.672 212.477 238.467 213.118 238.467C213.738 238.467 214.23 238.676 214.594 239.094C214.96 239.512 215.143 240.078 215.143 240.791ZM211.768 240.791C211.768 241.365 211.882 241.802 212.108 242.102C212.334 242.403 212.667 242.553 213.106 242.553C213.545 242.553 213.878 242.404 214.105 242.107C214.334 241.806 214.448 241.367 214.448 240.791C214.448 240.22 214.334 239.787 214.105 239.492C213.878 239.194 213.543 239.045 213.098 239.045C212.659 239.045 212.328 239.191 212.104 239.484C211.88 239.776 211.768 240.212 211.768 240.791Z" fill="#504E49"/>
<path d="M217.202 238.549V241.463C217.202 241.829 217.285 242.102 217.449 242.283C217.613 242.463 217.871 242.553 218.221 242.553C218.684 242.553 219.022 242.425 219.235 242.168C219.451 241.911 219.559 241.492 219.559 240.91V238.549H220.23V243.041H219.676L219.579 242.438H219.543C219.405 242.66 219.214 242.829 218.969 242.947C218.726 243.064 218.449 243.123 218.136 243.123C217.597 243.123 217.193 242.993 216.923 242.734C216.657 242.474 216.523 242.059 216.523 241.488V238.549H217.202Z" fill="#504E49"/>
<path d="M226.3 239.078H225.172V243.041H224.501V239.078H223.709V238.77L224.501 238.525V238.275C224.501 237.171 224.977 236.619 225.928 236.619C226.162 236.619 226.437 236.667 226.753 236.762L226.579 237.307C226.32 237.223 226.099 237.18 225.916 237.18C225.663 237.18 225.475 237.266 225.354 237.439C225.233 237.608 225.172 237.881 225.172 238.258V238.549H226.3V239.078Z" fill="#504E49"/>
<path d="M229.228 243.123C228.573 243.123 228.056 242.921 227.676 242.516C227.299 242.112 227.11 241.551 227.11 240.832C227.11 240.108 227.285 239.533 227.635 239.107C227.988 238.68 228.461 238.467 229.054 238.467C229.609 238.467 230.048 238.653 230.372 239.025C230.695 239.393 230.857 239.881 230.857 240.488V240.918H227.805C227.819 241.445 227.949 241.846 228.197 242.119C228.448 242.392 228.799 242.529 229.252 242.529C229.729 242.529 230.201 242.428 230.667 242.225V242.832C230.43 242.936 230.205 243.009 229.992 243.053C229.782 243.1 229.527 243.123 229.228 243.123ZM229.046 239.037C228.69 239.037 228.406 239.154 228.193 239.389C227.983 239.624 227.859 239.949 227.821 240.365H230.137C230.137 239.936 230.043 239.608 229.854 239.381C229.666 239.152 229.396 239.037 229.046 239.037Z" fill="#504E49"/>
<path d="M234.124 243.123C233.469 243.123 232.952 242.921 232.572 242.516C232.195 242.112 232.006 241.551 232.006 240.832C232.006 240.108 232.181 239.533 232.532 239.107C232.885 238.68 233.358 238.467 233.95 238.467C234.505 238.467 234.945 238.653 235.268 239.025C235.591 239.393 235.753 239.881 235.753 240.488V240.918H232.701C232.715 241.445 232.846 241.846 233.094 242.119C233.344 242.392 233.696 242.529 234.148 242.529C234.625 242.529 235.097 242.428 235.563 242.225V242.832C235.326 242.936 235.101 243.009 234.888 243.053C234.678 243.1 234.423 243.123 234.124 243.123ZM233.942 239.037C233.587 239.037 233.302 239.154 233.09 239.389C232.879 239.624 232.755 239.949 232.718 240.365H235.034C235.034 239.936 234.939 239.608 234.751 239.381C234.562 239.152 234.293 239.037 233.942 239.037Z" fill="#504E49"/>
<path d="M237.82 243.041H237.149V236.664H237.82V243.041Z" fill="#504E49"/>
<path d="M239.948 241.389V241.168C239.948 240.848 239.996 240.586 240.093 240.381C240.19 240.173 240.371 239.955 240.635 239.725C241.001 239.411 241.232 239.175 241.326 239.016C241.423 238.858 241.472 238.667 241.472 238.443C241.472 238.164 241.383 237.949 241.205 237.799C241.03 237.646 240.776 237.57 240.445 237.57C240.232 237.57 240.025 237.596 239.823 237.648C239.62 237.697 239.389 237.788 239.127 237.922L238.889 237.369C239.398 237.098 239.93 236.963 240.485 236.963C241 236.963 241.4 237.092 241.686 237.348C241.971 237.605 242.114 237.967 242.114 238.434C242.114 238.634 242.087 238.81 242.033 238.963C241.982 239.113 241.905 239.257 241.803 239.393C241.701 239.527 241.48 239.745 241.14 240.045C240.868 240.28 240.688 240.475 240.599 240.631C240.512 240.787 240.469 240.994 240.469 241.254V241.389H239.948ZM239.75 242.606C239.75 242.235 239.911 242.049 240.235 242.049C240.391 242.049 240.511 242.097 240.595 242.193C240.681 242.288 240.724 242.426 240.724 242.606C240.724 242.781 240.681 242.918 240.595 243.016C240.508 243.112 240.388 243.16 240.235 243.16C240.095 243.16 239.979 243.117 239.887 243.033C239.796 242.945 239.75 242.803 239.75 242.606Z" fill="#504E49"/>
<g clip-path="url(#clip3)">
<path d="M187.028 277.537C184.834 277.549 182.867 278.622 181.813 280.49C181.712 280.668 181.775 280.894 181.953 280.994C182.011 281.027 182.073 281.042 182.135 281.042C182.263 281.042 182.389 280.974 182.457 280.854C183.378 279.222 185.087 278.28 187.021 278.277C188.915 278.293 190.618 279.274 191.464 280.837C191.561 281.016 191.786 281.083 191.965 280.985C192.145 280.888 192.212 280.664 192.114 280.484C191.14 278.685 189.191 277.555 187.028 277.537Z" fill="#00308F"/>
<path d="M183.426 275.103C184.242 275.103 184.905 274.439 184.905 273.623C184.905 272.807 184.242 272.143 183.426 272.143C182.61 272.143 181.946 272.807 181.946 273.623C181.946 274.439 182.61 275.103 183.426 275.103ZM183.426 272.883C183.833 272.883 184.165 273.214 184.165 273.623C184.165 274.031 183.833 274.363 183.426 274.363C183.018 274.363 182.686 274.031 182.686 273.623C182.686 273.214 183.018 272.883 183.426 272.883Z" fill="#00308F"/>
<path d="M190.084 275.103C190.901 275.103 191.564 274.439 191.564 273.623C191.564 272.807 190.901 272.143 190.084 272.143C189.268 272.143 188.605 272.807 188.605 273.623C188.605 274.439 189.268 275.103 190.084 275.103ZM190.084 272.883C190.492 272.883 190.824 273.214 190.824 273.623C190.824 274.031 190.492 274.363 190.084 274.363C189.677 274.363 189.345 274.031 189.345 273.623C189.345 273.214 189.677 272.883 190.084 272.883Z" fill="#00308F"/>
<path d="M186.94 267.334C182.044 267.334 178.062 271.317 178.062 276.212C178.062 281.108 182.044 285.091 186.94 285.091C191.836 285.091 195.818 281.108 195.818 276.212C195.818 271.317 191.836 267.334 186.94 267.334ZM186.94 284.351C182.453 284.351 178.801 280.7 178.801 276.212C178.801 271.725 182.453 268.074 186.94 268.074C191.427 268.074 195.079 271.725 195.079 276.212C195.079 280.7 191.427 284.351 186.94 284.351Z" fill="#00308F"/>
</g>
<g clip-path="url(#clip4)">
<path d="M132.514 277.97C132.445 277.868 132.329 277.806 132.206 277.806C132.083 277.806 131.968 277.868 131.899 277.97L130.713 279.731L129.547 277.972C129.479 277.869 129.363 277.807 129.24 277.806C129.111 277.824 129.001 277.866 128.932 277.969L127.739 279.731L126.58 277.973C126.512 277.87 126.398 277.807 126.274 277.806C126.164 277.794 126.035 277.867 125.966 277.968L124.784 279.704C124.669 279.873 124.713 280.103 124.882 280.217C125.051 280.334 125.281 280.289 125.396 280.12L126.267 278.84L127.426 280.599C127.494 280.703 127.585 280.761 127.735 280.766C127.857 280.766 127.972 280.705 128.041 280.603L129.234 278.84L130.402 280.6C130.47 280.703 130.585 280.765 130.709 280.766C130.71 280.766 130.71 280.766 130.71 280.766C130.834 280.766 130.949 280.704 131.017 280.602L132.205 278.839L133.062 280.118C133.176 280.287 133.404 280.333 133.575 280.22C133.745 280.106 133.791 279.876 133.677 279.707L132.514 277.97Z" fill="#00308F"/>
<path d="M129.23 267.334C124.334 267.334 120.352 271.317 120.352 276.212C120.352 281.108 124.334 285.091 129.23 285.091C134.126 285.091 138.108 281.108 138.108 276.212C138.108 271.317 134.126 267.334 129.23 267.334ZM129.23 284.351C124.743 284.351 121.091 280.7 121.091 276.212C121.091 271.725 124.743 268.074 129.23 268.074C133.717 268.074 137.369 271.725 137.369 276.212C137.369 280.7 133.717 284.351 129.23 284.351Z" fill="#00308F"/>
<path d="M133.438 272.406L131.157 274.688C131.013 274.832 131.013 275.066 131.157 275.211C131.23 275.283 131.325 275.319 131.419 275.319C131.514 275.319 131.609 275.282 131.681 275.211L133.962 272.929C134.106 272.785 134.106 272.55 133.962 272.406C133.818 272.262 133.583 272.262 133.438 272.406Z" fill="#00308F"/>
<path d="M127.027 275.305C127.121 275.305 127.216 275.268 127.289 275.197C127.433 275.052 127.433 274.818 127.289 274.674L125.022 272.406C124.877 272.262 124.643 272.262 124.498 272.406C124.353 272.55 124.353 272.785 124.498 272.929L126.765 275.196C126.837 275.269 126.932 275.305 127.027 275.305Z" fill="#00308F"/>
</g>
<g clip-path="url(#clip5)">
<path d="M243.318 267.334C238.423 267.334 234.44 271.317 234.44 276.212C234.44 281.108 238.423 285.091 243.318 285.091C248.214 285.091 252.197 281.108 252.197 276.212C252.197 271.317 248.214 267.334 243.318 267.334ZM243.318 284.351C238.831 284.351 235.18 280.7 235.18 276.212C235.18 271.725 238.831 268.074 243.318 268.074C247.806 268.074 251.457 271.725 251.457 276.212C251.457 280.7 247.806 284.351 243.318 284.351Z" fill="#00308F"/>
<path d="M238.464 273.981C238.542 273.981 238.622 273.956 238.689 273.904C239.41 273.351 240.268 272.996 241.169 272.879C241.372 272.853 241.514 272.668 241.488 272.466C241.461 272.264 241.273 272.119 241.073 272.146C240.044 272.28 239.063 272.685 238.239 273.318C238.077 273.442 238.046 273.674 238.17 273.837C238.243 273.931 238.353 273.981 238.464 273.981Z" fill="#00308F"/>
<path d="M245.562 272.146C245.36 272.119 245.174 272.263 245.148 272.466C245.121 272.668 245.264 272.853 245.467 272.88C246.369 272.997 247.225 273.351 247.947 273.905C248.014 273.956 248.093 273.982 248.172 273.982C248.283 273.982 248.393 273.932 248.466 273.837C248.59 273.675 248.559 273.443 248.397 273.319C247.573 272.685 246.593 272.28 245.562 272.146Z" fill="#00308F"/>
<path d="M248.309 278.11C248.129 278.007 247.905 278.072 247.805 278.25C246.9 279.861 245.231 280.822 243.34 280.822C241.381 280.822 239.697 279.867 238.835 278.268C238.738 278.088 238.514 278.022 238.334 278.118C238.154 278.215 238.087 278.44 238.184 278.619C239.176 280.462 241.104 281.563 243.34 281.563C245.502 281.563 247.412 280.46 248.45 278.614C248.55 278.435 248.487 278.209 248.309 278.11Z" fill="#00308F"/>
</g>
<g clip-path="url(#clip6)">
<path d="M163.112 274.505C162.972 274.326 162.668 274.326 162.529 274.505C162.33 274.759 161.34 276.063 161.34 276.767C161.34 277.733 162.085 278.237 162.819 278.237C163.556 278.237 164.3 277.732 164.3 276.767C164.3 276.063 163.31 274.759 163.112 274.505ZM162.819 277.498C162.478 277.498 162.08 277.306 162.08 276.767C162.08 276.527 162.427 275.917 162.82 275.355C163.214 275.917 163.56 276.527 163.56 276.767C163.56 277.307 163.161 277.498 162.819 277.498Z" fill="#00308F"/>
<path d="M155.051 275.103C155.868 275.103 156.531 274.439 156.531 273.623C156.531 272.807 155.868 272.143 155.051 272.143C154.235 272.143 153.572 272.807 153.572 273.623C153.572 274.439 154.235 275.103 155.051 275.103ZM155.051 272.883C155.459 272.883 155.791 273.214 155.791 273.623C155.791 274.031 155.459 274.363 155.051 274.363C154.644 274.363 154.312 274.031 154.312 273.623C154.312 273.214 154.644 272.883 155.051 272.883Z" fill="#00308F"/>
<path d="M160.231 275.103C161.047 275.103 161.71 274.439 161.71 273.623C161.71 272.807 161.047 272.143 160.231 272.143C159.415 272.143 158.751 272.807 158.751 273.623C158.751 274.439 159.415 275.103 160.231 275.103ZM160.231 272.883C160.638 272.883 160.97 273.214 160.97 273.623C160.97 274.031 160.638 274.363 160.231 274.363C159.823 274.363 159.491 274.031 159.491 273.623C159.491 273.214 159.823 272.883 160.231 272.883Z" fill="#00308F"/>
<path d="M157.729 277.537C157.71 277.537 157.691 277.537 157.671 277.537C155.484 277.537 153.558 278.638 152.514 280.49C152.413 280.668 152.476 280.894 152.654 280.994C152.712 281.027 152.774 281.042 152.836 281.042C152.964 281.042 153.09 280.974 153.158 280.854C154.07 279.236 155.755 278.277 157.672 278.277C157.689 278.277 157.705 278.277 157.722 278.277C159.617 278.293 161.319 279.274 162.165 280.837C162.262 281.016 162.487 281.082 162.666 280.985C162.846 280.888 162.913 280.664 162.815 280.484C161.841 278.685 159.892 277.555 157.729 277.537Z" fill="#00308F"/>
<path d="M157.641 267.334C152.745 267.334 148.763 271.317 148.763 276.212C148.763 281.108 152.745 285.091 157.641 285.091C162.537 285.091 166.52 281.108 166.52 276.212C166.52 271.317 162.537 267.334 157.641 267.334ZM157.641 284.351C153.154 284.351 149.502 280.7 149.502 276.212C149.502 271.725 153.154 268.074 157.641 268.074C162.128 268.074 165.78 271.725 165.78 276.212C165.78 280.7 162.128 284.351 157.641 284.351Z" fill="#00308F"/>
</g>
<g clip-path="url(#clip7)">
<path d="M213.205 272.143C212.389 272.143 211.726 272.807 211.726 273.623C211.726 274.439 212.389 275.103 213.205 275.103C214.022 275.103 214.685 274.439 214.685 273.623C214.685 272.807 214.022 272.143 213.205 272.143ZM213.205 274.363C212.798 274.363 212.466 274.031 212.466 273.623C212.466 273.214 212.798 272.883 213.205 272.883C213.613 272.883 213.945 273.214 213.945 273.623C213.945 274.031 213.613 274.363 213.205 274.363Z" fill="#00308F"/>
<path d="M218.385 275.103C219.201 275.103 219.864 274.439 219.864 273.623C219.864 272.807 219.201 272.143 218.385 272.143C217.569 272.143 216.905 272.807 216.905 273.623C216.905 274.439 217.569 275.103 218.385 275.103ZM218.385 272.883C218.792 272.883 219.124 273.214 219.124 273.623C219.124 274.031 218.792 274.363 218.385 274.363C217.977 274.363 217.645 274.031 217.645 273.623C217.645 273.214 217.977 272.883 218.385 272.883Z" fill="#00308F"/>
<path d="M220.112 278.704C219.149 280.155 217.535 281.022 215.795 281.022C215.591 281.022 215.425 281.187 215.425 281.392C215.425 281.596 215.591 281.762 215.795 281.762C217.784 281.762 219.628 280.772 220.728 279.114C220.842 278.944 220.795 278.714 220.625 278.601C220.454 278.488 220.225 278.534 220.112 278.704Z" fill="#00308F"/>
<path d="M215.795 267.334C210.899 267.334 206.917 271.317 206.917 276.212C206.917 281.108 210.899 285.091 215.795 285.091C220.691 285.091 224.673 281.108 224.673 276.212C224.673 271.317 220.691 267.334 215.795 267.334ZM215.795 284.351C211.308 284.351 207.656 280.7 207.656 276.212C207.656 271.725 211.308 268.074 215.795 268.074C220.282 268.074 223.934 271.725 223.934 276.212C223.934 280.7 220.282 284.351 215.795 284.351Z" fill="#00308F"/>
</g>
<path d="M139.909 203.793H138.451V199.716H134.357V203.793H132.905V194.748H134.357V198.448H138.451V194.748H139.909V203.793Z" fill="#00308F"/>
<path d="M148.427 200.359C148.427 201.477 148.146 202.35 147.583 202.977C147.02 203.604 146.236 203.917 145.232 203.917C144.605 203.917 144.05 203.773 143.568 203.484C143.086 203.195 142.715 202.781 142.456 202.24C142.197 201.7 142.068 201.073 142.068 200.359C142.068 199.25 142.347 198.384 142.906 197.761C143.465 197.138 144.252 196.826 145.269 196.826C146.24 196.826 147.01 197.146 147.577 197.786C148.144 198.421 148.427 199.279 148.427 200.359ZM143.538 200.359C143.538 201.939 144.11 202.729 145.256 202.729C146.39 202.729 146.957 201.939 146.957 200.359C146.957 198.796 146.386 198.014 145.244 198.014C144.645 198.014 144.21 198.217 143.938 198.621C143.671 199.025 143.538 199.605 143.538 200.359Z" fill="#00308F"/>
<path d="M155.956 203.793L155.087 200.601C154.982 200.263 154.791 199.477 154.516 198.243H154.461C154.226 199.357 154.04 200.147 153.903 200.613L153.01 203.793H151.43L149.547 196.95H151.005L151.862 200.322C152.056 201.156 152.194 201.869 152.275 202.463H152.311C152.352 202.162 152.412 201.818 152.493 201.43C152.578 201.038 152.651 200.745 152.712 200.551L153.732 196.95H155.3L156.29 200.551C156.35 200.753 156.425 201.063 156.514 201.479C156.608 201.896 156.662 202.22 156.678 202.451H156.727C156.788 201.943 156.929 201.234 157.152 200.322L158.021 196.95H159.454L157.559 203.793H155.956Z" fill="#00308F"/>
<path d="M166.858 203.917C166.02 203.917 165.366 203.608 164.896 202.989C164.426 202.37 164.191 201.502 164.191 200.384C164.191 199.262 164.428 198.39 164.902 197.767C165.38 197.14 166.04 196.826 166.882 196.826C167.765 196.826 168.437 197.159 168.899 197.823H168.972C168.903 197.332 168.868 196.944 168.868 196.659V194.166H170.302V203.793H169.184L168.935 202.896H168.868C168.411 203.577 167.741 203.917 166.858 203.917ZM167.24 202.742C167.828 202.742 168.255 202.575 168.522 202.24C168.789 201.902 168.927 201.356 168.935 200.601V200.397C168.935 199.534 168.797 198.922 168.522 198.559C168.247 198.196 167.815 198.014 167.228 198.014C166.726 198.014 166.339 198.223 166.068 198.639C165.797 199.052 165.661 199.642 165.661 200.409C165.661 201.168 165.793 201.748 166.056 202.148C166.319 202.544 166.714 202.742 167.24 202.742Z" fill="#00308F"/>
<path d="M178.675 200.359C178.675 201.477 178.393 202.35 177.83 202.977C177.267 203.604 176.484 203.917 175.48 203.917C174.852 203.917 174.297 203.773 173.815 203.484C173.333 203.195 172.963 202.781 172.704 202.24C172.445 201.7 172.315 201.073 172.315 200.359C172.315 199.25 172.594 198.384 173.153 197.761C173.712 197.138 174.5 196.826 175.516 196.826C176.488 196.826 177.257 197.146 177.824 197.786C178.391 198.421 178.675 199.279 178.675 200.359ZM173.785 200.359C173.785 201.939 174.358 202.729 175.504 202.729C176.638 202.729 177.205 201.939 177.205 200.359C177.205 198.796 176.634 198.014 175.492 198.014C174.892 198.014 174.457 198.217 174.186 198.621C173.919 199.025 173.785 199.605 173.785 200.359Z" fill="#00308F"/>
<path d="M183.278 196.95H184.833L186.2 200.83C186.406 201.382 186.544 201.902 186.613 202.389H186.661C186.698 202.162 186.764 201.888 186.862 201.566C186.959 201.24 187.473 199.702 188.404 196.95H189.947L187.074 204.703C186.552 206.126 185.681 206.838 184.462 206.838C184.147 206.838 183.839 206.803 183.539 206.732V205.582C183.754 205.631 183.999 205.656 184.274 205.656C184.962 205.656 185.446 205.25 185.726 204.437L185.975 203.793L183.278 196.95Z" fill="#00308F"/>
<path d="M197.3 200.359C197.3 201.477 197.018 202.35 196.455 202.977C195.892 203.604 195.109 203.917 194.105 203.917C193.477 203.917 192.922 203.773 192.44 203.484C191.958 203.195 191.588 202.781 191.329 202.24C191.07 201.7 190.94 201.073 190.94 200.359C190.94 199.25 191.219 198.384 191.778 197.761C192.337 197.138 193.125 196.826 194.141 196.826C195.113 196.826 195.882 197.146 196.449 197.786C197.016 198.421 197.3 199.279 197.3 200.359ZM192.41 200.359C192.41 201.939 192.983 202.729 194.129 202.729C195.263 202.729 195.83 201.939 195.83 200.359C195.83 198.796 195.259 198.014 194.117 198.014C193.517 198.014 193.082 198.217 192.811 198.621C192.544 199.025 192.41 199.605 192.41 200.359Z" fill="#00308F"/>
<path d="M204.057 203.793L203.856 202.896H203.783C203.585 203.214 203.301 203.463 202.933 203.645C202.568 203.826 202.151 203.917 201.682 203.917C200.868 203.917 200.26 203.711 199.859 203.298C199.459 202.886 199.258 202.261 199.258 201.424V196.95H200.698V201.17C200.698 201.694 200.803 202.088 201.013 202.352C201.224 202.612 201.554 202.742 202.004 202.742C202.603 202.742 203.042 202.56 203.322 202.197C203.605 201.83 203.747 201.217 203.747 200.359V196.95H205.18V203.793H204.057Z" fill="#00308F"/>
<path d="M214.564 198.052H212.924V203.793H211.491V198.052H210.385V197.371L211.491 196.925V196.48C211.491 195.671 211.677 195.073 212.049 194.686C212.422 194.294 212.991 194.098 213.756 194.098C214.258 194.098 214.752 194.182 215.238 194.352L214.862 195.453C214.509 195.337 214.173 195.28 213.853 195.28C213.529 195.28 213.293 195.383 213.143 195.589C212.997 195.791 212.924 196.096 212.924 196.505V196.95H214.564V198.052Z" fill="#00308F"/>
<path d="M219.019 203.917C217.974 203.917 217.156 203.608 216.565 202.989C215.978 202.366 215.684 201.51 215.684 200.421C215.684 199.303 215.958 198.425 216.504 197.786C217.051 197.146 217.802 196.826 218.758 196.826C219.645 196.826 220.345 197.101 220.859 197.649C221.374 198.198 221.631 198.953 221.631 199.914V200.7H217.154C217.174 201.364 217.351 201.875 217.683 202.234C218.015 202.589 218.482 202.766 219.086 202.766C219.483 202.766 219.851 202.729 220.191 202.655C220.535 202.577 220.904 202.449 221.297 202.271V203.453C220.949 203.622 220.596 203.742 220.24 203.812C219.884 203.882 219.477 203.917 219.019 203.917ZM218.758 197.928C218.304 197.928 217.94 198.074 217.664 198.367C217.393 198.66 217.231 199.087 217.179 199.648H220.228C220.22 199.083 220.086 198.656 219.827 198.367C219.568 198.074 219.211 197.928 218.758 197.928Z" fill="#00308F"/>
<path d="M226.56 203.917C225.515 203.917 224.697 203.608 224.106 202.989C223.518 202.366 223.225 201.51 223.225 200.421C223.225 199.303 223.498 198.425 224.045 197.786C224.592 197.146 225.343 196.826 226.298 196.826C227.185 196.826 227.886 197.101 228.4 197.649C228.914 198.198 229.171 198.953 229.171 199.914V200.7H224.695C224.715 201.364 224.891 201.875 225.223 202.234C225.555 202.589 226.023 202.766 226.626 202.766C227.023 202.766 227.392 202.729 227.732 202.655C228.076 202.577 228.445 202.449 228.837 202.271V203.453C228.489 203.622 228.137 203.742 227.78 203.812C227.424 203.882 227.017 203.917 226.56 203.917ZM226.298 197.928C225.845 197.928 225.48 198.074 225.205 198.367C224.934 198.66 224.772 199.087 224.719 199.648H227.768C227.76 199.083 227.627 198.656 227.367 198.367C227.108 198.074 226.752 197.928 226.298 197.928Z" fill="#00308F"/>
<path d="M232.594 203.793H231.166V194.166H232.594V203.793Z" fill="#00308F"/>
<path d="M235.712 201.046V200.65C235.712 200.197 235.793 199.819 235.955 199.518C236.117 199.217 236.401 198.905 236.806 198.584C237.288 198.196 237.597 197.895 237.735 197.68C237.877 197.466 237.948 197.21 237.948 196.913C237.948 196.567 237.834 196.301 237.608 196.115C237.381 195.929 237.055 195.836 236.63 195.836C236.245 195.836 235.889 195.892 235.561 196.004C235.233 196.115 234.913 196.249 234.601 196.406L234.091 195.317C234.913 194.851 235.793 194.618 236.733 194.618C237.527 194.618 238.156 194.816 238.622 195.212C239.088 195.608 239.32 196.154 239.32 196.851C239.32 197.161 239.276 197.437 239.187 197.68C239.098 197.92 238.962 198.149 238.78 198.367C238.602 198.586 238.292 198.87 237.851 199.221C237.474 199.522 237.221 199.772 237.091 199.97C236.966 200.168 236.903 200.434 236.903 200.768V201.046H235.712ZM235.463 203.02C235.463 202.397 235.761 202.086 236.356 202.086C236.648 202.086 236.871 202.168 237.024 202.333C237.178 202.494 237.255 202.723 237.255 203.02C237.255 203.313 237.176 203.546 237.018 203.719C236.865 203.888 236.644 203.973 236.356 203.973C236.069 203.973 235.848 203.89 235.694 203.725C235.54 203.556 235.463 203.321 235.463 203.02Z" fill="#00308F"/>
<path d="M112.085 325.806C112.085 318.77 117.879 313.066 125.027 313.066H246.681C253.829 313.066 259.623 318.77 259.623 325.806C259.623 332.842 253.829 338.546 246.681 338.546H125.027C117.879 338.546 112.085 332.842 112.085 325.806Z" fill="#00308F"/>
<path d="M181.021 327.283C181.021 327.801 180.831 328.207 180.451 328.501C180.071 328.796 179.546 328.943 178.877 328.943C178.209 328.943 177.661 328.841 177.235 328.637V327.737C177.505 327.862 177.791 327.96 178.093 328.032C178.397 328.103 178.681 328.139 178.942 328.139C179.325 328.139 179.607 328.067 179.787 327.924C179.971 327.781 180.062 327.588 180.062 327.347C180.062 327.129 179.979 326.945 179.812 326.793C179.645 326.642 179.299 326.463 178.776 326.256C178.237 326.041 177.857 325.795 177.636 325.519C177.415 325.243 177.304 324.912 177.304 324.524C177.304 324.038 177.479 323.656 177.83 323.377C178.18 323.099 178.651 322.959 179.241 322.959C179.808 322.959 180.371 323.082 180.932 323.326L180.625 324.102C180.099 323.884 179.63 323.776 179.217 323.776C178.904 323.776 178.667 323.843 178.505 323.979C178.344 324.111 178.263 324.288 178.263 324.508C178.263 324.659 178.295 324.789 178.36 324.898C178.424 325.004 178.531 325.105 178.679 325.201C178.828 325.296 179.094 325.423 179.48 325.579C179.914 325.757 180.232 325.923 180.435 326.077C180.637 326.231 180.785 326.405 180.879 326.598C180.974 326.792 181.021 327.02 181.021 327.283Z" fill="#28E6E1"/>
<path d="M184.863 328.864L184.673 328.25H184.641C184.425 328.519 184.208 328.702 183.99 328.8C183.771 328.895 183.491 328.943 183.148 328.943C182.709 328.943 182.365 328.826 182.117 328.593C181.872 328.359 181.749 328.029 181.749 327.602C181.749 327.148 181.92 326.805 182.263 326.574C182.605 326.343 183.127 326.217 183.828 326.196L184.6 326.172V325.937C184.6 325.656 184.533 325.446 184.398 325.308C184.266 325.168 184.06 325.097 183.779 325.097C183.55 325.097 183.33 325.131 183.12 325.197C182.91 325.263 182.707 325.342 182.513 325.432L182.206 324.763C182.449 324.638 182.714 324.544 183.003 324.48C183.291 324.414 183.564 324.381 183.82 324.381C184.389 324.381 184.817 324.503 185.106 324.747C185.397 324.991 185.543 325.375 185.543 325.898V328.864H184.863ZM183.448 328.227C183.793 328.227 184.069 328.132 184.277 327.944C184.487 327.753 184.592 327.486 184.592 327.144V326.762L184.018 326.785C183.57 326.801 183.244 326.876 183.039 327.008C182.837 327.138 182.736 327.339 182.736 327.61C182.736 327.806 182.795 327.959 182.914 328.067C183.032 328.174 183.21 328.227 183.448 328.227Z" fill="#28E6E1"/>
<path d="M187.888 328.864L186.19 324.46H187.193L188.103 327.02C188.259 327.45 188.353 327.798 188.386 328.063H188.418C188.442 327.872 188.537 327.525 188.701 327.02L189.611 324.46H190.622L188.916 328.864H187.888Z" fill="#28E6E1"/>
<path d="M193.255 328.943C192.56 328.943 192.015 328.744 191.621 328.346C191.23 327.945 191.035 327.395 191.035 326.694C191.035 325.975 191.217 325.409 191.581 324.998C191.945 324.586 192.445 324.381 193.081 324.381C193.672 324.381 194.138 324.557 194.481 324.91C194.823 325.263 194.994 325.749 194.994 326.367V326.873H192.014C192.027 327.3 192.144 327.629 192.365 327.86C192.586 328.089 192.898 328.203 193.3 328.203C193.564 328.203 193.809 328.179 194.036 328.131C194.265 328.081 194.51 327.998 194.772 327.884V328.645C194.54 328.753 194.305 328.83 194.068 328.876C193.831 328.921 193.56 328.943 193.255 328.943ZM193.081 325.089C192.779 325.089 192.537 325.184 192.353 325.372C192.173 325.561 192.065 325.835 192.03 326.196H194.06C194.055 325.833 193.966 325.558 193.793 325.372C193.621 325.184 193.383 325.089 193.081 325.089Z" fill="#28E6E1"/>
<path fill-rule="evenodd" clip-rule="evenodd" d="M80.6779 31.2957C80.6779 16.9791 92.2838 5.37317 106.6 5.37317H266.283C280.6 5.37317 292.206 16.9791 292.206 31.2957V415.467C292.206 429.784 280.6 441.39 266.283 441.39H106.6C92.2838 441.39 80.6779 429.784 80.6779 415.467V31.2957ZM89.2323 34.9248C89.2323 22.7557 99.0973 12.8907 111.266 12.8907H132.789C132.784 12.9765 132.782 13.0629 132.782 13.1499V22.7413C132.782 28.3247 137.308 32.851 142.892 32.851H229.992C235.575 32.851 240.101 28.3247 240.101 22.7413V13.1499C240.101 13.0629 240.099 12.9765 240.094 12.8907H261.617C273.786 12.8907 283.651 22.7557 283.651 34.9248V411.838C283.651 424.007 273.786 433.872 261.617 433.872H111.266C99.0973 433.872 89.2323 424.007 89.2323 411.838V34.9248Z" fill="url(#paint1_linear)"/>
<path fill-rule="evenodd" clip-rule="evenodd" d="M80.0558 31.2956C80.0558 16.6354 91.9402 4.75098 106.6 4.75098H266.283C280.943 4.75098 292.828 16.6354 292.828 31.2956V415.467C292.828 430.127 280.943 442.012 266.283 442.012H106.6C91.9402 442.012 80.0558 430.127 80.0558 415.467V31.2956ZM106.6 5.99526C92.6274 5.99526 81.3 17.3226 81.3 31.2956V415.467C81.3 429.44 92.6274 440.768 106.6 440.768H266.283C280.256 440.768 291.583 429.44 291.583 415.467V31.2956C291.583 17.3226 280.256 5.99526 266.283 5.99526H106.6ZM88.6102 34.9248C88.6102 22.4121 98.7537 12.2685 111.266 12.2685H133.446L133.41 12.9247C133.406 12.9992 133.404 13.0742 133.404 13.1499V22.7412C133.404 27.9811 137.652 32.2288 142.892 32.2288H229.992C235.231 32.2288 239.479 27.9811 239.479 22.7412V13.1499C239.479 13.0742 239.477 12.9991 239.473 12.9247L239.437 12.2685H261.617C274.13 12.2685 284.273 22.4121 284.273 34.9248V411.838C284.273 424.351 274.13 434.494 261.617 434.494H111.266C98.7537 434.494 88.6102 424.351 88.6102 411.838V34.9248ZM111.266 13.5128C99.4409 13.5128 89.8545 23.0993 89.8545 34.9248V411.838C89.8545 423.664 99.4409 433.25 111.266 433.25H261.617C273.443 433.25 283.029 423.664 283.029 411.838V34.9248C283.029 23.0993 273.443 13.5128 261.617 13.5128H240.724V22.7412C240.724 28.6683 235.919 33.4731 229.992 33.4731H142.892C136.965 33.4731 132.16 28.6683 132.16 22.7412V13.5128H111.266Z" fill="black" fill-opacity="0.03"/>
<g opacity="0.6">
<g opacity="0.75">
<g filter="url(#filter2_di)">
<path fill-rule="evenodd" clip-rule="evenodd" d="M214.179 23.778C215.897 23.778 217.29 22.3853 217.29 20.6673C217.29 18.9493 215.897 17.5566 214.179 17.5566C212.461 17.5566 211.068 18.9493 211.068 20.6673C211.068 22.3853 212.461 23.778 214.179 23.778Z" fill="#9092A5"/>
</g>
<g filter="url(#filter3_di)">
<path fill-rule="evenodd" clip-rule="evenodd" d="M214.179 23.0004C215.467 23.0004 216.512 21.9559 216.512 20.6674C216.512 19.3789 215.467 18.3344 214.179 18.3344C212.89 18.3344 211.846 19.3789 211.846 20.6674C211.846 21.9559 212.89 23.0004 214.179 23.0004Z" fill="#9092A5"/>
</g>
</g>
<g filter="url(#filter4_di)">
<path d="M172.184 20.6673C172.184 19.9515 172.765 19.3712 173.48 19.3712H196.811C197.527 19.3712 198.107 19.9515 198.107 20.6673C198.107 21.3832 197.527 21.9635 196.811 21.9635H173.48C172.765 21.9635 172.184 21.3832 172.184 20.6673Z" fill="#9092A5"/>
</g>
</g>
</g>
<defs>
<filter id="filter0_d" x="-46.3213" y="-44.2743" width="460.372" height="680.514" filterUnits="userSpaceOnUse" color-interpolation-filters="sRGB">
<feFlood flood-opacity="0" result="BackgroundImageFix"/>
<feColorMatrix in="SourceAlpha" type="matrix" values="0 0 0 0 0 0 0 0 0 0 0 0 0 0 0 0 0 0 127 0"/>
<feOffset dy="72"/>
<feGaussianBlur stdDeviation="60"/>
<feColorMatrix type="matrix" values="0 0 0 0 0 0 0 0 0 0 0 0 0 0 0 0 0 0 0.132841 0"/>
<feBlend mode="normal" in2="BackgroundImageFix" result="effect1_dropShadow"/>
<feBlend mode="normal" in="SourceGraphic" in2="effect1_dropShadow" result="shape"/>
</filter>
<filter id="filter1_d" x="-47.0471" y="-45" width="461.823" height="681.965" filterUnits="userSpaceOnUse" color-interpolation-filters="sRGB">
<feFlood flood-opacity="0" result="BackgroundImageFix"/>
<feColorMatrix in="SourceAlpha" type="matrix" values="0 0 0 0 0 0 0 0 0 0 0 0 0 0 0 0 0 0 127 0"/>
<feOffset dy="72"/>
<feGaussianBlur stdDeviation="60"/>
<feColorMatrix type="matrix" values="0 0 0 0 0 0 0 0 0 0 0 0 0 0 0 0 0 0 0.132841 0"/>
<feBlend mode="normal" in2="BackgroundImageFix" result="effect1_dropShadow"/>
<feBlend mode="normal" in="SourceGraphic" in2="effect1_dropShadow" result="shape"/>
</filter>
<filter id="filter2_di" x="208.068" y="14.5566" width="12.2214" height="12.2214" filterUnits="userSpaceOnUse" color-interpolation-filters="sRGB">
<feFlood flood-opacity="0" result="BackgroundImageFix"/>
<feColorMatrix in="SourceAlpha" type="matrix" values="0 0 0 0 0 0 0 0 0 0 0 0 0 0 0 0 0 0 127 0"/>
<feOffset/>
<feGaussianBlur stdDeviation="1.5"/>
<feColorMatrix type="matrix" values="0 0 0 0 0.49062 0 0 0 0 0.49062 0 0 0 0 0.49062 0 0 0 0.25 0"/>
<feBlend mode="normal" in2="BackgroundImageFix" result="effect1_dropShadow"/>
<feBlend mode="normal" in="SourceGraphic" in2="effect1_dropShadow" result="shape"/>
<feColorMatrix in="SourceAlpha" type="matrix" values="0 0 0 0 0 0 0 0 0 0 0 0 0 0 0 0 0 0 127 0" result="hardAlpha"/>
<feOffset dx="2" dy="2"/>
<feGaussianBlur stdDeviation="2"/>
<feComposite in2="hardAlpha" operator="arithmetic" k2="-1" k3="1"/>
<feColorMatrix type="matrix" values="0 0 0 0 0 0 0 0 0 0 0 0 0 0 0 0 0 0 0.344061 0"/>
<feBlend mode="normal" in2="shape" result="effect2_innerShadow"/>
</filter>
<filter id="filter3_di" x="208.846" y="16.3344" width="10.6661" height="12.6661" filterUnits="userSpaceOnUse" color-interpolation-filters="sRGB">
<feFlood flood-opacity="0" result="BackgroundImageFix"/>
<feColorMatrix in="SourceAlpha" type="matrix" values="0 0 0 0 0 0 0 0 0 0 0 0 0 0 0 0 0 0 127 0"/>
<feOffset dy="3"/>
<feGaussianBlur stdDeviation="1.5"/>
<feColorMatrix type="matrix" values="0 0 0 0 0.49062 0 0 0 0 0.49062 0 0 0 0 0.49062 0 0 0 0.428838 0"/>
<feBlend mode="normal" in2="BackgroundImageFix" result="effect1_dropShadow"/>
<feBlend mode="normal" in="SourceGraphic" in2="effect1_dropShadow" result="shape"/>
<feColorMatrix in="SourceAlpha" type="matrix" values="0 0 0 0 0 0 0 0 0 0 0 0 0 0 0 0 0 0 127 0" result="hardAlpha"/>
<feOffset dx="-2" dy="-2"/>
<feGaussianBlur stdDeviation="2.5"/>
<feComposite in2="hardAlpha" operator="arithmetic" k2="-1" k3="1"/>
<feColorMatrix type="matrix" values="0 0 0 0 0 0 0 0 0 0 0 0 0 0 0 0 0 0 0.344061 0"/>
<feBlend mode="normal" in2="shape" result="effect2_innerShadow"/>
</filter>
<filter id="filter4_di" x="169.184" y="16.3712" width="31.9225" height="8.59225" filterUnits="userSpaceOnUse" color-interpolation-filters="sRGB">
<feFlood flood-opacity="0" result="BackgroundImageFix"/>
<feColorMatrix in="SourceAlpha" type="matrix" values="0 0 0 0 0 0 0 0 0 0 0 0 0 0 0 0 0 0 127 0"/>
<feOffset/>
<feGaussianBlur stdDeviation="1.5"/>
<feColorMatrix type="matrix" values="0 0 0 0 0.49062 0 0 0 0 0.49062 0 0 0 0 0.49062 0 0 0 0.25 0"/>
<feBlend mode="normal" in2="BackgroundImageFix" result="effect1_dropShadow"/>
<feBlend mode="normal" in="SourceGraphic" in2="effect1_dropShadow" result="shape"/>
<feColorMatrix in="SourceAlpha" type="matrix" values="0 0 0 0 0 0 0 0 0 0 0 0 0 0 0 0 0 0 127 0" result="hardAlpha"/>
<feOffset dx="2" dy="2"/>
<feGaussianBlur stdDeviation="2"/>
<feComposite in2="hardAlpha" operator="arithmetic" k2="-1" k3="1"/>
<feColorMatrix type="matrix" values="0 0 0 0 0 0 0 0 0 0 0 0 0 0 0 0 0 0 0.344061 0"/>
<feBlend mode="normal" in2="shape" result="effect2_innerShadow"/>
</filter>
<linearGradient id="paint0_linear" x1="-36.5071" y1="223.983" x2="316.014" y2="400.335" gradientUnits="userSpaceOnUse">
<stop stop-color="white"/>
<stop offset="1" stop-color="#FEFEFE"/>
</linearGradient>
<linearGradient id="paint1_linear" x1="-25.086" y1="223.382" x2="317.37" y2="389.519" gradientUnits="userSpaceOnUse">
<stop stop-color="white"/>
<stop offset="1" stop-color="#FEFEFE"/>
</linearGradient>
<clipPath id="clip0">
<rect width="375" height="350" fill="white"/>
</clipPath>
<clipPath id="clip1">
<rect width="237.459" height="165.402" fill="white" transform="matrix(-1 0 0 1 461.075 129.918)"/>
</clipPath>
<clipPath id="clip2">
<rect width="322.616" height="224.358" fill="white" transform="matrix(-1 0 0 1 259.645 104.534)"/>
</clipPath>
<clipPath id="clip3">
<rect width="17.7569" height="17.7569" fill="white" transform="translate(178.062 267.334)"/>
</clipPath>
<clipPath id="clip4">
<rect width="17.7569" height="17.7569" fill="white" transform="translate(120.352 267.334)"/>
</clipPath>
<clipPath id="clip5">
<rect width="17.7569" height="17.7569" fill="white" transform="translate(234.44 267.334)"/>
</clipPath>
<clipPath id="clip6">
<rect width="17.7569" height="17.7569" fill="white" transform="translate(148.763 267.334)"/>
</clipPath>
<clipPath id="clip7">
<rect width="17.7569" height="17.7569" fill="white" transform="translate(206.917 267.334)"/>
</clipPath>
</defs>
</svg>
