<svg width="427" height="285" viewBox="0 0 427 285" fill="none" xmlns="http://www.w3.org/2000/svg">
<path opacity="0.1" d="M415.942 265.317C411.441 269.051 406.006 271.713 400.137 273.682C399.283 273.974 398.417 274.247 397.539 274.501C395.271 275.177 392.951 275.762 390.61 276.274C389.456 276.532 388.294 276.77 387.132 276.991C385.155 277.372 383.17 277.711 381.198 278.023C373.876 279.173 366.506 280.025 359.098 280.672C356.815 280.874 354.53 281.056 352.244 281.217L351.331 281.282L349.694 281.393L348.687 281.458C347.157 281.56 345.626 281.651 344.1 281.737C337.982 282.081 331.855 282.33 325.729 282.556C321.227 282.711 316.77 282.842 312.293 282.965L303.188 283.231L300.835 283.301L299.803 283.329C297.108 283.411 294.409 283.489 291.708 283.563L290.947 283.583L288.574 283.653L284.072 283.776L282.73 283.813L281.502 283.845C252.924 284.615 224.327 285.176 195.765 284.935C193.479 284.918 191.194 284.894 188.911 284.861C167.704 284.586 146.521 283.845 125.376 282.404C117.944 281.896 110.463 281.282 103.023 280.434C100.731 280.175 98.4461 279.893 96.168 279.587C77.8912 277.13 60.0646 272.986 44.0959 265.255C32.0683 259.42 20.9655 251.12 16.3083 240.077C11.6061 228.931 14.0943 216.414 19.4636 205.489C24.8329 194.564 32.9113 184.774 39.8766 174.508C42.2707 170.975 44.5338 167.294 46.5841 163.51C46.7069 163.281 46.8338 163.047 46.9525 162.818C48.0028 160.844 48.9932 158.846 49.9236 156.823C50.8075 154.896 51.626 152.95 52.379 150.984C52.6055 150.397 52.8224 149.812 53.0297 149.228C53.0543 149.162 53.0788 149.097 53.0993 149.031C53.1198 148.966 53.1525 148.884 53.177 148.81C54.5009 145.092 55.5326 141.277 56.2627 137.398L56.361 136.858C56.406 136.6 56.451 136.346 56.4919 136.088C56.5328 135.83 56.5697 135.609 56.6065 135.367C57.1752 131.732 57.3876 128.049 57.2408 124.373C57.2408 124.238 57.2408 124.103 57.2408 123.963C57.15 122.079 56.945 120.201 56.627 118.341C56.6024 118.182 56.5779 118.026 56.5451 117.87C56.0683 115.203 55.3464 112.584 54.3884 110.049C54.3475 109.939 54.3025 109.824 54.2574 109.71C54.2574 109.66 54.2206 109.607 54.2002 109.558C53.8932 108.776 53.5658 108.002 53.2057 107.228C53.1484 107.097 53.0829 106.962 53.0215 106.819C52.9029 106.569 52.7842 106.319 52.6573 106.074C52.0816 104.897 51.4405 103.735 50.7339 102.589C49.9154 101.225 48.9864 99.8905 48.0329 98.5802L47.8978 98.3959L47.7873 98.2403C46.535 96.5328 45.2255 94.854 43.9486 93.1588C42.946 91.8362 41.9638 90.5054 41.043 89.1501L40.8793 88.9044C39.7632 87.2687 38.7675 85.5539 37.9 83.7737C37.7281 83.4093 37.5603 83.0449 37.4048 82.6763C37.1265 82.0294 36.8687 81.3783 36.6395 80.7232C33.4966 71.8376 34.4501 62.1332 35.9602 52.8791C38.1988 39.1291 42.3648 24.3103 55.2601 15.7278C66.5184 8.2304 81.7545 7.35414 96.1844 9.17628C98.4966 9.46291 100.784 9.81915 103.039 10.2286L104.267 10.462C122.519 13.963 139.781 20.1624 156.83 26.7999C160.812 28.3518 164.786 29.9283 168.755 31.4965C171.857 32.7222 174.961 33.9411 178.066 35.1531C181.653 36.5508 185.268 37.9157 188.911 39.2478C191.186 40.0832 193.471 40.9021 195.765 41.7047C199.446 42.9849 203.151 44.2011 206.881 45.353C209.521 46.172 212.176 46.9432 214.844 47.6666C227.531 51.1225 240.545 53.5179 253.866 53.9806C264.013 54.3379 274.163 53.3967 284.072 51.1798C286.384 50.6557 288.676 50.0538 290.927 49.3741C294.069 48.4272 297.157 47.3077 300.176 46.0205C307.792 42.7447 314.638 38.4207 320.057 32.9174L320.102 32.8724C328.127 24.728 339.893 20.5882 352.219 19.8962C354.502 19.7672 356.79 19.7549 359.074 19.8594C367.644 20.2141 376.069 22.1869 383.907 25.6739C403.403 34.5184 416.012 53.2436 415.062 71.9441C413.683 99.1657 387.455 120.061 371.805 143.876C370.7 145.555 369.649 147.287 368.671 149.056C368.31 149.703 367.967 150.354 367.631 151.009C363.776 158.543 361.46 166.679 362.72 174.496C362.94 175.874 363.274 177.231 363.719 178.554C363.911 179.131 364.128 179.709 364.369 180.282C366.166 184.565 369.006 188.197 372.509 191.428C374.098 192.88 375.769 194.239 377.514 195.498C392.116 206.12 413.266 212.818 422.609 227.33C430.425 239.365 427.536 255.682 415.942 265.317Z" fill="#C2C5CC"/>
<path opacity="0.1" d="M359.107 214.059V150.964H367.664C367.999 150.309 368.343 149.658 368.703 149.011H359.107V82.6763H392.664C392.591 82.0252 392.509 81.366 392.427 80.7231H359.107V19.8143C356.822 19.7099 354.535 19.7222 352.252 19.8512V80.7108H290.959V49.3413C288.709 50.021 286.417 50.6229 284.105 51.147V80.7108H196.613L196.404 80.3382L214.877 47.6338C212.209 46.9104 209.554 46.1392 206.913 45.3203L195.798 64.9953V41.6555C193.504 40.8584 191.219 40.0395 188.943 39.1987V67.1574L168.788 31.4761C164.818 29.9078 160.845 28.3313 156.863 26.7794L187.147 80.3587L186.934 80.7313H103.056V10.1877C100.801 9.77818 98.513 9.42194 96.2007 9.13531V80.7108H36.6395C36.8687 81.366 37.1265 82.0171 37.4048 82.664H96.2007V148.998H53.1238C53.1034 149.064 53.0788 149.129 53.0543 149.195C52.8469 149.779 52.63 150.365 52.4036 150.952H96.1925V214.059H34.536C34.727 214.709 34.9248 215.36 35.1294 216.012H96.2007V280.578C98.4925 281.184 100.777 281.817 103.056 282.478V216.012H188.947V284.869C191.231 284.902 193.516 284.926 195.802 284.943V216.012H284.105V283.768L288.606 283.645L290.98 283.575V216.012H352.235V281.225C354.522 281.061 356.807 280.879 359.09 280.68V216.012H385.896C385.822 215.361 385.752 214.71 385.683 214.059H359.107ZM188.943 214.059H103.056V150.964H188.947L188.943 214.059ZM188.943 149.011H103.056V82.6763H187.72L188.947 84.4493L188.943 149.011ZM284.105 214.059H195.798V150.964H284.105V214.059ZM284.105 149.011H195.798V82.6763H284.105V149.011ZM352.235 214.059H290.959V150.964H352.235V214.059ZM352.235 149.011H290.959V82.6763H352.235V149.011Z" fill="#00308F"/>
<path opacity="0.1" d="M325.049 39.4198C325.074 40.0462 324.849 40.6568 324.424 41.1174C323.998 41.578 323.408 41.851 322.782 41.8766H318.207C318.716 42.0273 319.162 42.3414 319.476 42.7706C319.789 43.1997 319.953 43.7201 319.942 44.2515C319.966 44.878 319.741 45.4885 319.316 45.9491C318.891 46.4097 318.301 46.6828 317.675 46.7083H301.78C301.485 46.7068 301.193 46.6451 300.923 46.5268C300.653 46.4085 300.41 46.2362 300.208 46.0204C307.824 42.7447 314.671 38.4206 320.089 32.9174L320.134 32.8723H320.634C320.935 32.8745 321.233 32.9393 321.509 33.0627C321.784 33.186 322.031 33.3652 322.234 33.5889C322.658 34.0597 322.892 34.6709 322.892 35.3046C322.892 35.9382 322.658 36.5495 322.234 37.0203H322.77C323.388 37.0427 323.972 37.3064 324.399 37.7549C324.825 38.2034 325.058 38.801 325.049 39.4198Z" fill="#00308F"/>
<path opacity="0.1" d="M150.536 60.2373H150.008C150.427 59.7693 150.657 59.1623 150.655 58.5339C150.679 57.9075 150.454 57.2969 150.029 56.8363C149.604 56.3757 149.013 56.1026 148.387 56.0771H132.492C131.866 56.1026 131.276 56.3757 130.851 56.8363C130.426 57.2969 130.201 57.9075 130.225 58.5339C130.201 59.1604 130.426 59.7709 130.851 60.2315C131.276 60.6921 131.866 60.9652 132.492 60.9907H133.024C132.604 61.4581 132.372 62.0652 132.374 62.6941C132.363 63.2254 132.527 63.7455 132.841 64.1745C133.154 64.6035 133.6 64.9177 134.109 65.0691H129.534C128.932 65.1344 128.375 65.4199 127.971 65.8707C127.567 66.3215 127.343 66.9058 127.343 67.5116C127.343 68.1173 127.567 68.7016 127.971 69.1524C128.375 69.6032 128.932 69.8887 129.534 69.954H145.429C146.055 69.9285 146.645 69.6554 147.07 69.1948C147.495 68.7342 147.72 68.1237 147.696 67.4972C147.711 66.9656 147.551 66.4438 147.241 66.0123C146.93 65.5808 146.486 65.2637 145.977 65.11H150.552C151.158 65.0492 151.72 64.7654 152.128 64.3137C152.536 63.862 152.762 63.2746 152.762 62.6655C152.762 62.0564 152.536 61.469 152.128 61.0173C151.72 60.5656 151.158 60.2818 150.552 60.2209L150.536 60.2373Z" fill="#00308F"/>
<path opacity="0.1" d="M347.161 159.8H346.629C347.05 159.333 347.28 158.725 347.276 158.097C347.3 157.47 347.075 156.86 346.65 156.399C346.225 155.939 345.634 155.665 345.008 155.64H329.113C328.488 155.667 327.898 155.94 327.473 156.4C327.048 156.861 326.823 157.471 326.846 158.097C326.823 158.723 327.048 159.333 327.473 159.793C327.898 160.254 328.488 160.527 329.113 160.554H329.645C329.226 161.021 328.995 161.629 328.999 162.257C328.987 162.788 329.151 163.308 329.465 163.737C329.778 164.165 330.224 164.478 330.734 164.628H326.159C325.553 164.689 324.991 164.972 324.583 165.424C324.175 165.876 323.948 166.463 323.948 167.072C323.948 167.681 324.175 168.269 324.583 168.721C324.991 169.172 325.553 169.456 326.159 169.517H342.054C342.679 169.49 343.269 169.217 343.694 168.757C344.119 168.296 344.344 167.686 344.321 167.06C344.332 166.529 344.168 166.009 343.854 165.581C343.54 165.153 343.095 164.839 342.586 164.689H347.161C347.767 164.628 348.328 164.345 348.737 163.893C349.145 163.441 349.371 162.854 349.371 162.245C349.371 161.636 349.145 161.048 348.737 160.596C348.328 160.145 347.767 159.861 347.161 159.8Z" fill="#00308F"/>
<path opacity="0.1" d="M66.4439 168.668C84.3181 166.091 96.0403 144.784 92.6261 121.078C89.2119 97.3716 71.9542 80.2432 54.08 82.8203C36.2057 85.3975 24.4835 106.704 27.8977 130.41C31.3119 154.116 48.5696 171.245 66.4439 168.668Z" fill="black"/>
<path d="M67.29 168.318C85.1643 165.74 96.8865 144.434 93.4723 120.728C90.0581 97.0214 72.8004 79.893 54.9261 82.4702C37.0518 85.0473 25.3296 106.354 28.7438 130.06C32.158 153.766 49.4158 170.895 67.29 168.318Z" fill="#B38700"/>
<path d="M91.2407 131.104C91.007 135.119 90.2559 139.087 89.0062 142.909C87.5898 147.363 85.2966 151.489 82.2619 155.042C78.5787 159.256 73.897 162.044 68.585 162.822C67.7077 162.947 66.8233 163.015 65.9372 163.027C51.5728 163.223 38.1578 148.286 35.2644 128.193C32.2074 106.876 42.1315 87.7742 57.4618 85.5835C62.0248 84.9243 66.547 85.8333 70.7335 88.0035C76.7617 91.1155 82.0941 96.8399 85.8264 104.235C88.3301 109.255 90.0038 114.648 90.7823 120.204C91.3095 123.812 91.4631 127.465 91.2407 131.104Z" fill="#FFF3CC"/>
<path d="M69.5222 125.875L67.5415 143.929C67.5415 143.929 73.8766 143.335 75.7264 140.166L69.8865 125.572L69.5222 125.875Z" fill="#CCC2A3"/>
<path opacity="0.2" d="M41.6487 125.274L51.6137 124.602C51.6137 124.602 52.6491 132.177 55.7962 136.44L48.7204 144.138C48.7204 144.138 41.3827 132.439 41.6487 125.274Z" fill="black"/>
<path opacity="0.3" d="M66.8842 124.334L43.3782 149.556L43.6775 149.835L67.1835 124.614L66.8842 124.334Z" fill="white"/>
<path opacity="0.3" d="M34.9862 125.978L34.9535 125.568L67.6438 123.185L67.6765 123.591L34.9862 125.978Z" fill="white"/>
<path opacity="0.2" d="M85.8183 104.219L82.9904 107.65C75.9964 94.2561 70.1606 93.5027 70.1606 93.5027L70.7254 87.983C76.7617 91.0991 82.0942 96.8235 85.8183 104.219Z" fill="black"/>
<path opacity="0.2" d="M54.8835 108.473L67.7911 121.986L66.8866 122.366L51.8756 116.462C51.8756 116.462 53.0788 111.659 54.8835 108.473Z" fill="black"/>
<path opacity="0.3" d="M35.8932 109.741L35.7435 110.122L66.8857 122.365L67.0354 121.984L35.8932 109.741Z" fill="white"/>
<path opacity="0.2" d="M70.5903 123.107L81.1161 121.617C81.1161 121.617 81.8568 125.974 81.4639 127.247C81.4514 127.286 81.4364 127.325 81.4189 127.362L70.5903 123.107Z" fill="black"/>
<path opacity="0.2" d="M46.5881 100.054C46.5881 100.054 50.9874 93.6951 56.4672 92.0081L61.3126 103.6C61.3126 103.6 56.59 105.349 54.9366 108.837L46.5881 100.054Z" fill="black"/>
<path opacity="0.3" d="M68.8061 120.921L68.4541 120.876C68.3764 120.876 68.2904 120.851 68.2331 120.606L53.8073 86.4557L54.1838 86.296L68.1431 119.349C68.1431 117.51 68.3641 113.415 69.1294 104.288C69.8046 96.2298 70.5904 88.0813 70.5986 87.9994L71.0078 88.0404C69.8374 100.165 68.2741 118.341 68.5851 120.389L68.8061 120.921Z" fill="white"/>
<path opacity="0.3" d="M42.2238 95.3354L41.9303 95.6208L67.1626 121.6L67.4561 121.315L42.2238 95.3354Z" fill="white"/>
<path opacity="0.2" d="M78.3987 112.473L82.8063 107.478C82.8063 107.478 86.9928 117.809 86.5222 120.88L81.288 121.617C81.288 121.617 79.4055 112.752 78.3987 112.473Z" fill="black"/>
<path opacity="0.3" d="M85.6671 104.093L70.1849 121.535L70.4909 121.806L85.9731 104.365L85.6671 104.093Z" fill="white"/>
<path opacity="0.3" d="M81.4803 121.801L81.4558 121.584C81.4558 121.519 81.4558 121.457 81.4271 121.396C81.3985 121.334 81.4271 121.228 81.3944 121.142C80.9757 118.151 80.06 115.252 78.6852 112.564C78.6402 112.478 78.5952 112.392 78.5461 112.306C78.5275 112.263 78.5056 112.222 78.4806 112.183C76.2789 108.088 73.1195 105.029 69.5959 103.584C69.465 103.527 69.334 103.477 69.1867 103.428C67.3625 102.73 65.3914 102.506 63.4573 102.777C62.7378 102.88 62.0304 103.054 61.3456 103.297C61.2924 103.311 61.2404 103.328 61.1901 103.35L60.9568 103.436C58.4925 104.453 56.3867 106.18 54.9082 108.399L54.8632 108.465L54.7445 108.641C54.719 108.673 54.6957 108.708 54.6749 108.743C54.503 109.001 54.3353 109.263 54.1757 109.538C54.016 109.812 53.8728 110.062 53.7296 110.357C52.8059 112.131 52.1312 114.024 51.7243 115.983C51.6916 116.118 51.6629 116.257 51.6383 116.392C51.134 119.026 51.0264 121.72 51.3191 124.385L51.3437 124.627C51.3437 124.68 51.3437 124.737 51.3642 124.79C51.3928 125.016 51.4214 125.241 51.4542 125.466C51.9902 129.391 53.403 133.144 55.5875 136.448C55.6121 136.489 55.6407 136.526 55.6694 136.567C55.698 136.608 55.7717 136.718 55.829 136.792C55.9681 136.997 56.1114 137.201 56.2628 137.39C59.1275 141.202 62.9621 143.63 66.9809 143.917C67.1568 143.917 67.3369 143.937 67.517 143.941H67.9262C68.4083 143.937 68.8896 143.9 69.3667 143.831C71.8232 143.445 74.0972 142.3 75.8696 140.555C75.976 140.457 76.0824 140.354 76.1847 140.248C77.8554 138.516 79.1572 136.463 80.0112 134.212C80.0684 134.073 80.1216 133.934 80.1748 133.803C80.8901 131.839 81.3495 129.791 81.5417 127.71L81.5786 127.28C81.7267 125.455 81.6938 123.62 81.4803 121.801ZM79.8802 133.492C79.8311 133.635 79.7779 133.778 79.7247 133.901C78.9084 136.109 77.6558 138.13 76.0415 139.843C75.9392 139.949 75.8369 140.055 75.7305 140.154C73.9996 141.89 71.7603 143.029 69.3381 143.405C68.8922 143.471 68.4424 143.506 67.9917 143.511H67.5824C63.3795 143.425 59.3526 140.891 56.3938 136.829L56.14 136.473C56.0582 136.358 55.9804 136.243 55.9068 136.125C53.7843 132.89 52.4126 129.222 51.8921 125.388C51.8593 125.171 51.8307 124.954 51.8061 124.741C51.8061 124.602 51.7734 124.467 51.7611 124.332C51.474 121.728 51.5746 119.097 52.0599 116.523C52.0844 116.384 52.109 116.249 52.1417 116.114C52.5398 114.167 53.2079 112.286 54.1265 110.524L54.3966 110.029C54.589 109.689 54.8059 109.357 54.9982 109.042C55.0596 108.948 55.121 108.854 55.1865 108.764C55.2 108.74 55.2151 108.716 55.2315 108.694C56.6707 106.51 58.7323 104.808 61.1492 103.809L61.5338 103.666C62.9199 103.186 64.3885 102.993 65.8514 103.097C66.988 103.183 68.106 103.434 69.1703 103.842L69.5796 104.002C73.009 105.443 76.0742 108.473 78.2105 112.498C78.2801 112.625 78.3455 112.756 78.411 112.887C79.7178 115.501 80.5887 118.312 80.9892 121.208L81.0261 121.457C81.0261 121.506 81.0261 121.56 81.0261 121.609C81.0261 121.658 81.0465 121.777 81.0547 121.863C81.2675 123.606 81.31 125.365 81.1816 127.116C81.1816 127.161 81.1816 127.206 81.1816 127.247L81.157 127.546C80.9882 129.575 80.5591 131.573 79.8802 133.492Z" fill="white"/>
<path opacity="0.2" d="M91.2408 131.104C91.0071 135.119 90.2561 139.087 89.0063 142.909L84.8034 138.655C85.9493 136.927 86.6532 129.483 86.6532 129.483L86.8946 129.651C87.1074 130.105 89.4319 130.699 91.2408 131.104Z" fill="black"/>
<path opacity="0.3" d="M70.9564 124.593L70.6678 124.883L88.8767 143.007L89.1653 142.717L70.9564 124.593Z" fill="white"/>
<path opacity="0.3" d="M91.1424 131.583L70.1483 123.091L90.7496 119.991L90.8109 120.397L71.6911 123.271L91.2939 131.203L91.1424 131.583Z" fill="white"/>
<path opacity="0.2" d="M82.2619 155.058C78.5788 159.272 73.897 162.06 68.5851 162.838C67.7078 162.963 66.8233 163.032 65.9373 163.043L66.7967 154.444C66.7967 154.444 74.6664 154.563 79.2254 148.208L82.2619 155.058Z" fill="black"/>
<path opacity="0.3" d="M70.2287 125.953L69.8511 126.111L82.0184 155.2L82.3959 155.042L70.2287 125.953Z" fill="white"/>
<path opacity="0.3" d="M69.0683 126.256L65.8802 163.011L66.288 163.047L69.476 126.292L69.0683 126.256Z" fill="white"/>
<path opacity="0.3" d="M86.7595 121.007C86.7595 120.872 86.7308 120.737 86.7104 120.597C86.6735 120.262 86.6285 119.926 86.5794 119.59C85.9958 115.447 84.8173 111.411 83.0804 107.605V107.568L82.9085 107.204C79.9087 100.877 75.5217 95.9391 70.533 93.2284C70.4348 93.171 70.3325 93.1178 70.2301 93.0646L70.1442 93.0195C66.891 91.2653 63.1669 90.5846 59.5039 91.0745C58.4862 91.2216 57.4845 91.4642 56.5123 91.7993L56.1276 91.9385C52.8267 93.2315 49.9434 95.4054 47.7914 98.2239C47.3821 98.7398 46.9906 99.2776 46.6168 99.8372C46.5391 99.9519 46.4613 100.067 46.3876 100.185C44.1039 103.808 42.5484 107.841 41.8082 112.06C41.7796 112.195 41.755 112.33 41.7346 112.469C41.017 116.639 40.9191 120.891 41.444 125.089C41.444 125.224 41.4767 125.36 41.4972 125.499C41.5177 125.638 41.5463 125.888 41.575 126.084C41.62 126.4 41.6691 126.719 41.7223 127.03C41.7223 127.03 41.7223 127.03 41.7223 127.059C41.9228 128.287 42.1725 129.479 42.4671 130.65C42.4652 130.662 42.4652 130.675 42.4671 130.687C43.6289 135.485 45.6746 140.024 48.4993 144.072C48.5771 144.187 48.6549 144.298 48.7408 144.412C49.5448 145.52 50.4197 146.575 51.36 147.569C51.9083 148.151 52.4731 148.695 53.046 149.207C56.7579 152.536 60.9035 154.428 65.1064 154.727C65.5975 154.76 66.0927 154.772 66.5838 154.76H66.7557C66.8361 154.764 66.9167 154.764 66.9971 154.76C67.545 154.739 68.0914 154.69 68.6341 154.612C72.661 154.031 76.3074 152 79.2744 148.736C79.3113 148.699 79.344 148.658 79.3767 148.622L79.5773 148.4C81.0077 146.754 82.2271 144.936 83.2072 142.987C83.8506 141.725 84.4084 140.422 84.877 139.085C84.9052 139.014 84.9297 138.942 84.9506 138.868C84.9788 138.797 85.0034 138.725 85.0243 138.651C85.9789 135.807 86.589 132.858 86.8413 129.868C86.8413 129.802 86.8413 129.741 86.8618 129.675C86.8822 129.61 86.8618 129.52 86.8822 129.442C86.9668 128.328 87.0105 127.202 87.0132 126.064C87.024 124.375 86.9392 122.686 86.7595 121.007ZM86.4771 129.696C86.2405 132.629 85.6552 135.524 84.7337 138.319C84.6873 138.461 84.6382 138.598 84.5864 138.729C84.1111 140.113 83.5394 141.462 82.8758 142.766C81.9402 144.624 80.7832 146.362 79.4299 147.942C79.3358 148.057 79.2335 148.171 79.1312 148.282C76.1846 151.557 72.5833 153.605 68.5891 154.174C68.0734 154.248 67.5578 154.297 67.0421 154.321H66.6329C61.9716 154.42 57.3144 152.491 53.2056 148.757C52.6859 148.286 52.1743 147.782 51.671 147.254C50.7255 146.252 49.8451 145.191 49.0355 144.076L48.9168 143.904L48.794 143.733C45.3195 138.819 42.9418 132.677 41.9801 125.99C41.9515 125.806 41.9269 125.622 41.9023 125.437C41.9023 125.368 41.9023 125.298 41.8737 125.224C41.8451 125.151 41.8737 125.097 41.8532 125.032C41.3327 120.895 41.4223 116.703 42.1192 112.592L42.1929 112.183C42.9171 108.018 44.4462 104.035 46.6946 100.456C46.7355 100.387 46.7805 100.318 46.8296 100.247C46.8583 100.198 46.891 100.148 46.9238 100.103C47.2839 99.5588 47.6645 99.0347 48.0574 98.5351C50.1776 95.7295 53.0333 93.5666 56.3077 92.2866L56.5819 92.1883L56.6965 92.1474C57.6357 91.8256 58.603 91.5926 59.5857 91.4513C60.7159 91.29 61.86 91.2488 62.9988 91.3284C65.49 91.5253 67.9127 92.2408 70.1115 93.429L70.1933 93.47L70.5003 93.6378C73.3234 95.2449 75.8217 97.3655 77.8666 99.8905C79.7722 102.217 81.3756 104.776 82.6384 107.507C82.6589 107.543 82.6752 107.584 82.6916 107.621L82.8266 107.908C84.5031 111.632 85.6439 115.575 86.2152 119.619C86.2643 119.955 86.3093 120.286 86.3502 120.622C86.3502 120.704 86.3502 120.782 86.3789 120.864C86.4075 120.945 86.3789 120.974 86.3789 121.031C86.6902 123.75 86.7436 126.492 86.5385 129.221C86.5139 129.393 86.4935 129.551 86.4771 129.696Z" fill="white"/>
<path d="M69.2939 126.276C70.4191 126.114 71.1505 124.727 70.9274 123.178C70.7043 121.629 69.6113 120.505 68.486 120.667C67.3608 120.829 66.6294 122.216 66.8525 123.765C67.0756 125.314 68.1686 126.438 69.2939 126.276Z" fill="#00308F"/>
<path opacity="0.2" d="M69.2939 126.276C70.4191 126.114 71.1505 124.727 70.9274 123.178C70.7043 121.629 69.6113 120.505 68.486 120.667C67.3608 120.829 66.6294 122.216 66.8525 123.765C67.0756 125.314 68.1686 126.438 69.2939 126.276Z" fill="black"/>
<path opacity="0.1" d="M274.377 24.3226C277.437 24.3226 279.918 21.8404 279.918 18.7784C279.918 15.7164 277.437 13.2341 274.377 13.2341C271.317 13.2341 268.836 15.7164 268.836 18.7784C268.836 21.8404 271.317 24.3226 274.377 24.3226Z" fill="#00308F"/>
<path opacity="0.1" d="M19.3941 83.6713C22.4544 83.6713 24.9352 81.1891 24.9352 78.1271C24.9352 75.0651 22.4544 72.5828 19.3941 72.5828C16.3338 72.5828 13.8529 75.0651 13.8529 78.1271C13.8529 81.1891 16.3338 83.6713 19.3941 83.6713Z" fill="#00308F"/>
<path opacity="0.1" d="M408.911 123.05C411.972 123.05 414.453 120.568 414.453 117.506C414.453 114.444 411.972 111.962 408.911 111.962C405.851 111.962 403.37 114.444 403.37 117.506C403.37 120.568 405.851 123.05 408.911 123.05Z" fill="#00308F"/>
<path opacity="0.1" d="M386.493 156.508C389.553 156.508 392.034 154.026 392.034 150.964C392.034 147.902 389.553 145.42 386.493 145.42C383.433 145.42 380.952 147.902 380.952 150.964C380.952 154.026 383.433 156.508 386.493 156.508Z" fill="#00308F"/>
<path opacity="0.1" d="M290.685 12.9557C292.096 12.9557 293.239 11.8117 293.239 10.4006C293.239 8.98942 292.096 7.84546 290.685 7.84546C289.275 7.84546 288.132 8.98942 288.132 10.4006C288.132 11.8117 289.275 12.9557 290.685 12.9557Z" fill="#00308F"/>
<path opacity="0.1" d="M2.55368 67.8084C3.96403 67.8084 5.10735 66.6644 5.10735 65.2533C5.10735 63.8421 3.96403 62.6982 2.55368 62.6982C1.14332 62.6982 0 63.8421 0 65.2533C0 66.6644 1.14332 67.8084 2.55368 67.8084Z" fill="#00308F"/>
<path opacity="0.1" d="M405.924 185.069C407.334 185.069 408.478 183.925 408.478 182.514C408.478 181.102 407.334 179.958 405.924 179.958C404.514 179.958 403.37 181.102 403.37 182.514C403.37 183.925 404.514 185.069 405.924 185.069Z" fill="#00308F"/>
<path opacity="0.1" d="M304.591 3.61153C305.588 3.61153 306.396 2.80306 306.396 1.80577C306.396 0.808469 305.588 0 304.591 0C303.595 0 302.787 0.808469 302.787 1.80577C302.787 2.80306 303.595 3.61153 304.591 3.61153Z" fill="#00308F"/>
<path opacity="0.1" d="M13.8529 105.414C14.8496 105.414 15.6576 104.606 15.6576 103.608C15.6576 102.611 14.8496 101.803 13.8529 101.803C12.8561 101.803 12.0481 102.611 12.0481 103.608C12.0481 104.606 12.8561 105.414 13.8529 105.414Z" fill="#00308F"/>
<path d="M395.701 262.389C395.701 262.389 392.64 249.216 390.602 233.202C388.564 217.187 372.763 190.576 372.763 190.576C372.693 190.441 372.62 190.302 372.546 190.166C370.096 185.514 367.149 181.141 363.756 177.125C356.798 168.907 350.488 165.213 350.173 165.033C349.674 164.272 349.137 163.432 348.573 162.535C346.453 159.182 343.932 154.964 341.526 150.411C341.526 150.304 341.489 150.202 341.468 150.096C340.396 143.61 340.355 136.788 343.58 131.186C345.172 128.422 347.468 126.146 349.219 123.484C352.084 119.144 353.385 113.964 354.437 108.854C355.178 105.279 355.816 101.635 355.628 97.9946C355.628 97.9373 355.628 97.884 355.628 97.8308C355.628 97.5769 355.595 97.323 355.571 97.0692C354.969 90.4685 351.511 84.5394 348.139 78.86C346.363 75.8709 344.497 72.7876 341.636 70.8549C335.686 66.8379 328.393 69.3521 322.033 67.0509C315.277 64.594 309.101 62.3051 301.747 61.5517C299.14 61.2855 296.276 61.22 294.164 62.7801C291.946 64.418 291.209 67.4071 289.736 69.7698C286.924 74.2739 281.621 76.3213 277.143 79.1548C273.743 81.2882 270.481 84.6991 269.777 88.4539C269.777 88.4539 269.777 88.4334 269.777 88.4212C269.703 88.8268 269.659 89.2374 269.646 89.6496C269.646 89.6741 269.646 89.7028 269.646 89.7274V89.8502C269.632 90.6079 269.735 91.3632 269.949 92.09C270.203 92.2211 270.46 92.3357 270.722 92.4503C270.559 92.7165 270.395 92.9827 270.24 93.2693L269.896 93.8794C267.162 98.8146 265.506 104.274 265.038 109.898C264.57 115.521 265.3 121.179 267.181 126.499C269.061 131.819 272.049 136.678 275.946 140.757C279.844 144.835 284.562 148.039 289.789 150.157C290.03 150.747 290.28 151.357 290.526 151.987C294.75 162.623 296.97 173.948 297.074 185.392C297.074 185.499 297.074 185.605 297.074 185.711C297.074 186.121 297.074 186.53 297.074 186.96C293.39 191.628 289.572 197.418 289.707 201.423C289.928 208.13 280.99 223.735 278.58 227.813L278.097 228.632C275.691 226.888 272.83 225.32 271.443 226.421L270.28 225.676C264.404 221.9 253.911 214.907 249.953 210.726C244.347 204.785 233.387 199.359 233.387 199.359C233.387 199.359 224.723 189.024 225.235 185.15C225.489 183.222 222.01 167.826 217.701 156.528C220.848 156.86 224.081 157.257 225.067 157.38L225.309 157.593L225.648 157.646C237.561 168.121 240.168 163.453 240.168 163.453C241.142 162.793 241.474 160.807 241.568 160.046C241.568 159.972 241.568 159.915 241.568 159.866H241.629C241.629 159.804 241.629 159.755 241.629 159.714C241.654 159.669 241.676 159.623 241.695 159.575L241.723 159.522L241.744 159.481C241.744 159.448 241.773 159.411 241.789 159.374C241.858 159.244 241.911 159.107 241.949 158.965H241.916C242.073 158.108 242.156 157.24 242.165 156.369C242.168 155.696 241.941 155.042 241.521 154.516C241.101 153.99 240.514 153.624 239.857 153.478C239.857 153.457 239.857 153.437 239.837 153.412C238.29 148.81 227.04 155.636 225.796 156.41L225.493 156.442C223.238 155.992 219.763 155.169 216.821 154.457C212.831 144.744 208.305 139.306 205.403 151.259L202.735 150.8C202.403 150.74 202.063 150.749 201.734 150.827C201.406 150.904 201.098 151.048 200.828 151.25C200.452 151.527 200.141 151.882 199.915 152.29L188.338 150.456L185.608 150.55L187.92 151.668L188.092 151.75L199.67 153.638C199.74 154.185 199.989 154.693 200.377 155.085C200.765 155.476 201.272 155.729 201.818 155.804L204.417 156.18C199.776 183.283 210.146 192.128 210.146 192.128C210.146 192.128 222.632 204.379 222.632 207.278C222.632 209.735 247.007 238.918 254.414 247.726C255.74 249.306 256.526 250.232 256.526 250.232C259.435 253.577 273.428 265.005 279.939 270.271C280.577 275.594 281.166 280.918 281.506 283.837L282.734 283.804L288.557 283.645L291.692 283.55C294.393 283.477 297.091 283.399 299.787 283.317L300.818 283.288L303.171 283.215C306.208 283.127 309.243 283.037 312.277 282.944C316.754 282.809 321.231 282.678 325.712 282.535C331.851 282.318 337.965 282.068 344.083 281.716C345.61 281.63 347.14 281.54 348.671 281.438L349.678 281.368L351.315 281.257C361.325 280.549 371.294 279.529 381.189 277.957C383.162 277.642 385.147 277.298 387.123 276.909C388.286 276.688 389.448 276.446 390.602 276.184C392.943 275.664 395.263 275.07 397.53 274.386C396.565 267.466 395.701 262.389 395.701 262.389Z" fill="url(#paint0_linear)"/>
<path d="M226.909 159.112L225.386 159.059C225.386 159.059 215.061 157.777 211.755 157.7C211.421 157.652 211.082 157.678 210.76 157.777L211.493 154.821L212.389 155.042C215.536 155.82 225.968 158.375 227.645 158.433C229.63 158.498 226.909 159.112 226.909 159.112Z" fill="#00308F"/>
<path d="M225.71 158.13C225.71 158.13 238.233 150.292 239.869 155.104C241.506 159.915 237.238 160.623 237.238 160.623L225.71 158.13Z" fill="#00308F"/>
<path opacity="0.2" d="M225.71 158.13C225.71 158.13 238.233 150.292 239.869 155.104C241.506 159.915 237.238 160.623 237.238 160.623L225.71 158.13Z" fill="black"/>
<path d="M240.164 165.021C240.164 165.021 237.525 169.697 225.37 159.059L225.538 158.842L226.041 158.191C226.041 158.191 241.773 150.956 242.182 158.023C242.176 158.942 242.077 159.859 241.887 160.758C241.843 160.954 241.758 161.138 241.637 161.299L241.58 161.352C241.58 161.352 241.58 161.463 241.547 161.651C241.47 162.404 241.138 164.362 240.164 165.021Z" fill="#00308F"/>
<path opacity="0.1" d="M240.164 165.021C240.164 165.021 237.525 169.697 225.37 159.059L225.538 158.842L225.82 158.551L241.638 161.299L241.58 161.352C241.58 161.352 241.58 161.463 241.548 161.651C241.47 162.404 241.138 164.362 240.164 165.021Z" fill="black"/>
<path opacity="0.1" d="M241.646 161.483L225.464 158.879L224.646 158.183L226.127 158.011L241.969 160.578C241.927 160.801 241.822 161.007 241.666 161.172C241.666 161.172 241.67 161.295 241.646 161.483Z" fill="black"/>
<path opacity="0.1" d="M241.486 161.819L225.305 159.227L224.486 158.535L225.963 158.359L241.822 160.926C241.781 161.15 241.674 161.357 241.515 161.52C241.515 161.52 241.511 161.635 241.486 161.819Z" fill="black"/>
<path d="M241.564 161.651L225.37 159.059L224.552 158.367L226.029 158.191L241.875 160.758C241.829 160.981 241.723 161.186 241.568 161.352C241.568 161.352 241.588 161.463 241.564 161.651Z" fill="#4C4C56"/>
<path opacity="0.1" d="M211.755 157.7C211.421 157.652 211.082 157.678 210.76 157.777L211.493 154.821L212.389 155.042C212.288 155.951 212.075 156.843 211.755 157.7Z" fill="black"/>
<path d="M211.865 154.063L202.776 152.524C202.444 152.465 202.104 152.474 201.776 152.55C201.448 152.627 201.139 152.77 200.869 152.97C200.495 153.212 200.19 153.547 199.985 153.941C199.779 154.336 199.679 154.777 199.694 155.222C199.746 155.786 199.989 156.316 200.383 156.723C200.777 157.13 201.297 157.391 201.859 157.462L210.973 158.756C210.973 158.756 212.618 154.739 211.865 154.063Z" fill="#D1D9EC"/>
<path opacity="0.1" d="M185.808 152.36L188.542 152.262L200.324 154.109C200.411 154.122 200.494 154.152 200.568 154.198C200.642 154.244 200.707 154.305 200.757 154.377C200.807 154.448 200.843 154.529 200.861 154.614C200.88 154.7 200.881 154.788 200.865 154.874C200.832 155.039 200.736 155.185 200.598 155.282C200.46 155.378 200.29 155.417 200.124 155.39L188.129 153.462L185.808 152.36Z" fill="black"/>
<path d="M185.641 152.278L188.37 152.184L200.156 154.027C200.242 154.04 200.323 154.071 200.397 154.117C200.47 154.163 200.533 154.222 200.583 154.293C200.633 154.363 200.668 154.443 200.687 154.528C200.706 154.612 200.708 154.699 200.693 154.784C200.661 154.949 200.566 155.096 200.429 155.192C200.292 155.289 200.122 155.329 199.956 155.304L187.957 153.371L185.641 152.278Z" fill="#DFE6F5"/>
<path d="M274.393 229.013L256.554 250.686C256.554 250.686 255.769 249.773 254.443 248.209C247.035 239.516 222.661 210.726 222.661 208.286C222.661 205.419 210.175 193.315 210.175 193.315C210.175 193.315 198.962 183.898 205.076 154.547C211.19 125.196 225.718 182.604 225.21 186.428C224.703 190.253 233.363 200.452 233.363 200.452C233.363 200.452 244.322 205.808 249.929 211.672C253.874 215.799 264.379 222.703 270.256 226.413C272.736 228.002 274.393 229.013 274.393 229.013Z" fill="#FDC2CC"/>
<path opacity="0.1" d="M274.393 229.013L256.554 250.686C256.554 250.686 255.769 249.773 254.443 248.209C254.729 242.141 267.538 228.751 269.806 226.716C269.939 226.596 270.091 226.5 270.256 226.429C272.736 228.002 274.393 229.013 274.393 229.013Z" fill="black"/>
<path d="M282.038 232.584C282.038 232.584 273.882 224.935 271.336 227.232C268.791 229.529 252.732 246.354 256.555 250.69C260.377 255.027 283.311 273.121 283.311 273.121L282.038 232.584Z" fill="#60E1D7"/>
<path d="M353.647 171.642C353.647 171.642 345.688 179.328 335.718 187.665L335.342 187.976L334.761 188.459C318.858 201.619 298.363 215.82 296.251 203.667C296.014 202.081 296.005 200.469 296.222 198.88C296.247 198.647 296.28 198.405 296.312 198.159C296.345 197.914 296.378 197.684 296.402 197.451C296.799 194.388 297.019 191.305 297.061 188.217C297.061 187.697 297.061 187.181 297.061 186.67C296.956 175.365 294.735 164.181 290.513 153.695C290.268 153.073 290.018 152.467 289.777 151.889C286.503 144.076 283.298 139.515 283.298 139.515C283.298 139.515 288.033 136.649 294.598 132.963C297.008 131.62 299.66 130.175 302.418 128.725C317.56 120.782 335.768 112.838 333.247 122.174C332.056 126.592 333.161 132.456 335.354 138.594C335.477 138.933 335.6 139.265 335.727 139.601C337.149 143.31 338.789 146.932 340.638 150.448L340.76 150.685C343.392 155.73 346.228 160.443 348.577 164.108C349.142 164.992 349.678 165.819 350.177 166.565C352.236 169.718 353.647 171.642 353.647 171.642Z" fill="#FDC2CC"/>
<path opacity="0.1" d="M335.739 139.601C335.62 139.777 335.493 139.953 335.366 140.125C331.544 145.325 327.12 148.421 321.861 150.165C318.236 151.373 314.2 151.942 309.678 152.123C308.553 152.164 307.403 152.184 306.216 152.184C303.481 152.189 300.748 152.032 298.031 151.713C296.603 151.488 295.109 152.45 293.665 153.154C292.588 153.674 291.536 154.055 290.554 153.695C290.309 153.073 290.059 152.467 289.818 151.889C286.544 144.076 283.339 139.515 283.339 139.515C283.339 139.515 288.074 136.649 294.639 132.963C297.049 131.62 299.701 130.175 302.459 128.725C317.601 120.782 335.808 112.838 333.287 122.174C332.097 126.592 333.202 132.456 335.395 138.594C335.489 138.934 335.612 139.265 335.739 139.601Z" fill="black"/>
<path d="M342.946 115.475C342.946 116.073 342.946 116.662 342.905 117.252C342.513 125.922 339.246 134.214 333.62 140.82C327.993 147.425 320.328 151.967 311.835 153.728C307.189 154.684 302.408 154.791 297.724 154.043C296.345 153.828 294.978 153.535 293.632 153.167C292.328 152.813 291.044 152.391 289.785 151.901C284.575 149.875 279.861 146.754 275.96 142.749C272.059 138.743 269.063 133.947 267.174 128.684C265.284 123.421 264.545 117.813 265.007 112.24C265.469 106.666 267.12 101.257 269.851 96.3772L270.194 95.7753C274.521 88.3661 281.166 82.5886 289.102 79.3352C297.038 76.0819 305.824 75.5337 314.103 77.7754C322.381 80.0171 329.692 84.9239 334.905 91.7379C340.118 98.5518 342.944 106.894 342.946 115.475Z" fill="#FDC2CC"/>
<path opacity="0.1" d="M353.647 171.642C353.647 171.642 291.721 231.56 296.308 198.159C296.828 194.352 297.083 190.513 297.069 186.67C299.218 184.011 301.501 181.464 303.908 179.037L312.608 172.744C321.579 166.192 332.518 162.904 343.613 163.424C345.286 163.467 346.95 163.696 348.573 164.108C351.491 168.682 353.647 171.642 353.647 171.642Z" fill="black"/>
<path d="M397.539 274.509C395.272 275.185 392.951 275.771 390.61 276.282C389.456 276.54 388.294 276.778 387.132 276.999C385.155 277.38 383.17 277.72 381.198 278.031C371.319 279.583 361.349 280.59 351.323 281.307L349.686 281.417L348.679 281.483C347.149 281.585 345.618 281.675 344.092 281.761C337.973 282.105 331.847 282.355 325.721 282.58C321.219 282.736 316.762 282.867 312.285 282.99L303.18 283.256L300.827 283.325L299.795 283.354C297.1 283.436 294.401 283.514 291.7 283.587L288.566 283.677L282.742 283.837L281.514 283.87C281.187 280.979 280.585 275.725 279.947 270.48L279.8 269.252C279.096 263.466 278.367 257.909 277.946 255.805C276.927 250.707 277.946 229.541 277.946 229.541L278.056 229.365L278.539 228.546C280.95 224.521 289.887 209.117 289.666 202.496C289.536 198.544 293.35 192.828 297.033 188.222C297.516 187.624 297.995 187.042 298.465 186.489C301.399 183.038 303.912 180.581 303.912 180.581L312.609 174.283C321.584 167.738 332.523 164.454 343.617 164.972C346.891 165.14 349.502 165.598 350.165 166.585C350.447 166.745 356.79 170.389 363.748 178.521C367.136 182.48 370.084 186.797 372.538 191.395C372.612 191.526 372.685 191.661 372.755 191.804C372.755 191.804 388.556 218.068 390.594 233.878C392.632 249.687 395.693 262.688 395.693 262.688C395.693 262.688 396.565 267.679 397.539 274.509Z" fill="#8CF2F0"/>
<path opacity="0.1" d="M350.336 262.414C349.08 264.461 350.05 274.047 351.339 281.29L349.702 281.401L348.695 281.466C347.165 281.569 345.634 281.659 344.108 281.745C337.99 282.089 331.863 282.338 325.737 282.564C321.235 282.719 316.779 282.85 312.301 282.973L303.196 283.239C303.196 282.306 302.909 281.499 302.169 281.028C301.651 280.655 301.193 280.207 300.81 279.697C300.691 279.554 300.568 279.398 300.446 279.239C297.61 275.472 294.016 267.774 294.016 267.774C294.016 267.774 289.429 268.793 288.917 231.331C288.754 219.12 291.913 210.186 296.247 203.687C305.226 190.232 319.242 187.218 319.242 187.218C324.436 186.314 329.774 186.75 334.753 188.484C336.705 189.169 338.586 190.046 340.367 191.1C342.755 192.537 344.982 194.227 347.009 196.141L347.664 196.767C361.955 210.689 365.331 232.428 356.504 250.334C353.676 256.055 351.126 261.128 350.336 262.414Z" fill="#60E1D7"/>
<path d="M348.298 260.374C346.915 262.627 348.233 274.063 349.706 281.401L348.7 281.466C347.169 281.569 345.638 281.659 344.112 281.745C337.994 282.089 331.867 282.338 325.741 282.564C321.239 282.719 316.783 282.85 312.306 282.973L303.2 283.239L300.847 283.309C301.207 281.986 301.342 280.623 300.814 279.697C300.716 279.527 300.593 279.373 300.45 279.239C300.356 279.143 300.25 279.059 300.135 278.989C297.331 277.204 291.978 265.726 291.978 265.726C291.978 265.726 287.395 266.75 286.883 229.283C286.695 215.255 290.894 205.534 296.222 198.892C305.136 187.767 317.208 185.171 317.208 185.171C318.789 184.909 320.386 184.761 321.988 184.729H322.037C326.764 184.624 331.45 185.634 335.714 187.677C339.381 189.467 342.729 191.85 345.622 194.728C346.097 195.191 346.563 195.662 347.009 196.141C360.105 210.1 363.003 230.987 354.466 248.295C351.638 254.015 349.088 259.089 348.298 260.374Z" fill="#60E1D7"/>
<path opacity="0.1" d="M316.775 235.2C316.775 235.2 291.627 253.057 293.771 255.514C295.915 257.971 316.775 235.2 316.775 235.2Z" fill="black"/>
<path opacity="0.1" d="M352.064 241.633C352.064 241.633 344.206 234.631 344.775 237.346C345.344 240.061 352.064 241.633 352.064 241.633Z" fill="black"/>
<path opacity="0.1" d="M344.112 281.745C337.994 282.089 331.867 282.338 325.741 282.564C315.252 281.335 304.346 279.529 304.346 279.529C305.291 278.977 338.755 278.309 344.112 281.745Z" fill="black"/>
<path opacity="0.1" d="M390.61 276.282C389.456 276.54 388.294 276.778 387.132 276.999C386.677 269.673 386.497 263.364 386.497 263.364C388.092 267.595 389.465 271.907 390.61 276.282Z" fill="black"/>
<path opacity="0.1" d="M291.721 283.571L288.586 283.661C286.089 276.839 283.945 268.748 283.069 265.313C282.799 264.252 282.66 263.634 282.66 263.634L283.049 264.453C284.338 267.143 288.61 276.119 291.721 283.571Z" fill="black"/>
<path opacity="0.1" d="M340.368 129.426C339.119 132.694 337.434 135.778 335.358 138.594C335.481 138.934 335.604 139.265 335.731 139.601C337.153 143.31 338.793 146.932 340.642 150.448L340.764 150.685C340.977 152.323 341.272 153.961 341.612 155.558C335.391 155.886 329.164 156.029 322.93 155.988C320.22 155.988 317.47 155.91 314.888 155.099C313.821 154.762 312.799 154.298 311.843 153.715C311.075 153.249 310.349 152.716 309.674 152.123C306.309 149.08 304.184 144.901 303.707 140.387C303.335 136.87 303.867 133.225 302.848 129.839C302.731 129.463 302.594 129.092 302.439 128.729C301.605 126.801 300.29 125.119 298.618 123.847C296.946 122.574 294.976 121.754 292.895 121.465C292.293 121.334 291.664 121.42 291.119 121.707C290.654 122.094 290.319 122.614 290.157 123.198L285.938 134.208C282.934 134.962 280.814 131.035 281.064 127.947C281.314 124.86 282.701 121.699 281.674 118.775C281.359 117.87 280.823 117.047 280.593 116.122C279.681 112.473 283.601 109.235 283.634 105.476C283.659 102.384 281.015 99.8863 278.208 98.6006C275.633 97.4213 272.789 96.9136 270.211 95.763C274.542 88.361 281.187 82.5908 289.121 79.3432C297.055 76.0955 305.837 75.5509 314.111 77.7932C322.385 80.0356 329.692 84.9404 334.903 91.7506C340.114 98.5608 342.941 106.898 342.946 115.475C342.946 116.073 342.946 116.662 342.905 117.252C342.718 121.42 341.862 125.531 340.368 129.426Z" fill="black"/>
<path d="M301.731 64.4507C299.124 64.1886 296.259 64.1231 294.148 65.6791C291.929 67.317 291.193 70.2488 289.72 72.5787C286.908 77.0337 281.604 79.0688 277.127 81.8409C272.65 84.613 268.41 89.5636 269.908 94.6164C272.666 96.0086 275.797 96.4959 278.605 97.7816C281.412 99.0674 284.056 101.565 284.031 104.657C283.998 108.416 280.078 111.655 280.99 115.303C281.22 116.228 281.756 117.051 282.071 117.956C283.09 120.88 281.711 124.041 281.461 127.128C281.211 130.216 283.331 134.143 286.335 133.389L290.583 122.379C290.744 121.795 291.08 121.275 291.545 120.888C292.09 120.601 292.719 120.515 293.321 120.647C295.595 120.965 297.733 121.92 299.488 123.402C301.243 124.883 302.544 126.831 303.241 129.02C304.26 132.407 303.728 136.051 304.1 139.568C304.784 146.054 309.069 152.327 315.289 154.28C317.871 155.099 320.609 155.153 323.331 155.169C329.559 155.215 335.787 155.072 342.013 154.739C340.478 147.516 339.852 139.535 343.572 133.164C345.164 130.437 347.46 128.189 349.211 125.56C352.076 121.277 353.377 116.163 354.429 111.122C355.248 107.302 355.915 103.395 355.554 99.5096C354.953 92.9949 351.495 87.1395 348.123 81.5379C346.347 78.5856 344.48 75.5392 341.62 73.631C335.669 69.6674 328.377 72.1529 322.017 69.8762C315.26 67.4644 309.085 65.1959 301.731 64.4507Z" fill="#865A61"/>
<g opacity="0.1">
<path opacity="0.1" d="M282.333 118.923C282.551 117.619 282.46 116.282 282.067 115.02C281.78 114.201 281.318 113.444 281.06 112.617C280.812 113.468 280.788 114.37 280.99 115.233C281.22 116.159 281.756 116.982 282.067 117.887C282.185 118.224 282.274 118.57 282.333 118.923Z" fill="black"/>
<path opacity="0.1" d="M283.839 103.154C283.957 102.685 284.02 102.204 284.027 101.721C284.052 98.6334 281.412 96.1315 278.605 94.8458C275.797 93.56 272.666 93.0728 269.908 91.6806C269.841 91.4529 269.785 91.2219 269.74 90.9886C269.51 92.171 269.568 93.3914 269.908 94.5469C272.666 95.9391 275.797 96.4263 278.605 97.7121C280.966 98.7931 283.196 100.734 283.839 103.154Z" fill="black"/>
<path opacity="0.1" d="M323.327 152.233C320.621 152.233 317.871 152.155 315.289 151.345C309.068 149.391 304.784 143.118 304.1 136.632C303.728 133.115 304.26 129.475 303.241 126.084C302.543 123.893 301.24 121.944 299.481 120.462C297.723 118.98 295.582 118.026 293.304 117.711C292.702 117.579 292.073 117.665 291.528 117.952C291.062 118.338 290.726 118.859 290.567 119.443L286.347 130.453C283.933 131.059 282.091 128.644 281.588 126.068C281.543 126.4 281.498 126.731 281.473 127.059C281.22 130.146 283.343 134.073 286.347 133.32L290.595 122.309C290.755 121.725 291.091 121.204 291.557 120.819C292.102 120.531 292.731 120.446 293.333 120.577C295.607 120.895 297.745 121.851 299.5 123.332C301.255 124.814 302.556 126.761 303.253 128.951C304.272 132.341 303.74 135.981 304.113 139.499C304.796 145.985 309.081 152.258 315.301 154.211C317.884 155.03 320.621 155.083 323.339 155.099C329.573 155.146 335.802 155.009 342.025 154.69C341.828 153.752 341.644 152.802 341.481 151.848C335.432 152.146 329.381 152.274 323.327 152.233Z" fill="black"/>
<path opacity="0.1" d="M354.429 108.186C353.373 113.227 352.068 118.341 349.211 122.624C347.459 125.253 345.164 127.501 343.572 130.228C341.296 134.122 340.65 138.618 340.838 143.176C340.993 139.617 341.775 136.17 343.572 133.094C345.164 130.367 347.459 128.119 349.211 125.491C352.076 121.208 353.373 116.093 354.429 111.053C355.174 107.494 355.82 103.862 355.616 100.238C355.422 102.914 355.025 105.571 354.429 108.186Z" fill="black"/>
</g>
<defs>
<linearGradient id="paint0_linear" x1="291.59" y1="283.853" x2="291.59" y2="61.4247" gradientUnits="userSpaceOnUse">
<stop stop-color="#808080" stop-opacity="0.25"/>
<stop offset="0.54" stop-color="#808080" stop-opacity="0.12"/>
<stop offset="1" stop-color="#808080" stop-opacity="0.1"/>
</linearGradient>
</defs>
</svg>
