<svg width="612" height="375" viewBox="0 0 612 375" fill="none" xmlns="http://www.w3.org/2000/svg">
<path d="M282.485 24.5624C261.211 24.4491 240.703 18.9693 220.149 14.7193C197.287 10.0008 174.144 6.76027 150.866 5.01779C126.073 3.15343 100.708 3.00043 76.6292 7.9475C52.5506 12.8946 29.7073 23.3724 15.8461 39.381C-7.68287 66.5021 -1.27927 102.781 11.0972 134.016C25.7802 171.059 47.9321 206.8 80.8001 236.017C104.176 256.78 132.448 273.837 160.528 290.753C176.395 300.307 192.381 309.929 210.396 316.82C227.165 323.206 245.316 327.065 263.342 330.885C282.61 334.965 301.877 339.056 321.558 341.595C384.37 349.71 448.616 341.855 511.331 333.327C533.432 330.324 556.445 326.907 574.018 316.14C587.71 307.747 596.777 295.598 603.237 283.04C611.703 266.607 616.067 247.589 606.852 231.371C593.252 207.446 554.915 196.849 539.87 173.451C520.602 143.457 547.118 106.373 534.735 74.2826C529.584 60.926 518.08 49.6378 506.061 39.262C477.415 14.4813 440.648 -6.83706 395.528 2.05974C357.339 9.59086 323.457 24.7834 282.485 24.5624Z" fill="#F3F2F2"/>
<path d="M288.925 79.117C288.869 77.5726 288.217 76.11 287.107 75.0354C285.997 73.9609 284.514 73.3578 282.97 73.3524H175.289C173.812 73.3364 172.379 73.8598 171.259 74.8246C170.14 75.7895 169.41 77.1296 169.207 78.5941C169.106 79.4328 169.184 80.2833 169.436 81.0897C169.687 81.896 170.107 82.64 170.666 83.2728C171.225 83.9055 171.912 84.4127 172.681 84.7609C173.45 85.1092 174.285 85.2906 175.129 85.2933H282.953H283.328C284.272 85.2128 285.218 85.4144 286.048 85.8726C286.877 86.3307 287.552 87.0247 287.987 87.8668C288.316 88.5161 288.55 89.2095 288.682 89.9256L288.925 90.045V79.1335V79.117Z" fill="#00308F"/>
<path d="M288.925 117.822C288.868 116.278 288.217 114.815 287.107 113.741C285.997 112.666 284.514 112.063 282.97 112.057H236.609C235.132 112.041 233.699 112.565 232.579 113.53C231.46 114.495 230.73 115.835 230.527 117.299C230.426 118.138 230.504 118.988 230.756 119.795C231.007 120.601 231.427 121.345 231.986 121.978C232.545 122.611 233.232 123.118 234.001 123.466C234.77 123.814 235.605 123.996 236.449 123.998H282.953H283.328C284.272 123.918 285.218 124.12 286.048 124.578C286.877 125.036 287.552 125.73 287.986 126.572C288.316 127.221 288.55 127.915 288.682 128.631L288.925 128.75V117.839V117.822Z" fill="#00308F"/>
<path opacity="0.2" d="M149 59.7646C149.07 56.5776 150.79 54 152.889 54H223.296C225.44 54 227.193 56.6846 227.193 59.9705C227.193 63.2563 225.44 65.9409 223.296 65.9409H152.877C152.212 65.9198 151.557 66.1069 151.004 66.4759C150.451 66.845 150.026 67.3777 149.79 67.9997C149.477 68.8278 149.265 69.6904 149.156 70.569L149 70.6884V59.7769V59.7646Z" fill="#00308F"/>
<path opacity="0.2" d="M149 98.4695C149.086 95.2825 151.177 92.705 153.729 92.705H239.33C241.935 92.705 244.067 95.3896 244.067 98.6754C244.067 101.961 241.935 104.646 239.33 104.646H153.729C152.082 104.646 150.552 105.403 149.975 106.705C149.599 107.521 149.34 108.386 149.206 109.274L149.012 109.393V98.4819L149 98.4695Z" fill="#00308F"/>
<path opacity="0.2" d="M239.128 119.881C240.265 119.881 241.186 118.959 241.186 117.822C241.186 116.685 240.265 115.763 239.128 115.763C237.992 115.763 237.07 116.685 237.07 117.822C237.07 118.959 237.992 119.881 239.128 119.881Z" fill="white"/>
<path opacity="0.2" d="M246.124 119.881C247.261 119.881 248.182 118.959 248.182 117.822C248.182 116.685 247.261 115.763 246.124 115.763C244.988 115.763 244.067 116.685 244.067 117.822C244.067 118.959 244.988 119.881 246.124 119.881Z" fill="white"/>
<path opacity="0.2" d="M253.121 119.881C254.257 119.881 255.178 118.959 255.178 117.822C255.178 116.685 254.257 115.763 253.121 115.763C251.984 115.763 251.063 116.685 251.063 117.822C251.063 118.959 251.984 119.881 253.121 119.881Z" fill="white"/>
<path d="M536.484 300.051C534.84 299.213 532.995 298.85 531.156 299.003C529.318 299.155 527.558 299.816 526.074 300.912C521.619 304.305 520.94 310.945 522.615 316.288C524.29 321.631 527.797 326.171 530.542 331.052C534.229 337.607 536.603 345.109 535.991 352.605C535.379 360.102 531.446 367.537 524.886 371.217C518.798 374.633 511.422 374.502 504.444 374.28" stroke="#F2F2F2" stroke-miterlimit="10"/>
<path d="M547.503 306.994C548.524 305.241 546.427 302.115 542.818 300.012C539.21 297.909 535.456 297.626 534.435 299.378C533.413 301.131 535.511 304.257 539.119 306.36C542.728 308.463 546.482 308.746 547.503 306.994Z" fill="#F2F2F2"/>
<path d="M540.546 330.949C541.567 329.196 539.47 326.07 535.861 323.967C532.253 321.865 528.499 321.581 527.478 323.334C526.456 325.086 528.554 328.212 532.162 330.315C535.771 332.418 539.525 332.702 540.546 330.949Z" fill="#F2F2F2"/>
<path d="M526.64 327.347C527.661 325.594 525.564 322.468 521.955 320.365C518.346 318.262 514.593 317.979 513.571 319.731C512.55 321.484 514.647 324.61 518.256 326.713C521.865 328.816 525.618 329.099 526.64 327.347Z" fill="#F2F2F2"/>
<path d="M535.082 355.774C536.104 354.021 534.006 350.896 530.398 348.793C526.789 346.69 523.036 346.406 522.014 348.159C520.993 349.912 523.09 353.037 526.699 355.14C530.308 357.243 534.061 357.527 535.082 355.774Z" fill="#F2F2F2"/>
<path d="M548.151 363.389C549.172 361.637 547.075 358.511 543.466 356.408C539.857 354.305 536.104 354.021 535.082 355.774C534.061 357.527 536.158 360.653 539.767 362.755C543.376 364.858 547.129 365.142 548.151 363.389Z" fill="#F2F2F2"/>
<path d="M494.683 294.073C492.841 294.177 491.064 294.792 489.552 295.849C488.04 296.907 486.853 298.364 486.122 300.059C483.982 305.233 486.738 311.311 490.876 315.084C495.013 318.858 500.328 321.014 505.157 323.849C511.644 327.657 517.472 332.943 520.718 339.728C523.963 346.513 524.308 354.918 520.493 361.4C516.952 367.417 510.514 371.017 504.373 374.338" stroke="#3F3D56" stroke-miterlimit="10"/>
<path d="M500.137 298.197C504.313 298.197 507.699 296.552 507.699 294.523C507.699 292.495 504.313 290.85 500.137 290.85C495.96 290.85 492.574 292.495 492.574 294.523C492.574 296.552 495.96 298.197 500.137 298.197Z" fill="#004DE6"/>
<path d="M506.187 322.397C510.363 322.397 513.749 320.752 513.749 318.724C513.749 316.695 510.363 315.05 506.187 315.05C502.01 315.05 498.624 316.695 498.624 318.724C498.624 320.752 502.01 322.397 506.187 322.397Z" fill="#004DE6"/>
<path d="M492.358 326.286C496.535 326.286 499.921 324.642 499.921 322.613C499.921 320.584 496.535 318.94 492.358 318.94C488.181 318.94 484.795 320.584 484.795 322.613C484.795 324.642 488.181 326.286 492.358 326.286Z" fill="#004DE6"/>
<path d="M513.965 346.597C518.142 346.597 521.528 344.952 521.528 342.924C521.528 340.895 518.142 339.25 513.965 339.25C509.789 339.25 506.403 340.895 506.403 342.924C506.403 344.952 509.789 346.597 513.965 346.597Z" fill="#004DE6"/>
<path d="M529.09 346.597C533.267 346.597 536.653 344.952 536.653 342.924C536.653 340.895 533.267 339.25 529.09 339.25C524.914 339.25 521.528 340.895 521.528 342.924C521.528 344.952 524.914 346.597 529.09 346.597Z" fill="#004DE6"/>
<path d="M323 374.289H536.653" stroke="#3F3D56" stroke-miterlimit="10"/>
<path d="M375.735 192.575C375.735 192.575 351.971 196.33 354.891 191.592C357.812 186.854 373.363 182.119 376.215 183.108C379.067 184.097 375.735 192.575 375.735 192.575Z" fill="#FFC1C7"/>
<path opacity="0.1" d="M375.735 192.575C375.735 192.575 351.971 196.33 354.891 191.592C357.812 186.854 373.363 182.119 376.215 183.108C379.067 184.097 375.735 192.575 375.735 192.575Z" fill="black"/>
<path d="M402.988 139.59C402.988 139.59 387.637 143.709 394.751 156.813C394.751 156.813 406.357 179.652 401.49 181.15C396.623 182.647 374.158 181.899 374.158 181.899C374.158 181.899 368.916 194.629 371.537 195.003C374.158 195.377 416.092 203.989 420.585 195.752C425.078 187.515 420.585 151.946 420.585 151.946C420.585 151.946 414.22 134.349 402.988 139.59Z" fill="#004DE6"/>
<path opacity="0.1" d="M402.988 139.59C402.988 139.59 387.637 143.709 394.751 156.813C394.751 156.813 406.357 179.652 401.49 181.15C396.623 182.647 374.158 181.899 374.158 181.899C374.158 181.899 368.916 194.629 371.537 195.003C374.158 195.377 416.092 203.989 420.585 195.752C425.078 187.515 420.585 151.946 420.585 151.946C420.585 151.946 414.22 134.349 402.988 139.59Z" fill="black"/>
<path d="M446.419 334.283C446.419 334.283 453.158 350.383 449.414 353.378C445.67 356.373 446.419 361.989 449.04 361.989C451.661 361.989 457.651 356.748 461.021 350.383C463.531 345.641 467.704 336.121 469.669 331.573C469.806 331.254 469.875 330.91 469.871 330.564C469.866 330.217 469.789 329.875 469.643 329.56C469.497 329.245 469.286 328.964 469.025 328.736C468.763 328.509 468.456 328.338 468.124 328.237L457.277 324.923L446.419 334.283Z" fill="#3F3D56"/>
<path d="M375.281 353.752C375.281 353.752 361.054 365.359 353.566 364.985C346.077 364.61 344.954 372.473 353.566 373.596C362.177 374.719 388.011 375.094 390.258 373.596C392.504 372.098 391.755 356.373 390.258 355.999C388.76 355.624 375.281 353.752 375.281 353.752Z" fill="#3F3D56"/>
<path d="M423.58 234.316C423.58 234.316 423.58 245.923 417.59 250.79C417.59 250.79 410.476 287.108 416.841 289.354C423.206 291.6 452.035 311.07 454.656 320.804L461.021 325.672C461.021 325.672 449.414 337.278 447.168 337.278C444.921 337.278 422.831 306.951 402.988 301.335C402.988 301.335 390.632 298.34 391.007 282.24C391.381 266.141 405.983 223.458 405.983 223.458H422.831L423.58 234.316Z" fill="#2F2E41"/>
<path opacity="0.1" d="M423.58 234.316C423.58 234.316 423.58 245.923 417.59 250.79C417.59 250.79 410.476 287.108 416.841 289.354C423.206 291.6 452.035 311.07 454.656 320.804L461.021 325.672C461.021 325.672 449.414 337.278 447.168 337.278C444.921 337.278 422.831 306.951 402.988 301.335C402.988 301.335 390.632 298.34 391.007 282.24C391.381 266.141 405.983 223.458 405.983 223.458H422.831L423.58 234.316Z" fill="black"/>
<path d="M384.642 226.453C384.642 226.453 373.409 261.648 375.281 275.501C375.281 275.501 370.788 288.605 374.158 302.833C377.528 317.06 373.784 353.752 373.035 354.501C372.286 355.25 381.272 363.113 391.007 356.748C391.007 356.748 391.381 347.762 393.253 345.89C395.125 344.018 395.125 304.705 393.253 299.089C391.381 293.472 413.471 252.662 413.471 252.662C413.471 252.662 425.452 241.804 420.959 236.188C416.466 230.572 421.334 219.339 421.334 219.339L387.262 221.586L384.642 226.453Z" fill="#2F2E41"/>
<path d="M379.4 140.714C387.671 140.714 394.376 134.008 394.376 125.737C394.376 117.466 387.671 110.761 379.4 110.761C371.129 110.761 364.423 117.466 364.423 125.737C364.423 134.008 371.129 140.714 379.4 140.714Z" fill="#FFC1C7"/>
<path d="M389.134 118.998C389.134 118.998 401.115 132.851 404.111 133.225C407.106 133.6 394.376 149.699 394.376 149.699C394.376 149.699 387.262 137.718 382.395 136.595C377.528 135.472 389.134 118.998 389.134 118.998Z" fill="#FFC1C7"/>
<path d="M406.357 132.851L404.485 130.23C404.485 130.23 391.585 141.73 391.109 144.779C390.787 146.489 391.154 148.258 392.13 149.699L399.618 146.33L403.362 138.842L406.357 132.851Z" fill="#3F3D56"/>
<path d="M383.893 225.704C383.893 225.704 380.898 234.69 383.144 234.316C385.391 233.941 385.391 229.074 388.011 229.074C390.632 229.074 392.13 224.956 392.13 224.956L383.893 225.704Z" fill="#3F3D56"/>
<path d="M402.988 226.453C402.988 226.453 411.599 245.174 422.457 243.302L424.577 242.393C425.463 242.014 426.186 241.334 426.618 240.473C427.051 239.612 427.165 238.625 426.94 237.689C425.906 233.376 424.004 226.453 422.457 226.453H402.988Z" fill="#3F3D56"/>
<path d="M364.456 126.677C364.456 126.677 365.921 121.993 370.788 123.865C375.656 125.737 379.774 129.856 380.897 126.86C382.021 123.865 384.895 121.11 386.828 123.423C388.76 125.737 397.559 130.043 397.184 127.796C396.81 125.55 401.864 112.258 392.13 107.391C382.395 102.524 377.153 98.7798 372.286 102.524C367.419 106.268 355.438 113.382 357.31 117.875C359.182 122.368 358.433 124.614 361.428 125.737C364.423 126.86 364.456 126.677 364.456 126.677Z" fill="#2F2E41"/>
<path d="M408.229 135.097C408.229 135.097 407.855 131.728 404.485 132.477C401.115 133.225 392.13 148.202 392.13 148.202C390.663 152.983 389.537 157.863 388.76 162.804C387.262 171.79 384.267 204.738 381.272 210.354C378.277 215.97 383.893 229.074 383.893 229.074C383.893 229.074 387.262 225.33 398.12 227.576C408.978 229.823 423.206 232.069 424.329 230.946C425.452 229.823 423.206 226.828 426.201 223.084C429.196 219.34 433.315 148.576 418.338 140.714C418.338 140.714 411.225 135.097 408.229 135.097Z" fill="#004DE6"/>
<path opacity="0.1" d="M404.485 146.33C404.485 146.33 389.135 150.448 396.248 163.552C396.248 163.552 407.855 186.391 402.988 187.889C398.12 189.387 375.656 188.638 375.656 188.638C375.656 188.638 373.222 196.688 375.843 197.062C378.464 197.437 417.59 210.728 422.083 202.491C426.575 194.254 422.083 158.685 422.083 158.685C422.083 158.685 415.718 141.088 404.485 146.33Z" fill="black"/>
<path d="M338.976 186.884L363.861 200.553C364.006 200.649 364.169 200.712 364.34 200.738C364.512 200.764 364.686 200.752 364.853 200.703C365.019 200.654 365.172 200.569 365.302 200.454C365.432 200.339 365.535 200.198 365.604 200.039L371.7 187.297C371.815 186.933 371.797 186.541 371.647 186.19C371.497 185.84 371.227 185.555 370.885 185.387L350.224 174.737C349.969 174.584 349.667 174.53 349.376 174.586C349.084 174.642 348.823 174.803 348.643 175.039L338.323 184.762C338.221 184.943 338.157 185.143 338.135 185.35C338.113 185.556 338.133 185.765 338.195 185.963C338.256 186.162 338.357 186.346 338.491 186.504C338.625 186.662 338.791 186.792 338.976 186.884Z" fill="#2F2E41"/>
<path d="M340.637 185.001L363.966 198.336L370.174 187.147L350.161 176.263L340.637 185.001Z" fill="#3F3D56"/>
<path d="M360.656 181.224C360.78 181.12 360.782 180.918 360.66 180.772C360.539 180.627 360.34 180.593 360.216 180.696C360.091 180.8 360.089 181.002 360.211 181.147C360.332 181.293 360.531 181.327 360.656 181.224Z" fill="#F2F2F2"/>
<path d="M351.92 192.583C352.003 192.514 352.005 192.379 351.924 192.282C351.843 192.185 351.71 192.162 351.627 192.231C351.544 192.301 351.543 192.435 351.624 192.532C351.705 192.629 351.838 192.652 351.92 192.583Z" fill="#F2F2F2"/>
<path d="M376.082 198.249C376.082 198.249 352.083 199.931 355.402 195.464C358.722 190.997 374.625 187.627 377.381 188.859C380.136 190.091 376.082 198.249 376.082 198.249Z" fill="#FFC1C7"/>
<path d="M404.485 144.083C404.485 144.083 389.134 148.202 396.248 161.306C396.248 161.306 407.855 184.145 402.988 185.643C398.12 187.14 375.656 186.392 375.656 186.392C375.656 186.392 370.414 199.121 373.035 199.496C375.656 199.87 417.59 208.482 422.082 200.245C426.575 192.008 422.082 156.439 422.082 156.439C422.082 156.439 415.718 138.842 404.485 144.083Z" fill="#004DE6"/>
</svg>
