<svg width="375" height="582" viewBox="0 0 375 582" fill="none" xmlns="http://www.w3.org/2000/svg">
<path d="M224 29.6897C224.23 25.2913 226.14 21.149 229.335 18.117C232.53 15.085 236.767 13.3947 241.172 13.3946C241.694 13.3946 242.21 13.4219 242.721 13.4675C244.73 10.0121 247.61 7.14411 251.074 5.14999C254.538 3.15587 258.465 2.10541 262.462 2.10352C266.459 2.10163 270.387 3.14838 273.853 5.13922C277.319 7.13006 280.202 9.99533 282.214 13.4488C282.645 13.4165 283.079 13.3946 283.518 13.3946C287.923 13.3947 292.16 15.085 295.355 18.117C298.55 21.149 300.459 25.2913 300.69 29.6897" fill="#F2F2F2"/>
<path d="M227.31 28.5862C227.541 24.1878 229.45 20.0454 232.645 17.0135C235.84 13.9815 240.077 12.2912 244.482 12.2911C245.005 12.2911 245.521 12.3184 246.031 12.364C248.04 8.90858 250.92 6.04059 254.385 4.04647C257.849 2.05235 261.775 1.00189 265.773 1C269.77 0.998113 273.698 2.04486 277.164 4.0357C280.63 6.02655 283.512 8.89181 285.524 12.3453C285.955 12.313 286.389 12.2911 286.828 12.2911C291.233 12.2912 295.47 13.9815 298.665 17.0135C301.86 20.0454 303.77 24.1878 304 28.5862" stroke="#3F3D56" stroke-miterlimit="10"/>
<path d="M291 379.731C291.439 371.34 295.082 363.438 301.177 357.654C307.272 351.87 315.355 348.645 323.758 348.645C324.755 348.645 325.74 348.697 326.714 348.784C330.546 342.192 336.041 336.721 342.649 332.917C349.258 329.113 356.749 327.109 364.374 327.105C371.999 327.102 379.492 329.098 386.104 332.896C392.716 336.694 398.216 342.16 402.054 348.749C402.876 348.687 403.704 348.645 404.542 348.645C412.945 348.645 421.028 351.87 427.123 357.654C433.218 363.438 436.861 371.34 437.3 379.731" fill="#F2F2F2"/>
<path d="M297.315 377.626C297.754 369.235 301.397 361.333 307.492 355.549C313.588 349.765 321.67 346.54 330.073 346.54C331.07 346.54 332.055 346.592 333.029 346.679C336.861 340.087 342.356 334.616 348.964 330.812C355.573 327.008 363.064 325.004 370.689 325C378.315 324.996 385.807 326.993 392.42 330.791C399.032 334.589 404.531 340.055 408.37 346.643C409.192 346.582 410.019 346.54 410.857 346.54C419.26 346.54 427.343 349.765 433.438 355.549C439.533 361.333 443.176 369.235 443.615 377.626" stroke="#3F3D56" stroke-miterlimit="10"/>
<path d="M-157 581.384C-154.3 528.848 -110.91 487.083 -57.7773 487.083C-54.7576 487.083 -51.7756 487.241 -48.8245 487.505C-37.2175 467.508 -20.5747 450.911 -0.558151 439.37C19.4584 427.83 42.1481 421.751 65.2448 421.74C88.3415 421.729 111.037 427.787 131.064 439.308C151.092 450.829 167.75 467.411 179.376 487.397C181.866 487.209 184.372 487.083 186.91 487.083C240.043 487.083 283.432 528.848 286.133 581.384" fill="#F2F2F2"/>
<path d="M-135.714 573.644C-133.02 521.108 -89.7248 479.343 -36.7081 479.343C-33.6949 479.343 -30.7195 479.5 -27.7748 479.764C-16.1932 459.768 0.413272 443.17 20.3861 431.63C40.359 420.09 62.9991 414.011 86.0454 414C109.092 413.989 131.738 420.047 151.721 431.568C171.705 443.089 188.327 459.671 199.928 479.656C202.412 479.469 204.913 479.343 207.445 479.343C260.462 479.343 303.757 521.108 306.451 573.644" stroke="#3F3D56" stroke-miterlimit="10"/>
<path d="M267.172 274.672C267.587 272.524 268.154 270.408 268.869 268.34C269.605 266.328 270.536 264.611 271.573 264.611C274.088 264.611 262.771 253.922 262.771 253.922C262.771 253.922 262.06 255.242 260.884 257.022C260.015 258.35 259.075 259.631 258.067 260.857C256.726 262.553 255.131 264.031 253.339 265.24C248.309 268.384 267.172 274.672 267.172 274.672Z" fill="#A0616A"/>
<path d="M300.47 316.354C300.47 316.354 325.684 332.286 317.915 334.903C310.146 337.521 297.276 318.804 297.276 318.804L300.47 316.354Z" fill="#A0616A"/>
<path d="M266.651 280.167C266.651 280.167 278.727 288.973 282.256 295.672C285.785 302.371 304.133 317.257 304.133 317.257C304.133 317.257 300.345 324.742 298.514 324.291C296.682 323.839 258.924 295.748 254.952 293.473C250.979 291.198 257.034 277.148 266.651 280.167Z" fill="#4D88FF"/>
<path opacity="0.1" d="M266.651 280.167C266.651 280.167 278.727 288.973 282.256 295.672C285.785 302.371 304.133 317.257 304.133 317.257C304.133 317.257 300.345 324.742 298.514 324.291C296.682 323.839 258.924 295.748 254.952 293.473C250.979 291.198 257.034 277.148 266.651 280.167Z" fill="black"/>
<path d="M302.382 296.052C302.382 296.052 330.677 305.484 323.76 309.885C316.844 314.287 299.867 299.196 299.867 299.196L302.382 296.052Z" fill="#A0616A"/>
<path d="M284.148 424.956C284.148 424.956 296.095 419.925 294.837 427.471C293.58 435.017 287.921 441.933 287.921 445.706C287.921 449.479 277.232 457.653 275.346 455.767C273.459 453.881 278.489 446.335 277.232 441.933C275.974 437.532 274.717 427.471 274.717 427.471L284.148 424.956Z" fill="#55536E"/>
<path opacity="0.1" d="M284.148 424.956C284.148 424.956 296.095 419.925 294.837 427.471C293.58 435.017 287.921 441.933 287.921 445.706C287.921 449.479 277.232 457.653 275.346 455.767C273.459 453.881 278.489 446.335 277.232 441.933C275.974 437.532 274.717 427.471 274.717 427.471L284.148 424.956Z" fill="black"/>
<path d="M280.376 430.615C280.376 430.615 292.322 425.584 291.065 433.13C289.807 440.676 284.148 447.592 284.148 451.365C284.148 455.138 273.459 463.312 271.573 461.426C269.687 459.54 274.717 451.994 273.459 447.592C272.202 443.191 270.944 433.13 270.944 433.13L280.376 430.615Z" fill="#55536E"/>
<path d="M252.71 384.712C252.71 384.712 289.807 419.925 288.55 423.069C287.292 426.213 279.118 433.13 279.118 433.13C279.118 433.13 250.824 396.031 252.71 384.712Z" fill="#3F3D56"/>
<path opacity="0.1" d="M252.71 384.712C252.71 384.712 289.807 419.925 288.55 423.069C287.292 426.213 279.118 433.13 279.118 433.13C279.118 433.13 250.824 396.031 252.71 384.712Z" fill="black"/>
<path d="M243.908 321.204C243.908 321.204 253.339 330.636 250.824 348.871C248.309 367.106 252.71 384.712 257.74 390.372C262.77 396.031 283.52 428.729 283.52 428.729C283.52 428.729 274.717 443.191 267.8 435.645C260.884 428.1 240.135 397.288 240.135 397.288C240.135 397.288 221.272 360.189 219.386 350.128C217.5 340.068 216.871 324.348 221.901 321.203C226.931 318.059 243.908 321.204 243.908 321.204Z" fill="#3F3D56"/>
<path opacity="0.1" d="M259.501 259.009C266.845 260.53 266.115 260.826 270.63 262.41C270.655 262.335 270.68 262.272 270.705 262.209C271.397 260.562 271.831 262.725 272.831 262.725C275.346 262.725 264.028 252.035 264.028 252.035C264.028 252.035 263.6 252.827 262.865 254.016C262.645 254.362 262.406 254.739 262.142 255.135C261.922 255.468 261.683 255.821 261.431 256.185L259.501 259.009Z" fill="black"/>
<path d="M272.831 267.755C279.428 267.755 284.777 262.406 284.777 255.808C284.777 249.21 279.428 243.861 272.831 243.861C266.233 243.861 260.884 249.21 260.884 255.808C260.884 262.406 266.233 267.755 272.831 267.755Z" fill="#A0616A"/>
<path d="M250.824 264.611C250.824 264.611 269.058 266.498 272.831 274.672C276.603 282.847 249.566 322.461 247.68 323.09C245.794 323.719 219.386 326.863 219.386 326.863C219.386 326.863 220.643 286.619 245.165 271.528C245.165 271.528 250.824 269.013 250.824 264.611Z" fill="#4D88FF"/>
<path d="M260.884 269.013C260.884 269.013 274.717 274.672 279.747 280.331C284.777 285.991 306.155 296.051 306.155 296.051C306.155 296.051 304.269 304.226 302.382 304.226C300.496 304.226 257.112 285.991 252.71 284.733C248.309 283.475 250.824 268.384 260.884 269.013Z" fill="#4D88FF"/>
<path d="M271.887 257.38C271.887 257.38 275.031 254.236 268.744 251.721C268.744 251.721 275.031 249.206 276.289 245.433C277.546 241.66 281.948 235.372 285.72 245.433C289.493 255.494 296.409 268.699 273.774 268.699C273.774 268.699 268.115 269.956 268.115 264.926C268.115 263.461 268.456 262.017 269.111 260.708C269.765 259.398 270.716 258.259 271.887 257.38Z" fill="#3F3D56"/>
<path d="M113.933 364.103C113.933 364.103 119.551 377.749 111.123 380.96C111.123 380.96 123.163 386.177 125.972 384.973C128.781 383.769 130.788 380.96 130.788 380.157C130.788 379.354 127.979 378.953 127.979 378.953C127.979 378.953 122.762 379.354 126.775 366.11L113.933 364.103Z" fill="#FBBEBE"/>
<path d="M120.354 371.328C125.895 371.328 130.387 366.835 130.387 361.294C130.387 355.753 125.895 351.26 120.354 351.26C114.813 351.26 110.321 355.753 110.321 361.294C110.321 366.835 114.813 371.328 120.354 371.328Z" fill="#FBBEBE"/>
<path d="M113.732 371.528C118.608 371.528 122.561 365.958 122.561 359.087C122.561 352.215 118.608 346.645 113.732 346.645C108.856 346.645 104.903 352.215 104.903 359.087C104.903 365.958 108.856 371.528 113.732 371.528Z" fill="#FF6584"/>
<path d="M107.311 367.515C112.187 367.515 116.14 361.944 116.14 355.073C116.14 348.202 112.187 342.632 107.311 342.632C102.435 342.632 98.482 348.202 98.482 355.073C98.482 361.944 102.435 367.515 107.311 367.515Z" fill="#FF6584"/>
<path d="M98.482 352.264C100.92 352.264 102.896 349.479 102.896 346.043C102.896 342.607 100.92 339.822 98.482 339.822C96.044 339.822 94.0675 342.607 94.0675 346.043C94.0675 349.479 96.044 352.264 98.482 352.264Z" fill="#FF6584"/>
<path d="M130.387 378.552C130.387 378.552 132.794 373.736 141.623 371.327C150.452 368.919 167.709 340.023 167.709 340.023C167.709 340.023 166.906 322.765 170.919 327.983C174.933 333.2 171.722 343.635 171.722 343.635L161.366 361.523C159.434 364.862 157.017 367.895 154.194 370.524C147.791 376.483 136.352 386.98 135.202 386.98C133.597 386.98 130.387 378.552 130.387 378.552Z" fill="#FBBEBE"/>
<path d="M116.341 447.181C116.341 447.181 119.15 481.295 118.347 484.506C117.544 487.716 115.137 494.138 119.15 513.001C123.163 531.864 118.347 530.66 118.347 530.66L131.189 536.279C131.189 536.279 126.775 514.606 127.577 508.586C128.38 502.566 127.979 490.124 130.387 481.696C132.794 473.268 133.196 449.589 133.196 449.589L116.341 447.181Z" fill="#FBBEBE"/>
<path opacity="0.1" d="M116.341 447.181C116.341 447.181 119.15 481.295 118.347 484.506C117.544 487.716 115.137 494.138 119.15 513.001C123.163 531.864 118.347 530.66 118.347 530.66L131.189 536.279C131.189 536.279 126.775 514.606 127.577 508.586C128.38 502.566 127.979 490.124 130.387 481.696C132.794 473.268 133.196 449.589 133.196 449.589L116.341 447.181Z" fill="black"/>
<path d="M130.69 531.936C129.695 532.627 127.139 533.329 122.36 528.252C122.36 528.252 119.551 524.238 117.143 528.252C114.735 532.265 116.341 532.666 117.946 534.673C119.495 536.61 131.89 549.767 137.08 549.233C137.26 549.215 137.438 549.178 137.61 549.121C142.426 547.516 135.604 542.298 135.604 542.298C135.604 542.298 131.131 535.417 131.105 532.167C131.107 532.118 131.095 532.07 131.07 532.027C131.046 531.984 131.011 531.949 130.968 531.925C130.925 531.901 130.876 531.89 130.827 531.892C130.778 531.894 130.73 531.909 130.69 531.936Z" fill="#3F3D56"/>
<path d="M106.709 443.167C106.709 443.167 99.8866 458.82 97.0774 466.847C95.6025 471.061 91.1412 472.399 87.2356 472.719C82.4066 473.095 77.7155 474.509 73.4828 476.864C67.8659 480.017 60.2014 483.595 55.3406 482.9C46.913 481.696 53.7353 494.94 53.7353 494.94C53.7353 494.94 66.1761 487.315 77.8142 486.512C89.4524 485.71 101.893 484.506 107.512 477.281C113.13 470.057 126.775 447.181 126.775 447.181L106.709 443.167Z" fill="#FBBEBE"/>
<path d="M54.1367 492.934C54.1367 492.934 50.1235 490.124 53.3341 487.315C56.5446 484.506 57.7485 482.098 57.7485 482.098C57.7485 482.098 52.1301 476.077 50.1235 479.288C48.117 482.499 39.288 496.947 41.2946 501.362C43.3012 505.777 45.3077 506.981 47.7156 502.165C50.1235 497.349 56.1963 493.557 56.1963 493.557L54.1367 492.934Z" fill="#3F3D56"/>
<path d="M128.781 380.558C128.781 380.558 127.447 383.227 115.049 380.658C113.415 380.297 111.708 380.485 110.191 381.193C108.674 381.9 107.433 383.088 106.659 384.572C105.104 387.682 104.903 392.197 110.321 397.816C110.321 397.816 119.952 408.652 115.137 413.067C110.321 417.482 138.012 410.257 138.012 410.257C138.012 410.257 134.4 407.849 137.61 400.625C140.133 394.949 139.93 391.751 137.975 389.278C136.796 387.74 135.993 385.946 135.632 384.041C135.084 381.354 133.731 377.988 130.387 377.749C130.387 377.749 126.871 377.543 126.622 378.449C126.373 379.354 129.584 380.157 128.781 380.558Z" fill="#4D88FF"/>
<path d="M114.109 389.072C114.026 388.506 113.924 387.944 113.853 387.376C113.611 385.439 112.689 380.744 109.503 381.552C105.505 382.565 101.091 392.598 101.091 392.598C101.091 392.598 97.4787 403.836 92.2616 406.645C87.0445 409.455 72.5972 423.903 72.5972 423.903C72.5972 423.903 60.5577 427.114 64.9722 430.324C69.3867 433.535 75.0051 428.318 75.0051 428.318L89.199 419.801C94.1636 416.814 98.4322 412.801 101.718 408.029C104.675 403.746 108.378 398.796 110.725 397.161C112.146 396.211 113.212 394.816 113.758 393.196C114.186 391.866 114.306 390.455 114.109 389.072Z" fill="#FBBEBE"/>
<path d="M117.544 412.264C117.544 412.264 99.084 409.856 88.6498 422.298C78.2156 434.739 70.5906 431.127 71.3932 433.134C72.1958 435.141 110.722 458.82 133.196 456.01C146.878 454.3 154.164 452.738 157.77 451.778C159.318 451.38 160.684 450.465 161.639 449.183C162.175 448.474 162.838 447.871 163.595 447.407C163.984 447.151 164.318 446.82 164.576 446.433C164.835 446.046 165.013 445.611 165.1 445.154C165.187 444.697 165.182 444.227 165.084 443.772C164.986 443.317 164.797 442.886 164.53 442.505C158.165 433.296 140.886 408.902 136.005 408.251C129.985 407.448 117.544 412.264 117.544 412.264Z" fill="#4D88FF"/>
<path d="M120.554 355.073C124.101 355.073 126.975 353.007 126.975 350.458C126.975 347.909 124.101 345.843 120.554 345.843C117.008 345.843 114.133 347.909 114.133 350.458C114.133 353.007 117.008 355.073 120.554 355.073Z" fill="#FF6584"/>
</svg>
