<svg width="1440" height="606" viewBox="0 0 1440 606" fill="none" xmlns="http://www.w3.org/2000/svg">
<rect x="1359.71" y="385.81" width="27.0148" height="27.0148" transform="rotate(-45 1359.71 385.81)" stroke="#5D5A55"/>
<path d="M817.805 207.635C816.459 207.635 815.143 207.235 814.024 206.486C812.905 205.737 812.033 204.672 811.518 203.427C811.003 202.181 810.868 200.81 811.131 199.488C811.393 198.165 812.041 196.95 812.993 195.997C813.945 195.043 815.157 194.394 816.477 194.131C817.797 193.868 819.166 194.003 820.409 194.519C821.652 195.035 822.715 195.909 823.463 197.03C824.211 198.151 824.61 199.469 824.61 200.818C824.608 202.625 823.89 204.358 822.614 205.636C821.339 206.914 819.609 207.633 817.805 207.635ZM817.805 195.136C816.683 195.136 815.587 195.469 814.654 196.094C813.722 196.718 812.995 197.605 812.566 198.643C812.137 199.682 812.024 200.824 812.243 201.926C812.462 203.028 813.002 204.04 813.795 204.835C814.588 205.629 815.599 206.17 816.699 206.39C817.799 206.609 818.939 206.496 819.975 206.066C821.011 205.636 821.897 204.908 822.52 203.974C823.143 203.04 823.476 201.941 823.476 200.818C823.474 199.311 822.876 197.867 821.813 196.802C820.75 195.737 819.308 195.138 817.805 195.136Z" fill="#3F3D56"/>
<circle cy="146" r="24.5" stroke="#504E49"/>
<rect x="392.707" y="425.435" width="18" height="18" transform="rotate(-45 392.707 425.435)" stroke="#5D5A55"/>
<path d="M783.549 606C786.727 544.169 837.794 495.014 900.328 495.014C903.882 495.014 907.391 495.199 910.865 495.51C924.525 471.975 944.113 452.441 967.671 438.859C991.229 425.277 1017.93 418.123 1045.12 418.11C1072.3 418.097 1099.01 425.226 1122.58 438.786C1146.15 452.346 1165.76 471.861 1179.44 495.383C1182.37 495.163 1185.32 495.014 1188.31 495.014C1250.84 495.014 1301.91 544.169 1305.09 606" fill="#F2F2F2"/>
<path d="M808.601 596.89C811.772 535.059 862.728 485.904 925.125 485.904C928.671 485.904 932.173 486.089 935.639 486.4C949.269 462.865 968.814 443.332 992.321 429.75C1015.83 416.168 1042.47 409.013 1069.6 409C1096.72 408.987 1123.37 416.117 1146.89 429.676C1170.41 443.236 1189.98 462.751 1203.63 486.273C1206.55 486.053 1209.5 485.904 1212.48 485.904C1274.87 485.904 1325.83 535.059 1329 596.89" stroke="#3F3D56" stroke-miterlimit="10"/>
<path d="M622 41.6209C622.326 35.3933 625.03 29.5283 629.553 25.2354C634.077 20.9426 640.076 18.5493 646.313 18.5492C647.053 18.5492 647.783 18.5878 648.507 18.6524C651.351 13.76 655.429 9.6993 660.333 6.8759C665.238 4.05249 670.798 2.56518 676.457 2.5625C682.117 2.55983 687.678 4.04188 692.585 6.86065C697.493 9.67942 701.575 13.7362 704.423 18.626C705.033 18.5801 705.648 18.5492 706.269 18.5492C712.506 18.5493 718.505 20.9426 723.029 25.2354C727.553 29.5283 730.256 35.3933 730.582 41.6209" fill="#F2F2F2"/>
<path d="M626.687 40.0584C627.013 33.8308 629.717 27.9658 634.24 23.6729C638.764 19.3801 644.763 16.9868 651 16.9867C651.74 16.9867 652.47 17.0253 653.194 17.0899C656.038 12.1975 660.116 8.1368 665.02 5.3134C669.925 2.48999 675.485 1.00268 681.144 1C686.804 0.997328 692.365 2.47938 697.272 5.29815C702.18 8.11692 706.262 12.1737 709.11 17.0635C709.72 17.0176 710.335 16.9867 710.956 16.9867C717.193 16.9868 723.192 19.3801 727.716 23.6729C732.24 27.9658 734.943 33.8308 735.269 40.0584" stroke="#3F3D56" stroke-miterlimit="10"/>
<path d="M-33 472C-32.4704 461.882 -28.0775 452.352 -20.7273 445.377C-13.3771 438.402 -3.63025 434.514 6.50314 434.513C7.70539 434.513 8.89256 434.576 10.0675 434.681C14.6885 426.732 21.3145 420.134 29.2836 415.547C37.2527 410.959 46.286 408.543 55.4815 408.539C64.6769 408.534 73.7125 410.942 81.686 415.522C89.6594 420.102 96.2916 426.693 100.92 434.638C101.911 434.564 102.909 434.513 103.92 434.513C114.053 434.514 123.8 438.402 131.15 445.377C138.5 452.352 142.893 461.882 143.423 472" fill="#F2F2F2"/>
<path d="M-25.3848 469.461C-24.8552 459.343 -20.4623 449.814 -13.1121 442.839C-5.76191 435.864 3.98499 431.975 14.1184 431.975C15.3206 431.975 16.5078 432.038 17.6827 432.143C22.3038 424.193 28.9297 417.596 36.8988 413.008C44.8679 408.421 53.9013 406.004 63.0967 406C72.2921 405.996 81.3277 408.404 89.3012 412.984C97.2746 417.563 103.907 424.155 108.535 432.1C109.527 432.025 110.524 431.975 111.535 431.975C121.668 431.975 131.415 435.864 138.765 442.839C146.115 449.814 150.508 459.343 151.038 469.461" stroke="#3F3D56" stroke-miterlimit="10"/>
<path d="M900.5 223.562C900.5 223.562 909.86 246.295 895.82 251.644C895.82 251.644 915.877 260.336 920.557 258.33C925.237 256.324 928.579 251.644 928.579 250.307C928.579 248.969 923.899 248.301 923.899 248.301C923.899 248.301 915.208 248.969 921.894 226.906L900.5 223.562Z" fill="#FBBEBE"/>
<path d="M911.197 235.597C920.428 235.597 927.911 228.114 927.911 218.882C927.911 209.651 920.428 202.167 911.197 202.167C901.966 202.167 894.483 209.651 894.483 218.882C894.483 228.114 901.966 235.597 911.197 235.597Z" fill="#FBBEBE"/>
<path d="M900.166 235.932C908.289 235.932 914.874 226.652 914.874 215.205C914.874 203.758 908.289 194.478 900.166 194.478C892.042 194.478 885.457 203.758 885.457 215.205C885.457 226.652 892.042 235.932 900.166 235.932Z" fill="#FF6584"/>
<path d="M889.469 229.246C897.592 229.246 904.177 219.966 904.177 208.519C904.177 197.072 897.592 187.792 889.469 187.792C881.346 187.792 874.76 197.072 874.76 208.519C874.76 219.966 881.346 229.246 889.469 229.246Z" fill="#FF6584"/>
<path d="M874.76 203.839C878.822 203.839 882.115 199.199 882.115 193.475C882.115 187.752 878.822 183.112 874.76 183.112C870.699 183.112 867.406 187.752 867.406 193.475C867.406 199.199 870.699 203.839 874.76 203.839Z" fill="#FF6584"/>
<path d="M927.911 247.632C927.911 247.632 931.922 239.609 946.63 235.597C961.339 231.586 990.087 183.446 990.087 183.446C990.087 183.446 988.75 154.696 995.435 163.388C1002.12 172.08 996.772 189.464 996.772 189.464L979.521 219.264C976.302 224.826 972.275 229.879 967.572 234.258C956.906 244.186 937.849 261.673 935.934 261.673C933.259 261.673 927.911 247.632 927.911 247.632Z" fill="#FBBEBE"/>
<path d="M904.511 361.963C904.511 361.963 909.191 418.794 907.854 424.143C906.517 429.492 902.506 440.189 909.191 471.613C915.877 503.038 907.854 501.032 907.854 501.032L929.248 510.392C929.248 510.392 921.894 474.288 923.231 464.259C924.568 454.23 923.899 433.503 927.911 419.463C931.922 405.422 932.591 365.974 932.591 365.974L904.511 361.963Z" fill="#FBBEBE"/>
<path opacity="0.1" d="M904.511 361.963C904.511 361.963 909.191 418.794 907.854 424.143C906.517 429.492 902.506 440.189 909.191 471.613C915.877 503.038 907.854 501.032 907.854 501.032L929.248 510.392C929.248 510.392 921.894 474.288 923.231 464.259C924.568 454.23 923.899 433.503 927.911 419.463C931.922 405.422 932.591 365.974 932.591 365.974L904.511 361.963Z" fill="black"/>
<path d="M928.416 503.159C926.758 504.31 922.5 505.479 914.54 497.02C914.54 497.02 909.86 490.334 905.848 497.02C901.837 503.706 904.511 504.375 907.186 507.718C909.767 510.945 930.416 532.864 939.061 531.974C939.362 531.944 939.658 531.882 939.945 531.788C947.968 529.113 936.602 520.421 936.602 520.421C936.602 520.421 929.151 508.957 929.108 503.543C929.111 503.462 929.09 503.381 929.05 503.31C929.01 503.239 928.95 503.18 928.879 503.141C928.807 503.101 928.726 503.082 928.645 503.085C928.563 503.088 928.484 503.114 928.416 503.159Z" fill="#3F3D56"/>
<path d="M888.466 355.277C888.466 355.277 877.1 381.352 872.42 394.724C869.963 401.745 862.531 403.974 856.025 404.507C847.98 405.133 840.165 407.489 833.114 411.412C823.757 416.665 810.988 422.625 802.89 421.468C788.851 419.463 800.216 441.526 800.216 441.526C800.216 441.526 820.941 428.823 840.33 427.486C859.718 426.149 880.443 424.143 889.803 412.108C899.163 400.073 921.894 361.963 921.894 361.963L888.466 355.277Z" fill="#FBBEBE"/>
<path d="M800.885 438.183C800.885 438.183 794.199 433.503 799.548 428.823C804.896 424.143 806.902 420.131 806.902 420.131C806.902 420.131 797.542 410.102 794.199 415.451C790.856 420.8 776.148 444.869 779.491 452.224C782.834 459.579 786.176 461.584 790.188 453.561C794.199 445.538 804.316 439.221 804.316 439.221L800.885 438.183Z" fill="#3F3D56"/>
<path d="M925.237 250.975C925.237 250.975 923.014 255.42 902.361 251.14C899.638 250.54 896.793 250.854 894.267 252.032C891.74 253.211 889.672 255.189 888.382 257.661C885.792 262.843 885.457 270.364 894.483 279.725C894.483 279.725 910.528 297.777 902.506 305.132C894.483 312.486 940.613 300.451 940.613 300.451C940.613 300.451 934.596 296.44 939.945 284.405C944.147 274.949 943.81 269.621 940.553 265.501C938.588 262.938 937.251 259.95 936.65 256.777C935.737 252.301 933.482 246.693 927.911 246.295C927.911 246.295 922.055 245.952 921.64 247.46C921.225 248.969 926.574 250.306 925.237 250.975Z" fill="#4D88FF"/>
<path d="M900.793 265.158C900.655 264.216 900.486 263.279 900.367 262.333C899.963 259.105 898.429 251.284 893.12 252.63C886.46 254.318 879.106 271.033 879.106 271.033C879.106 271.033 873.089 289.754 864.398 294.434C855.706 299.114 831.638 323.184 831.638 323.184C831.638 323.184 811.582 328.533 818.936 333.882C826.29 339.231 835.65 330.539 835.65 330.539L859.296 316.35C867.566 311.375 874.677 304.689 880.152 296.739C885.078 289.604 891.247 281.359 895.156 278.634C897.523 277.051 899.3 274.728 900.208 272.029C900.922 269.813 901.122 267.463 900.793 265.158Z" fill="#FBBEBE"/>
<path d="M906.517 303.795C906.517 303.795 875.763 299.783 858.381 320.51C840.998 341.236 828.296 335.219 829.633 338.562C830.97 341.905 895.151 381.352 932.591 376.672C955.384 373.823 967.522 371.221 973.53 369.622C976.109 368.959 978.384 367.433 979.975 365.298C980.867 364.117 981.972 363.113 983.234 362.339C983.882 361.913 984.438 361.362 984.869 360.717C985.299 360.072 985.596 359.348 985.741 358.586C985.886 357.824 985.877 357.041 985.714 356.283C985.55 355.526 985.237 354.808 984.791 354.174C974.187 338.832 945.401 298.193 937.271 297.109C927.242 295.771 906.517 303.795 906.517 303.795Z" fill="#4D88FF"/>
<path d="M911.531 208.519C917.439 208.519 922.228 205.076 922.228 200.83C922.228 196.584 917.439 193.141 911.531 193.141C905.623 193.141 900.834 196.584 900.834 200.83C900.834 205.076 905.623 208.519 911.531 208.519Z" fill="#FF6584"/>
<path d="M1284 101.175C1284.54 90.8021 1289.05 81.0333 1296.58 73.8831C1304.11 66.7329 1314.1 62.7466 1324.49 62.7464C1325.72 62.7464 1326.94 62.8107 1328.14 62.9183C1332.88 54.7695 1339.67 48.006 1347.84 43.3033C1356.01 38.6006 1365.26 36.1234 1374.69 36.1189C1384.11 36.1144 1393.38 38.583 1401.55 43.2779C1409.72 47.9729 1416.52 54.73 1421.26 62.8743C1422.28 62.798 1423.3 62.7464 1424.34 62.7464C1434.72 62.7466 1444.71 66.7329 1452.25 73.8831C1459.78 81.0333 1464.28 90.8021 1464.82 101.175" fill="#F2F2F2"/>
<path d="M1292.44 98.0559C1292.99 87.6832 1297.49 77.9144 1305.02 70.7642C1312.56 63.614 1322.55 59.6277 1332.93 59.6275C1334.17 59.6275 1335.38 59.6918 1336.59 59.7994C1341.32 51.6506 1348.11 44.8871 1356.28 40.1844C1364.45 35.4817 1373.71 33.0045 1383.13 33C1392.56 32.9955 1401.82 35.4641 1409.99 40.159C1418.16 44.854 1424.96 51.6111 1429.71 59.7554C1430.72 59.6791 1431.74 59.6275 1432.78 59.6275C1443.17 59.6277 1453.16 63.614 1460.69 70.7642C1468.22 77.9144 1472.73 87.6832 1473.27 98.0559" stroke="#3F3D56" stroke-miterlimit="10"/>
<path d="M1197.75 103.942C1198.44 100.414 1199.37 96.9388 1200.54 93.5429C1201.75 90.2383 1203.28 87.4191 1204.98 87.4191C1209.11 87.4191 1190.53 69.8635 1190.53 69.8635C1190.53 69.8635 1189.36 72.0321 1187.43 74.9546C1186 77.1366 1184.46 79.2395 1182.8 81.254C1180.6 84.0382 1177.98 86.4659 1175.04 88.4518C1166.78 93.6152 1197.75 103.942 1197.75 103.942Z" fill="#A0616A"/>
<path d="M1252.44 172.396C1252.44 172.396 1293.85 198.56 1281.09 202.86C1268.33 207.159 1247.19 176.42 1247.19 176.42L1252.44 172.396Z" fill="#A0616A"/>
<path d="M1196.9 112.966C1196.9 112.966 1216.73 127.429 1222.53 138.43C1228.32 149.432 1258.46 173.879 1258.46 173.879C1258.46 173.879 1252.24 186.172 1249.23 185.431C1246.22 184.689 1184.21 138.554 1177.69 134.819C1171.16 131.083 1181.1 108.008 1196.9 112.966Z" fill="#4D88FF"/>
<path opacity="0.1" d="M1196.9 112.966C1196.9 112.966 1216.73 127.429 1222.53 138.43C1228.32 149.432 1258.46 173.879 1258.46 173.879C1258.46 173.879 1252.24 186.172 1249.23 185.431C1246.22 184.689 1184.21 138.554 1177.69 134.819C1171.16 131.083 1181.1 108.008 1196.9 112.966Z" fill="black"/>
<path d="M1255.58 139.053C1255.58 139.053 1302.05 154.543 1290.69 161.772C1279.33 169.001 1251.45 144.216 1251.45 144.216L1255.58 139.053Z" fill="#A0616A"/>
<path d="M1225.64 350.752C1225.64 350.752 1245.26 342.491 1243.19 354.883C1241.12 367.275 1231.83 378.635 1231.83 384.831C1231.83 391.027 1214.28 404.452 1211.18 401.354C1208.08 398.256 1216.34 385.863 1214.28 378.635C1212.21 371.406 1210.15 354.883 1210.15 354.883L1225.64 350.752Z" fill="#55536E"/>
<path opacity="0.1" d="M1225.64 350.752C1225.64 350.752 1245.26 342.491 1243.19 354.883C1241.12 367.275 1231.83 378.635 1231.83 384.831C1231.83 391.027 1214.28 404.452 1211.18 401.354C1208.08 398.256 1216.34 385.863 1214.28 378.635C1212.21 371.406 1210.15 354.883 1210.15 354.883L1225.64 350.752Z" fill="black"/>
<path d="M1219.44 360.046C1219.44 360.046 1239.06 351.785 1236.99 364.177C1234.93 376.569 1225.64 387.929 1225.64 394.125C1225.64 400.321 1208.08 413.746 1204.98 410.648C1201.89 407.55 1210.15 395.158 1208.08 387.929C1206.02 380.7 1203.95 364.177 1203.95 364.177L1219.44 360.046Z" fill="#55536E"/>
<path d="M1174 284.661C1174 284.661 1234.93 342.491 1232.86 347.654C1230.8 352.818 1217.37 364.177 1217.37 364.177C1217.37 364.177 1170.91 303.249 1174 284.661Z" fill="#3F3D56"/>
<path opacity="0.1" d="M1174 284.661C1174 284.661 1234.93 342.491 1232.86 347.654C1230.8 352.818 1217.37 364.177 1217.37 364.177C1217.37 364.177 1170.91 303.249 1174 284.661Z" fill="black"/>
<path d="M1159.55 180.36C1159.55 180.36 1175.04 195.85 1170.91 225.798C1166.78 255.746 1174 284.661 1182.27 293.955C1190.53 303.249 1224.6 356.948 1224.6 356.948C1224.6 356.948 1210.15 380.7 1198.79 368.308C1187.43 355.916 1153.35 305.315 1153.35 305.315C1153.35 305.315 1122.37 244.386 1119.28 227.864C1116.18 211.341 1115.15 185.524 1123.41 180.36C1131.67 175.197 1159.55 180.36 1159.55 180.36Z" fill="#3F3D56"/>
<path opacity="0.1" d="M1185.16 78.2178C1197.22 80.7169 1196.02 81.2022 1203.43 83.8046C1203.48 83.6807 1203.52 83.5774 1203.56 83.4741C1204.69 80.7685 1205.41 84.3209 1207.05 84.3209C1211.18 84.3209 1192.59 66.7654 1192.59 66.7654C1192.59 66.7654 1191.89 68.0666 1190.68 70.0183C1190.32 70.5863 1189.93 71.2059 1189.49 71.8565C1189.13 72.4038 1188.74 72.9821 1188.33 73.5811L1185.16 78.2178Z" fill="black"/>
<path d="M1207.05 92.5824C1217.88 92.5824 1226.67 83.7978 1226.67 72.9615C1226.67 62.1252 1217.88 53.3406 1207.05 53.3406C1196.21 53.3406 1187.43 62.1252 1187.43 72.9615C1187.43 83.7978 1196.21 92.5824 1207.05 92.5824Z" fill="#A0616A"/>
<path d="M1170.91 87.4189C1170.91 87.4189 1200.85 90.517 1207.05 103.942C1213.24 117.367 1168.84 182.425 1165.74 183.458C1162.65 184.491 1119.28 189.654 1119.28 189.654C1119.28 189.654 1121.34 123.563 1161.61 98.7784C1161.61 98.7784 1170.91 94.6477 1170.91 87.4189Z" fill="#4D88FF"/>
<path d="M1187.43 94.6478C1187.43 94.6478 1210.15 103.942 1218.41 113.236C1226.67 122.53 1261.78 139.053 1261.78 139.053C1261.78 139.053 1258.68 152.478 1255.58 152.478C1252.48 152.478 1181.23 122.53 1174 120.465C1166.78 118.399 1170.91 93.6152 1187.43 94.6478Z" fill="#4D88FF"/>
<path d="M1205.5 75.5433C1205.5 75.5433 1210.66 70.3799 1200.34 66.2491C1200.34 66.2491 1210.66 62.1184 1212.73 55.9224C1214.79 49.7263 1222.02 39.3995 1228.22 55.9224C1234.41 72.4452 1245.77 94.1315 1208.6 94.1315C1208.6 94.1315 1199.3 96.1969 1199.3 87.9354C1199.3 85.5307 1199.86 83.1589 1200.94 81.008C1202.01 78.8571 1203.58 76.9861 1205.5 75.5433Z" fill="#3F3D56"/>
</svg>
