<svg width="217" height="164" viewBox="0 0 217 164" fill="none" xmlns="http://www.w3.org/2000/svg">
<path opacity="0.1" d="M108.5 158C168.423 158 217 153.971 217 149C217 144.029 168.423 140 108.5 140C48.5771 140 0 144.029 0 149C0 153.971 48.5771 158 108.5 158Z" fill="#00308F"/>
<path d="M159.212 0C159.212 0 43.019 60.0278 103.14 130.834C103.14 130.834 108.779 146.409 125.133 145.101C125.133 145.101 121.862 139.151 134.478 134.416C138.876 132.685 143.057 130.448 146.938 127.75C152.218 124.099 156.165 118.828 158.184 112.735C158.184 112.735 181.952 80.9302 163.542 22.0861C163.542 22.0861 165.909 5.45146 163.822 2.77248L149.555 21.8056C149.555 21.8056 164.165 31.5871 165.816 45.9788C165.816 45.9788 150.614 21.8368 147.312 24.5781C146.658 25.1388 140.303 35.1693 140.303 35.1693C140.303 35.1693 165.598 52.3336 167.498 74.6065C167.498 74.6065 153.231 43.4555 137.842 38.9386L129.151 54.6698C129.151 54.6698 156.813 71.4914 159.928 96.7859C159.928 96.7859 143.886 64.7005 127.5 58.2211L121.021 74.8246C121.021 74.8246 147.655 91.7705 150.116 112.829C150.116 112.829 127.843 77.628 119.806 78.5625C119.806 78.5625 114.791 94.1381 115.445 98.9665C115.445 98.9665 134.291 111.427 134.634 123.887C134.634 123.887 117.252 101.926 114.573 103.39C114.573 103.39 113.451 125.445 118.809 136.939C118.809 136.939 109.651 120.554 111.115 103.39C105.702 108.197 101.823 114.492 99.9628 121.489C99.9628 121.489 94.9475 109.34 111.457 98.1877C111.457 98.1877 113.015 81.0236 114.915 78.9053C114.915 78.9053 97.0658 87.5964 89.4961 98.3123C89.4961 98.3123 92.2686 82.3631 116.473 74.4508L122.703 57.6292C122.703 57.6292 98.5298 67.8778 91.0848 76.9116C91.0848 76.9116 96.4427 61.0869 124.603 53.5172L132.952 37.9418C132.952 37.9418 111.458 45.1688 100.991 53.5172C100.991 53.5172 109.121 39.9355 135.537 33.6741L142.328 23.9862C142.328 23.9862 126.753 29.5622 122.391 31.5559C118.03 33.5495 117.158 32.5527 117.158 32.5527C125.145 25.8063 134.853 21.4163 145.194 19.8743C145.194 19.8743 160.302 0.903376 159.212 0Z" fill="#3D6ECF"/>
<path opacity="0.1" d="M162.364 163.278C185.761 163.278 204.728 161.357 204.728 158.988C204.728 156.618 185.761 154.697 162.364 154.697C138.967 154.697 120 156.618 120 158.988C120 161.357 138.967 163.278 162.364 163.278Z" fill="#00308F"/>
<path d="M177.245 88.2719C177.245 88.2719 122.01 116.798 150.536 150.427C151.34 152.516 152.785 154.297 154.663 155.515C156.541 156.734 158.756 157.327 160.992 157.21C160.992 157.21 159.446 154.389 165.379 152.127C167.476 151.298 169.473 150.235 171.331 148.958C173.842 147.216 175.721 144.707 176.685 141.807C176.685 141.807 187.972 126.693 179.217 98.7276C179.217 98.7276 180.357 90.8037 179.352 89.5281L172.646 98.7469C172.646 98.7469 179.584 103.405 180.376 110.227C180.376 110.227 173.148 98.7662 171.583 100.061C171.274 100.332 168.259 105.105 168.259 105.105C168.259 105.105 180.28 113.261 181.188 123.852C181.188 123.852 174.404 109.009 167.08 106.903L162.963 114.363C162.963 114.363 176.086 122.364 177.574 134.385C177.574 134.385 169.94 119.137 162.113 116.064L159.04 123.949C159.04 123.949 171.718 132.008 172.878 142.019C172.878 142.019 162.287 125.282 158.46 125.804C158.46 125.804 156.083 133.226 156.392 135.468C156.392 135.468 165.36 141.459 165.514 147.334C165.514 147.334 157.242 136.898 155.967 137.671C155.967 137.671 155.445 148.146 157.996 153.615C155.405 148.711 154.14 143.215 154.324 137.671C151.77 139.939 149.931 142.9 149.028 146.194C149.028 146.194 146.651 140.396 154.498 135.12C154.498 135.12 155.232 126.964 156.141 125.959C156.141 125.959 147.656 130.095 144.062 135.178C144.062 135.178 145.376 127.602 156.875 123.833L159.793 115.832C159.793 115.832 148.294 120.702 144.738 125.012C144.738 125.012 147.289 117.475 160.682 113.88L164.664 106.516C164.664 106.516 154.44 109.956 149.454 113.88C149.454 113.88 153.319 107.405 165.881 104.448L169.109 99.8292C169.109 99.8292 161.707 102.477 159.639 103.443C157.571 104.41 157.146 103.907 157.146 103.907C160.935 100.707 165.538 98.6191 170.442 97.8772C170.442 97.8772 177.671 88.6584 177.245 88.2719Z" fill="#00308F"/>
</svg>
