<svg width="349" height="199" viewBox="0 0 349 199" fill="none" xmlns="http://www.w3.org/2000/svg">
<path d="M131.183 185.479C131.183 185.479 122.557 136.61 90.5445 112.393C77.1121 102.23 67.2836 88.4099 62.9911 72.6708C60.971 65.2133 59.6768 57.5779 59.1265 49.8712" stroke="#535461" stroke-width="2" stroke-miterlimit="10"/>
<path d="M39.0549 34.4934C41.7293 39.7287 59.6012 50.3261 59.6012 50.3261C59.6012 50.3261 61.8478 30.5286 59.1533 25.2867C56.4588 20.0448 49.7927 17.8584 44.2299 20.3992C38.6671 22.9399 36.3604 29.2516 39.0549 34.4934Z" fill="#00308F"/>
<path d="M37.35 71.1262C42.632 74.1416 63.7199 73.8742 63.7199 73.8742C63.7199 73.8742 54.2056 56.1025 48.9436 53.0871C43.6817 50.0717 36.8017 51.663 33.6057 56.6441C30.4098 61.6252 32.0746 68.1108 37.35 71.1262Z" fill="#00308F"/>
<path d="M63.5661 120.416C69.7307 120.503 87.7898 110.22 87.7898 110.22C87.7898 110.22 70.0784 99.4153 63.9071 99.3217C57.7358 99.2281 52.6611 103.882 52.5407 109.705C52.4204 115.529 57.3948 120.309 63.5661 120.416Z" fill="#00308F"/>
<path d="M92.2894 153.465C98.347 154.542 117.991 147.281 117.991 147.281C117.991 147.281 102.466 133.788 96.4147 132.732C90.3638 131.675 84.5135 135.406 83.3768 141.156C82.2402 146.906 86.2251 152.396 92.2894 153.465Z" fill="#00308F"/>
<path d="M85.3428 65.2225C83.2367 70.6984 66.6218 82.9741 66.6218 82.9741C66.6218 82.9741 62.2223 63.5042 64.3284 58.0283C66.4345 52.5523 72.8465 49.7241 78.6434 51.7099C84.4402 53.6957 87.4489 59.7533 85.3428 65.2225Z" fill="#00308F"/>
<path d="M118.419 104.296C114.675 108.929 94.9372 115.95 94.9372 115.95C94.9372 115.95 96.943 96.1255 100.66 91.4987C102.538 89.254 105.194 87.8004 108.097 87.4286C111 87.0567 113.936 87.7939 116.319 89.4929C117.476 90.2901 118.455 91.3186 119.195 92.5133C119.934 93.708 120.417 95.043 120.615 96.4341C120.812 97.8251 120.719 99.242 120.341 100.595C119.963 101.948 119.308 103.208 118.419 104.296Z" fill="#00308F"/>
<path d="M145.043 146.439C142.181 151.6 123.988 161.67 123.988 161.67C123.988 161.67 122.39 141.819 125.252 136.657C128.114 131.495 134.86 129.503 140.329 132.204C145.798 134.905 147.898 141.277 145.043 146.439Z" fill="#00308F"/>
<path opacity="0.25" d="M39.0549 34.4934C41.7293 39.7287 59.6012 50.3261 59.6012 50.3261C59.6012 50.3261 61.8478 30.5286 59.1533 25.2867C56.4588 20.0448 49.7927 17.8584 44.2299 20.3992C38.6671 22.9399 36.3604 29.2516 39.0549 34.4934Z" fill="black"/>
<path opacity="0.25" d="M37.35 71.1262C42.632 74.1416 63.7199 73.8742 63.7199 73.8742C63.7199 73.8742 54.2056 56.1025 48.9436 53.0871C43.6817 50.0717 36.8017 51.663 33.6057 56.6441C30.4098 61.6252 32.0746 68.1108 37.35 71.1262Z" fill="black"/>
<path opacity="0.25" d="M63.5661 120.416C69.7307 120.503 87.7898 110.22 87.7898 110.22C87.7898 110.22 70.0784 99.4153 63.9071 99.3217C57.7358 99.2281 52.6611 103.882 52.5407 109.705C52.4204 115.529 57.3948 120.309 63.5661 120.416Z" fill="black"/>
<path opacity="0.25" d="M92.2894 153.465C98.347 154.542 117.991 147.281 117.991 147.281C117.991 147.281 102.466 133.788 96.4147 132.732C90.3638 131.675 84.5135 135.406 83.3768 141.156C82.2402 146.906 86.2251 152.396 92.2894 153.465Z" fill="black"/>
<path opacity="0.25" d="M85.3428 65.2225C83.2367 70.6984 66.6218 82.9741 66.6218 82.9741C66.6218 82.9741 62.2223 63.5042 64.3284 58.0283C66.4345 52.5523 72.8465 49.7241 78.6434 51.7099C84.4402 53.6957 87.4489 59.7533 85.3428 65.2225Z" fill="black"/>
<path opacity="0.25" d="M118.419 104.296C114.675 108.929 94.9372 115.95 94.9372 115.95C94.9372 115.95 96.943 96.1255 100.66 91.4987C102.538 89.254 105.194 87.8004 108.097 87.4286C111 87.0567 113.936 87.7939 116.319 89.4929C117.476 90.2901 118.455 91.3186 119.195 92.5133C119.934 93.708 120.417 95.043 120.615 96.4341C120.812 97.8251 120.719 99.242 120.341 100.595C119.963 101.948 119.308 103.208 118.419 104.296Z" fill="black"/>
<path opacity="0.25" d="M145.043 146.439C142.181 151.6 123.988 161.67 123.988 161.67C123.988 161.67 122.39 141.819 125.252 136.657C128.114 131.495 134.86 129.503 140.329 132.204C145.798 134.905 147.898 141.277 145.043 146.439Z" fill="black"/>
<path d="M130.099 184.195C130.099 184.195 143.184 136.215 124.316 101.822C116.4 87.3936 113.344 70.9993 116.179 54.966C117.54 47.3428 119.633 39.8688 122.43 32.6478" stroke="#535461" stroke-width="2" stroke-miterlimit="10"/>
<path d="M110.677 10.9114C110.89 16.7283 122.665 33.2496 122.665 33.2496C122.665 33.2496 133.215 16.0062 133.001 10.1826C132.787 4.35905 127.619 -0.194202 121.454 0.00638062C115.29 0.206963 110.456 5.08781 110.677 10.9114Z" fill="#3D6ECF"/>
<path d="M93.3995 43.7534C96.9297 48.5272 116.319 56.35 116.319 56.35C116.319 56.35 115.25 36.4655 111.719 31.685C109.934 29.3694 107.34 27.8135 104.456 27.3288C101.572 26.844 98.6121 27.4662 96.1675 29.0707C94.9795 29.8168 93.9585 30.8004 93.1685 31.9596C92.3785 33.1189 91.8366 34.4289 91.5767 35.8075C91.3168 37.1861 91.3446 38.6034 91.6582 39.9708C91.9719 41.3381 92.5647 42.6259 93.3995 43.7534Z" fill="#3D6ECF"/>
<path d="M96.2076 98.8266C101.811 101.267 122.738 98.7798 122.738 98.7798C122.738 98.7798 111.178 82.1181 105.575 79.6776C99.9718 77.2372 93.3392 79.5439 90.7517 84.8326C88.1642 90.1213 90.6113 96.3862 96.2076 98.8266Z" fill="#3D6ECF"/>
<path d="M108.276 140.047C113.364 143.349 134.432 144.225 134.432 144.225C134.432 144.225 126.021 125.966 120.94 122.669C118.491 121.074 115.529 120.463 112.649 120.959C109.769 121.455 107.182 123.021 105.408 125.344C104.574 126.478 103.985 127.773 103.677 129.146C103.369 130.52 103.349 131.942 103.618 133.324C103.888 134.706 104.441 136.016 105.243 137.173C106.044 138.331 107.077 139.309 108.276 140.047Z" fill="#3D6ECF"/>
<path d="M139.808 56.7178C135.529 60.9166 115.069 65.7908 115.069 65.7908C115.069 65.7908 119.408 46.3009 123.681 42.102C125.795 40.0758 128.595 38.9203 131.523 38.8658C134.451 38.8113 137.292 39.8617 139.48 41.8078C140.532 42.7342 141.38 43.8687 141.971 45.1395C142.562 46.4103 142.883 47.7898 142.914 49.191C142.944 50.5921 142.684 51.9844 142.15 53.2799C141.615 54.5755 140.818 55.7461 139.808 56.7178Z" fill="#3D6ECF"/>
<path d="M153.247 105.092C147.838 107.893 126.783 106.763 126.783 106.763C126.783 106.763 137.1 89.3792 142.509 86.5978C147.918 83.8163 154.711 85.6684 157.673 90.7766C160.635 95.8847 158.682 102.29 153.247 105.092Z" fill="#3D6ECF"/>
<path d="M159.525 153.807C154.691 157.43 133.737 159.677 133.737 159.677C133.737 159.677 140.797 140.909 145.631 137.285C147.981 135.541 150.902 134.748 153.811 135.064C156.72 135.381 159.403 136.782 161.323 138.99C162.232 140.058 162.909 141.303 163.312 142.646C163.716 143.989 163.837 145.4 163.668 146.792C163.499 148.184 163.043 149.526 162.33 150.733C161.617 151.94 160.662 152.987 159.525 153.807Z" fill="#3D6ECF"/>
<path opacity="0.1" d="M240.545 196.052C228.724 197.081 210.19 197.127 193.323 196.865C140.338 196.041 92.5369 192.761 51.1979 189.18C36.2519 187.884 21.4987 186.501 11.7922 184.827C-7.96524 181.418 -2.0522 177.032 25.4965 174.668C34.8675 173.864 46.223 173.289 57.8846 172.796C78.606 171.919 100.978 171.274 124.495 171.264C141.264 171.257 158.246 171.573 174.907 171.989C221.48 173.151 267.184 175.141 305.476 178.14C322.271 179.456 338.096 181.04 345.007 182.962C351.919 184.885 347.458 187.188 330.284 188.111C323.184 188.493 314.694 188.611 306.385 188.719C294.152 188.878 281.723 189.032 270.683 189.496C259.275 189.974 245.767 190.987 248.024 192.325C250.418 193.763 252.35 195.023 240.545 196.052Z" fill="#00308F"/>
<path d="M319.143 183.846H205.861V161H319.143V183.846ZM207.332 182.372H317.671V162.474H207.332V182.372Z" fill="#3F3D56"/>
<path d="M305.166 179.792C309.229 179.792 312.522 176.493 312.522 172.423C312.522 168.352 309.229 165.053 305.166 165.053C301.104 165.053 297.81 168.352 297.81 172.423C297.81 176.493 301.104 179.792 305.166 179.792Z" fill="#004DE6"/>
<path d="M284.57 179.792C288.632 179.792 291.926 176.493 291.926 172.423C291.926 168.352 288.632 165.053 284.57 165.053C280.507 165.053 277.214 168.352 277.214 172.423C277.214 176.493 280.507 179.792 284.57 179.792Z" fill="#004DE6"/>
<path d="M263.973 179.792C268.035 179.792 271.329 176.493 271.329 172.423C271.329 168.352 268.035 165.053 263.973 165.053C259.91 165.053 256.617 168.352 256.617 172.423C256.617 176.493 259.91 179.792 263.973 179.792Z" fill="#004DE6"/>
<path d="M243.376 179.792C247.439 179.792 250.732 176.493 250.732 172.423C250.732 168.352 247.439 165.053 243.376 165.053C239.314 165.053 236.02 168.352 236.02 172.423C236.02 176.493 239.314 179.792 243.376 179.792Z" fill="#004DE6"/>
<path d="M222.779 179.792C226.842 179.792 230.135 176.493 230.135 172.423C230.135 168.352 226.842 165.053 222.779 165.053C218.717 165.053 215.423 168.352 215.423 172.423C215.423 176.493 218.717 179.792 222.779 179.792Z" fill="#004DE6"/>
</svg>
