<svg width="1340" height="3587" viewBox="0 0 1340 3587" fill="none" xmlns="http://www.w3.org/2000/svg">
<g opacity="0.6">
<path d="M1338.52 281.286L1300.1 259.104" stroke="#00AED9" stroke-linecap="round" stroke-linejoin="round"/>
<path d="M1308.22 289.424L1330.42 250.972" stroke="#00AED9" stroke-linecap="round" stroke-linejoin="round"/>
<path d="M99.3 282.894L59.5051 259.918" stroke="#9A6F00" stroke-linecap="round" stroke-linejoin="round"/>
<path d="M67.9126 291.321L90.907 251.493" stroke="#9A6F00" stroke-linecap="round" stroke-linejoin="round"/>
<path d="M85.3479 293.597L73.4548 249.211" stroke="#00AED9" stroke-linecap="round" stroke-linejoin="round"/>
<path d="M57.1946 277.362L101.616 265.459" stroke="#00AED9" stroke-linecap="round" stroke-linejoin="round"/>
<path d="M1266.41 1498.64L1237.08 1478.86" stroke="#9A6F00" stroke-linecap="round" stroke-linejoin="round"/>
<path d="M1241.85 1503.43L1261.65 1474.07" stroke="#9A6F00" stroke-linecap="round" stroke-linejoin="round"/>
<path d="M1255.12 1506.11L1248.37 1471.38" stroke="#00AED9" stroke-linecap="round" stroke-linejoin="round"/>
<path d="M1234.37 1492.13L1269.13 1485.37" stroke="#00AED9" stroke-linecap="round" stroke-linejoin="round"/>
<path d="M70.5376 1963.61L109.615 1944.55" stroke="#00AED9" stroke-linecap="round" stroke-linejoin="round"/>
<path d="M80.5334 1934.53L99.608 1973.64" stroke="#00AED9" stroke-linecap="round" stroke-linejoin="round"/>
<path d="M53.8911 1087.8L56.702 1082.29" stroke="#00AED9" stroke-linecap="round" stroke-linejoin="round"/>
<path d="M63.1567 1098.66L69.0667 1096.74" stroke="#00AED9" stroke-linecap="round" stroke-linejoin="round"/>
<path d="M62.0532 1112.89L67.5745 1115.7" stroke="#00AED9" stroke-linecap="round" stroke-linejoin="round"/>
<path d="M51.1926 1122.14L53.115 1128.05" stroke="#00AED9" stroke-linecap="round" stroke-linejoin="round"/>
<path d="M36.9602 1121.03L34.1492 1126.55" stroke="#00AED9" stroke-linecap="round" stroke-linejoin="round"/>
<path d="M27.6949 1110.17L21.7849 1112.09" stroke="#00AED9" stroke-linecap="round" stroke-linejoin="round"/>
<path d="M28.7974 1095.95L23.2761 1093.13" stroke="#00AED9" stroke-linecap="round" stroke-linejoin="round"/>
<path d="M39.6592 1086.69L37.7368 1080.78" stroke="#00AED9" stroke-linecap="round" stroke-linejoin="round"/>
<path d="M1192.55 2163.28L1233.34 2154.61" stroke="#00AED9" stroke-linecap="round" stroke-linejoin="round"/>
<path d="M1208.6 2138.54L1217.28 2179.36" stroke="#00AED9" stroke-linecap="round" stroke-linejoin="round"/>
<path d="M233.693 2376.4L238.949 2377.9" stroke="#00AED9" stroke-linecap="round" stroke-linejoin="round"/>
<path d="M225.839 2386.26L228.498 2391.06" stroke="#00AED9" stroke-linecap="round" stroke-linejoin="round"/>
<path d="M213.32 2387.7L211.811 2392.96" stroke="#00AED9" stroke-linecap="round" stroke-linejoin="round"/>
<path d="M203.468 2379.84L198.67 2382.5" stroke="#00AED9" stroke-linecap="round" stroke-linejoin="round"/>
<path d="M202.034 2367.32L196.778 2365.81" stroke="#00AED9" stroke-linecap="round" stroke-linejoin="round"/>
<path d="M209.887 2357.46L207.229 2352.66" stroke="#00AED9" stroke-linecap="round" stroke-linejoin="round"/>
<path d="M222.405 2356.01L223.914 2350.75" stroke="#00AED9" stroke-linecap="round" stroke-linejoin="round"/>
<path d="M232.259 2363.87L237.057 2361.21" stroke="#00AED9" stroke-linecap="round" stroke-linejoin="round"/>
<path d="M59.9663 2923.69L65.2224 2925.19" stroke="#00AED9" stroke-linecap="round" stroke-linejoin="round"/>
<path d="M52.1128 2933.55L54.7711 2938.35" stroke="#00AED9" stroke-linecap="round" stroke-linejoin="round"/>
<path d="M39.5929 2934.99L38.0845 2940.25" stroke="#00AED9" stroke-linecap="round" stroke-linejoin="round"/>
<path d="M29.7412 2927.13L24.9431 2929.8" stroke="#00AED9" stroke-linecap="round" stroke-linejoin="round"/>
<path d="M28.3074 2914.61L23.0513 2913.1" stroke="#00AED9" stroke-linecap="round" stroke-linejoin="round"/>
<path d="M36.1607 2904.75L33.5024 2899.95" stroke="#00AED9" stroke-linecap="round" stroke-linejoin="round"/>
<path d="M48.6785 2903.31L50.1869 2898.05" stroke="#00AED9" stroke-linecap="round" stroke-linejoin="round"/>
<path d="M58.5325 2911.16L63.3306 2908.5" stroke="#00AED9" stroke-linecap="round" stroke-linejoin="round"/>
<path d="M1288.8 2470.76L1311.14 2443.18" stroke="#00AED9" stroke-linecap="round" stroke-linejoin="round"/>
<path d="M1286.16 2445.79L1313.77 2468.15" stroke="#00AED9" stroke-linecap="round" stroke-linejoin="round"/>
<path d="M772.611 150.1L778.912 201.418" stroke="#9A6F00" stroke-linecap="round" stroke-linejoin="round"/>
<path d="M801.438 172.598L750.079 178.905" stroke="#9A6F00" stroke-linecap="round" stroke-linejoin="round"/>
<path d="M791.677 155.389L759.845 196.132" stroke="#00AED9" stroke-linecap="round" stroke-linejoin="round"/>
<path d="M796.152 191.682L755.376 159.824" stroke="#00AED9" stroke-linecap="round" stroke-linejoin="round"/>
<path d="M58.1699 87.4818C58.5676 88.0837 59.1112 88.575 59.7499 88.91C60.3887 89.2451 61.1019 89.4129 61.8232 89.3979C62.5445 89.3829 63.2504 89.1855 63.8752 88.8242C64.5 88.4629 65.0233 87.9493 65.3965 87.3314L83.1591 56.5658C83.5155 55.9362 83.7034 55.2254 83.7047 54.5021C83.706 53.7787 83.5206 53.0674 83.1665 52.4371C82.8123 51.8067 82.3014 51.2787 81.6832 50.904C81.065 50.5293 80.3605 50.3207 79.6378 50.2984L41.9521 49.0069C41.1516 48.9318 40.3462 49.0882 39.6316 49.4575C38.917 49.8268 38.3232 50.3935 37.9209 51.0903C37.5186 51.7871 37.3247 52.5847 37.3622 53.3882C37.3996 54.1917 37.6669 54.9674 38.1322 55.6232L58.1699 87.4818Z" stroke="#FF4064" stroke-linecap="round" stroke-linejoin="round"/>
<path d="M1267.78 49.6286C1264.36 52.8434 1260.35 55.3532 1255.96 57.0146C1251.57 58.676 1246.9 59.4565 1242.21 59.3113C1237.52 59.1661 1232.91 58.0982 1228.64 56.1685C1224.36 54.2389 1220.51 51.4854 1217.3 48.0653C1212.17 42.52 1209.43 35.1744 1209.67 27.6171C1209.9 20.0598 1213.11 12.8983 1218.58 7.68144C1220.77 5.61984 1223.35 4.01084 1226.16 2.94654C1228.98 1.88229 1231.97 1.38371 1234.98 1.47933C1237.99 1.57496 1240.94 2.26294 1243.68 3.50384C1246.42 4.74474 1248.89 6.51414 1250.94 8.71084C1254.26 12.2479 1256.03 16.9583 1255.88 21.8073C1255.73 26.6563 1253.66 31.2474 1250.12 34.5719C1248.72 35.887 1247.08 36.9131 1245.28 37.5914C1243.48 38.2696 1241.57 38.5868 1239.65 38.5246C1237.73 38.4625 1235.85 38.0222 1234.1 37.2291C1232.35 36.436 1230.78 35.3057 1229.47 33.9027C1228.41 32.7863 1227.59 31.4724 1227.05 30.0366C1226.5 28.6009 1226.25 27.0716 1226.3 25.5367C1226.35 24.0018 1226.7 22.4915 1227.33 21.0927C1227.97 19.694 1228.87 18.4343 1230 17.3861C1230.89 16.5399 1231.94 15.8786 1233.09 15.4405C1234.24 15.0023 1235.46 14.796 1236.69 14.8334C1237.92 14.8708 1239.13 15.1512 1240.24 15.6583C1241.36 16.1655 1242.37 16.8894 1243.21 17.7883C1244.53 19.2199 1245.23 21.1106 1245.17 23.0555C1245.11 25.0004 1244.29 26.845 1242.89 28.1943" stroke="#48CF3E" stroke-linecap="round" stroke-linejoin="round"/>
<path d="M1179 637.928L1183.78 629.654C1184.47 628.455 1185.39 627.406 1186.5 626.57C1187.6 625.734 1188.86 625.127 1190.2 624.786C1191.54 624.445 1192.94 624.375 1194.3 624.582C1195.67 624.789 1196.98 625.268 1198.16 625.99L1205.96 630.494C1208.35 631.659 1211.1 631.862 1213.63 631.059C1216.17 630.256 1218.3 628.509 1219.58 626.179L1223.86 618.763C1225.24 616.383 1227.5 614.645 1230.15 613.933C1232.81 613.22 1235.64 613.592 1238.01 614.965L1245.81 619.468C1246.99 620.16 1248.29 620.611 1249.64 620.795C1250.99 620.979 1252.37 620.891 1253.68 620.537C1255 620.184 1256.24 619.571 1257.31 618.736C1258.39 617.9 1259.29 616.858 1259.97 615.67L1264.25 608.254C1265.62 605.874 1267.89 604.136 1270.54 603.424C1273.19 602.711 1276.02 603.083 1278.4 604.456L1286.2 608.959C1288.58 610.309 1291.4 610.667 1294.05 609.956C1296.7 609.246 1298.96 607.524 1300.35 605.161L1304.86 597.355" stroke="#FFB700" stroke-linecap="round" stroke-linejoin="round"/>
<path d="M608.479 1344.3C604.852 1343.81 601.358 1342.6 598.197 1340.76C595.037 1338.92 592.271 1336.47 590.058 1333.55C587.844 1330.64 586.228 1327.32 585.299 1323.78C584.371 1320.25 584.15 1316.56 584.648 1312.94C585.489 1307.1 588.595 1301.83 593.293 1298.27C597.992 1294.7 603.905 1293.13 609.755 1293.89C612.08 1294.2 614.32 1294.98 616.347 1296.16C618.373 1297.34 620.146 1298.91 621.563 1300.78C622.981 1302.65 624.015 1304.78 624.608 1307.05C625.2 1309.32 625.338 1311.68 625.015 1314.01C624.499 1317.75 622.515 1321.14 619.501 1323.43C616.486 1325.72 612.686 1326.72 608.936 1326.2C607.452 1326 606.022 1325.51 604.729 1324.75C603.436 1324 602.305 1322.99 601.401 1321.8C600.497 1320.6 599.837 1319.24 599.46 1317.8C599.083 1316.35 598.995 1314.84 599.202 1313.36C599.362 1312.17 599.755 1311.03 600.359 1309.99C600.962 1308.96 601.764 1308.05 602.719 1307.33C603.673 1306.6 604.762 1306.08 605.921 1305.77C607.08 1305.47 608.288 1305.4 609.474 1305.57C610.425 1305.69 611.342 1306.01 612.171 1306.49C613.001 1306.97 613.727 1307.61 614.307 1308.37C614.888 1309.14 615.311 1310.01 615.553 1310.93C615.795 1311.86 615.851 1312.83 615.717 1313.78C615.496 1315.28 614.695 1316.63 613.486 1317.55C612.278 1318.47 610.758 1318.88 609.251 1318.69" stroke="#48CF3E" stroke-linecap="round" stroke-linejoin="round"/>
<path d="M42.3508 798L50.7494 799.33C51.9663 799.523 53.1324 799.956 54.1788 800.606C55.2253 801.256 56.1309 802.109 56.8423 803.114C57.5536 804.119 58.0563 805.257 58.3207 806.459C58.585 807.662 58.6057 808.905 58.3815 810.115L57.1276 818.032C56.9206 820.388 57.6283 822.734 59.1041 824.585C60.5799 826.435 62.7108 827.647 65.056 827.971L72.5831 829.163C74.9996 829.546 77.1653 830.872 78.6036 832.85C80.042 834.828 80.6352 837.296 80.2527 839.711L78.9988 847.627C78.7984 848.824 78.8387 850.049 79.1171 851.23C79.3956 852.412 79.9067 853.526 80.6207 854.508C81.3346 855.49 82.2372 856.32 83.2755 856.949C84.3139 857.579 85.4674 857.995 86.6685 858.175L94.196 859.367C96.612 859.75 98.778 861.076 100.216 863.054C101.654 865.032 102.248 867.5 101.865 869.914L100.611 877.831C100.251 880.243 100.852 882.7 102.287 884.672C103.722 886.645 105.874 887.976 108.281 888.379L116.204 889.634" stroke="#FFB700" stroke-linecap="round" stroke-linejoin="round"/>
<path d="M1.35083 2548L9.74943 2549.33C10.9663 2549.52 12.1324 2549.96 13.1788 2550.61C14.2253 2551.26 15.1309 2552.11 15.8423 2553.11C16.5536 2554.12 17.0563 2555.26 17.3207 2556.46C17.585 2557.66 17.6057 2558.9 17.3815 2560.12L16.1276 2568.03C15.9206 2570.39 16.6283 2572.73 18.1041 2574.58C19.5799 2576.43 21.7108 2577.65 24.056 2577.97L31.5831 2579.16C33.9996 2579.55 36.1653 2580.87 37.6036 2582.85C39.042 2584.83 39.6352 2587.3 39.2527 2589.71L37.9988 2597.63C37.7984 2598.82 37.8387 2600.05 38.1171 2601.23C38.3956 2602.41 38.9067 2603.53 39.6207 2604.51C40.3346 2605.49 41.2372 2606.32 42.2755 2606.95C43.3139 2607.58 44.4674 2608 45.6685 2608.17L53.1956 2609.37C55.6121 2609.75 57.7778 2611.08 59.2161 2613.05C60.6545 2615.03 61.2477 2617.5 60.8652 2619.91L59.6113 2627.83C59.2506 2630.24 59.8523 2632.7 61.2869 2634.67C62.7215 2636.65 64.8741 2637.98 67.281 2638.38L75.2042 2639.63" stroke="#CF0820" stroke-linecap="round" stroke-linejoin="round"/>
<path d="M14.412 1628.36C13.9926 1628.95 13.7287 1629.63 13.6449 1630.35C13.561 1631.07 13.66 1631.79 13.9325 1632.46C14.205 1633.13 14.6422 1633.72 15.2034 1634.17C15.7646 1634.62 16.4316 1634.93 17.1422 1635.06L52.2299 1640.61C52.9454 1640.72 53.6764 1640.64 54.3521 1640.38C55.0279 1640.12 55.6255 1639.7 56.0871 1639.14C56.5486 1638.58 56.8585 1637.92 56.9868 1637.21C57.1151 1636.49 57.0573 1635.76 56.8191 1635.08L44.5195 1599.43C44.3028 1598.66 43.8681 1597.96 43.2673 1597.43C42.6664 1596.89 41.9245 1596.54 41.1298 1596.42C40.3351 1596.29 39.5211 1596.4 38.7843 1596.72C38.0476 1597.04 37.4192 1597.57 36.9738 1598.24L14.412 1628.36Z" stroke="#FF4064" stroke-linecap="round" stroke-linejoin="round"/>
<path d="M773.011 1950.52C770.457 1945.76 768.865 1940.55 768.325 1935.19C767.786 1929.82 768.309 1924.4 769.866 1919.23C771.422 1914.07 773.981 1909.26 777.397 1905.09C780.813 1900.92 785.017 1897.46 789.772 1894.91C797.459 1890.86 806.436 1890 814.759 1892.51C823.083 1895.03 830.085 1900.72 834.25 1908.35C835.888 1911.4 836.908 1914.74 837.253 1918.18C837.598 1921.63 837.26 1925.1 836.259 1928.41C835.258 1931.72 833.614 1934.8 831.42 1937.48C829.227 1940.15 826.527 1942.36 823.475 1943.99C818.559 1946.62 812.798 1947.19 807.457 1945.58C802.117 1943.96 797.634 1940.3 794.993 1935.38C793.948 1933.44 793.298 1931.3 793.08 1929.1C792.861 1926.91 793.078 1924.69 793.718 1922.58C794.358 1920.46 795.409 1918.5 796.81 1916.79C798.211 1915.09 799.936 1913.67 801.884 1912.64C803.438 1911.8 805.142 1911.28 806.898 1911.1C808.655 1910.92 810.43 1911.1 812.12 1911.61C813.81 1912.12 815.383 1912.96 816.748 1914.08C818.113 1915.2 819.243 1916.58 820.073 1918.14C820.748 1919.38 821.169 1920.75 821.314 1922.15C821.459 1923.56 821.324 1924.98 820.917 1926.34C820.509 1927.69 819.838 1928.95 818.942 1930.04C818.045 1931.13 816.941 1932.04 815.693 1932.7C813.711 1933.74 811.402 1933.95 809.259 1933.31C807.116 1932.66 805.311 1931.2 804.23 1929.25" stroke="#48CF3E" stroke-linecap="round" stroke-linejoin="round"/>
<path d="M1329.23 1887.59C1325.46 1891.26 1321.01 1894.15 1316.13 1896.09C1311.25 1898.04 1306.03 1899.01 1300.78 1898.93C1295.53 1898.86 1290.34 1897.76 1285.52 1895.68C1280.7 1893.6 1276.33 1890.6 1272.67 1886.83C1266.81 1880.72 1263.6 1872.55 1263.72 1864.08C1263.84 1855.61 1267.28 1847.53 1273.31 1841.58C1275.73 1839.23 1278.58 1837.38 1281.71 1836.13C1284.84 1834.88 1288.18 1834.27 1291.55 1834.31C1294.92 1834.36 1298.25 1835.07 1301.34 1836.41C1304.43 1837.75 1307.23 1839.68 1309.57 1842.1C1313.35 1846 1315.43 1851.24 1315.36 1856.67C1315.28 1862.1 1313.05 1867.28 1309.16 1871.08C1307.61 1872.58 1305.79 1873.76 1303.79 1874.55C1301.79 1875.35 1299.66 1875.74 1297.51 1875.71C1295.36 1875.68 1293.24 1875.22 1291.26 1874.37C1289.29 1873.51 1287.51 1872.28 1286.01 1870.73C1284.81 1869.5 1283.86 1868.05 1283.23 1866.45C1282.59 1864.85 1282.28 1863.14 1282.3 1861.42C1282.33 1859.7 1282.69 1858.01 1283.37 1856.43C1284.06 1854.85 1285.05 1853.42 1286.28 1852.22C1287.26 1851.26 1288.43 1850.5 1289.71 1849.99C1290.98 1849.47 1292.35 1849.22 1293.73 1849.23C1295.1 1849.25 1296.46 1849.54 1297.73 1850.09C1298.99 1850.64 1300.13 1851.43 1301.09 1852.42C1302.59 1853.99 1303.41 1856.1 1303.39 1858.28C1303.36 1860.46 1302.47 1862.54 1300.93 1864.08" stroke="#48CF3E" stroke-linecap="round" stroke-linejoin="round"/>
<path d="M105.228 3491.59C101.462 3495.26 97.0119 3498.15 92.1309 3500.09C87.2504 3502.04 82.0348 3503.01 76.7823 3502.93C71.5299 3502.86 66.3437 3501.76 61.52 3499.68C56.6963 3497.6 52.3297 3494.6 48.6697 3490.83C42.8124 3484.72 39.5959 3476.55 39.7159 3468.08C39.8359 3459.61 43.2827 3451.53 49.3109 3445.58C51.7252 3443.23 54.5792 3441.38 57.7094 3440.13C60.8396 3438.88 64.1844 3438.27 67.5524 3438.31C70.9204 3438.36 74.2453 3439.08 77.3367 3440.41C80.4281 3441.75 83.2252 3443.68 85.5678 3446.1C89.3509 3450 91.4329 3455.24 91.3549 3460.67C91.2779 3466.1 89.0479 3471.28 85.1553 3475.08C83.6132 3476.58 81.7907 3477.76 79.7921 3478.55C77.7935 3479.35 75.6582 3479.74 73.5083 3479.71C71.3584 3479.68 69.2363 3479.22 67.2634 3478.37C65.2906 3477.51 63.5058 3476.28 62.0112 3474.73C60.81 3473.5 59.8638 3472.05 59.227 3470.45C58.5901 3468.85 58.2752 3467.14 58.3003 3465.42C58.3254 3463.7 58.6901 3462.01 59.3733 3460.43C60.0566 3458.85 61.0449 3457.42 62.2815 3456.22C63.2642 3455.26 64.428 3454.5 65.7059 3453.99C66.9837 3453.47 68.3503 3453.22 69.7268 3453.24C71.1032 3453.25 72.4623 3453.54 73.7257 3454.09C74.9891 3454.64 76.1318 3455.43 77.0878 3456.42C78.5898 3457.99 79.4144 3460.1 79.385 3462.28C79.3556 3464.46 78.4746 3466.54 76.9306 3468.08" stroke="#002680" stroke-linecap="round" stroke-linejoin="round"/>
<path d="M396.764 3579.4C396.609 3580.2 396.641 3581.05 396.859 3581.85C397.076 3582.66 397.471 3583.4 398.006 3584.01C398.542 3584.62 399.202 3585.08 399.923 3585.34C400.645 3585.61 401.405 3585.66 402.133 3585.51L437.786 3577.28C438.51 3577.11 439.172 3576.72 439.708 3576.17C440.243 3575.62 440.634 3574.92 440.842 3574.13C441.05 3573.34 441.068 3572.5 440.895 3571.68C440.722 3570.86 440.364 3570.09 439.855 3569.45L413.393 3535.99C412.866 3535.24 412.164 3534.67 411.371 3534.33C410.579 3534 409.728 3533.92 408.921 3534.11C408.113 3534.29 407.383 3534.74 406.816 3535.38C406.25 3536.03 405.871 3536.85 405.725 3537.76L396.764 3579.4Z" stroke="#FF4064" stroke-linecap="round" stroke-linejoin="round"/>
<path d="M828.88 3400.91L859.565 3425.76" stroke="#03883B" stroke-linecap="round" stroke-linejoin="round"/>
<path d="M856.653 3397.97L831.785 3428.68" stroke="#03883B" stroke-linecap="round" stroke-linejoin="round"/>
<path d="M1306.43 3095.36L1337.12 3120.2" stroke="#00AED9" stroke-linecap="round" stroke-linejoin="round"/>
<path d="M1334.21 3092.42L1309.34 3123.13" stroke="#00AED9" stroke-linecap="round" stroke-linejoin="round"/>
<path d="M1088 3447.19L1087.11 3498.19" stroke="#9A6F00" stroke-linecap="round" stroke-linejoin="round"/>
<path d="M1113.07 3473.13L1062.03 3472.24" stroke="#9A6F00" stroke-linecap="round" stroke-linejoin="round"/>
<path d="M1105.9 3454.98L1069.21 3490.41" stroke="#00AED9" stroke-linecap="round" stroke-linejoin="round"/>
<path d="M1105.29 3491.05L1069.83 3454.33" stroke="#00AED9" stroke-linecap="round" stroke-linejoin="round"/>
<path d="M688.153 2876.21L687.263 2927.2" stroke="#9A6F00" stroke-linecap="round" stroke-linejoin="round"/>
<path d="M713.226 2902.14L662.186 2901.25" stroke="#9A6F00" stroke-linecap="round" stroke-linejoin="round"/>
<path d="M706.053 2883.99L669.362 2919.42" stroke="#00AED9" stroke-linecap="round" stroke-linejoin="round"/>
<path d="M705.441 2920.06L669.981 2883.34" stroke="#00AED9" stroke-linecap="round" stroke-linejoin="round"/>
</g>
</svg>
