<svg width="175" height="48" viewBox="0 0 175 48" fill="none" xmlns="http://www.w3.org/2000/svg">
<path d="M16.9587 24.4391L16.0035 11.0025L11.5036 24.4924H8.50599L3.97985 11.0025L3.07632 24.4391H0L1.37034 6.04199H5.71284L10.2374 19.9337L14.7366 6.04199H19.0019L20.3722 24.4391H16.9587Z" fill="#00565F"/>
<path d="M30.5641 24.7864C25.4971 24.7864 22.2117 20.947 22.2117 15.268C22.2117 9.56264 25.5226 5.69702 30.6143 5.69702C35.7345 5.69702 38.9675 9.53638 38.9675 15.2146C38.9675 20.8945 35.6836 24.7864 30.5641 24.7864ZM30.5888 8.63164C27.5379 8.63164 25.7031 11.2146 25.7031 15.2425C25.7031 19.2681 27.5379 21.8557 30.5888 21.8557C33.6659 21.8557 35.5007 19.2681 35.5007 15.2425C35.5007 11.2146 33.6404 8.63164 30.5888 8.63164Z" fill="#00565F"/>
<path d="M54.6348 23.9601L51.1449 24.6269L46.4923 17.4009H44.9414V24.4383H41.5271V6.04199H47.0594C51.0423 6.04199 53.4466 7.98912 53.4466 11.5611C53.4466 14.2276 52.0763 15.9074 49.8795 16.7341L54.6348 23.9601ZM46.8017 8.86919H44.9144V14.7074H46.6474C48.7669 14.7074 50.0856 13.669 50.0856 11.7473C50.0856 9.90841 48.9482 8.86919 46.8017 8.86919Z" fill="#00565F"/>
<path d="M68.4445 24.4391L60.0435 11.7752V24.4391H56.8645V6.04199H60.0951L68.1104 18.0948V6.04199H71.2901V24.4391H68.4445Z" fill="#00565F"/>
<path d="M74.9629 24.4391V6.04199H85.3315V9.02913H78.3509V13.3483H83.7281L84.1942 16.388H78.3517V21.4543H85.8376L84.732 24.4407H74.9629V24.4391Z" fill="#00565F"/>
<path d="M100.105 24.6281L98.4003 19.7742H91.6505L90.0216 24.4411H86.6328L93.3294 5.96362H96.9783L103.517 23.9875L100.105 24.6281ZM95.01 9.80219L92.581 16.8945H97.4412L95.01 9.80219Z" fill="#00565F"/>
<path d="M111.612 24.7598C107.294 24.7598 104.478 22.1203 104.478 17.3213V6.04199H107.891V17.1344C107.891 19.9337 109.133 21.693 111.639 21.693C114.172 21.693 115.44 20.0419 115.44 17.2147V6.04199H118.877V17.2402C118.877 22.1203 115.931 24.7598 111.612 24.7598Z" fill="#00565F"/>
<path d="M36.2701 47.9999C34.0973 47.9999 32.2347 47.4938 30.6583 46.7219L31.1745 43.4929C32.6745 44.4032 34.5371 45.1217 36.321 45.1217C37.8981 45.1217 38.983 44.3451 38.983 42.8802C38.983 41.5219 38.3634 40.9625 35.7755 39.8143C32.3134 38.3501 30.9153 37.1765 30.9153 34.323C30.9153 31.0693 33.3473 29.1763 36.6821 29.1763C38.6975 29.1763 40.0956 29.602 41.388 30.2951L40.8711 33.4946C39.5779 32.6162 38.054 32.0552 36.6567 32.0552C34.9507 32.0552 34.1999 32.9082 34.1999 34.0278C34.1999 35.2039 34.7686 35.7633 37.2515 36.8295C40.9243 38.3764 42.2669 39.6814 42.2669 42.5364C42.2669 46.1339 39.7067 47.9999 36.2701 47.9999Z" fill="#00565F"/>
<path d="M55.54 47.7872V39.787H47.9661V47.7872H44.5264V29.387H47.9661V36.64H55.54V29.387H58.9798V47.7848H55.54V47.7872Z" fill="#00565F"/>
<path d="M62.4724 47.7872V29.387H72.8402V32.3757H65.8612V36.6941H71.2369L71.7029 39.7329H65.8605V44.7993H73.0972V47.7848H62.4724V47.7872Z" fill="#00565F"/>
<path d="M80.8055 41.0133H79.2801V47.7872H75.8689V29.387H81.0895C85.1742 29.387 87.631 31.3341 87.631 35.0406C87.631 39.0144 84.8918 41.0133 80.8055 41.0133ZM80.9089 32.215H79.2801V38.1614H80.7793C82.9775 38.1614 84.2699 37.2272 84.2699 35.1209C84.2707 33.1993 83.1056 32.215 80.9089 32.215Z" fill="#00565F"/>
<path d="M89.8127 47.7872V29.387H100.181V32.3757H93.2008V36.6941H98.5795L99.0456 39.7329H93.2016V44.7993H100.441V47.7848H89.8143V47.7872H89.8127Z" fill="#00565F"/>
<path d="M103.509 47.7872V29.387H106.95V44.6656H112.896L113.362 47.7848H103.509V47.7872Z" fill="#00565F"/>
<path d="M115.413 47.7872V29.387H118.852V44.6656H124.797L125.262 47.7848H115.413V47.7872Z" fill="#00565F"/>
<path d="M136.691 22.2572L136.677 22.3137C136.624 22.558 136.574 22.8031 136.532 23.0506L136.491 23.3148C136.461 23.5081 136.432 23.7015 136.41 23.8964L136.366 24.3707L136.331 24.7829C136.313 25.086 136.304 25.39 136.304 25.694C136.304 34.6132 142.772 41.6004 151.032 41.6004C155.511 41.6004 159.728 39.6939 162.921 36.6598C160.668 37.8781 158.081 38.5234 155.395 38.5234C148.955 38.5234 142.801 34.9609 139.714 29.4474C137.775 25.9828 137.27 21.9986 138.132 18.2532C137.491 19.5247 136.999 20.8687 136.691 22.2572Z" fill="#23BBB8"/>
<path d="M150.405 1.02462C156.995 1.02462 162.695 3.65368 166.991 7.61478L167.114 7.73176C167.323 7.9283 167.533 8.12405 167.74 8.32695C168.564 9.14496 169.331 10.0187 170.039 10.9329L170.216 11.1693L170.674 11.7907L171.032 12.308L171.217 12.5833C173.033 15.3285 174.326 18.3523 174.994 21.4158C175.076 17.1109 174.137 12.8944 172.248 9.52452C167.369 0.808181 156.862 -1.73097 148.838 1.11215C149.365 1.05804 149.886 1.02462 150.405 1.02462Z" fill="#23BBB8"/>
<path d="M150.403 2.42651C141.184 2.42651 130.871 11.6521 130.871 23.9985C130.871 37.2775 143.217 47.2002 154.254 47.2002C165.988 47.2002 174.165 36.1054 174.165 26.151C174.163 14.9289 164.406 2.42651 150.403 2.42651ZM156.115 42.258L156.015 42.2874C155.251 42.5062 154.472 42.6773 153.676 42.7998L153.413 42.8341C153.112 42.8746 152.811 42.9073 152.507 42.9335L152.195 42.9566C151.809 42.9821 151.422 43.0004 151.033 43.0004C142.012 43.0004 134.945 35.3949 134.945 25.6918C134.945 15.5336 143.82 6.62474 153.938 6.62474C162.843 6.62474 170.089 14.2135 170.089 23.5426C170.089 32.3011 164.069 39.9233 156.115 42.258Z" fill="#00565F"/>
<path d="M162.028 33.7689C161.496 34.7198 160.875 35.5728 160.191 36.3391C163.696 35.7845 168.728 31.6236 168.728 23.5423C168.728 14.9859 162.094 8.0249 153.938 8.0249C153.067 8.0249 152.202 8.10288 151.352 8.24691C153.034 8.58111 154.683 9.20177 156.222 10.1177C163.821 14.6421 166.471 25.83 162.028 33.7689Z" fill="#F3DC00"/>
<path d="M129.513 23.999C129.513 18.6278 131.355 13.8137 134.201 9.99585C132.389 11.5992 130.863 13.4373 129.752 15.4243C124.223 25.2928 128.979 37.6655 137.13 42.5194C138.267 43.1958 139.486 43.7376 140.753 44.1626C134.344 39.7996 129.513 32.5601 129.513 23.999Z" fill="#F3DC00"/>
</svg>