<svg width="110" height="35" viewBox="0 0 110 35" fill="none" xmlns="http://www.w3.org/2000/svg">
<g clip-path="url(#clip0)">
<path d="M7.26532 0.621338H9.09999L16.0746 18.3529L14.3189 18.7399L12.0439 12.7945H4.26774L2.07177 18.5591H0.237091L7.26532 0.621338ZM4.8887 11.2185H11.423L8.14314 2.6888L4.8887 11.2185Z" fill="#02308F"/>
<path d="M23.5121 18.7145C21.8072 18.7145 20.4383 18.3784 19.0693 17.9124V0.310684L20.7742 0V7.93657C21.652 6.9791 22.8403 6.07529 24.5451 6.07529C27.2068 6.07529 29.4536 8.01283 29.4536 12.0969C29.4536 16.5708 26.8964 18.7145 23.5121 18.7145ZM24.3645 7.60047C22.9955 7.60047 21.858 8.45344 20.7742 9.71877V16.7487C21.5504 17.0594 22.3492 17.2402 23.5911 17.2402C26.0185 17.2402 27.7234 15.6641 27.7234 12.1732C27.7234 9.2019 26.3036 7.60047 24.3645 7.60047Z" fill="#02308F"/>
<path d="M33.7439 3.41195C33.0722 3.41195 32.5048 2.84425 32.5048 2.17204C32.5048 1.49983 33.0722 0.932129 33.7439 0.932129C34.4157 0.932129 34.9576 1.49983 34.9576 2.17204C34.9576 2.84425 34.4157 3.41195 33.7439 3.41195ZM32.8915 18.5592V6.33239H34.571V18.5592H32.8915Z" fill="#02308F"/>
<path d="M38.9347 18.5592V0.310684L40.6141 0V18.5592H38.9347Z" fill="#02308F"/>
<path d="M45.833 3.41195C45.1613 3.41195 44.5939 2.84425 44.5939 2.17204C44.5939 1.49983 45.1613 0.932129 45.833 0.932129C46.5048 0.932129 47.0467 1.49983 47.0467 2.17204C47.0467 2.84425 46.5048 3.41195 45.833 3.41195ZM44.9806 18.5592V6.33239H46.6601V18.5592H44.9806Z" fill="#02308F"/>
<path d="M54.6169 18.7653C52.706 18.7653 51.4387 18.0169 51.4387 15.7658V7.78123H49.5532V6.33231H51.4387V2.09288L53.1181 1.80762V6.33231H55.9351L56.1665 7.78123H53.1181V15.4834C53.1181 16.7233 53.6093 17.2656 54.9274 17.2656C55.3141 17.2656 55.7798 17.1893 56.0649 17.1357L56.3246 18.5563C55.9605 18.6637 55.3395 18.7653 54.6169 18.7653Z" fill="#02308F"/>
<path d="M60.6601 3.97933C59.627 3.97933 58.8 3.25628 58.8 2.22255C58.8 1.1634 59.627 0.412109 60.6601 0.412109C61.6677 0.412109 62.4947 1.16058 62.4947 2.22255C62.4947 3.25628 61.6677 3.97933 60.6601 3.97933ZM59.0851 18.5589V6.07504H62.1843V18.5617H59.0851V18.5589Z" fill="#02308F"/>
<path d="M73.5 18.8697C68.3347 18.8697 65.0774 15.2262 65.0774 9.66778C65.0774 4.13478 68.4109 0.415039 73.6016 0.415039C75.6169 0.415039 77.1665 0.881066 78.4847 1.70862L77.9935 4.93973C76.8306 4.06134 75.4617 3.36372 73.7314 3.36372C70.5024 3.36372 68.5661 5.7927 68.5661 9.64519C68.5661 13.5231 70.5815 15.9012 73.7851 15.9012C75.4645 15.9012 76.9379 15.2799 78.3068 14.3506L78.7726 17.3502C77.3754 18.2483 75.5407 18.8697 73.5 18.8697Z" fill="#02308F"/>
<path d="M86.8028 18.559H81.6883V0.7229H86.8818C90.8871 0.7229 92.798 2.53334 92.798 5.34927C92.798 7.21055 91.7649 8.42505 90.2153 9.07183C92.2052 9.6932 93.5205 10.984 93.5205 13.3621C93.5205 16.8785 90.9887 18.559 86.8028 18.559ZM86.7012 3.33547H84.971V8.06635H86.5459C88.5613 8.06635 89.6197 7.16254 89.6197 5.63736C89.6197 4.21386 88.7673 3.33547 86.7012 3.33547ZM86.752 10.4953H84.971V15.9493H86.8056C88.9762 15.9493 90.2407 15.0454 90.2407 13.2604C90.2379 11.45 89.0242 10.4953 86.752 10.4953Z" fill="#02308F"/>
<path d="M103.645 3.697V18.5618H100.235V3.697H94.8613V0.7229H108.709L109.2 3.69417H103.645V3.697Z" fill="#02308F"/>
<path d="M5.33468 30.3453C5.33468 31.9439 4.26492 32.989 2.83387 32.989C2.1 32.989 1.53266 32.7094 1.15444 32.2123H1.13185V32.9042H0V25.1089H1.18266V28.3626H1.20806C1.59476 27.9022 2.16492 27.665 2.84234 27.665C4.26492 27.6621 5.33468 28.7834 5.33468 30.3453ZM4.12944 30.351C4.12944 29.3568 3.46895 28.7382 2.64194 28.7382C1.75282 28.7382 1.1375 29.4359 1.1375 30.351C1.1375 31.2859 1.80363 31.9129 2.64758 31.9129C3.51976 31.9129 4.12944 31.2661 4.12944 30.351Z" fill="#6B6B6B"/>
<path d="M10.8895 27.7412L8.05283 35.0027H6.80808L7.73953 32.619L5.64235 27.7412H6.88711L8.31251 31.2265H8.3238L9.65324 27.7412H10.8895Z" fill="#6B6B6B"/>
<path d="M22.3831 25.3828V32.907H21.1072V27.8655H21.0931L19.0355 31.4609H18.1972L16.1395 27.8655H16.1226V32.907H14.8468V25.3828H16.1282L18.6093 29.8877H18.629L21.0988 25.3828H22.3831Z" fill="#6B6B6B"/>
<path d="M23.769 30.3312C23.769 28.806 24.85 27.6621 26.4815 27.6621C28.0621 27.6621 29.1883 28.7495 29.1883 30.3312C29.1883 31.9044 28.0621 32.9889 26.4815 32.9889C24.85 32.9889 23.769 31.8479 23.769 30.3312ZM26.4815 31.9128C27.3198 31.9128 27.9859 31.2604 27.9859 30.3312C27.9859 29.385 27.3282 28.7382 26.4815 28.7382C25.5782 28.7382 24.9714 29.4302 24.9714 30.3312C24.9742 31.2152 25.5952 31.9128 26.4815 31.9128Z" fill="#6B6B6B"/>
<path d="M33.377 27.6678V28.9868C33.2415 28.9755 33.1032 28.9698 33.0214 28.9698C32.121 28.9698 31.6101 29.6166 31.6101 30.4555V32.907H30.4274V27.7412H31.6101V28.5179H31.6242C32.0278 27.97 32.6008 27.6649 33.2303 27.6649C33.2839 27.6621 33.3347 27.6621 33.377 27.6678Z" fill="#6B6B6B"/>
<path d="M37.2948 27.6621C38.4266 27.6621 39.1915 28.3145 39.1915 29.8651V32.9099H38.0089V30.1702C38.0089 29.08 37.5996 28.7382 36.8883 28.7382C36.0867 28.7382 35.5504 29.2974 35.5504 30.3114V32.907H34.3677V27.7412H35.5504V28.4501H35.5645C36.002 27.9361 36.6286 27.6621 37.2948 27.6621Z" fill="#6B6B6B"/>
<path d="M45.3307 30.7351H41.5682C41.7234 31.4694 42.2823 31.9128 43.0416 31.9128C43.6399 31.9128 44.0662 31.6332 44.3287 31.3028L45.1557 32.0117C44.7153 32.5766 43.9928 32.9889 42.9795 32.9889C41.475 32.9889 40.3375 31.9354 40.3375 30.3199C40.3375 28.7382 41.4186 27.6621 42.8553 27.6621C44.3795 27.6621 45.3617 28.758 45.3617 30.2634C45.3617 30.4441 45.3476 30.6419 45.3307 30.7351ZM41.5908 29.7776H44.1762C44.0266 29.1506 43.5976 28.7382 42.9202 28.7382C42.271 28.7382 41.7601 29.1054 41.5908 29.7776Z" fill="#6B6B6B"/>
<path d="M51.5657 27.7413V32.9071H50.4339V32.2152H50.4198C50.0415 32.7122 49.4883 32.9919 48.777 32.9919C47.346 32.9919 46.2762 31.9468 46.2762 30.3482C46.2762 28.7863 47.346 27.665 48.7686 27.665C49.4262 27.665 49.9794 27.9023 50.3661 28.3627H50.3859V27.7413H51.5657ZM50.4282 30.351C50.4282 29.4359 49.8129 28.7383 48.9661 28.7383C48.1391 28.7383 47.4786 29.3597 47.4786 30.351C47.4786 31.2662 48.0883 31.9129 48.9605 31.9129C49.7621 31.9129 50.4282 31.2887 50.4282 30.351Z" fill="#6B6B6B"/>
<path d="M57.6794 27.7412V32.907H56.4968V32.2348H56.4826C56.0706 32.7319 55.4947 32.989 54.8907 32.989C53.7532 32.989 52.9629 32.4212 52.9629 30.8848V27.7412H54.1456V30.5656C54.1456 31.5993 54.456 31.91 55.1702 31.91C55.8617 31.91 56.4996 31.331 56.4996 30.2126V27.7412H57.6794Z" fill="#6B6B6B"/>
<path d="M64.4028 32.9889C63.4403 32.9889 62.4637 32.6217 61.6734 31.8111L62.4806 30.8169C63.0282 31.4778 63.7677 31.8111 64.4084 31.8111C65.2355 31.8111 65.6588 31.4496 65.6588 30.8903C65.6588 30.2379 65.1564 30.0261 64.2052 29.69C63.0677 29.2861 61.9359 28.7749 61.9359 27.405C61.9359 26.2216 63.0113 25.3065 64.3068 25.3009C65.1959 25.2952 66.0371 25.6257 66.7992 26.2273L66.0399 27.2299C65.4246 26.7187 64.8262 26.4589 64.3097 26.4589C63.731 26.4589 63.2709 26.7808 63.2597 27.3372C63.2484 27.8852 63.7564 28.0772 64.6653 28.4275C65.9524 28.9302 66.9911 29.2861 66.9911 30.7407C66.9911 32.2912 65.6024 32.9889 64.4028 32.9889Z" fill="#6B6B6B"/>
<path d="M73.1415 29.8143V32.9127H71.9588V30.1194C71.9588 29.0913 71.5496 28.7382 70.8383 28.7382C69.9859 28.7382 69.4468 29.2664 69.4468 30.2804V32.9071H68.2641V25.1089H69.4468V28.388H69.4665C69.9012 27.9079 70.525 27.665 71.2137 27.665C72.3512 27.6621 73.1415 28.2722 73.1415 29.8143Z" fill="#6B6B6B"/>
<path d="M79.2835 30.7351H75.521C75.6762 31.4694 76.2351 31.9128 76.9943 31.9128C77.5927 31.9128 78.0189 31.6332 78.2814 31.3028L79.1085 32.0117C78.6681 32.5766 77.9456 32.9889 76.9322 32.9889C75.4278 32.9889 74.2903 31.9354 74.2903 30.3199C74.2903 28.7382 75.3714 27.6621 76.8081 27.6621C78.3322 27.6621 79.3145 28.758 79.3145 30.2634C79.3145 30.4441 79.2976 30.6419 79.2835 30.7351ZM75.5407 29.7776H78.1262C77.9766 29.1506 77.5476 28.7382 76.8701 28.7382C76.2238 28.7382 75.7101 29.1054 75.5407 29.7776Z" fill="#6B6B6B"/>
<path d="M85.8713 30.3454C85.8713 31.944 84.8016 32.989 83.3705 32.989C82.6677 32.989 82.1145 32.7292 81.7363 32.2716H81.7222V35.0028H80.5395V27.7413H81.7222V28.3683H81.7419C82.1342 27.9079 82.6988 27.665 83.379 27.665C84.8016 27.6622 85.8713 28.7835 85.8713 30.3454ZM84.6661 30.3511C84.6661 29.3569 84.0056 28.7383 83.1786 28.7383C82.2895 28.7383 81.6742 29.4359 81.6742 30.3511C81.6742 31.2859 82.3403 31.9129 83.1842 31.9129C84.0564 31.9129 84.6661 31.2662 84.6661 30.3511Z" fill="#6B6B6B"/>
<path d="M91.796 30.7351H88.0335C88.1887 31.4694 88.7476 31.9128 89.5069 31.9128C90.1052 31.9128 90.5315 31.6332 90.794 31.3028L91.621 32.0117C91.1807 32.5766 90.4581 32.9889 89.4448 32.9889C87.9403 32.9889 86.8028 31.9354 86.8028 30.3199C86.8028 28.7382 87.8839 27.6621 89.3206 27.6621C90.8448 27.6621 91.827 28.758 91.827 30.2634C91.827 30.4441 91.8101 30.6419 91.796 30.7351ZM88.0532 29.7776H90.6387C90.4891 29.1506 90.0601 28.7382 89.3827 28.7382C88.7363 28.7382 88.2226 29.1054 88.0532 29.7776Z" fill="#6B6B6B"/>
<path d="M93.1282 25.1089H94.3109V32.9071H93.1282V25.1089Z" fill="#6B6B6B"/>
<path d="M96.0073 25.1089H97.1899V32.9071H96.0073V25.1089Z" fill="#6B6B6B"/>
</g>
<defs>
<clipPath id="clip0">
<rect width="109.2" height="35" fill="white"/>
</clipPath>
</defs>
</svg>
