<svg width="402" height="124" viewBox="0 0 402 124" fill="none" xmlns="http://www.w3.org/2000/svg">
<path d="M25.2 1.8999H30L55.2 65.2999L50.8 66.2999L42 43.9999H13L4.6 65.6999H0L25.2 1.8999ZM14.5 40.0999H40.4L27.4 6.8999L14.5 40.0999Z" fill="#02308F"/>
<path d="M81.9 66.3C76.3 66.3 71.2 65 67.1 63.4V0.9L71.4 0V28.7C74.7 24.9 78.9 21.6 85 21.6C94.6 21.6 102.6 28.4 102.6 42.9C102.7 58.6 93.4 66.3 81.9 66.3ZM84.9 25.5C79.8 25.5 75.7 28.5 71.4 33.4V60.4C74.2 61.5 77.7 62.4 82.4 62.4C91 62.4 98.1 56.3 98.1 43C98.1 31.7 92.6 25.5 84.9 25.5Z" fill="#02308F"/>
<path d="M118 10.8C116 10.8 114.2 9.00005 114.2 7.00005C114.2 5.00005 115.9 3.30005 118 3.30005C120 3.30005 121.7 5.00005 121.7 7.00005C121.7 9.00005 120 10.8 118 10.8ZM115.9 65.7V22.5H120.1V65.7H115.9Z" fill="#02308F"/>
<path d="M136.7 65.7V0.9L140.9 0V65.7H136.7Z" fill="#02308F"/>
<path d="M159.5 10.8C157.5 10.8 155.7 9.00005 155.7 7.00005C155.7 5.00005 157.4 3.30005 159.5 3.30005C161.5 3.30005 163.2 5.00005 163.2 7.00005C163.2 9.00005 161.6 10.8 159.5 10.8ZM157.4 65.7V22.5H161.6V65.7H157.4Z" fill="#02308F"/>
<path d="M189.8 66.4001C183.6 66.4001 179.6 63.8 179.6 56.6V26.2001H172.9V22.5H179.6V7.20005L183.9 6.30005V22.6H194.5L195.1 26.3H184V56C184 61.1 186 62.8 190.8 62.8C192.2 62.8 194.1 62.4001 195.1 62.2001L195.7 65.7C194.5 66 192.2 66.4001 189.8 66.4001Z" fill="#02308F"/>
<path d="M210.1 10.8C208.1 10.8 206.3 9.00005 206.3 7.00005C206.3 5.00005 208 3.30005 210.1 3.30005C212.2 3.30005 213.8 5.00005 213.8 7.00005C213.8 9.00005 212.1 10.8 210.1 10.8ZM208 65.7V22.5H212.2V65.7H208Z" fill="#02308F"/>
<path d="M254.4 12.9V65.7H242.3V12.9H223.2V2.30005H272.5L274.2 12.9H254.4Z" fill="#02308F"/>
<path d="M306.7 66.8C288.3 66.8 276.7 53.7999 276.7 34.0999C276.7 14.3999 288.6 1.19995 307 1.19995C314.2 1.19995 319.7 2.89995 324.4 5.79995L322.7 17.2999C318.6 14.1999 313.7 11.7 307.5 11.7C296 11.7 289.1 20.2999 289.1 34C289.1 47.7999 296.3 56.2 307.7 56.2C313.7 56.2 318.9 54 323.8 50.7L325.5 61.4C320.5 64.6 313.9 66.8 306.7 66.8Z" fill="#02308F"/>
<path d="M361.2 66.8C342.8 66.8 331.2 53.7999 331.2 34.0999C331.2 14.3999 343.1 1.19995 361.5 1.19995C368.7 1.19995 374.2 2.89995 378.9 5.79995L377.2 17.2999C373.1 14.1999 368.2 11.7 362 11.7C350.5 11.7 343.6 20.2999 343.6 34C343.6 47.7999 350.8 56.2 362.2 56.2C368.2 56.2 373.4 54 378.3 50.7L380 61.4C374.9 64.6 368.4 66.8 361.2 66.8Z" fill="#02308F"/>
<path d="M395.3 13.9C391.6 13.9 388.7 11.3 388.7 7.70005C388.7 3.90005 391.6 1.30005 395.3 1.30005C398.9 1.30005 401.8 4.00005 401.8 7.70005C401.8 11.3 398.8 13.9 395.3 13.9ZM389.7 65.7V21.3H400.7V65.7H389.7Z" fill="#02308F"/>
<path d="M8.9 117C7.1 117 5.7 116.7 4.6 116.3V123.3L0 124V98.2001H3.9L4.3 100.7C5.6 99.2001 7.4 97.8 10 97.8C13.9 97.8 17 100.7 17 107C17.1 114 13.2 117 8.9 117ZM8.8 101.9C7.1 101.9 5.8 102.9 4.6 104.5V112.5C5.7 113 6.6 113.3 8.2 113.3C10.6 113.3 12.4 111.3 12.4 107.2C12.4 103.7 10.9 101.9 8.8 101.9Z" fill="#636466"/>
<path d="M31.7 116.8L31.3 114.4C29.8 116 27.9 117.2 25.1 117.2C21.9 117.2 19.8 115.3 19.8 112C19.8 107.5 23.5 105.5 31 104.8V104.3C31 102.3 29.8 101.5 27.8 101.5C25.6 101.5 23.6 102.1 21.6 103L21 99.3C23.2 98.5 25.4 97.8 28.4 97.8C33.2 97.8 35.6 99.6001 35.6 104V116.8H31.7ZM31.1 107.6C25.7 108.3 24.5 109.8 24.5 111.6C24.5 112.9 25.3 113.8 26.8 113.8C28.4 113.8 29.9 113.1 31.2 111.8V107.6H31.1Z" fill="#636466"/>
<path d="M44.9 106.2V116.9H40.3V98.2001H44.2L44.8 101.9C46 99.7001 47.9 97.9 50.8 97.8L51.5 102.4C48.6 102.6 46.2 104.2 44.9 106.2Z" fill="#636466"/>
<path d="M87.7 116.8L86.3 97.2L79.6 116.9H75L68.3 97.2L67 116.8H62.4L64.4 90.2H70.9L77.7 110.3L84.4 90.2H90.8L92.8 116.8H87.7Z" fill="#636466"/>
<path d="M104.9 117.2C99.8 117.2 96.2 113.6 96.2 107.5C96.2 101.4 99.9 97.8 105 97.8C110.1 97.8 113.8 101.5 113.8 107.5C113.8 113.5 110 117.2 104.9 117.2ZM104.9 101.6C102.2 101.6 100.7 104.1 100.7 107.5C100.7 110.9 102.2 113.4 104.9 113.4C107.8 113.4 109.2 111 109.2 107.5C109.3 104.1 107.7 101.6 104.9 101.6Z" fill="#636466"/>
<path d="M122.2 106.2V116.9H117.6V98.2001H121.5L122.1 101.9C123.3 99.7001 125.2 97.9 128.1 97.8L128.8 102.4C125.9 102.6 123.5 104.2 122.2 106.2Z" fill="#636466"/>
<path d="M142.9 116.8V104.6C142.9 103 142.2 101.9 140.5 101.9C139 101.9 137.6 102.8 136.3 104.3V116.9H131.7V98.2001H135.6L136 100.8C137.7 99.1 139.7 97.8 142.2 97.8C145.7 97.8 147.5 99.9001 147.5 103.4V116.8H142.9Z" fill="#636466"/>
<path d="M160.3 117.2C155.1 117.2 151.2 114.2 151.2 107.5C151.2 101.4 154.8 97.8 159.7 97.8C165.3 97.8 167.8 102 167.8 107.3C167.8 107.7 167.8 108.1 167.8 108.4H155.8C156 112.1 158 113.6 160.9 113.6C163.3 113.6 165.3 112.7 167.3 111.3L167.8 114.9C165.8 116.3 163.3 117.2 160.3 117.2ZM155.9 105.5H163.3C163 102.6 161.8 101 159.6 101C157.8 101 156.2 102.5 155.9 105.5Z" fill="#636466"/>
<path d="M182.4 116.8L182 114.4C180.5 116 178.6 117.2 175.8 117.2C172.6 117.2 170.5 115.3 170.5 112C170.5 107.5 174.2 105.5 181.7 104.8V104.3C181.7 102.3 180.5 101.5 178.5 101.5C176.3 101.5 174.3 102.1 172.3 103L171.7 99.3C173.9 98.5 176.1 97.8 179.1 97.8C183.9 97.8 186.3 99.6001 186.3 104V116.8H182.4ZM181.7 107.6C176.3 108.3 175.1 109.8 175.1 111.6C175.1 112.9 175.9 113.8 177.4 113.8C179 113.8 180.5 113.1 181.8 111.8V107.6H181.7Z" fill="#636466"/>
<path d="M202.8 116.8L202.4 114.2C200.7 115.9 198.7 117.2 196.2 117.2C192.7 117.2 190.9 115.1 190.9 111.6V98.2H195.5V110.4C195.5 112 196.2 113.1 197.9 113.1C199.4 113.1 200.8 112.2 202.2 110.8V98.2H206.8V116.8H202.8Z" fill="#636466"/>
<path d="M227.4 117.2C224.2 117.2 221.4 116.5 219 115.3L219.8 110.6C222 111.9 224.8 113 227.5 113C229.9 113 231.5 111.9 231.5 109.8C231.5 107.8 230.6 107 226.7 105.4C221.5 103.3 219.4 101.6 219.4 97.5001C219.4 92.8001 223 90.1001 228 90.1001C231 90.1001 233.1 90.7001 235 91.7001L234.2 96.3001C232.3 95.0001 230 94.2001 227.9 94.2001C225.4 94.2001 224.2 95.4001 224.2 97.1001C224.2 98.8001 225 99.6001 228.8 101.2C234.3 103.4 236.3 105.3 236.3 109.5C236.4 114.5 232.6 117.2 227.4 117.2Z" fill="#636466"/>
<path d="M251.6 116.8V104.6C251.6 103 250.9 101.9 249.2 101.9C247.7 101.9 246.3 102.8 245 104.3V116.9H240.4V89.7L245 89V100.6C246.5 99.2 248.5 97.9 250.9 97.9C254.4 97.9 256.2 100 256.2 103.5V116.9H251.6V116.8Z" fill="#636466"/>
<path d="M269 117.2C263.8 117.2 259.9 114.2 259.9 107.5C259.9 101.4 263.5 97.8 268.4 97.8C274 97.8 276.5 102 276.5 107.3C276.5 107.7 276.5 108.1 276.5 108.4H264.5C264.7 112.1 266.7 113.6 269.6 113.6C272 113.6 274 112.7 276 111.3L276.5 114.9C274.4 116.3 272 117.2 269 117.2ZM264.5 105.5H271.9C271.6 102.6 270.4 101 268.2 101C266.4 101 264.8 102.5 264.5 105.5Z" fill="#636466"/>
<path d="M289.1 117C287.3 117 285.9 116.7 284.8 116.3V123.3L280.2 124V98.2001H284.1L284.5 100.7C285.8 99.2001 287.6 97.8 290.2 97.8C294.1 97.8 297.2 100.7 297.2 107C297.3 114 293.4 117 289.1 117ZM289 101.9C287.3 101.9 286 102.9 284.8 104.5V112.5C285.9 113 286.8 113.3 288.4 113.3C290.8 113.3 292.6 111.3 292.6 107.2C292.6 103.7 291.1 101.9 289 101.9Z" fill="#636466"/>
<path d="M309.2 117.2C304 117.2 300.1 114.2 300.1 107.5C300.1 101.4 303.7 97.8 308.6 97.8C314.2 97.8 316.7 102 316.7 107.3C316.7 107.7 316.7 108.1 316.7 108.4H304.7C304.9 112.1 306.9 113.6 309.8 113.6C312.2 113.6 314.2 112.7 316.2 111.3L316.7 114.9C314.6 116.3 312.2 117.2 309.2 117.2ZM304.7 105.5H312.1C311.8 102.6 310.6 101 308.4 101C306.6 101 305.1 102.5 304.7 105.5Z" fill="#636466"/>
<path d="M320.6 116.8V89.7L325.2 89V116.9H320.6V116.8Z" fill="#636466"/>
<path d="M330.3 116.8V89.7L334.9 89V116.9H330.3V116.8Z" fill="#636466"/>
</svg>
