<svg width="1024" height="1024" viewBox="0 0 1024 1024" fill="none" xmlns="http://www.w3.org/2000/svg">
<path d="M688.642 615.24C695.832 636.82 703.022 665.73 703.022 665.73C703.022 665.73 608.902 645.86 568.532 637.01C607.572 604.19 656.102 552.58 656.102 498.88C656.102 454.74 620.182 418.83 576.042 418.83C550.522 418.83 526.892 432.23 512.002 452.13C497.112 432.23 473.482 418.83 447.962 418.83C403.822 418.83 367.912 454.74 367.912 498.88C367.912 552.58 416.452 604.2 455.492 637.02C415.002 645.88 320.982 665.73 320.982 665.73C320.982 665.73 328.172 636.82 335.512 615.24C342.562 593.67 335.512 590.07 328.172 582.88C324.432 579.28 176.852 449.97 176.852 449.97L202.032 439.04C216.412 431.99 212.672 422.64 209.222 414.01C205.622 403.08 180.312 317.21 180.312 317.21C180.312 317.21 248.772 331.59 263.302 335.19C274.092 338.64 277.692 331.59 281.282 324.4C284.882 317.21 302.862 277.94 302.862 277.94C302.862 277.94 378.522 363.96 382.112 367.55C396.642 378.34 411.032 367.55 407.432 353.17C407.432 338.78 367.732 166.75 367.732 166.75C367.732 166.75 411.032 191.78 425.412 198.97C436.342 206.16 443.532 206.16 450.732 191.78C457.922 180.99 511.862 77 511.862 77C511.862 77 565.942 180.99 573.282 191.78C580.472 206.16 587.802 206.16 598.592 198.97C612.982 191.78 656.272 166.75 656.272 166.75C656.272 166.75 616.572 338.78 616.572 353.17C612.982 367.55 627.502 378.34 641.892 367.55C645.482 364.1 721.142 277.94 721.142 277.94C721.142 277.94 739.122 317.35 742.722 324.54C746.312 331.74 749.912 338.78 760.702 335.33C775.082 331.74 843.692 317.35 843.692 317.35C843.692 317.35 818.232 403.22 814.782 414.16C811.332 422.64 807.592 432.14 821.972 439.18L847.152 449.97C847.152 449.97 699.422 579.28 695.832 582.88C688.642 590.07 681.442 593.67 688.642 615.24Z" fill="#AF3C43"/>
<path d="M552.843 465.23C536.573 465.23 521.503 473.78 512.003 486.47C502.503 473.78 487.433 465.23 471.163 465.23C443.013 465.23 420.113 488.13 420.113 516.28C420.113 572.34 503.063 624.83 506.603 627.04C508.253 628.07 510.133 628.59 512.003 628.59C513.873 628.59 515.753 628.07 517.403 627.04C520.943 624.83 603.893 572.34 603.893 516.28C603.893 488.13 580.993 465.23 552.843 465.23Z" fill="#AF3C43"/>
<path d="M358.32 821.831H339.42L316.47 746.23L293.52 821.831H274.77L245.82 720.73L266.82 716.98L286.02 791.081L307.62 718.031H327.57L349.17 791.081L367.92 718.031H388.02L358.32 821.831Z" fill="#00308F"/>
<path d="M423.72 823.03C403.47 823.03 388.32 811.48 388.32 785.38C388.32 761.83 402.42 747.58 421.32 747.58C443.07 747.58 452.82 763.93 452.82 784.48C452.82 785.98 452.67 787.78 452.67 788.83H406.02C406.92 803.08 414.57 809.08 425.67 809.08C434.97 809.08 442.62 805.63 450.57 800.08L452.67 814.18C444.87 819.58 435.42 823.03 423.72 823.03ZM406.33 777.58H435.28C434.08 766.33 429.58 760.03 420.88 760.03C413.68 760.03 407.68 765.88 406.33 777.58Z" fill="#00308F"/>
<path d="M468.129 821.531V716.081L486.129 713.23V821.531H468.129Z" fill="#00308F"/>
<path d="M505.93 821.531V716.081L523.93 713.23V821.531H505.93Z" fill="#00308F"/>
<path d="M589.92 823.48C560.82 823.48 542.07 801.88 542.07 769.93C542.07 737.83 561.12 716.08 590.22 716.08C602.52 716.08 611.67 719.23 619.62 724.63L617.52 739.03C610.02 733.33 601.17 728.98 590.07 728.98C569.07 728.98 556.62 744.88 556.62 769.78C556.62 794.68 569.22 810.43 590.07 810.43C601.17 810.43 610.92 806.08 619.17 800.08L621.27 813.43C613.32 819.28 601.77 823.48 589.92 823.48Z" fill="#00308F"/>
<path d="M682.469 821.531L680.969 811.93C675.269 817.78 667.47 823.031 655.77 823.031C642.87 823.031 634.77 815.231 634.77 803.081C634.77 785.231 650.069 778.181 679.919 775.031V772.031C679.919 763.031 674.52 759.88 666.27 759.88C657.57 759.88 649.32 762.581 641.52 766.031L639.719 754.48C648.269 751.03 656.369 748.48 667.469 748.48C684.869 748.48 693.27 755.53 693.27 771.43V821.531H682.469ZM679.919 785.23C653.519 787.78 647.969 794.981 647.969 802.331C647.969 808.181 651.87 811.93 658.62 811.93C666.42 811.93 673.919 808.03 679.919 801.88V785.23Z" fill="#00308F"/>
<path d="M758.969 821.531V772.781C758.969 765.431 755.819 760.48 748.019 760.48C740.969 760.48 733.769 765.131 727.319 772.031V821.531H713.969V749.98H724.619L726.269 760.331C733.019 754.181 741.419 748.48 751.619 748.48C765.119 748.48 772.319 756.58 772.319 769.48V821.531H758.969Z" fill="#00308F"/>
<path d="M192.465 912.114C192.465 923.908 184.552 931.62 173.993 931.62C171.616 931.727 169.249 931.261 167.091 930.261C164.933 929.261 163.047 927.756 161.594 925.874H161.342V930.914H153V873.48H161.72V897.472H161.921C163.425 895.785 165.288 894.457 167.372 893.584C169.457 892.712 171.71 892.318 173.967 892.432C184.552 892.306 192.465 900.597 192.465 912.114ZM183.569 912.114C183.569 904.78 178.68 900.194 172.581 900.194C171.056 900.201 169.548 900.52 168.15 901.132C166.753 901.745 165.496 902.637 164.457 903.754C163.418 904.871 162.619 906.189 162.109 907.627C161.599 909.065 161.389 910.592 161.493 912.114C161.417 913.614 161.65 915.115 162.177 916.521C162.705 917.928 163.517 919.211 164.561 920.291C165.606 921.371 166.861 922.225 168.25 922.799C169.638 923.374 171.129 923.657 172.632 923.631C174.12 923.655 175.597 923.37 176.97 922.795C178.343 922.221 179.582 921.368 180.609 920.291C181.637 919.214 182.43 917.936 182.939 916.537C183.449 915.139 183.663 913.65 183.569 912.164V912.114Z" fill="#6B6B6B"/>
<path d="M233.466 892.885L212.524 946.438H203.326L210.206 928.797L194.707 892.81H203.905L214.44 918.515L224.344 892.885H233.466Z" fill="#6B6B6B"/>
<path d="M318.294 875.496V930.939H308.869V893.817L293.748 920.329H287.347L272.226 893.817V930.989H262.801V875.546H272.226L290.522 908.762H290.673L308.919 875.546L318.294 875.496Z" fill="#6B6B6B"/>
<path d="M328.524 912.013C328.444 908.04 329.549 904.133 331.697 900.791C333.846 897.448 336.94 894.821 340.587 893.244C344.235 891.666 348.269 891.211 352.176 891.934C356.083 892.658 359.686 894.529 362.525 897.308C365.365 900.087 367.313 903.649 368.122 907.54C368.93 911.43 368.561 915.473 367.063 919.153C365.565 922.833 363.005 925.984 359.71 928.204C356.415 930.425 352.533 931.613 348.559 931.619C345.929 931.756 343.298 931.346 340.834 930.415C338.369 929.484 336.125 928.052 334.242 926.209C332.359 924.367 330.879 922.154 329.895 919.71C328.911 917.267 328.444 914.646 328.524 912.013ZM359.648 912.013C359.544 909.833 358.803 907.732 357.515 905.97C356.228 904.208 354.451 902.863 352.406 902.102C350.361 901.341 348.137 901.198 346.011 901.69C343.885 902.181 341.95 903.287 340.447 904.869C338.944 906.45 337.938 908.439 337.556 910.587C337.173 912.735 337.429 914.949 338.293 916.953C339.157 918.956 340.591 920.662 342.416 921.858C344.241 923.054 346.377 923.688 348.559 923.681C350.066 923.683 351.557 923.378 352.941 922.785C354.326 922.192 355.575 921.323 356.612 920.231C357.65 919.139 358.454 917.847 358.976 916.434C359.498 915.021 359.727 913.517 359.648 912.013Z" fill="#6B6B6B"/>
<path d="M399.442 892.356V902.084C398.459 902.084 397.426 902.084 396.796 902.084C395.367 902.032 393.944 902.284 392.62 902.824C391.296 903.364 390.103 904.18 389.118 905.217C388.134 906.254 387.381 907.488 386.911 908.838C386.44 910.188 386.262 911.622 386.388 913.046V931.115H377.668V892.885H386.388V898.606H386.514C387.845 896.684 389.618 895.11 391.683 894.014C393.748 892.918 396.046 892.332 398.383 892.306C398.737 892.295 399.091 892.312 399.442 892.356Z" fill="#6B6B6B"/>
<path d="M428.471 892.306C436.837 892.306 442.482 897.119 442.482 908.56V931.04H433.511V910.879C433.511 902.814 430.512 900.294 425.245 900.294C419.323 900.294 415.366 904.427 415.366 911.887V931.04H406.621V892.885H415.366V898.127C416.98 896.243 418.994 894.744 421.261 893.736C423.528 892.729 425.991 892.241 428.471 892.306Z" fill="#6B6B6B"/>
<path d="M487.673 914.988H459.951C460.391 917.512 461.737 919.789 463.737 921.39C465.738 922.991 468.254 923.806 470.813 923.682C472.638 923.717 474.446 923.327 476.094 922.544C477.743 921.762 479.187 920.607 480.314 919.171L486.438 924.413C484.497 926.788 482.028 928.677 479.228 929.928C476.427 931.179 473.373 931.759 470.309 931.621C467.704 931.722 465.107 931.28 462.683 930.322C460.258 929.364 458.06 927.912 456.227 926.059C454.395 924.205 452.968 921.99 452.039 919.554C451.109 917.119 450.697 914.517 450.829 911.913C450.829 900.245 458.792 892.307 469.402 892.307C480.667 892.307 487.899 900.396 487.899 911.51C487.909 912.673 487.833 913.836 487.673 914.988ZM459.951 907.931H479.029C478.653 905.765 477.508 903.808 475.804 902.418C474.1 901.029 471.952 900.302 469.755 900.371C467.511 900.306 465.314 901.026 463.543 902.406C461.772 903.785 460.538 905.739 460.052 907.931H459.951Z" fill="#6B6B6B"/>
<path d="M533.687 892.885V930.99H525.32V925.949H525.194C523.788 927.815 521.951 929.312 519.84 930.312C517.729 931.313 515.407 931.787 513.072 931.695C502.513 931.695 494.625 923.984 494.625 912.189C494.625 900.395 502.513 892.381 512.997 892.381C515.214 892.288 517.424 892.692 519.465 893.564C521.506 894.436 523.326 895.754 524.791 897.422H524.942V892.885H533.687ZM525.295 912.164C525.401 910.664 525.202 909.158 524.71 907.737C524.219 906.316 523.445 905.01 522.434 903.896C521.424 902.782 520.199 901.884 518.833 901.257C517.466 900.629 515.987 900.285 514.484 900.244C508.385 900.244 503.496 904.831 503.496 912.164C503.394 913.656 503.604 915.152 504.112 916.559C504.619 917.965 505.414 919.251 506.444 920.334C507.475 921.416 508.72 922.273 510.1 922.85C511.479 923.426 512.963 923.709 514.458 923.681C515.937 923.673 517.399 923.365 518.755 922.774C520.111 922.184 521.333 921.324 522.347 920.247C523.36 919.17 524.144 917.898 524.651 916.508C525.158 915.119 525.377 913.641 525.295 912.164Z" fill="#6B6B6B"/>
<path d="M578.797 892.886V930.99H570.077V925.95H569.951C568.531 927.693 566.74 929.097 564.708 930.061C562.677 931.024 560.456 931.522 558.207 931.519C549.815 931.519 543.969 927.311 543.969 915.995V892.886H552.714V913.727C552.714 921.287 555.007 923.631 560.274 923.631C565.541 923.631 570.077 919.372 570.077 911.031V892.886H578.797Z" fill="#6B6B6B"/>
<path d="M628.419 931.62C624.643 931.62 620.908 930.849 617.441 929.354C613.974 927.858 610.849 925.671 608.258 922.925L614.205 915.617C615.909 917.792 618.064 919.572 620.522 920.834C622.981 922.096 625.683 922.809 628.444 922.925C634.543 922.925 637.668 920.254 637.668 916.146C637.668 911.333 633.963 909.77 626.957 907.301C618.565 904.327 610.198 900.547 610.198 890.441C610.198 881.696 618.137 874.942 627.713 874.917C634.451 874.995 640.953 877.409 646.11 881.747L640.49 889.13C637.009 885.829 632.497 883.827 627.713 883.46C623.454 883.46 620.153 885.829 619.976 889.937C619.8 894.045 623.631 895.406 630.359 897.976C639.86 901.681 647.521 904.327 647.521 915.037C647.521 926.479 637.264 931.645 628.394 931.645L628.419 931.62Z" fill="#6B6B6B"/>
<path d="M692.934 908.182V931.04H684.19V910.425C684.19 902.865 681.191 900.345 675.924 900.345C669.623 900.345 665.667 904.251 665.667 911.711V931.09H656.922V873.48H665.667V897.648H665.818C667.466 895.9 669.466 894.52 671.685 893.599C673.905 892.679 676.294 892.238 678.696 892.306C687.088 892.306 692.934 896.817 692.934 908.182Z" fill="#6B6B6B"/>
<path d="M738.249 914.988H710.527C710.972 917.514 712.324 919.791 714.328 921.392C716.333 922.993 718.852 923.807 721.414 923.682C723.238 923.711 725.044 923.319 726.692 922.536C728.339 921.754 729.785 920.602 730.915 919.171L737.014 924.413C735.065 926.799 732.584 928.693 729.77 929.945C726.955 931.197 723.886 931.771 720.81 931.621C718.204 931.722 715.605 931.279 713.18 930.322C710.754 929.365 708.554 927.913 706.719 926.06C704.885 924.206 703.456 921.991 702.524 919.556C701.591 917.121 701.176 914.518 701.304 911.913C701.304 900.245 709.267 892.307 719.877 892.307C731.142 892.307 738.375 900.396 738.375 911.51C738.417 912.671 738.375 913.833 738.249 914.988ZM710.527 907.931H729.605C729.229 905.765 728.084 903.808 726.38 902.418C724.676 901.029 722.528 900.302 720.331 900.371C718.104 900.33 715.931 901.06 714.181 902.438C712.431 903.816 711.211 905.757 710.729 907.931H710.527Z" fill="#6B6B6B"/>
<path d="M786.884 912.114C786.884 923.908 778.996 931.62 768.436 931.62C766.152 931.714 763.876 931.284 761.784 930.362C759.691 929.441 757.837 928.052 756.365 926.302V946.463H747.52V892.886H756.264V897.497H756.416C757.921 895.789 759.787 894.437 761.879 893.539C763.971 892.641 766.237 892.22 768.512 892.306C778.996 892.306 786.884 900.597 786.884 912.114ZM778.013 912.114C778.013 904.78 773.124 900.194 767.025 900.194C765.498 900.197 763.987 900.514 762.586 901.125C761.186 901.736 759.926 902.627 758.884 903.745C757.843 904.862 757.041 906.181 756.53 907.621C756.019 909.061 755.808 910.59 755.911 912.114C755.835 913.615 756.068 915.115 756.596 916.521C757.124 917.928 757.935 919.211 758.98 920.291C760.025 921.371 761.28 922.225 762.668 922.8C764.057 923.374 765.548 923.657 767.05 923.631C768.541 923.658 770.021 923.376 771.397 922.803C772.773 922.23 774.015 921.378 775.045 920.3C776.075 919.223 776.87 917.944 777.381 916.543C777.892 915.143 778.107 913.652 778.013 912.164V912.114Z" fill="#6B6B6B"/>
<path d="M830.611 914.988H802.889C803.329 917.512 804.675 919.789 806.675 921.39C808.676 922.991 811.192 923.806 813.751 923.682C815.576 923.717 817.383 923.327 819.032 922.544C820.681 921.762 822.125 920.607 823.252 919.171L829.35 924.413C827.421 926.782 824.965 928.667 822.178 929.919C819.391 931.17 816.35 931.753 813.297 931.62C810.693 931.722 808.095 931.28 805.671 930.322C803.246 929.364 801.048 927.912 799.215 926.059C797.383 924.205 795.956 921.99 795.027 919.554C794.098 917.119 793.685 914.517 793.817 911.913C793.817 900.245 801.78 892.307 812.39 892.307C823.63 892.307 830.888 900.396 830.888 911.51C830.867 912.674 830.775 913.835 830.611 914.988ZM802.889 907.931H821.967C821.591 905.765 820.446 903.808 818.742 902.418C817.038 901.029 814.89 900.302 812.692 900.371C810.448 900.306 808.252 901.026 806.481 902.405C804.71 903.785 803.476 905.739 802.99 907.931H802.889Z" fill="#6B6B6B"/>
<path d="M840.438 873.48H849.182V930.99H840.438V873.48Z" fill="#6B6B6B"/>
<path d="M861.707 873.48H870.427V930.99H861.707V873.48Z" fill="#6B6B6B"/>
</svg>
