<svg width="1024" height="1024" viewBox="0 0 1024 1024" fill="none" xmlns="http://www.w3.org/2000/svg">
<path d="M555.363 467.23C539.093 467.23 524.023 475.78 514.523 488.47C505.023 475.78 489.953 467.23 473.683 467.23C445.533 467.23 422.633 490.13 422.633 518.28C422.633 574.34 505.583 626.83 509.123 629.04C510.773 630.07 512.653 630.59 514.523 630.59C516.393 630.59 518.273 630.07 519.923 629.04C523.463 626.83 606.413 574.34 606.413 518.28C606.413 490.13 583.513 467.23 555.363 467.23Z" fill="#AF3C43"/>
<path d="M688.78 617.24C695.97 638.82 703.16 667.73 703.16 667.73C703.16 667.73 609.03 647.86 568.67 639.01C607.71 606.19 656.24 554.58 656.24 500.88C656.24 456.74 620.33 420.83 576.19 420.83C550.67 420.83 527.04 434.23 512.15 454.13C497.26 434.23 473.62 420.83 448.1 420.83C403.96 420.83 368.05 456.74 368.05 500.88C368.05 554.59 416.6 606.2 455.64 639.03C415.15 647.88 321.13 667.73 321.13 667.73C321.13 667.73 328.32 638.82 335.66 617.24C342.7 595.67 335.66 592.07 328.32 584.88C324.58 581.28 177 451.97 177 451.97L202.17 441.04C216.56 433.99 212.82 424.64 209.36 416.01C205.77 405.08 180.45 319.21 180.45 319.21C180.45 319.21 248.92 333.59 263.45 337.19C274.24 340.64 277.83 333.59 281.43 326.4C285.02 319.21 303 279.94 303 279.94C303 279.94 378.66 365.96 382.26 369.55C396.79 380.34 411.17 369.55 407.57 355.17C407.57 340.78 367.88 168.75 367.88 168.75C367.88 168.75 411.17 193.78 425.55 200.97C436.49 208.16 443.68 208.16 450.87 193.78C458.06 182.99 512 79 512 79C512 79 566.09 182.99 573.42 193.78C580.61 208.16 587.95 208.16 598.74 200.97C613.12 193.78 656.42 168.75 656.42 168.75C656.42 168.75 616.72 340.78 616.72 355.17C613.12 369.55 627.65 380.34 642.03 369.55C645.63 366.1 721.29 279.94 721.29 279.94C721.29 279.94 739.27 319.35 742.86 326.54C746.46 333.74 750.06 340.78 760.84 337.33C775.23 333.74 843.84 319.35 843.84 319.35C843.84 319.35 818.38 405.22 814.93 416.16C811.48 424.64 807.74 434.14 822.12 441.18L847.29 451.97C847.29 451.97 699.57 581.28 695.97 584.88C688.78 592.07 681.59 595.67 688.78 617.24Z" fill="#AF3C43"/>
<path d="M80.7 823.52H51V720.02H81.15C104.4 720.02 115.5 730.52 115.5 746.87C115.5 757.67 109.5 764.72 100.5 768.47C112.05 772.07 119.7 779.57 119.7 793.37C119.7 813.77 105 823.52 80.7 823.52ZM80.1 735.18H70.05V762.63H79.2C90.9 762.63 97.05 757.38 97.05 748.53C97.05 740.28 92.1 735.18 80.1 735.18ZM80.4 776.729H70.05V808.38H80.7C93.3 808.38 100.65 803.13 100.65 792.78C100.65 782.27 93.6 776.729 80.4 776.729Z" fill="#00308F"/>
<path d="M144.448 738.93C138.448 738.93 133.648 734.729 133.648 728.729C133.648 722.579 138.448 718.229 144.448 718.229C150.298 718.229 155.098 722.579 155.098 728.729C155.098 734.729 150.298 738.93 144.448 738.93ZM135.298 823.52V751.08H153.298V823.53H135.298V823.52Z" fill="#00308F"/>
<path d="M204.002 825.019C183.752 825.019 168.602 813.469 168.602 787.369C168.602 763.819 182.702 749.569 201.602 749.569C223.352 749.569 233.102 765.919 233.102 786.469C233.102 787.969 232.952 789.769 232.952 790.819H186.302C187.202 805.069 194.852 811.069 205.952 811.069C215.252 811.069 222.902 807.619 230.852 802.069L232.952 816.169C225.152 821.569 215.702 825.019 204.002 825.019ZM186.602 779.579H215.552C214.352 768.329 209.852 762.029 201.152 762.029C193.952 762.029 187.952 767.879 186.602 779.579Z" fill="#00308F"/>
<path d="M291.448 823.52V776.12C291.448 769.82 288.748 765.47 282.148 765.47C276.448 765.47 270.898 769.07 265.648 774.62V823.52H247.648V751.08H262.948L264.598 761.28C271.348 754.83 278.998 749.58 288.748 749.58C302.248 749.58 309.448 757.83 309.448 771.33V823.53H291.448V823.52Z" fill="#00308F"/>
<path d="M374.401 825.469C345.301 825.469 326.551 803.869 326.551 771.919C326.551 739.819 345.601 718.069 374.701 718.069C387.001 718.069 396.151 721.219 404.101 726.619L402.001 741.019C394.501 735.319 385.651 730.969 374.551 730.969C353.551 730.969 341.101 746.869 341.101 771.769C341.101 796.669 353.701 812.419 374.551 812.419C385.651 812.419 395.401 808.069 403.651 802.069L405.751 815.419C397.801 821.269 386.251 825.469 374.401 825.469Z" fill="#00308F"/>
<path d="M466.938 823.52L465.438 813.92C459.738 819.77 451.938 825.02 440.238 825.02C427.338 825.02 419.238 817.22 419.238 805.07C419.238 787.22 434.538 780.17 464.388 777.02V774.02C464.388 765.02 458.988 761.87 450.738 761.87C442.038 761.87 433.788 764.57 425.988 768.02L424.188 756.47C432.738 753.02 440.838 750.47 451.938 750.47C469.338 750.47 477.738 757.52 477.738 773.42V823.52H466.938ZM464.388 787.23C437.988 789.78 432.438 796.98 432.438 804.33C432.438 810.18 436.338 813.93 443.088 813.93C450.888 813.93 458.388 810.03 464.388 803.88V787.23Z" fill="#00308F"/>
<path d="M543.441 823.52V774.78C543.441 767.43 540.291 762.479 532.491 762.479C525.441 762.479 518.241 767.13 511.791 774.03V823.53H498.441V751.979H509.091L510.741 762.33C517.491 756.18 525.891 750.479 536.091 750.479C549.591 750.479 556.791 758.579 556.791 771.479V823.53H543.441V823.52Z" fill="#00308F"/>
<path d="M620.841 823.52L619.341 813.92C613.641 819.77 605.841 825.02 594.141 825.02C581.241 825.02 573.141 817.22 573.141 805.07C573.141 787.22 588.441 780.17 618.291 777.02V774.02C618.291 765.02 612.891 761.87 604.641 761.87C595.941 761.87 587.691 764.57 579.891 768.02L578.091 756.47C586.641 753.02 594.741 750.47 605.841 750.47C623.241 750.47 631.641 757.52 631.641 773.42V823.52H620.841ZM618.291 787.23C591.891 789.78 586.341 796.98 586.341 804.33C586.341 810.18 590.241 813.93 596.991 813.93C604.791 813.93 612.291 810.03 618.291 803.88V787.23Z" fill="#00308F"/>
<path d="M701.389 823.52L699.739 813.17C694.339 819.62 686.989 825.02 676.489 825.02C661.039 825.02 648.289 813.77 648.289 789.77C648.289 763.67 663.289 751.07 680.689 751.07C687.739 751.07 694.189 752.42 698.689 754.22V717.32L712.039 715.22V823.52H701.389ZM698.689 766.38C693.139 763.53 688.789 762.33 681.139 762.33C669.889 762.33 661.789 771.48 661.789 789.18C661.789 804.93 668.839 813.18 678.439 813.18C686.689 813.18 692.989 808.23 698.689 800.58V766.38Z" fill="#00308F"/>
<path d="M740.839 737.58C736.189 737.58 732.289 733.83 732.289 729.18C732.289 724.53 736.189 720.63 740.839 720.63C745.489 720.63 749.239 724.53 749.239 729.18C749.239 733.83 745.489 737.58 740.839 737.58ZM734.089 823.52V751.98H747.439V823.53H734.089V823.52Z" fill="#00308F"/>
<path d="M798.591 825.02C779.991 825.02 765.441 813.77 765.441 787.52C765.441 764.57 778.941 750.47 796.941 750.47C817.791 750.47 827.391 766.52 827.391 786.32V789.17H778.791C779.241 805.82 787.191 813.62 799.641 813.62C809.991 813.62 817.491 809.57 825.291 803.42L827.241 815.42C819.591 821.42 810.441 825.02 798.591 825.02ZM779.391 779.13H813.891C812.241 767.58 807.141 760.98 796.791 760.98C788.541 760.98 781.491 766.98 779.391 779.13Z" fill="#00308F"/>
<path d="M889.34 823.52V774.78C889.34 767.43 886.19 762.479 878.39 762.479C871.34 762.479 864.14 767.13 857.69 774.03V823.53H844.34V751.979H854.99L856.64 762.33C863.39 756.18 871.79 750.479 881.99 750.479C895.49 750.479 902.69 758.579 902.69 771.479V823.53H889.34V823.52Z" fill="#00308F"/>
<path d="M945.139 825.02C935.689 825.02 925.189 821.72 919.039 818.27L920.989 805.67C927.739 810.32 936.439 813.92 946.189 813.92C955.339 813.92 960.739 810.47 960.739 804.47C960.739 797.87 956.689 795.47 943.789 792.32C926.989 788.12 920.239 783.02 920.239 770.27C920.239 758.87 929.839 750.47 945.439 750.47C954.289 750.47 962.239 752.27 968.989 755.27L966.889 767.87C960.589 764.27 952.639 761.72 945.139 761.72C937.039 761.72 932.839 764.87 932.839 769.97C932.839 774.77 936.439 777.47 947.689 780.32C965.389 784.82 973.339 789.92 973.339 803.57C973.339 816.62 963.589 825.02 945.139 825.02Z" fill="#00308F"/>
<path d="M183.542 912.667C183.542 924.023 175.923 931.447 165.756 931.447C163.56 931.542 161.371 931.129 159.36 930.241C157.348 929.354 155.568 928.014 154.158 926.328H154.037V945.739H145.617V894.154H154.037V898.594H154.182C155.631 896.949 157.428 895.647 159.443 894.783C161.457 893.918 163.639 893.513 165.829 893.596C175.923 893.596 183.542 901.578 183.542 912.667ZM174.977 912.667C174.977 905.606 170.269 901.19 164.398 901.19C162.928 901.197 161.475 901.504 160.128 902.094C158.782 902.683 157.57 903.542 156.568 904.617C155.565 905.692 154.794 906.961 154.3 908.345C153.806 909.73 153.601 911.2 153.697 912.667C153.624 914.112 153.848 915.556 154.356 916.911C154.865 918.265 155.646 919.5 156.651 920.54C157.657 921.58 158.866 922.402 160.203 922.955C161.539 923.508 162.975 923.781 164.422 923.756C165.857 923.782 167.282 923.511 168.606 922.959C169.931 922.407 171.127 921.586 172.119 920.549C173.111 919.512 173.877 918.28 174.368 916.932C174.86 915.583 175.067 914.148 174.977 912.716V912.667Z" fill="#6B6B6B"/>
<path d="M227.675 894.153V930.84H219.644V925.987C218.29 927.783 216.521 929.224 214.489 930.188C212.456 931.151 210.221 931.608 207.973 931.519C197.782 931.519 190.188 924.095 190.188 912.739C190.188 901.383 197.782 893.667 207.9 893.667C210.032 893.576 212.157 893.965 214.118 894.804C216.079 895.644 217.827 896.914 219.232 898.52H219.377V894.153H227.675ZM209.162 923.803C210.587 923.799 211.996 923.504 213.303 922.937C214.611 922.37 215.789 921.542 216.765 920.504C217.742 919.466 218.496 918.24 218.983 916.901C219.47 915.562 219.678 914.137 219.596 912.715C219.596 906.212 215.228 901.238 209.21 901.238C203.193 901.238 198.631 905.654 198.631 912.715C198.53 914.15 198.729 915.59 199.215 916.944C199.7 918.298 200.463 919.536 201.454 920.579C202.444 921.622 203.641 922.448 204.968 923.003C206.295 923.558 207.724 923.83 209.162 923.803Z" fill="#6B6B6B"/>
<path d="M259.269 893.643V903.009C258.323 903.009 257.328 903.009 256.721 903.009C255.346 902.959 253.975 903.202 252.701 903.722C251.426 904.242 250.277 905.028 249.329 906.026C248.382 907.024 247.657 908.212 247.204 909.512C246.75 910.812 246.579 912.193 246.7 913.564V930.961H238.305V894.153H246.7V899.661H246.821C248.1 897.813 249.802 896.298 251.786 895.242C253.77 894.187 255.978 893.622 258.225 893.595C258.574 893.584 258.923 893.601 259.269 893.643Z" fill="#6B6B6B"/>
<path d="M341.017 877.41V930.791H331.942V895.05L317.384 920.576H311.294L296.735 895.05H296.614V930.84H287.539V877.459H296.662L314.278 909.439H314.424L331.991 877.459L341.017 877.41Z" fill="#6B6B6B"/>
<path d="M350.864 912.569C350.787 908.744 351.85 904.983 353.919 901.764C355.987 898.546 358.967 896.016 362.478 894.498C365.99 892.979 369.874 892.54 373.636 893.237C377.397 893.934 380.866 895.736 383.601 898.411C386.335 901.087 388.211 904.516 388.989 908.262C389.767 912.008 389.412 915.901 387.97 919.444C386.527 922.987 384.063 926.021 380.89 928.159C377.717 930.296 373.98 931.441 370.154 931.446C367.621 931.578 365.088 931.184 362.716 930.287C360.343 929.391 358.182 928.012 356.369 926.238C354.556 924.464 353.131 922.333 352.184 919.98C351.236 917.628 350.787 915.104 350.864 912.569ZM380.83 912.569C380.73 910.47 380.016 908.447 378.777 906.751C377.537 905.055 375.826 903.76 373.857 903.027C371.888 902.294 369.747 902.156 367.7 902.63C365.653 903.103 363.791 904.168 362.343 905.691C360.896 907.214 359.928 909.128 359.559 911.196C359.191 913.265 359.437 915.396 360.269 917.325C361.101 919.254 362.482 920.897 364.239 922.049C365.996 923.2 368.053 923.81 370.154 923.803C371.604 923.805 373.04 923.512 374.373 922.941C375.706 922.369 376.908 921.533 377.907 920.482C378.907 919.43 379.681 918.186 380.183 916.826C380.686 915.466 380.906 914.017 380.83 912.569Z" fill="#6B6B6B"/>
<path d="M419.144 893.643V903.009C418.173 903.009 417.203 903.009 416.596 903.009C415.221 902.959 413.85 903.202 412.576 903.722C411.301 904.242 410.152 905.028 409.204 906.026C408.257 907.024 407.532 908.212 407.079 909.512C406.625 910.812 406.454 912.193 406.575 913.564V930.961H398.18V894.153H406.575V899.661H406.696C407.975 897.813 409.677 896.298 411.661 895.242C413.645 894.187 415.853 893.622 418.1 893.595C418.449 893.584 418.798 893.601 419.144 893.643Z" fill="#6B6B6B"/>
<path d="M460.466 909.245V930.889H452.023V911.478C452.023 903.713 449.111 901.287 444.064 901.287C438.362 901.287 434.552 905.266 434.552 912.448V930.889H426.133V894.153H434.552V899.2C436.072 897.428 437.96 896.008 440.085 895.04C442.21 894.072 444.52 893.579 446.854 893.595C455.031 893.595 460.466 898.23 460.466 909.245Z" fill="#6B6B6B"/>
<path d="M504.097 915.433H477.406C477.83 917.864 479.126 920.056 481.052 921.597C482.978 923.139 485.4 923.924 487.864 923.804C489.621 923.838 491.362 923.463 492.949 922.709C494.536 921.955 495.927 920.844 497.012 919.461L502.884 924.508C501.026 926.789 498.661 928.604 495.978 929.809C493.294 931.014 490.366 931.575 487.428 931.448C484.92 931.545 482.419 931.119 480.085 930.197C477.75 929.275 475.634 927.877 473.869 926.093C472.105 924.308 470.732 922.175 469.837 919.83C468.942 917.485 468.545 914.98 468.671 912.473C468.671 901.239 476.339 893.596 486.554 893.596C497.376 893.596 504.364 901.384 504.364 912.085C504.344 913.205 504.255 914.324 504.097 915.433ZM477.406 908.639H495.774C495.413 906.554 494.31 904.669 492.67 903.331C491.029 901.994 488.961 901.294 486.845 901.36C484.685 901.298 482.57 901.99 480.865 903.319C479.16 904.648 477.971 906.529 477.504 908.639H477.406Z" fill="#6B6B6B"/>
<path d="M548.375 894.152V930.839H540.343V925.987C538.989 927.783 537.22 929.224 535.188 930.187C533.155 931.151 530.92 931.608 528.672 931.519C518.506 931.519 510.887 924.094 510.887 912.739C510.887 901.383 518.506 893.667 528.599 893.667C530.734 893.577 532.862 893.966 534.827 894.806C536.792 895.646 538.544 896.915 539.955 898.52H540.101V894.152H548.375ZM529.861 923.803C531.286 923.799 532.695 923.504 534.003 922.937C535.31 922.37 536.488 921.542 537.464 920.504C538.441 919.466 539.195 918.24 539.682 916.901C540.169 915.561 540.377 914.137 540.295 912.714C540.295 906.211 535.927 901.237 529.91 901.237C523.892 901.237 519.331 905.653 519.331 912.714C519.233 914.15 519.435 915.591 519.923 916.945C520.412 918.299 521.177 919.537 522.169 920.58C523.162 921.622 524.36 922.447 525.689 923.002C527.017 923.557 528.446 923.83 529.885 923.803H529.861Z" fill="#6B6B6B"/>
<path d="M591.834 894.153V930.841H583.438V925.988H583.317C581.95 927.666 580.225 929.018 578.269 929.946C576.313 930.873 574.175 931.353 572.01 931.35C563.93 931.35 558.301 927.298 558.301 916.403V894.153H566.72V914.22C566.72 921.499 568.928 923.755 574 923.755C579.071 923.755 583.463 919.655 583.463 911.623V894.153H591.834Z" fill="#6B6B6B"/>
<path d="M639.61 931.447C635.975 931.447 632.379 930.704 629.041 929.265C625.703 927.825 622.694 925.719 620.199 923.076L625.926 916.039C627.566 918.134 629.641 919.847 632.008 921.062C634.374 922.277 636.977 922.964 639.635 923.076C645.507 923.076 648.515 920.504 648.515 916.549C648.515 911.914 644.949 910.41 638.203 908.032C630.123 905.169 622.068 901.529 622.068 891.799C622.068 883.38 629.711 876.877 639.052 876.853C645.539 876.932 651.798 879.256 656.765 883.428L651.354 890.537C647.953 887.313 643.534 885.374 638.858 885.054C634.758 885.054 631.579 887.335 631.409 891.29C631.239 895.245 634.927 896.555 641.406 899.03C650.554 902.597 657.93 905.144 657.93 915.457C657.93 926.472 648.054 931.447 639.513 931.447H639.61Z" fill="#6B6B6B"/>
<path d="M688.015 893.595C696.095 893.595 701.724 897.938 701.724 908.881V930.889H693.304V911.041C693.304 903.762 690.417 901.335 685.346 901.335C679.28 901.335 675.47 905.096 675.47 912.278V930.937H667.051V875.47H675.47V898.739H675.616C677.203 897.056 679.128 895.727 681.265 894.84C683.402 893.954 685.702 893.529 688.015 893.595Z" fill="#6B6B6B"/>
<path d="M745.353 915.433H718.662C719.09 917.866 720.392 920.058 722.322 921.599C724.251 923.141 726.677 923.925 729.144 923.804C730.9 923.832 732.639 923.455 734.225 922.701C735.812 921.948 737.203 920.839 738.292 919.461L744.164 924.508C742.295 926.795 739.918 928.613 737.221 929.818C734.525 931.023 731.585 931.581 728.635 931.448C726.127 931.545 723.626 931.119 721.292 930.197C718.957 929.275 716.841 927.877 715.076 926.093C713.312 924.308 711.939 922.175 711.044 919.83C710.149 917.485 709.752 914.98 709.878 912.473C709.878 901.239 717.546 893.596 727.761 893.596C738.607 893.596 745.571 901.384 745.571 912.085C745.58 913.205 745.507 914.324 745.353 915.433ZM718.662 908.639H737.03C736.668 906.554 735.566 904.669 733.925 903.331C732.285 901.994 730.216 901.294 728.101 901.36C725.94 901.298 723.825 901.99 722.12 903.319C720.415 904.648 719.227 906.529 718.759 908.639H718.662Z" fill="#6B6B6B"/>
<path d="M792.182 912.667C792.182 924.023 784.588 931.447 774.421 931.447C772.221 931.538 770.03 931.124 768.016 930.237C766.001 929.349 764.216 928.012 762.799 926.328V945.739H754.379V894.154H762.604V898.594H762.75C764.199 896.949 765.996 895.647 768.01 894.783C770.025 893.918 772.206 893.513 774.397 893.596C784.588 893.596 792.182 901.578 792.182 912.667ZM783.641 912.667C783.641 905.606 778.934 901.19 773.062 901.19C771.591 901.193 770.137 901.499 768.789 902.087C767.44 902.675 766.227 903.533 765.224 904.609C764.221 905.685 763.45 906.955 762.957 908.341C762.465 909.727 762.262 911.2 762.362 912.667C762.288 914.112 762.513 915.556 763.021 916.911C763.529 918.265 764.31 919.5 765.316 920.54C766.322 921.58 767.531 922.402 768.867 922.955C770.204 923.508 771.64 923.781 773.087 923.756C774.521 923.782 775.946 923.511 777.271 922.959C778.596 922.407 779.792 921.586 780.784 920.549C781.775 919.512 782.541 918.28 783.033 916.932C783.525 915.583 783.732 914.148 783.641 912.716V912.667Z" fill="#6B6B6B"/>
<path d="M834.28 915.433H807.59C808.013 917.864 809.309 920.056 811.235 921.597C813.161 923.139 815.584 923.924 818.048 923.804C819.805 923.838 821.545 923.463 823.133 922.709C824.72 921.955 826.111 920.844 827.195 919.461L833.067 924.508C831.21 926.789 828.845 928.604 826.161 929.809C823.478 931.014 820.55 931.575 817.611 931.448C815.103 931.545 812.603 931.119 810.268 930.197C807.934 929.275 805.817 927.877 804.053 926.093C802.288 924.308 800.915 922.175 800.02 919.83C799.125 917.485 798.728 914.98 798.855 912.473C798.855 901.239 806.522 893.596 816.738 893.596C827.559 893.596 834.547 901.384 834.547 912.085C834.528 913.205 834.439 914.324 834.28 915.433ZM807.59 908.639H825.958C825.596 906.554 824.494 904.669 822.853 903.331C821.213 901.994 819.144 901.294 817.029 901.36C814.868 901.298 812.753 901.99 811.048 903.319C809.343 904.648 808.155 906.529 807.687 908.639H807.59Z" fill="#6B6B6B"/>
<path d="M843.742 875.47H852.162V930.84H843.742V875.47Z" fill="#6B6B6B"/>
<path d="M864.199 875.47H872.619V930.84H864.199V875.47Z" fill="#6B6B6B"/>
</svg>
