<svg width="694" height="166" viewBox="0 0 694 166" fill="none" xmlns="http://www.w3.org/2000/svg">
<path d="M659.523 0.99826H684.739V51.4271H659.523V0.99826ZM615.879 26.2127L614.424 26.6976C614.424 26.6976 623.153 33.9709 623.153 34.4558C623.638 34.9407 624.123 34.9407 623.638 36.3954C623.153 37.8501 622.668 39.3048 622.668 39.3048C622.668 39.3048 630.427 37.8501 631.397 37.3652C632.366 37.3652 632.851 37.3652 632.851 38.335C632.851 39.3048 632.366 47.5479 632.366 47.5479H634.791C634.791 47.5479 634.306 38.8199 634.306 38.335C634.306 37.3652 634.791 37.3652 635.761 37.3652C636.731 37.3652 644.49 39.3048 644.49 39.3048C644.49 39.3048 644.005 37.3652 643.52 36.3954C643.035 34.9407 643.52 34.9407 644.005 34.4558C644.49 33.9709 652.734 26.6976 652.734 26.6976L651.279 26.2127C650.309 25.7278 650.794 25.2429 650.794 24.758C650.794 24.2731 652.249 19.4242 652.249 19.4242C652.249 19.4242 648.369 20.394 647.884 20.394C647.399 20.394 646.914 20.394 646.914 19.9091C646.914 19.4242 645.945 17.4846 645.945 17.4846C645.945 17.4846 641.58 22.3335 641.095 22.8184C640.125 23.7882 639.156 22.8184 639.64 21.8486C639.64 20.8789 642.065 10.6961 642.065 10.6961C642.065 10.6961 639.64 12.1508 638.671 12.6357C637.701 13.1206 637.216 13.1206 637.216 12.1508C636.731 11.181 633.821 5.84718 633.821 5.36229C633.821 5.36229 630.912 11.181 630.427 12.1508C629.942 13.1206 629.457 13.1206 628.972 12.6357C628.002 12.1508 625.577 10.6961 625.577 10.6961C625.577 10.6961 628.002 20.8789 628.002 21.8486C628.002 22.8184 627.517 23.3033 626.547 22.8184L621.698 17.4846C621.698 17.4846 621.213 18.9393 620.728 19.4242C620.728 19.9091 620.243 20.394 619.758 19.9091C618.788 19.9091 614.909 18.9393 614.909 18.9393C614.909 18.9393 616.364 23.7882 616.849 24.2731C616.849 24.758 616.849 25.7278 615.879 26.2127ZM583.388 0.99826H608.605V51.4271H583.388V0.99826Z" fill="#FF0000"/>
<path d="M690.073 152.285C688.134 156.649 684.254 158.104 681.83 158.104C678.92 158.104 670.191 157.619 670.191 134.829C670.191 134.829 670.191 88.7639 670.191 85.8545C670.191 70.8229 658.553 58.7005 628.487 58.7005C595.997 58.7005 595.512 74.702 595.512 78.5811C595.027 82.9452 597.452 87.7941 605.695 87.7941C612.969 87.7941 614.909 79.5509 615.879 76.6416C616.849 73.2473 617.334 63.5495 630.427 63.5495C641.58 63.5495 648.369 73.2473 648.854 87.3092C648.854 89.7337 648.854 91.1883 648.854 92.643C648.854 93.6128 648.854 94.0977 648.854 95.0675V95.5524C647.884 100.401 645.46 102.826 641.095 104.765C635.276 107.675 618.304 110.099 616.364 110.584C609.575 112.039 590.663 116.888 591.147 136.768C591.632 156.164 611.03 162.952 624.608 162.468C637.701 161.983 645.46 156.649 648.854 153.739C650.794 152.285 650.794 152.285 652.249 154.224C654.188 156.164 660.493 162.468 675.525 162.468C691.043 162.468 692.983 155.194 693.953 152.77C694.438 151.315 691.043 149.86 690.073 152.285ZM629.457 157.619C615.879 157.619 612.484 146.466 612.484 140.647C612.484 135.314 615.394 124.161 628.972 116.403C628.972 116.403 635.276 112.524 647.399 107.675C647.884 107.675 648.369 107.675 648.369 107.675C648.369 107.675 648.854 108.16 648.854 108.644V109.129V109.614V129.98C648.854 145.981 641.095 157.619 629.457 157.619ZM584.843 157.134C582.904 156.649 570.78 158.104 570.78 121.252C570.78 84.3998 570.78 5.36237 570.78 5.36237C570.78 3.90769 570.78 0.0285524 566.416 0.0285524C562.052 0.0285524 532.956 1.48323 531.016 1.96812C529.076 1.96812 527.622 4.39258 531.016 4.39258C534.411 4.87748 549.928 5.84726 549.928 31.5466C549.928 44.1538 549.928 56.761 549.928 65.9739C549.928 66.4588 549.928 66.9437 549.928 66.9437C549.928 67.9135 549.928 68.3984 549.443 68.8833C549.443 68.8833 549.443 68.8833 549.443 69.3682C548.958 69.8531 548.474 69.3682 547.019 68.3984C544.594 66.4588 533.441 59.6703 519.378 59.6703C496.586 59.6703 468.46 76.1567 468.46 110.099C468.46 146.466 494.161 163.922 520.832 163.922C533.926 163.922 543.139 158.104 546.534 156.164C550.413 153.739 549.928 154.224 550.413 157.619C550.898 160.043 550.413 164.892 557.202 164.407C564.476 163.437 581.934 161.498 585.328 161.013C588.723 159.558 587.753 157.619 584.843 157.134ZM524.712 158.588C503.375 158.588 492.222 133.374 492.222 109.129C492.222 82.4603 507.254 64.5192 523.257 65.489C544.109 66.9437 549.443 83.4301 549.928 113.008C549.928 114.948 549.928 116.888 549.928 119.312C549.443 148.406 537.32 158.588 524.712 158.588ZM467.975 152.285C466.035 156.649 462.156 158.104 459.731 158.104C456.822 158.104 448.093 157.619 448.093 134.829C448.093 134.829 448.093 88.7639 448.093 85.8545C448.093 70.8229 436.454 58.7005 406.389 58.7005C373.898 58.7005 373.413 74.702 373.413 78.5811C372.928 82.9452 375.353 87.7941 383.597 87.7941C390.871 87.7941 392.811 79.5509 393.78 76.6416C394.75 73.2473 395.235 63.5495 408.328 63.5495C419.482 63.5495 426.756 73.2473 426.756 87.7941V88.279C426.756 88.7639 426.756 89.2488 426.756 89.2488V90.7034C426.756 91.1883 426.756 92.1581 426.756 92.643C426.271 99.9164 424.331 102.341 418.512 105.25C412.693 108.16 395.72 110.584 393.78 111.069C386.991 112.524 368.079 117.373 368.564 137.253C369.049 156.649 388.446 163.437 402.024 162.952C415.117 162.468 422.876 157.134 426.271 154.224C428.211 152.77 428.211 152.77 429.665 154.709C431.605 156.649 437.909 162.952 452.942 162.952C468.46 162.952 470.4 155.679 471.369 153.255C472.339 151.315 469.43 149.86 467.975 152.285ZM407.844 157.619C394.265 157.619 390.871 146.466 390.871 140.647C390.871 135.314 393.781 124.161 407.359 116.403C407.359 116.403 413.663 112.524 425.786 107.675C426.271 107.675 426.756 107.675 426.756 107.675V108.16C426.756 108.644 426.756 109.129 426.756 110.099V109.614C426.756 109.614 426.756 109.614 426.756 110.099V130.465C426.756 145.981 418.997 157.619 407.844 157.619ZM361.29 157.134C357.411 156.164 350.622 151.8 350.622 130.465V91.6732C350.622 82.4603 351.591 58.7005 315.222 58.7005C296.309 58.7005 285.641 68.3984 284.671 68.8833C283.216 70.338 282.246 70.8229 281.761 68.3984C281.276 66.4588 280.307 63.5495 279.822 61.6099C279.337 60.1552 278.367 58.7005 274.972 59.1854C271.578 59.6703 250.241 63.0646 246.361 64.0344C242.967 65.0041 243.937 66.4588 246.361 66.9437C248.786 67.4286 260.424 68.3984 260.424 88.279C260.424 108.16 260.424 129.98 260.424 129.98C260.424 154.224 255.575 156.164 251.211 157.619C245.392 159.073 248.301 161.013 250.726 161.013C250.726 161.013 293.885 161.013 294.855 161.013C297.764 161.013 299.219 158.104 293.4 157.134C287.581 156.164 282.246 152.77 282.246 133.859C282.246 131.919 282.246 111.069 282.246 107.19C282.246 97.007 279.822 65.9739 307.948 65.489C327.83 65.0041 329.77 81.4905 329.77 92.1581V133.374C329.77 150.345 324.92 155.679 319.101 156.649C313.767 157.619 314.737 160.043 317.646 160.043C318.616 160.043 362.745 160.043 362.745 160.043C365.17 161.013 367.594 158.588 361.29 157.134ZM243.452 152.285C241.512 156.649 237.633 158.104 235.208 158.104C232.298 158.104 223.57 157.619 223.57 134.829C223.57 134.829 223.57 88.7639 223.57 85.8545C223.57 70.8229 211.931 58.7005 181.866 58.7005C149.375 58.7005 148.89 74.702 148.89 78.5811C148.405 82.9452 150.83 87.7941 159.074 87.7941C166.348 87.7941 168.288 79.5509 169.257 76.6416C170.227 73.2473 170.712 63.5495 183.805 63.5495C194.959 63.5495 201.748 73.2473 202.233 87.3092C202.233 89.7337 202.233 91.1883 202.233 92.643C202.233 93.6128 202.233 94.5826 201.748 95.0675V95.5524C200.778 100.401 198.353 102.826 193.989 104.765C188.17 107.675 171.197 110.099 169.257 110.584C162.468 112.039 143.556 116.888 144.041 136.768C144.526 156.164 163.923 162.952 177.501 162.468C190.594 161.983 198.353 156.649 201.748 153.739C203.687 152.285 203.687 152.285 205.142 154.224C207.082 156.164 213.386 162.468 228.419 162.468C243.937 162.468 245.876 155.194 246.846 152.77C247.816 151.315 244.422 149.86 243.452 152.285ZM182.835 157.619C169.257 157.619 165.863 146.466 165.863 140.647C165.863 134.829 168.772 124.161 182.351 116.403C182.351 116.403 188.655 112.524 200.778 107.675C201.263 107.675 201.748 107.675 201.748 107.675C201.748 107.675 202.233 108.16 202.233 108.644C202.233 108.644 202.233 109.129 202.233 109.614V110.099V130.465C202.233 145.981 194.474 157.619 182.835 157.619ZM136.282 115.433C131.433 130.95 122.219 156.164 88.7588 157.134C53.8438 157.619 32.9917 133.859 32.0219 89.7337C30.5671 42.6991 50.9342 6.81705 82.4547 5.84726C117.855 5.36237 130.463 47.548 130.948 53.8516C131.433 58.7005 137.737 58.2156 137.737 53.3667C137.737 50.9423 134.827 9.24151 133.857 4.39258C132.888 -0.45634 129.008 1.48323 128.038 3.4228C127.553 4.87748 128.523 1.96812 126.583 6.33215C124.644 10.6962 119.309 8.27172 117.37 7.78683C111.551 5.36237 100.397 -0.45634 82.4547 0.0285524C41.2356 0.998337 -0.953453 31.5466 0.0164091 84.8847C0.986271 136.768 42.6904 165.862 81.4848 165.377C116.885 164.892 136.767 142.587 142.586 116.888C144.526 110.584 138.222 109.129 136.282 115.433Z" fill="black"/>
</svg>
