<svg width="147" height="40" viewBox="0 0 147 40" fill="none" xmlns="http://www.w3.org/2000/svg">
<path d="M14.6533 20.3569L13.8638 9.46273L10.1449 20.4001H7.66749L3.92685 9.46273L3.18013 20.3569H0.637695L1.77022 5.4408H5.35909L9.09845 16.704L12.8168 5.4408H16.3419L17.4744 20.3569H14.6533Z" fill="#00565F"/>
<path d="M25.8969 20.6381C21.7093 20.6381 18.994 17.5252 18.994 12.9206C18.994 8.29484 21.7303 5.16064 25.9384 5.16064C30.17 5.16064 32.8419 8.27355 32.8419 12.8774C32.8419 17.4826 30.1279 20.6381 25.8969 20.6381ZM25.9173 7.54C23.3959 7.54 21.8795 9.63419 21.8795 12.9C21.8795 16.1639 23.3959 18.2619 25.9173 18.2619C28.4604 18.2619 29.9768 16.1639 29.9768 12.9C29.9768 9.63419 28.4394 7.54 25.9173 7.54Z" fill="#00565F"/>
<path d="M45.7913 19.9685L42.9071 20.5092L39.0619 14.6505H37.7801V20.3563H34.9584V5.4408H39.5305C42.8223 5.4408 44.8093 7.01951 44.8093 9.91564C44.8093 12.0776 43.6768 13.4395 41.8613 14.1098L45.7913 19.9685ZM39.3176 7.73305H37.7578V12.4666H39.19C40.9417 12.4666 42.0315 11.6247 42.0315 10.0666C42.0315 8.57563 41.0916 7.73305 39.3176 7.73305Z" fill="#00565F"/>
<path d="M57.2031 20.3569L50.2601 10.0892V20.3569H47.6328V5.4408H50.3028L56.927 15.2131V5.4408H59.5549V20.3569H57.2031Z" fill="#00565F"/>
<path d="M62.5916 20.3569V5.4408H71.1607V7.86273H65.3916V11.3647H69.8356L70.2208 13.8292H65.3923V17.9369H71.579L70.6653 20.3582H62.5916V20.3569Z" fill="#00565F"/>
<path d="M83.3692 20.5097L81.9605 16.5743H76.3821L75.0359 20.3581H72.2352L77.7697 5.37683H80.7853L86.1896 19.9904L83.3692 20.5097ZM79.1585 8.48909L77.1511 14.2394H81.1679L79.1585 8.48909Z" fill="#00565F"/>
<path d="M92.8783 20.6169C89.3098 20.6169 86.9823 18.4769 86.9823 14.586V5.4408H89.8034V14.4343C89.8034 16.704 90.8294 18.1305 92.9006 18.1305C94.9941 18.1305 96.0418 16.7918 96.0418 14.4995V5.4408H98.8827V14.5202C98.8827 18.4769 96.448 20.6169 92.8783 20.6169Z" fill="#00565F"/>
<path d="M30.6138 39.4587C28.8181 39.4587 27.2787 39.0484 25.976 38.4226L26.4026 35.8045C27.6422 36.5426 29.1816 37.1252 30.6559 37.1252C31.9593 37.1252 32.8559 36.4955 32.8559 35.3077C32.8559 34.2065 32.3438 33.7529 30.2051 32.8219C27.3438 31.6348 26.1883 30.6832 26.1883 28.3697C26.1883 25.7316 28.1983 24.1968 30.9543 24.1968C32.62 24.1968 33.7754 24.5419 34.8435 25.1039L34.4163 27.6981C33.3475 26.9858 32.0881 26.531 30.9333 26.531C29.5234 26.531 28.9029 27.2226 28.9029 28.1303C28.9029 29.0839 29.3729 29.5374 31.4249 30.4019C34.4603 31.6561 35.5699 32.7142 35.5699 35.029C35.5699 37.9458 33.454 39.4587 30.6138 39.4587Z" fill="#00565F"/>
<path d="M46.5393 39.2871V32.8007H40.2798V39.2871H37.437V24.3684H40.2798V30.2491H46.5393V24.3684H49.3821V39.2852H46.5393V39.2871Z" fill="#00565F"/>
<path d="M52.2676 39.2871V24.3684H60.8361V26.7916H55.0683V30.2929H59.511L59.8962 32.7568H55.0676V36.8645H61.0484V39.2852H52.2676V39.2871Z" fill="#00565F"/>
<path d="M67.4195 33.7949H66.1588V39.2871H63.3396V24.3684H67.6541C71.03 24.3684 73.0604 25.9471 73.0604 28.9523C73.0604 32.1742 70.7966 33.7949 67.4195 33.7949ZM67.5049 26.6613H66.1588V31.4826H67.3978C69.2146 31.4826 70.2827 30.7252 70.2827 29.0174C70.2833 27.4594 69.3204 26.6613 67.5049 26.6613Z" fill="#00565F"/>
<path d="M74.8625 39.2871V24.3684H83.4317V26.7916H77.6626V30.2929H82.1079L82.493 32.7568H77.6632V36.8645H83.6466V39.2852H74.8638V39.2871H74.8625Z" fill="#00565F"/>
<path d="M86.1826 39.2871V24.3684H89.026V36.7561H93.9406L94.3258 39.2852H86.1826V39.2871Z" fill="#00565F"/>
<path d="M96.0208 39.2871V24.3684H98.8629V36.7561H103.776L104.16 39.2852H96.0208V39.2871Z" fill="#00565F"/>
<path d="M113.604 18.5867L113.593 18.6325C113.549 18.8305 113.508 19.0292 113.473 19.2299L113.439 19.4441C113.414 19.6009 113.391 19.7576 113.372 19.9157L113.336 20.3002L113.307 20.6344C113.292 20.8802 113.285 21.1267 113.285 21.3731C113.285 28.6047 118.63 34.2699 125.457 34.2699C129.158 34.2699 132.643 32.7241 135.282 30.2641C133.42 31.2518 131.282 31.775 129.062 31.775C123.74 31.775 118.654 28.8867 116.103 24.4163C114.5 21.6073 114.083 18.377 114.795 15.3402C114.265 16.3712 113.859 17.4609 113.604 18.5867Z" fill="#23BBB8"/>
<path d="M124.938 1.37176C130.385 1.37176 135.095 3.50338 138.646 6.71499L138.748 6.80983C138.921 6.96918 139.094 7.12789 139.265 7.29241C139.946 7.95563 140.58 8.66402 141.165 9.40531L141.311 9.59692L141.69 10.1008L141.985 10.5202L142.138 10.7434C143.64 12.9692 144.708 15.4208 145.261 17.9047C145.328 14.4143 144.552 10.9956 142.991 8.26338C138.958 1.19628 130.275 -0.862431 123.644 1.44273C124.079 1.39886 124.51 1.37176 124.938 1.37176Z" fill="#23BBB8"/>
<path d="M124.938 2.50842C117.319 2.50842 108.796 9.98842 108.796 19.9987C108.796 30.7652 118.999 38.8104 128.121 38.8104C137.818 38.8104 144.576 29.8149 144.576 21.7439C144.574 12.6452 136.511 2.50842 124.938 2.50842ZM129.658 34.8033L129.576 34.8271C128.945 35.0046 128.301 35.1433 127.643 35.2426L127.425 35.2704C127.177 35.3033 126.928 35.3297 126.677 35.351L126.419 35.3697C126.1 35.3904 125.78 35.4052 125.459 35.4052C118.003 35.4052 112.163 29.2387 112.163 21.3716C112.163 13.1355 119.498 5.91229 127.859 5.91229C135.219 5.91229 141.207 12.0652 141.207 19.6291C141.207 26.7304 136.232 32.9104 129.658 34.8033Z" fill="#00565F"/>
<path d="M134.546 27.9194C134.106 28.6904 133.593 29.382 133.027 30.0033C135.924 29.5536 140.083 26.1801 140.083 19.6278C140.083 12.6904 134.6 7.04651 127.86 7.04651C127.14 7.04651 126.425 7.10973 125.722 7.22651C127.112 7.49748 128.476 8.0007 129.747 8.74328C136.028 12.4117 138.217 21.4826 134.546 27.9194Z" fill="#F3DC00"/>
<path d="M107.674 19.9987C107.674 15.6439 109.196 11.7406 111.548 8.64514C110.051 9.94514 108.79 11.4355 107.871 13.0464C103.302 21.0477 107.232 31.0793 113.969 35.0148C114.908 35.5632 115.916 36.0026 116.963 36.3471C111.666 32.8097 107.674 26.94 107.674 19.9987Z" fill="#F3DC00"/>
</svg>
