<svg width="1711" height="508" viewBox="0 0 1711 508" fill="none" xmlns="http://www.w3.org/2000/svg">
<path d="M357.25 349.277C359.728 346.8 461.424 257.778 461.424 257.778L444.097 250.346C434.202 245.497 436.77 238.956 439.142 233.109C441.514 225.586 459.052 166.475 459.052 166.475C459.052 166.475 411.814 176.37 401.92 178.847C394.487 181.219 392.025 176.37 389.548 171.415C387.07 166.46 374.698 139.329 374.698 139.329C374.698 139.329 322.611 198.637 320.134 201.023C310.239 208.456 300.224 201.023 302.701 191.129C302.701 181.234 330.029 62.8002 330.029 62.8002C330.029 62.8002 300.224 80.0365 290.329 84.9763C282.897 89.9312 277.851 89.9312 272.896 80.0214C267.851 72.5891 230.614 1 230.614 1C230.614 1 193.482 72.5891 188.527 80.0214C183.572 89.9161 178.633 89.9161 171.095 84.9763C161.2 80.0214 131.395 62.8002 131.395 62.8002C131.395 62.8002 158.723 181.234 158.723 191.129C161.2 201.023 151.29 208.456 141.29 201.023C138.812 198.546 86.7256 139.329 86.7256 139.329C86.7256 139.329 74.3535 166.354 71.8761 171.309C69.3986 176.264 66.9212 181.113 59.504 178.742C49.5036 176.264 2.37171 166.369 2.37171 166.369C2.37171 166.369 19.8044 225.481 22.2819 233.004C24.6536 238.94 27.2368 245.376 17.327 250.24L0 257.763C0 257.763 101.59 346.785 104.173 349.262C109.219 354.217 114.068 356.695 109.219 371.544C104.173 386.394 99.2186 406.304 99.2186 406.304C99.2186 406.304 193.482 386.394 203.483 383.931C212.093 383.04 221.61 386.409 221.61 396.303C221.61 406.304 215.87 508 215.87 508H245.569C245.569 508 239.829 406.304 239.829 396.303C239.829 386.409 249.24 383.04 258.047 383.931C267.941 386.409 362.22 406.304 362.22 406.304C362.22 406.304 357.265 386.394 352.326 371.544C347.386 356.695 352.295 354.232 357.25 349.277Z" fill="#AF3C43"/>
<path d="M932.597 193.537H878.01V3.30811H933.424C976.157 3.30811 996.558 22.6067 996.558 52.6573C996.558 72.5072 985.53 85.4648 968.989 92.3571C990.217 98.9738 1004.28 112.758 1004.28 138.122C1004.28 175.617 977.259 193.537 932.597 193.537ZM931.494 31.1532H913.023V81.6051H929.84C951.344 81.6051 962.648 71.9558 962.648 55.6899C962.648 40.5268 953.55 31.1532 931.494 31.1532ZM932.046 107.52H913.023V165.692H932.597C955.755 165.692 969.264 156.042 969.264 137.02C969.264 117.721 956.307 107.52 932.046 107.52Z" fill="#00308F"/>
<path d="M1049.79 38.0457C1038.76 38.0457 1029.94 30.3263 1029.94 19.2985C1029.94 7.99511 1038.76 0 1049.79 0C1060.54 0 1069.36 7.99511 1069.36 19.2985C1069.36 30.3263 1060.54 38.0457 1049.79 38.0457ZM1032.97 193.537V60.3769H1066.05V193.537H1032.97Z" fill="#00308F"/>
<path d="M1159.22 196.294C1122 196.294 1094.15 175.066 1094.15 127.095C1094.15 83.811 1120.07 57.6201 1154.8 57.6201C1194.78 57.6201 1212.7 87.6707 1212.7 125.441C1212.7 128.198 1212.42 131.506 1212.42 133.436H1126.68C1128.34 159.627 1142.4 170.654 1162.8 170.654C1179.89 170.654 1193.95 164.313 1208.57 154.113L1212.42 180.028C1198.09 189.953 1180.72 196.294 1159.22 196.294ZM1127.24 112.759H1180.44C1178.24 92.0818 1169.97 80.5027 1153.98 80.5027C1140.74 80.5027 1129.72 91.2547 1127.24 112.759Z" fill="#00308F"/>
<path d="M1319.95 193.537V106.418C1319.95 94.8388 1314.99 86.8436 1302.86 86.8436C1292.38 86.8436 1282.18 93.4603 1272.53 103.661V193.537H1239.45V60.3771H1267.57L1270.6 79.1242C1283.01 67.2694 1297.07 57.6201 1314.99 57.6201C1339.8 57.6201 1353.03 72.7833 1353.03 97.5957V193.537H1319.95Z" fill="#00308F"/>
<path d="M609.37 507C555.886 507 521.424 467.3 521.424 408.578C521.424 349.579 556.437 309.604 609.921 309.604C632.528 309.604 649.346 315.393 663.957 325.318L660.098 351.785C646.313 341.308 630.047 333.313 609.646 333.313C571.049 333.313 548.166 362.537 548.166 408.302C548.166 454.067 571.324 483.015 609.646 483.015C630.047 483.015 647.967 475.02 663.13 463.992L666.99 488.529C652.378 499.281 631.15 507 609.37 507Z" fill="#00308F"/>
<path d="M779.442 503.417L776.685 485.773C766.209 496.525 751.873 506.174 730.369 506.174C706.659 506.174 691.771 491.838 691.771 469.507C691.771 436.699 719.892 423.742 774.755 417.952V412.438C774.755 395.897 764.83 390.107 749.667 390.107C733.677 390.107 718.514 395.069 704.178 401.41L700.869 380.182C716.584 373.841 731.471 369.154 751.873 369.154C783.853 369.154 799.292 382.112 799.292 411.335V503.417H779.442ZM774.769 436.699C726.247 441.386 716.046 454.619 716.046 468.128C716.046 478.88 723.214 485.773 735.621 485.773C749.957 485.773 763.741 478.605 774.769 467.301V436.699Z" fill="#00308F"/>
<path d="M920.042 503.417V413.817C920.042 400.308 914.252 391.21 899.916 391.21C886.959 391.21 873.725 399.756 861.871 412.438V503.417H837.334V371.911H856.908L859.941 390.934C872.347 379.631 887.786 369.154 906.533 369.154C931.345 369.154 944.579 384.042 944.579 407.751V503.417H920.042Z" fill="#00308F"/>
<path d="M1062.32 503.417L1059.57 485.773C1049.09 496.525 1034.76 506.174 1013.25 506.174C989.542 506.174 974.654 491.838 974.654 469.507C974.654 436.699 1002.77 423.742 1057.64 417.952V412.438C1057.64 395.897 1047.71 390.107 1032.55 390.107C1016.56 390.107 1001.4 395.069 987.06 401.41L983.752 380.182C999.467 373.841 1014.35 369.154 1034.76 369.154C1066.74 369.154 1082.17 382.112 1082.17 411.335V503.417H1062.32ZM1057.64 436.699C1009.12 441.386 998.915 454.619 998.915 468.128C998.915 478.88 1006.08 485.773 1018.49 485.773C1032.83 485.773 1046.61 478.605 1057.64 467.301V436.699V436.699Z" fill="#00308F"/>
<path d="M1210.37 503.416L1207.33 484.394C1197.41 496.248 1183.9 506.173 1164.6 506.173C1136.21 506.173 1112.77 485.496 1112.77 441.385C1112.77 393.415 1140.34 370.256 1172.32 370.256C1185.28 370.256 1197.13 372.738 1205.4 376.046V308.225L1229.94 304.366V503.416H1210.37ZM1205.4 398.377C1195.2 393.139 1187.21 390.933 1173.15 390.933C1152.47 390.933 1137.58 407.751 1137.58 440.283C1137.58 469.23 1150.54 484.394 1168.19 484.394C1183.35 484.394 1194.93 475.296 1205.4 461.235V398.377V398.377Z" fill="#00308F"/>
<path d="M1282.87 345.443C1274.33 345.443 1267.16 338.551 1267.16 330.005C1267.16 321.458 1274.33 314.29 1282.87 314.29C1291.42 314.29 1298.31 321.458 1298.31 330.005C1298.31 338.551 1291.42 345.443 1282.87 345.443ZM1270.47 503.416V371.91H1295V503.416H1270.47Z" fill="#00308F"/>
<path d="M1389.03 506.174C1354.84 506.174 1328.1 485.497 1328.1 437.251C1328.1 395.069 1352.91 369.154 1386 369.154C1424.32 369.154 1441.96 398.653 1441.96 435.045V440.283H1352.64C1353.46 470.885 1368.08 485.221 1390.96 485.221C1409.98 485.221 1423.77 477.777 1438.1 466.474L1441.69 488.53C1427.62 499.557 1410.81 506.174 1389.03 506.174ZM1353.74 421.812H1417.15C1414.12 400.583 1404.74 388.453 1385.72 388.453C1370.56 388.453 1357.6 399.481 1353.74 421.812Z" fill="#00308F"/>
<path d="M1555.81 503.417V413.817C1555.81 400.308 1550.02 391.21 1535.68 391.21C1522.72 391.21 1509.49 399.756 1497.63 412.438V503.417H1473.1V371.911H1492.67L1495.7 390.934C1508.11 379.631 1523.55 369.154 1542.3 369.154C1567.11 369.154 1580.34 384.042 1580.34 407.751V503.417H1555.81Z" fill="#00308F"/>
<path d="M1658.38 506.174C1641.01 506.174 1621.71 500.109 1610.41 493.768L1613.99 470.609C1626.4 479.156 1642.39 485.773 1660.31 485.773C1677.12 485.773 1687.05 479.432 1687.05 468.404C1687.05 456.273 1679.61 451.862 1655.9 446.073C1625.02 438.353 1612.61 428.98 1612.61 405.546C1612.61 384.593 1630.26 369.154 1658.93 369.154C1675.19 369.154 1689.81 372.463 1702.21 377.977L1698.35 401.135C1686.77 394.518 1672.16 389.831 1658.38 389.831C1643.49 389.831 1635.77 395.621 1635.77 404.994C1635.77 413.817 1642.39 418.779 1663.06 424.017C1695.6 432.288 1710.21 441.662 1710.21 466.75C1710.21 490.735 1692.29 506.174 1658.38 506.174Z" fill="#00308F"/>
</svg>
