<svg width="1028" height="514" viewBox="0 0 1028 514" fill="none" xmlns="http://www.w3.org/2000/svg">
<path d="M357.251 355.061C359.728 352.583 461.424 263.561 461.424 263.561L444.097 256.129C434.202 251.28 436.771 244.739 439.142 238.893C441.514 231.37 459.052 172.258 459.052 172.258C459.052 172.258 411.815 182.153 401.92 184.63C394.488 187.002 392.025 182.153 389.548 177.198C387.071 172.243 374.699 145.112 374.699 145.112C374.699 145.112 322.612 204.42 320.134 206.807C310.24 214.239 300.224 206.807 302.702 196.912C302.702 187.017 330.029 68.5834 330.029 68.5834C330.029 68.5834 300.224 85.8197 290.329 90.7595C282.897 95.7144 277.852 95.7144 272.897 85.8046C267.851 78.3723 230.614 6.7832 230.614 6.7832C230.614 6.7832 193.482 78.3723 188.528 85.8046C183.573 95.6993 178.633 95.6993 171.095 90.7595C161.2 85.8046 131.395 68.5834 131.395 68.5834C131.395 68.5834 158.723 187.017 158.723 196.912C161.2 206.807 151.29 214.239 141.29 206.807C138.812 204.329 86.7257 145.112 86.7257 145.112C86.7257 145.112 74.3536 172.138 71.8761 177.092C69.3987 182.047 66.9213 186.896 59.504 184.525C49.5036 182.047 2.37171 172.153 2.37171 172.153C2.37171 172.153 19.8045 231.264 22.2819 238.787C24.6536 244.724 27.2368 251.159 17.327 256.023L0 263.546C0 263.546 101.59 352.568 104.174 355.045C109.219 360 114.068 362.478 109.219 377.327C104.174 392.177 99.2187 412.087 99.2187 412.087C99.2187 412.087 193.482 392.177 203.483 389.715C212.093 388.823 221.611 392.192 221.611 402.087C221.611 412.087 215.87 513.783 215.87 513.783H245.569C245.569 513.783 239.829 412.087 239.829 402.087C239.829 392.192 249.24 388.823 258.047 389.715C267.942 392.192 362.221 412.087 362.221 412.087C362.221 412.087 357.266 392.177 352.326 377.327C347.386 362.478 352.296 360.015 357.251 355.061Z" fill="#AF3C43"/>
<path d="M726.168 197.647H691.771L650.003 60.0583L608.236 197.647H574.111L521.424 13.6495L559.643 6.82471L594.586 141.683L633.897 8.73565H670.205L709.516 141.683L743.64 8.73565H780.221L726.168 197.647Z" fill="#00308F"/>
<path d="M845.192 199.831C808.338 199.831 780.766 178.811 780.766 131.31C780.766 88.45 806.427 62.5156 840.824 62.5156C880.408 62.5156 898.153 92.2719 898.153 129.672C898.153 132.402 897.88 135.678 897.88 137.589H812.979C814.617 163.523 828.539 174.443 848.741 174.443C865.666 174.443 879.589 168.164 894.058 158.063L897.88 183.724C883.684 193.552 866.485 199.831 845.192 199.831ZM813.525 117.114H866.212C864.028 96.6397 855.839 85.1741 840.005 85.1741C826.901 85.1741 815.982 95.8208 813.525 117.114Z" fill="#00308F"/>
<path d="M925.996 197.101V5.18685L958.755 0V197.101H925.996Z" fill="#00308F"/>
<path d="M994.795 197.101V5.18685L1027.55 0V197.101H994.795Z" fill="#00308F"/>
<path d="M655.315 507.494C602.355 507.494 568.23 468.183 568.23 410.036C568.23 351.615 602.901 312.031 655.861 312.031C678.247 312.031 694.899 317.764 709.368 327.592L705.546 353.799C691.896 343.425 675.79 335.509 655.588 335.509C617.369 335.509 594.711 364.446 594.711 409.763C594.711 455.08 617.642 483.744 655.588 483.744C675.79 483.744 693.534 475.827 708.549 464.907L712.371 489.204C697.902 499.851 676.882 507.494 655.315 507.494Z" fill="#00308F"/>
<path d="M823.771 503.945L821.041 486.474C810.667 497.12 796.471 506.675 775.178 506.675C751.701 506.675 736.959 492.479 736.959 470.367C736.959 437.881 764.804 425.05 819.13 419.317V413.857C819.13 397.478 809.302 391.745 794.287 391.745C778.454 391.745 763.439 396.659 749.244 402.938L745.968 381.917C761.528 375.638 776.27 370.998 796.471 370.998C828.139 370.998 843.426 383.828 843.426 412.766V503.945H823.771ZM819.13 437.881C771.083 442.522 760.982 455.625 760.982 469.002C760.982 479.649 768.08 486.474 780.365 486.474C794.56 486.474 808.21 479.376 819.13 468.183V437.881Z" fill="#00308F"/>
<path d="M962.99 503.945V415.222C962.99 401.846 957.257 392.837 943.061 392.837C930.23 392.837 917.127 401.3 905.388 413.857V503.945H881.092V373.727H900.474L903.477 392.564C915.762 381.371 931.049 370.998 949.613 370.998C974.182 370.998 987.286 385.739 987.286 409.217V503.945H962.99Z" fill="#00308F"/>
</svg>
